<!-- Generated by IcoMoon.io -->
<svg version="1.1" xmlns="http://www.w3.org/2000/svg" width="32" height="32" viewBox="0 0 32 32">
<title>12</title>
<path fill="#a4a9ad" d="M31.923 12.001c-0.439-3.059-3.111-4.007-4.711-4.304l1.368-0.903s-7.176-1.555-16.456 1.374c-8.479 2.678-12.758 6.879-12.048 11.829 0.439 3.059 3.111 4.007 4.717 4.304l-1.375 0.903s7.176 1.562 16.456-1.368c8.48-2.684 12.758-6.879 12.048-11.835z"></path>
<path fill="#fff" d="M31.497 12.136c-0.581-4.040-5.569-4.111-5.569-4.111l1.439-0.949s-6.808-1.104-15.178 1.536c-7.389 2.336-12.416 6.176-11.687 11.248 0.581 4.040 5.569 4.111 5.569 4.111l-1.439 0.949s6.808 1.104 15.178-1.536c7.389-2.336 12.416-6.176 11.687-11.248z"></path>
<path fill="#ce1126" d="M30.723 12.381c-0.742-5.163-8.731-4.066-12.861-2.762-1.45 0.45-2.66 0.928-3.827 1.481l0.175-0.075c7.486-2.678 12.739-0.768 12.739-0.768-2.491-0.174-4.821 0.632-4.821 0.632s2.51 0.503 2.839 2.833c0.439 3.072-2.175 6.595-10.248 9.144-2.361 0.778-5.114 1.347-7.958 1.597l-0.141 0.010s5.221 0.768 13.1-1.717c7.292-2.304 11.629-6.021 11.003-10.377z"></path>
<path fill="#ce1126" d="M16.009 18.996c2.239-0.71 4.143-1.762 5.163-2.768 0.568-0.555 0.865-1.097 0.8-1.562-0.027-0.18-0.108-0.337-0.226-0.458l0 0c-0.781-0.845-3.401-0.839-6.408 0.11-3.472 1.103-6.144 3.039-5.956 4.324 0.181 1.297 3.149 1.445 6.628 0.355z"></path>
<path fill="#111" d="M15.706 17.589c1.452-0.458 2.575-1.232 2.504-1.736-0.071-0.497-1.31-0.523-2.762-0.071-1.445 0.465-2.568 1.233-2.497 1.736 0.071 0.497 1.31 0.529 2.756 0.071z"></path>
<path fill="#111" d="M5.058 21.739c2.485 0.174 4.821-0.626 4.821-0.626s-2.51-0.51-2.846-2.839c-0.439-3.072 2.181-6.595 10.248-9.144 2.361-0.777 5.113-1.346 7.957-1.597l0.142-0.010s-5.221-0.768-13.1 1.717c-7.292 2.31-11.622 6.021-11.003 10.377 0.742 5.163 8.731 4.066 12.861 2.762 1.455-0.452 2.667-0.93 3.836-1.482l-0.177 0.075c-7.492 2.685-12.739 0.768-12.739 0.768z"></path>
<path fill="#111" d="M14.867 12.388c-2.769 0.871-4.214 1.981-4.717 3.143l-1.007 2.33s1.226-2.188 6.169-3.749c3.724-1.181 6.002-0.878 6.434 0.097 0.115 0.125 0.196 0.284 0.225 0.459l0.001 0.005c0.065 0.458-0.232 1-0.8 1.555-0.936 1.31-2.717 2.723-4.278 3.678 1.245-0.394 6.86-3.052 6.453-5.892-0.381-2.639-3.659-3.149-8.48-1.626z"></path>
</svg>
