<!-- Generated by IcoMoon.io -->
<svg version="1.1" xmlns="http://www.w3.org/2000/svg" width="32" height="32" viewBox="0 0 32 32">
<title>13</title>
<path fill="#041e42" d="M1.711 3.254v6.065c0.051 3.911 0.94 7.601 2.493 10.918l-0.069-0.163c2.67 5.784 6.597 9.191 11.864 11.926 5.224-2.713 9.178-6.105 11.864-11.926 1.485-3.154 2.374-6.845 2.425-10.737l0-0.018v-6.065c-4.418-2.3-9.469-3.253-14.289-3.253-4.775 0-9.843 0.938-14.289 3.253z"></path>
<path fill="#b9975b" d="M2.486 3.724v5.594c0.050 3.793 0.912 7.372 2.42 10.588l-0.066-0.158c2.482 5.378 6.246 8.825 11.16 11.377 4.933-2.562 8.687-6.018 11.16-11.377 1.441-3.059 2.303-6.638 2.353-10.413l0-0.018v-5.594c-3.913-2.037-9.034-2.948-13.514-2.948-4.496 0-9.609 0.915-13.514 2.948z"></path>
<path fill="#041e42" d="M21.824 15.063c0.638-0.359 1.496-1.157 1.496-1.157 0.459-1.356 0.855-3.175 0.855-3.175 0-0.18-0.217-0.471-0.217-0.471-0.207-0.083-0.449-0.149-0.701-0.185l-0.017-0.002c-0.741 0.12-1.705 0.845-2.473 1.448 0.403-0.020 0.78-0.066 1.148-0.137l-0.051 0.008c-0.14 0.359-0.638 1.296-0.638 1.296 0.337-0.009 0.659-0.052 0.969-0.126l-0.032 0.006c-0.23 0.652-0.466 1.192-0.734 1.713l0.036-0.076 0.359 0.858zM16.488 12.539q-0.15-0.064-0.301-0.124c-0.296-0.118-0.551-0.21-0.551-0.21s-0.061 0-0.181 0.014q-0.045 0.005-0.101 0.013-0.135 0.019-0.268 0.046c-0.866 0.191-1.628 0.456-2.346 0.8l0.064-0.028-0.090-0.185-0.12-0.247-1.202 1.654c0.343 0.064 0.737 0.1 1.14 0.1 0.028 0 0.056-0 0.084-0.001l-0.004 0c0.547-0.003 1.081-0.053 1.599-0.146l-0.056 0.008c0.401-0.344 0.765-0.698 1.106-1.073l0.009-0.010q0.115-0.126 0.227-0.255c0.080-0.092 0.13-0.152 0.144-0.168 0.279-0.080 0.499-0.12 0.848-0.19zM18.324 13.631c-0.678-0.539-1.117-0.685-1.117-0.685s0.041 0.771-0.019 1.015c-0.486 0.652-0.959 1.223-1.46 1.768l0.015-0.016 2.357-1.081c0.136-0.503 0.224-1.002 0.224-1.002z"></path>
<path fill="#041e42" d="M16 7.747c-7.303 0-12.15 2.366-12.539 2.562 0.231 4.558 2.119 12.789 9.904 18.165 1.042-0.558 1.736-1.496 2.149-2.227 0.821 0.992 0.906 2.377 0.906 2.378-0.074 0.533-0.221 1.016-0.432 1.463l0.013-0.030q1.017-0.528 1.982-1.148c1.066-0.688 1.991-1.394 2.857-2.164l-0.024 0.021q0.037-0.032 0.073-0.065c2.745-2.84 2.824-7.097 2.824-7.097-0.598-2.483-1.65-3.345-1.65-3.345 0.209 1.136 0.339 2.383 0.339 2.383-0.468 0.967-1.095 1.786-1.856 2.456l-0.009 0.007c-1.077 0.12-1.931 0.012-3.426-0.494-0.862-0.3-1.609-0.679-2.293-1.144l0.034 0.022c-0.098-0.005-0.213-0.007-0.328-0.007-0.259 0-0.514 0.014-0.765 0.040l0.031-0.003c-0.481 0.051-1.062 0.18-1.062 0.18 0.643-1.137 1.025-2.292 1.094-2.817-0.422-0.455-0.878-0.866-1.369-1.233l-0.026-0.019c-1.065 0.050-1.913 0.111-1.913 0.111l0.359-1.456s-0.245 0.204-0.519 0.478c-0.294 0.294-0.618 0.659-0.618 0.659-0.437 0.166-0.954 0.304-1.487 0.392l-0.048 0.007c-0.342-0.103-0.64-0.246-0.91-0.427l0.012 0.008c1.077-1.596 2.832-2.234 2.832-2.234-0.319-0.379-0.299-0.678-0.299-0.678 0.323-0.219 0.72-0.463 1.128-0.693l0.090-0.046c-0.048 0.116-0.083 0.251-0.1 0.391l-0.001 0.008c0.288-0.235 0.61-0.472 0.944-0.692l0.045-0.028c0.419-0.251 0.827-0.466 0.827-0.466 0.271-0.873 0.735-1.581 0.855-1.681 0.092-0.016 0.198-0.025 0.306-0.025 0.023 0 0.046 0 0.069 0.001l-0.003-0c0.024 0.286 0.35 0.741 0.483 0.915-0.483 0.172-0.901 0.396-1.278 0.672l0.014-0.010s1.489-0.397 2.806-0.441c1.785-0.060 2.885 0.343 2.885 0.343-0.214 0.298-0.421 0.558-0.64 0.806l0.009-0.010c2.953-1.001 3.261-1.766 4.862-2.11 0.427 0.074 0.801 0.173 1.162 0.299l-0.050-0.015c0.215 0.219 0.377 0.491 0.465 0.794l0.003 0.013c-0.219 1.705-0.907 3.621-0.907 3.621-0.539 0.658-1.466 1.257-1.466 1.257 0.927-0.12 2.304-0.539 2.304-0.539 0.856 0.625 1.979 1.982 2.445 2.566 0.781-2.095 1.3-4.519 1.445-7.042l0.003-0.067c-0.39-0.196-5.236-2.562-12.539-2.562z"></path>
<path fill="#fff" d="M7.802 19.212c0.213-0.337 0.439-0.63 0.688-0.901l-0.004 0.004-0.415-1.168c-0.151-0.139-0.288-0.287-0.413-0.446l-0.006-0.008q-0.159-0.207-0.297-0.428l-0.411 1.072c0.27 0.733 0.559 1.351 0.892 1.941l-0.034-0.066zM8.361 19.829c0.191 0.562 0.522 1.035 0.952 1.392l0.005 0.004c0.771-0.299 1.664-0.511 2.594-0.595l0.039-0.003s-1.995-0.818-3.291-1.735c-0.181 0.263-0.292 0.586-0.299 0.935l-0 0.002zM14.155 14.234c-0.462 0.085-0.996 0.135-1.54 0.138h-0.003c-0.024 0-0.052 0-0.080 0-0.403 0-0.797-0.036-1.18-0.106l0.040 0.006 0.878 0.41c0.15 0.010 0.325 0.016 0.502 0.016 0.58 0 1.145-0.064 1.689-0.185l-0.051 0.010c0.465-0.432 0.872-0.916 1.214-1.446l0.018-0.030c0.003-0.047 0.004-0.102 0.004-0.157 0-0.057-0.002-0.113-0.005-0.17l0 0.008c-0.014 0.016-0.064 0.077-0.144 0.168q-0.112 0.129-0.227 0.255c-0.35 0.385-0.714 0.739-1.099 1.069l-0.016 0.014zM11.632 19.451s0.072-0.113 0.169-0.301c-0.237-0.217-0.498-0.419-0.774-0.598l-0.023-0.014c0.032-0.001 0.071-0.001 0.109-0.001 0.327 0 0.645 0.034 0.953 0.099l-0.030-0.005c0.029-0.073 0.057-0.151 0.084-0.231-0.29-0.225-0.618-0.431-0.966-0.602l-0.034-0.015c0.201-0.028 0.432-0.044 0.668-0.044 0.175 0 0.348 0.009 0.518 0.026l-0.021-0.002c0.012-0.071 0.022-0.142 0.030-0.214-0.382-0.241-0.822-0.441-1.289-0.577l-0.037-0.009c0.256-0.085 0.557-0.152 0.867-0.188l0.021-0.002-0.395-0.464c-0.090-0.003-0.195-0.005-0.301-0.005-0.219 0-0.436 0.008-0.65 0.024l0.029-0.002c-0.617 0.041-1.183 0.122-1.183 0.122-0.094 0.071-0.237 0.184-0.343 0.267-0.141 0.126-0.267 0.264-0.379 0.414l-0.005 0.007 0.019 1.14c0.367 0.171 1.806 0.83 2.963 1.175zM17.735 22.721c0.139 0.339 0.258 0.741 0.337 1.156l0.006 0.041c0.047 0.204 0.073 0.439 0.073 0.68 0 0.103-0.005 0.205-0.014 0.305l0.001-0.013c-1.915-2.194-4.692-3.544-4.692-3.544s3.849 3.171 2.972 7.28c-0.074 0.533-0.221 1.016-0.432 1.463l0.013-0.030q1.017-0.528 1.982-1.148c1.066-0.688 1.991-1.394 2.857-2.164l-0.024 0.021c-1.080-2.42-3.081-4.046-3.081-4.046zM12.804 13.050c0.653-0.316 1.415-0.582 2.211-0.759l0.071-0.013q0.134-0.026 0.268-0.046 0.050-0.007 0.101-0.013c0.12-0.014 0.18-0.014 0.18-0.014h0c-1.392-0.246-3.042 0.414-3.042 0.414l0.12 0.247z"></path>
<path fill="#c8102e" d="M13.337 13.726c-0.052 0.016-0.112 0.026-0.174 0.026-0.156 0-0.298-0.059-0.405-0.157l0.001 0c-0.353 0.631-0.405 0.719-0.458 0.807l0.299-0.537c0.166 0.066 0.359 0.105 0.561 0.105 0.254 0 0.493-0.061 0.705-0.169l-0.009 0.004c0.242-0.114 0.427-0.315 0.516-0.562l0.002-0.007c-0.277 0.021-0.527 0.054-0.772 0.101l0.042-0.007c-0.039 0.174-0.152 0.316-0.304 0.393l-0.003 0.002zM3.434 9.291c3.762-1.712 8.424-2.492 12.566-2.492 4.128 0 8.796 0.777 12.566 2.492v-4.992s-4.947-2.576-12.566-2.576-12.566 2.576-12.566 2.576v4.992z"></path>
<path fill="#fff" d="M10.188 5.769q-0.537 0.1-1.070 0.219v-2.603q-0.328 0.073-0.655 0.153v3.26q0.857-0.21 1.724-0.371zM16.024 4.589c0.053 0 0.105 0 0.158 0.001q0.265 0.652 0.53 1.309 0.355 0.008 0.709 0.024-0.265-0.662-0.53-1.321 0.109 0.003 0.219 0.007 0.155-0.276 0.311-0.551v-0.833q-0.155-0.288-0.31-0.575-0.877-0.031-1.754-0.013v3.26q0.334-0.007 0.668-0.007v-1.301zM16.024 3.288q0.364 0 0.729 0.009v0.644q-0.365-0.009-0.729-0.009v-0.643zM5.893 6.242q0.372-0.125 0.748-0.241v-0.658q-0.375 0.116-0.748 0.241v-0.643q0.521-0.175 1.048-0.332v-0.658q-0.851 0.254-1.687 0.555v3.26q0.319-0.115 0.64-0.223v-1.301zM25.404 6.015q0.352 0.109 0.702 0.227v1.301q0.321 0.108 0.64 0.223v-2.697q-0.148-0.334-0.297-0.669-0.69-0.241-1.39-0.449-0.15 0.237-0.301 0.475v2.698q0.324 0.093 0.646 0.193v-1.301zM25.404 4.714q0.353 0.109 0.702 0.227v0.643q-0.35-0.118-0.702-0.227zM13.483 5.99q0.155-0.293 0.31-0.586v-2.134q-0.155-0.27-0.31-0.54-0.72 0.057-1.438 0.147-0.155 0.301-0.308 0.603v2.135q0.154 0.261 0.308 0.522 0.717-0.090 1.438-0.147zM12.401 3.493q0.363-0.041 0.726-0.074v1.944q-0.364 0.033-0.726 0.074zM19.646 2.84q-0.332-0.038-0.665-0.070v3.26q0.333 0.031 0.665 0.070v-3.26zM23.232 6.162v-2.134q-0.152-0.317-0.305-0.633-0.86-0.192-1.729-0.337v3.26q0.869 0.144 1.729 0.337l0.305-0.494zM22.577 5.921q-0.358-0.076-0.718-0.143v-1.944q0.36 0.068 0.718 0.144v1.944z"></path>
</svg>
