<!-- Generated by IcoMoon.io -->
<svg version="1.1" xmlns="http://www.w3.org/2000/svg" width="32" height="32" viewBox="0 0 32 32">
<title>14</title>
<path fill="#002868" d="M32 14.577c0-3.246-2.020-6.448-5.596-8.416l-1.375 1.091c2.446 1.543 3.885 3.84 3.885 6.454 0 6.093-7.532 11.617-15.909 11.617-0.002 0-0.005 0-0.008 0-0.888 0-1.76-0.068-2.611-0.199l0.095 0.012-2.827 2.098c1.714 0.585 3.688 0.923 5.741 0.923 0.042 0 0.084-0 0.125-0l-0.006 0c9.952 0 18.485-6.719 18.485-13.579z"></path>
<path fill="#002868" d="M1.362 16.868c0-6.306 7.887-11.617 15.916-11.617h0.168l-7.764 8.681 4.46-0.704-8.79 8.507 3.569-0.645-2.491 2.846c-3.027-1.433-5.067-3.905-5.067-7.067zM19.343 16.842l-5.118 1 11.353-9.333-5.286 0.71 10.275-8.151-11.959 3.15c-0.155 0-0.316-0.006-0.478-0.006-9.804 0-18.129 6.661-18.129 13.695 0 3.447 1.852 6.19 4.737 7.964l-4.421 5.060z"></path>
</svg>
