<!-- Generated by IcoMoon.io -->
<svg version="1.1" xmlns="http://www.w3.org/2000/svg" width="32" height="32" viewBox="0 0 32 32">
<title>15</title>
<path fill="#fff" d="M16.657 19.783c-0.395 0.945-0.338 2.172 0.063 2.82l2.299 3.681 1.784-2.581h2.912l1.594-1.96h-3.695l-1.114 1.368-2.214-1.84c-0.049-0.042-0.106-0.289-0.014-0.508l1.008-2.44s0.212 1.037 1.558 1.037h8.010c0.381 0 1.537 0 1.981-1.072 0.409-0.987-0.197-1.523-0.197-1.523h0.634l0.733-1.756h-3.92c-0.010-0-0.021-0-0.032-0-0.471 0-0.913 0.128-1.291 0.352l0.012-0.006 1.847-4.463h-2.017l-2.031 4.9s-0.367-0.783-1.551-0.783h-2.369l3.85-9.293h-2.017l-3.85 9.293h-4.936c-0.002 0-0.004 0-0.007 0-1.309 0-2.488 0.558-3.312 1.449l-0.003 0.003s-0.007-1.453-1.735-1.453h-4.393c-1.763 0-3.568 1.051-4.125 2.39-0.388 0.945 0.162 1.967 1.41 1.967h1.713c0.712 0 1.474-0.479 1.798-0.705 0 0 0.367 0.705 1.417 0.705h2.411l-0.825 1.981h2.024l0.818-1.981h5.937z"></path>
<path fill="#cf0a2c" d="M18.109 14.149l-0.254-0.783h-0.324l-0.416 1.022h0.204l0.331-0.797 0.261 0.797h0.31l0.423-1.022h-0.204zM16.114 13.874c0.076-0.215 0.278-0.367 0.515-0.367v0c0.218 0 0.303 0.127 0.204 0.367-0.073 0.219-0.276 0.373-0.515 0.374h-0c-0.219 0-0.303-0.127-0.204-0.374zM16.248 14.417c0.012 0.001 0.025 0.001 0.038 0.001 0.356 0 0.659-0.224 0.777-0.538l0.002-0.006c0.155-0.353 0.007-0.536-0.374-0.536-0.010-0-0.022-0.001-0.035-0.001-0.355 0-0.658 0.22-0.781 0.531l-0.002 0.006c-0.148 0.36 0 0.543 0.374 0.543zM14.916 14.389h0.226l0.352-0.853h0.395l0.070-0.169h-1.008l-0.070 0.169h0.388zM14.633 13.698c0.099-0.24-0.085-0.359-0.395-0.359-0.006-0-0.013-0-0.021-0-0.364 0-0.677 0.218-0.816 0.53l-0.002 0.006c-0.155 0.374 0.035 0.543 0.416 0.543 0.2-0.001 0.391-0.035 0.57-0.095l-0.013 0.004 0.197-0.472h-0.55l-0.063 0.155h0.324l-0.078 0.197c-0.090 0.024-0.194 0.039-0.301 0.042l-0.002 0c-0.317 0-0.338-0.183-0.261-0.374 0.090-0.221 0.303-0.374 0.553-0.374 0.007 0 0.013 0 0.020 0l-0.001-0c0.113 0 0.24 0.056 0.183 0.197zM12.025 14.389l0.331-0.797h0.007l0.261 0.797h0.31l0.423-1.022h-0.212l-0.324 0.783-0.254-0.783h-0.324l-0.423 1.022zM11.51 14.389l0.423-1.022h-0.233l-0.423 1.022zM10.184 14.389l0.176-0.437h0.557l-0.183 0.437h0.233l0.423-1.022h-0.225l-0.176 0.416h-0.557l0.169-0.416h-0.226l-0.423 1.022zM9.966 13.67c0.078-0.204-0.035-0.331-0.331-0.331-0.24 0-0.494 0.099-0.592 0.331-0.176 0.416 0.649 0.211 0.55 0.437-0.028 0.078-0.134 0.155-0.324 0.155-0.176 0-0.24-0.070-0.197-0.19h-0.233c-0.092 0.219 0.042 0.346 0.338 0.346 0.346 0 0.578-0.127 0.67-0.338 0.183-0.444-0.663-0.183-0.55-0.444 0.050-0.085 0.14-0.141 0.244-0.141 0.003 0 0.007 0 0.010 0l-0.001-0c0.162 0 0.233 0.049 0.183 0.176zM8.267 13.994h-0.423l0.395-0.444zM7.244 14.389h0.247l0.204-0.226h0.585l0.021 0.226h0.275l-0.099-1.022h-0.289zM6.659 13.571h0.007l-0.056 0.818h0.282l0.783-1.022h-0.226l-0.599 0.797 0.056-0.797h-0.289l-0.599 0.797 0.056-0.797h-0.247l-0.056 1.022h0.275zM17.44 12.485l0.698-0.508 0.698 0.508-0.268-0.818 0.698-0.508h-0.86l-0.268-0.825-0.268 0.825h-0.867l0.705 0.508zM12.906 12.485l0.698-0.508 0.705 0.508-0.268-0.818 0.698-0.508h-0.867l-0.268-0.825-0.261 0.825h-0.867l0.698 0.508zM8.379 12.485l0.698-0.508 0.698 0.508-0.268-0.818 0.705-0.508h-0.867l-0.268-0.825-0.268 0.825h-0.86l0.698 0.508zM24.286 22.229h-2.439l-0.797 0.987h2.433l0.804-0.987z"></path>
<path fill="#041e41" d="M14.937 17.999l1.036-2.503h-2.277c-0.004-0-0.010-0-0.015-0-1.669 0-3.101 1.019-3.705 2.47l-0.010 0.027-1.185 2.863h0.966l1.121-2.7c0.43-1.037 1.368-1.876 2.863-1.876h0.959l-0.606 1.466c-0.091 0.196-0.278 0.333-0.498 0.352l-0.002 0h-2.228l-0.324 0.776h2.672c0.48 0 0.966-0.219 1.234-0.874zM26.549 16.278c-0.296 0.719 0.092 1.297 0.867 1.297h1.96c0.141 0 0.211 0.12 0.148 0.261-0.064 0.146-0.202 0.249-0.365 0.261l-0.001 0h-3.582l-0.324 0.776h3.596c0.67 0 1.276-0.148 1.537-0.776 0.296-0.712-0.092-1.297-0.867-1.297h-1.96c-0.141 0-0.212-0.12-0.155-0.261 0.067-0.143 0.203-0.245 0.365-0.261l0.002-0h3.173l0.324-0.783h-3.187c-0.663 0-1.325 0.289-1.53 0.783zM16.051 18.873l0.895-2.165h-0.959l-0.902 2.165zM17.447 15.496h-0.959l-0.324 0.783h0.959zM24.78 18.873l3.109-7.495h-0.966l-3.102 7.495zM20.183 15.496l-0.324 0.783h3.046c0.578 0 0.402 0.43 0.402 0.43h-1.96c-0.775 0-1.347 0.352-1.53 0.797-0.317 0.761 0.141 1.368 1.022 1.368h0.994c0.247-0.011 0.474-0.085 0.668-0.208l-0.006 0.003-0.085 0.204h0.959l0.797-1.904c0.331-0.811-0.176-1.474-1.149-1.474zM8.993 18.873l0.79-1.904c0.338-0.811-0.176-1.474-1.142-1.474h-2.51l-0.324 0.783h2.722c0.578 0 0.402 0.43 0.402 0.43h-1.96c-0.775 0-1.347 0.352-1.53 0.797-0.317 0.761 0.141 1.368 1.022 1.368h0.994c0.247-0.011 0.474-0.085 0.668-0.208l-0.006 0.003-0.092 0.204zM3.959 16.278h1.283l0.317-0.783h-1.311c-1.551 0-3.194 0.938-3.674 2.087-0.289 0.698 0.134 1.29 0.959 1.29h1.713c0.747 0 1.65-0.712 1.65-0.712l-0.797-0.338c-0.212 0.155-0.474 0.255-0.757 0.275l-0.005 0h-1.636c-0.204 0-0.296-0.204-0.183-0.465 0.31-0.747 1.403-1.354 2.44-1.354z"></path>
<path fill="#041e41" d="M17.108 19.966c-0.317 0.776-0.31 1.84 0.028 2.376l1.904 3.053 1.255-1.819-2.32-1.932c-0.247-0.198-0.317-0.684-0.155-1.065l5.951-14.37h-0.966l-3.85 9.293h-1.142l-0.324 0.783h1.149z"></path>
<path fill="#fff" d="M6.715 17.491c-0.191 0.014-0.351 0.13-0.429 0.293l-0.001 0.003c-0.071 0.169 0.007 0.31 0.176 0.31h1.473c0.24-0.009 0.447-0.145 0.555-0.342l0.002-0.003 0.162-0.381c-0.173 0.072-0.373 0.116-0.584 0.12l-0.002 0zM21.092 17.491c-0.191 0.014-0.351 0.13-0.429 0.293l-0.001 0.003c-0.070 0.169 0.014 0.31 0.176 0.31h1.474c0.242-0.009 0.451-0.144 0.562-0.342l0.002-0.003 0.155-0.381c-0.173 0.072-0.373 0.116-0.583 0.12l-0.002 0z"></path>
</svg>
