<!-- Generated by IcoMoon.io -->
<svg version="1.1" xmlns="http://www.w3.org/2000/svg" width="32" height="32" viewBox="0 0 32 32">
<title>16</title>
<path fill="#000" d="M31.823 20.253c0-1.166 1.143-5.495-7.171-12.043l1.397-0.311-0.721-2.372-1.386 0.925v-1.436h-2.723c-1.778-1.281-2.632-2.916-5.427-2.916-1.167 0-2.395 0.232-2.661 0.232-0.206 0-0.829-0.132-1.887-0.132-3.056 0-3.338 2.28-2.956 3.080-4.019 2.754-6.010 4.737-6.010 5.456 0 0.276 0.163 0.636 0.163 1.155 0 1.131-2.443 3.621-2.443 4.941 0 1.229 1.568 1.314 1.568 1.314 0.089 0.361-0.519 1.568 0.026 2.183-0.756 0.821 0.126 1.231 0.126 1.883 0 0.441-0.308 0.578-0.308 1.394 0 0.93 0.435 2.048 2.73 2.048 0.906 0 1.709-0.141 2.346-0.141 0.18 1.926 1.001 2.682 1.136 3.164 0.111 0.387 0.363 1.223 0.873 1.223 0.666 0 4.337-1.201 7.124-2.893 1.395 0.517 3.173 0.349 3.818 0.349 0.706 0 0.995 0.43 1.412 0.43 0.25 0 2.142-2.118 2.028-6.752 1.188 2.009 1.89 3.316 1.959 4.064 1.542-0.551 2.838-4.192 2.278-6.513 0 0 1.94 3.149 4.884 2.686-0.009 0.007-0.176-0.573-0.176-1.018z"></path>
<path fill="#d18a00" d="M13.331 23.131c0.712-1.093 0.306-2.974-1.049-2.454-0.782-1.277-1.668-3.008-1.668-5.145 0-2.278 0.465-2.874 0.465-4.887 0-3.429-1.587-4.107-2.604-4.796-2.424 1.64-5.64 3.888-5.64 5.084 0 0.352 0.156 0.684 0.156 1.030 0 1.238-2.409 3.642-2.409 4.806 0 0.437 0.349 0.802 0.908 0.802s1.985-0.202 2.52-0.265c0.536-0.054 0.595-0.315 0.595-0.456 0-0.349-0.55-0.832-0.967-0.832-0.349 0-0.38 0.204-0.38 0.256 0 0.228 0.328 0.293 0.328 0.293 0.417-0.055 0.419 0.31 0.022 0.31-0.326 0-0.691-0.241-0.691-0.656 0-0.417 0.334-0.521 0.582-0.521 1.042 0 1.64 0.941 1.468 1.542 1.292 0.641 1.255 1.581 1.042 1.581-0.447 0-0.137-1.188-1.818-1.188-0.47 0-1.457 0.141-1.69 0.167-0.228 0.026-0.298 0.059-0.326 0.254-0.030 0.189-0.272 0.884-0.272 1.31 0 0.63 0.421 0.673 0.691 0.673 0.708 0 1.907-0.171 1.907-0.452 0-0.185-0.304-0.13-0.415-0.13-0.213 0-0.31-0.13-0.31-0.206 0-0.189 0.306-0.278 0.669-0.278 0.602 0 0.666 0.395 0.636 0.576-0.067 0.406 0.586 0.308 0.586 1.169 0 0.098-0.007 0.345-0.213 0.345-0.207 0-0.209-0.257-0.209-0.402 0-0.141-0.235-0.369-0.437-0.369-0.213 0-0.988 0.398-2.656 0.246-0.658 0.829 0.119 0.888 0.119 1.724 0 0.93-0.285 0.873-0.285 1.44 0 1.132 1.242 1.427 2.482 1.427 2.565 0 5.46-0.593 6.479-2.43-0.348 1.622-1.655 2.202-3.877 2.708 0.252 1.8 0.625 2.215 0.895 2.7 0.271 0.489 0.33 1.169 0.808 1.169 0.573 0 3.947-1.216 6.218-2.585l-1.656-3.56z"></path>
<path fill="#000" d="M10.124 19.573c-0.493-0.536-1.232-2.093 0.237-3.425-1.123-0.302-2.669 2.704-0.237 3.425zM8.366 9.195c0.035 0.042 0.088 0.068 0.147 0.068 0.046 0 0.088-0.016 0.121-0.042l-0 0c0.059-0.052 0.1-0.176 0.022-0.267-0.022-0.028-0.515-0.612-1.205-1.177 0.082-0.061 0.189-0.141 0.304-0.228 0.293 0.245 1.427 1.218 2.141 2.106 0.069 0.082 0.186 0.093 0.267 0.028s0.091-0.182 0.030-0.263c-0.699-0.868-1.749-1.779-2.126-2.104 0.124-0.089 0.231-0.173 0.287-0.211 0.765 0.556 1.199 1.090 1.205 1.095 0.065 0.082 0.183 0.094 0.263 0.030 0.082-0.067 0.098-0.183 0.033-0.265-0.024-0.030-0.513-0.628-1.396-1.247-0.067-0.048-0.154-0.046-0.222 0.004l-1.201 0.899c-0.111 0.082-0.089 0.228-0.004 0.301 0.751 0.584 1.329 1.267 1.335 1.275zM8.007 10.77c-1.143 0-1.52-1.227-2.956-1.227-0.771 0-1.167 0.302-1.167 0.558s0.298 0.48 0.298 0.48c0.145 0.315-0.856 0.66-0.33 0.871l0.647 0.252c-0.209 0.367-0.074 1.047-0.033 1.218-1.323 0.011-1.196 0.422-0.048 0.439 0.004 0.189-0.131 0.695 0.074 0.695 0.217 0 0.495-0.254 0.601-0.736 0.963-0.119 2.050-0.45 2.050-0.45 0.193-0.053 0.387-0.23 0.015-0.45l-1.772-1.044s-0.152-0.089-0.052-0.321l0.135-0.313c0.039-0.094 0.135-0.107 0.182-0.107 0.504 0 1.262 0.754 2.263 0.754 0.434 0 0.917-0.254 0.917-0.499s-0.595-0.12-0.823-0.12z"></path>
<path fill="#fff" d="M5.265 12.002c-0.098 0.367-0.030 0.787-0.005 0.899 1.136-0.069 1.602-0.276 1.602-0.276l-1.596-0.623zM3.516 21.445c-0.124 0.061 0.382 1.112 0.291 1.583 0.076 0.213 0.391 0.995 0.923 0.725 0.53-0.271 0.082-0.98-0.046-1.169-0.437-0.206-1.043-1.205-1.167-1.138zM8.199 13.989c-0.439 0.117-0.841 0.552-1.636 0.766-0.295 0.076-0.81 0.002-0.964 0.002 0.12 0.163 0.437 0.447 0.437 0.447s-0.117 0.289-0.141 0.487c0.132-0.078 0.517-0.311 0.812-0.387 0.797-0.21 1.36-0.026 1.8-0.141 0.206-0.057 0.584-0.161 0.432-0.745-0.152-0.581-0.536-0.486-0.74-0.428z"></path>
<path fill="#cf0a2c" d="M12.866 20.846c-0.486-0.141-1.062 0.369-1.286 1.136-0.223 0.767-0.009 1.503 0.474 1.648 0.486 0.141 1.060-0.365 1.284-1.136 0.224-0.767 0.009-1.507-0.473-1.648zM4.081 21.183c-0.238-0.33-0.365-0.033-0.617 0.102-0.252 0.126-0.573 0.057-0.437 0.441 0.143 0.417-0.159 1.264-0.028 1.52 0.107 0.206 0.337 0.285 0.524 0.193 0.169-0.091 0.25-0.239 0.284-0.413 0.091-0.471-0.182-1.121-0.057-1.188 0.122-0.065 0.495 0.539 0.93 0.741 0.159 0.072 0.328 0.095 0.499 0.011 0.187-0.098 0.256-0.337 0.152-0.543-0.133-0.256-0.995-0.506-1.249-0.864zM7.515 15.561c-0.13 0.035-0.328 0.147-0.654 0.234-0.324 0.087-0.732 0.089-0.797-0.161-0.004-0.011-0.006-0.023-0.006-0.037 0-0.011 0.001-0.021 0.004-0.031l-0 0.001c0.024-0.202 0.319-0.47 0.319-0.47s-0.389-0.087-0.51-0.252c-0.013-0.017-0.024-0.037-0.031-0.058l-0-0.002c-0.067-0.248 0.293-0.448 0.617-0.534 0.323-0.087 0.552-0.087 0.684-0.119 0.263-0.070 0.483-0.245 0.43-0.452-0.105-0.387-0.608-0.293-0.886-0.221-1.39 0.367-1.698 0.938-1.596 1.334 0.104 0.395 0.554 0.497 0.554 0.497s-0.341 0.312-0.237 0.706c0.102 0.393 0.652 0.738 2.042 0.373 0.28-0.074 0.766-0.239 0.666-0.625-0.058-0.213-0.338-0.252-0.599-0.183zM21.75 7.879c-4.055 3.036-6.237 7.561-6.9 9.111 0 0-0.087 0.182 0.015 0.38l1.284 2.502c0.054 0.105 0.169 0.122 0.256 0.043l2.113-1.907c0.144-0.133 0.193-0.345 0.193-0.345 0.964-5.514 2.263-8.208 3.073-9.43-0.026-0.081-0.041-0.173-0.041-0.269 0-0.002 0-0.003 0-0.005v0c0.007-0.028 0.007-0.054 0.007-0.080z"></path>
<path fill="#00833e" d="M25.116 6.263l-1.090 0.721 0.254 0.83 1.223-0.271-0.387-1.281zM22.127 8.794c-0.079-0.069-0.146-0.149-0.2-0.238l-0.003-0.005c-1.299 2.083-2.958 7.295-2.958 11.755 0 4.565 1.397 6.989 1.9 6.989 0.387 0 1.755-2.443 1.755-5.593 0-0.862-0.721-4.311-0.721-10.788 0.002-1.386 0.106-1.757 0.226-2.12zM15.171 17.125l1.151 2.487 2.094-1.941s1.010-5.89 2.81-9.137c-4.75 4.607-6.055 8.59-6.055 8.59zM22.864 7.115c-0 0-0 0-0 0-0.467 0-0.846 0.379-0.846 0.846 0 0 0 0 0 0v-0c0 0.469 0.38 0.847 0.847 0.847s0.847-0.378 0.847-0.847-0.38-0.847-0.847-0.847z"></path>
<path fill="#ffd100" d="M19.556 8.663c0.282 0 0.246-0.38-0.019-0.38-4.059 0-6.384 0.515-6.742 0.601-0.226-1.989-1.37-2.624-1.37-3.91 0-0.501 0.33-0.601 0.601-0.601 0.949 0 1.66 1.112 2.976 1.112 1.223 0 1.486-0.867 2.185-0.867 1.045 0 0.586 2.784 2.439 2.784 0.586 0 0.969-0.233 0.969-0.233 0.254-0.139 0.015-0.437-0.198-0.326 0 0-0.372 0.191-0.737 0.191-1.568 0-0.884-2.793-2.511-2.793-0.78 0-1.042 0.86-2.166 0.86-1.259 0-1.757-1.125-3.004-1.125-0.708 0-0.962 0.473-0.962 0.949 0 1.425 1.407 2.509 1.407 4.463 0 1.989-0.678 3.736-0.678 6.498 0 3.219 3.058 4.168 3.058 7.169 0 1.698 0.652 2.743 1.379 2.743 0.4 0 0.773-0.235 0.951-0.858 0.105 0.043 0.198 0.065 0.282 0.065 0.206 0 0.966-0.221 0.966-1.115 0-2.56-4.396-3.881-4.396-7.89 0-1.927 0.309-5.011 0.782-5.011 0.249 0 0.558 1.079 1.149 1.079 0.734 0 0.478-2.13 0.804-2.13 0.263 0 0.654 0.995 1.119 0.995 0.376 0 0.501-0.773 0.662-1.379 0.061-0.284-0.337-0.361-0.395-0.076-0.102 0.45-0.315 1.047-0.315 1.047-0.243-0.239-0.626-0.969-1.093-0.969-0.745 0-0.636 2.126-0.804 2.126-0.312 0-0.508-1.104-1.188-1.104-0.875 0-1.132 3.043-1.132 5.438 0 4.213 4.4 5.625 4.4 7.832 0 0.554-0.406 0.745-0.569 0.745-0.065 0-0.13-0.019-0.198-0.039 0.022-0.152 0.033-0.323 0.033-0.51 0-1.299-0.715-1.546-1.006-1.546-0.29 0-0.454 0.254-0.454 0.673 0 0.562 0.497 1.184 0.98 1.542-0.074 0.35-0.226 0.673-0.552 0.673-0.632 0-0.991-1.466-0.991-2.343 0-3.167-3.056-4.083-3.056-7.247 0-2.695 0.68-4.422 0.68-6.212 0-0.109-0.002-0.217-0.007-0.324 0.418-0.093 3.037-0.679 6.725-0.594z"></path>
<path fill="#000" d="M16.303 22.892c-0.057 0-0.115 0.083-0.115 0.3 0 0.247 0.276 0.756 0.621 1.093 0.011-0.174 0.009-0.319 0.009-0.395-0-0.285-0.161-0.999-0.515-0.999z"></path>
<path fill="#ffd100" d="M21.6 9.665s-2.313 4.869-2.313 10.542c0 3.757 1.166 6.627 1.488 6.627 0.254 0 1.44-1.788 1.44-5.521 0-1.505-0.813-7.232-0.615-11.648z"></path>
<path fill="#00833e" d="M20.497 16.812l-0.836 0.645c-0.098 0.808-0.163 1.644-0.174 2.502l0.919-0.627c0.007-0.734 0.031-1.573 0.091-2.52zM21.117 13.001c-0.123 0.943-0.243 2.222-0.327 3.511l-0.010 0.199 0.934 0.69c-0.126-1.373-0.257-2.912-0.315-4.381-0.007-0.209-0.239-0.406-0.282-0.019zM20.677 19.475l1.295 0.893c-0.046-0.717-0.141-1.651-0.239-2.689l-0.969-0.721c-0.047 0.73-0.078 1.608-0.087 2.492l-0 0.025zM20.833 13.011c0.033-0.254-0.178-0.213-0.221-0.065-0.35 1.186-0.699 2.634-0.916 4.22l0.814-0.626c0.096-1.446 0.211-2.662 0.356-3.869l-0.033 0.341zM19.689 22.935c0.065 0.434 0.141 0.836 0.228 1.201 0.133 0.145 0.506 0.41 0.821-0.536 0.536 0.888 0.873 0.771 0.977 0.695 0.072-0.326 0.137-0.684 0.189-1.082l-1.284-0.854-0.93 0.576zM20.757 22.194l1.177 0.786c0.056-0.494 0.087-1.066 0.087-1.646 0-0.005 0-0.010 0-0.016v0.001c0-0.185-0.011-0.413-0.026-0.677l-1.317-0.904c-0.004 1.119 0.044 1.94 0.080 2.456zM20.403 19.592l-0.916 0.626c0 0.897 0.065 1.735 0.171 2.487l0.825-0.513c-0.045-0.552-0.083-1.422-0.080-2.6z"></path>
<path fill="#cf0a2c" d="M16.732 14.451c-0.562 0.925-1.017 1.907-1.218 2.361-0.080 0.195-0.113 0.304-0.113 0.304l0.988 2.131 1.82-1.694c0.022-0.095 0.185-1.001 0.467-2.226 0.41-1.735 1.093-4.276 1.846-5.817-1.661 1.794-3.001 3.682-3.79 4.941z"></path>
<path fill="#cf0a2c" d="M23.405 7.96c0 0.299-0.242 0.541-0.541 0.541s-0.541-0.242-0.541-0.541c0-0.299 0.242-0.541 0.541-0.541s0.541 0.242 0.541 0.541z"></path>
<path fill="#fff" d="M19.195 11.483c-0.046-0.024-0.109-0.005-0.13 0.043-0.246 0.46-0.577 1.154-0.888 1.859l-0.1 0.254-1.156 0.511c-0.065 0.102-0.124 0.198-0.183 0.297l1.223-0.541c-0.319 0.749-0.576 1.429-0.793 2.020l-1.542 0.625c-0.007 0.009-0.044 0.094-0.079 0.179l-0.029 0.078 1.56-0.634c-0.478 1.362-0.675 2.2-0.68 2.213-0.011 0.050 0.020 0.109 0.074 0.115 0.006 0.001 0.013 0.002 0.021 0.002 0.047 0 0.087-0.033 0.096-0.078l0-0.001c0.004-0.011 0.193-0.813 0.652-2.131l0.828 1.392 0.141-0.133 0.004-0.004-0.888-1.494c0.193-0.541 0.426-1.158 0.71-1.835l0.641 1.103c0.022-0.093 0.039-0.186 0.065-0.28l-0.608-1.051c0.311-0.734 0.673-1.534 1.104-2.379 0.024-0.044 0.002-0.1-0.044-0.13z"></path>
<path fill="#ff671b" d="M23.48 5.466h-1.785l1.14 1.234h0.645v-1.234zM30.096 14.354c-1.944-3.125-5.339-5.751-6.118-6.333-0.011 0.18-0.185 0.476-0.271 0.623-0.105 0.113-0.228 0.247-0.289 0.282 0.133 0.54 0.341 1.311 0.615 2.206 0.41 0.993 0.866 2.218 1.253 3.495 0.441 1.056 0.955 2.109 1.535 3.041 2.407 3.87 4.811 3.338 4.811 3.338-0.413-0.658 0.799-2.891-1.536-6.651z"></path>
<path fill="#fff" d="M29.377 14.576c-1.535-2.47-4.804-5.408-5.545-6.062-0.043 0.082-0.102 0.157-0.167 0.226 0.467 1.327 2.287 6.309 3.964 9.003 1.636 2.635 3.236 2.506 3.236 2.506s0.537-2.408-1.488-5.673z"></path>
<path fill="#ff671b" d="M23.911 8.855c0.261 0.727 0.775 2.126 1.412 3.673l0.171-0.938-0.832-1.338c-0.010-0.015-0.015-0.033-0.015-0.052 0-0.036 0.019-0.067 0.048-0.084l0-0c0.050-0.028 0.109-0.015 0.133 0.033l0.801 1.279 1.234 0.306c-1.179-1.262-2.37-2.361-2.952-2.878z"></path>
<path fill="#ff671b" d="M25.77 11.669l1.473 2.368 1.913 0.565c-0.539-0.851-1.281-1.757-2.052-2.604l-1.334-0.33zM25.459 12.866c0.358 0.86 0.753 1.755 1.158 2.595l0.478-1.29-1.447-2.329-0.189 1.025zM30.698 20.047c0.043-0.373 0.109-1.368-0.297-2.741l-1.268-0.232 0.745 1.201c0.034 0.043 0.015 0.105-0.033 0.133-0.043 0.030-0.11 0.015-0.137-0.033l-0.753-1.216-0.478 1.429c0.994 1.182 1.876 1.41 2.221 1.458zM27.399 14.289l1.592 2.56 1.344 0.244c-0.213-0.671-0.536-1.429-1.025-2.239l-1.911-0.565zM28.33 18.411l0.493-1.466-1.592-2.563-0.489 1.325c0.349 0.708 0.703 1.37 1.053 1.933 0.182 0.289 0.36 0.547 0.536 0.771z"></path>
<path fill="#d18a00" d="M5.102 10.51l-0.721 0.193c-0.152 0.039-0.159 0.126-0.015 0.197l0.547 0.263c0.014 0.007 0.030 0.011 0.048 0.011 0.044 0 0.083-0.026 0.1-0.064l0-0.001 0.187-0.43c0.054-0.128-0.013-0.204-0.146-0.169z"></path>
<path fill="#d18a00" d="M12.719 21.357c0.27 0.079 0.374 0.538 0.232 1.025s-0.476 0.819-0.746 0.74c-0.27-0.079-0.374-0.538-0.232-1.025s0.476-0.819 0.746-0.74z"></path>
<path fill="#ffd100" d="M25.286 14.628c-0.387-1.275-0.843-2.5-1.253-3.495-0.274-0.897-0.482-1.668-0.615-2.205-0.16 0.092-0.351 0.146-0.555 0.146-0.082 0-0.161-0.009-0.238-0.025l0.007 0.001c-0.105-0.022-0.198-0.059-0.293-0.107-0.345 7.992 0.448 9.374 0.593 11.657 2.016 3.178 2.089 4.105 2.089 4.105s2.356-1.651 1.814-6.551c-0.051-0.073-0.125-0.187-0.197-0.302l-0.027-0.047c-0.285-0.453-0.594-1.006-0.875-1.576l-0.051-0.115z"></path>
<path fill="#001970" d="M25.952 17.458c-0.088-0.557-0.181-1.011-0.293-1.458l0.024 0.115c-0.115-0.497-0.254-0.995-0.399-1.485-0.387-1.275-0.847-2.5-1.253-3.495-0.402-0.975-0.749-1.725-0.916-2.087-0.083 0.019-0.167 0.030-0.254 0.030-0.080 0-0.159-0.009-0.232-0.024-0.076 0.86-0.35 4.537 0.174 7.847 0.749 4.748 2.552 6.468 2.552 6.468s1.247-1.794 0.595-5.91z"></path>
<path fill="#ffd100" d="M23.639 14.436l-0.623-3.936c-0.030-0.178-0.265-0.156-0.274 0.102-0.050 1.195-0.072 2.88 0.072 4.6l0.825-0.765zM24.295 18.587l-0.308-1.946-0.865 0.86c0.137 0.724 0.3 1.368 0.474 1.944l0.699-0.858zM22.834 15.463c0.043 0.47 0.105 0.941 0.178 1.405 0.022 0.132 0.039 0.261 0.061 0.385l0.877-0.862-0.271-1.707-0.845 0.779zM23.222 10.468s0.323 2.039 0.63 3.99l1.39 0.782c-0.517-1.859-1.246-3.677-1.766-4.885-0.057-0.154-0.289-0.12-0.254 0.113zM24.834 20.839c-0.015-0.065-0.373-1.527-0.486-1.991l-0.68 0.832c0.246 0.763 0.509 1.393 0.76 1.892 0.129-0.238 0.38-0.686 0.406-0.734zM23.892 14.719c0.091 0.565 0.182 1.127 0.261 1.644l1.557 0.887c-0.098-0.565-0.232-1.145-0.387-1.727l-1.431-0.804zM24.193 16.622c0.148 0.919 0.265 1.653 0.307 1.929l1.427 0.771c-0.019-0.543-0.072-1.143-0.174-1.811l-1.56-0.889zM25.746 21.675l-0.771-0.662-0.434 0.786c0.323 0.597 0.604 0.991 0.782 1.208 0.115-0.247 0.289-0.684 0.423-1.333zM25.929 19.562l-1.375-0.741c0.105 0.424 0.406 1.664 0.482 1.975l0.753 0.649c0.091-0.515 0.152-1.142 0.141-1.883z"></path>
</svg>
