<!-- Generated by IcoMoon.io -->
<svg version="1.1" xmlns="http://www.w3.org/2000/svg" width="32" height="32" viewBox="0 0 32 32">
<title>17</title>
<path fill="#ce1126" d="M29.347 11.38c1.349-1.149 2.653-3.001 2.653-5.124 0-0.001 0-0.003 0-0.005 0-0.163-0.133-0.296-0.296-0.296-0.094 0-0.179 0.044-0.233 0.113l-0 0.001c-1.388 1.891-2.691 2.614-3.485 2.885 1.317-0.994 2.601-2.62 2.936-4.46 0.002-0.014 0.004-0.030 0.004-0.047 0-0.164-0.133-0.298-0.298-0.298-0.082 0-0.156 0.033-0.209 0.086l0-0c-1.607 1.607-3.821 3.324-9.771 3.324-1.433 0-3.079-0.045-4.143-0.045-4.828 0-6.602 2.988-7.003 3.821-0.36-0.055-0.776-0.087-1.199-0.087-4.585 0-8.301 3.717-8.301 8.301s3.716 8.301 8.3 8.301h0c0.007 0 0.014 0 0.022 0 3.416 0 6.348-2.074 7.606-5.032l0.020-0.054c0.080 0.014 0.173 0.023 0.268 0.026l0.003 0c1.052 0 1.271-0.303 1.271-0.568 0-0.136-0.136-0.303-0.206-0.4 1.543-0.013 2.001-0.084 2.666-0.316 0.102-0.030 0.174-0.123 0.174-0.232 0-0.002-0-0.005-0-0.007v0c0-0.226-0.471-0.607-0.807-0.897 2.156-0.039 3.75-0.426 3.75-0.929 0-0.097-0.013-0.219-0.587-0.671 1.22-0.336 3.363-1.155 3.363-1.691 0-0.207-0.181-0.329-0.394-0.478 1.898-0.716 3.492-1.975 3.492-2.427 0-0.361-0.536-0.394-0.8-0.413 0.942-0.607 2.259-1.639 2.259-2.085 0-0.458-0.723-0.278-1.052-0.297z"></path>
<path fill="#fff" d="M28.792 11.496c1.517-1.129 2.949-3.085 2.949-5.241 0-0.001 0-0.003 0-0.004 0-0.021-0.017-0.038-0.038-0.038-0.010 0-0.019 0.004-0.026 0.010l0-0c-2.336 3.188-4.46 3.156-4.46 3.156-0.090 0-0.11-0.129-0.039-0.181 1.51-0.891 3.124-2.717 3.485-4.75 0.006-0.026-0.032-0.058-0.058-0.032-1.717 1.717-4.072 3.401-9.959 3.401-1.878 0-2.866-0.039-4.143-0.039-5.092 0-6.661 3.388-6.848 3.834-0.408-0.073-0.877-0.115-1.357-0.115-4.445 0-8.048 3.603-8.048 8.048s3.603 8.048 8.048 8.048c3.383 0 6.278-2.087 7.469-5.045l0.019-0.054c0.128 0.025 0.277 0.042 0.429 0.045l0.003 0c0.82 0 1.020-0.187 1.020-0.316 0-0.084-0.529-0.658-0.265-0.658 1.814 0 2.22-0.064 2.891-0.297-0.323-0.497-1.478-1.149-0.884-1.149 2.885 0 3.827-0.555 3.827-0.671 0-0.142-0.916-0.8-0.916-0.8 1.323-0.219 3.692-1.284 3.692-1.562 0-0.168-0.671-0.445-0.561-0.6 2.098-0.697 3.666-2.059 3.666-2.304 0-0.2-1.233-0.181-1.233-0.181v-0.129c1.065-0.555 2.691-1.897 2.691-2.188 0-0.194-1.53 0.123-1.355-0.187z"></path>
<path fill="#ce1126" d="M4.615 17.163l1.168 1.188c0.226-0.468 0.563-0.853 0.977-1.13l0.010-0.006-1.33-0.994c-0.314 0.276-0.587 0.588-0.815 0.932l-0.011 0.017zM3.957 18.944l1.691-0.245c0.007-0.026 0.019-0.052 0.026-0.084l-1.194-1.22c-0.26 0.448-0.444 0.974-0.52 1.533l-0.002 0.022zM3.912 19.544c0.003 0.328 0.038 0.647 0.102 0.954l-0.005-0.031 1.665 0.013c-0.101-0.279-0.16-0.6-0.161-0.935v-0.001c0-0.001 0-0.002 0-0.002 0-0.2 0.021-0.396 0.061-0.584l-0.003 0.018-1.646 0.239c-0.006 0.11-0.013 0.219-0.013 0.329zM10.45 15.723c-0.447-0.256-0.969-0.44-1.525-0.52l-0.024-0.003 0.245 1.691c0.031 0.005 0.060 0.014 0.086 0.027l-0.002-0.001zM11.753 22.248c-0.516-0.262-0.961-0.55-1.371-0.877l0.016 0.012c-0.167 0.187-0.356 0.349-0.564 0.484l-0.011 0.007 1.336 0.994c0.218-0.188 0.412-0.391 0.587-0.61l0.007-0.009zM8.868 16.821l-0.239-1.646c-0.082-0.009-0.178-0.013-0.275-0.013-0.019 0-0.038 0-0.057 0.001l0.003-0c-0.003 0-0.007-0-0.010-0-0.323 0-0.638 0.035-0.941 0.102l0.029-0.005-0.013 1.659c0.278-0.097 0.599-0.155 0.933-0.161l0.003-0c0.202 0.002 0.398 0.025 0.586 0.068l-0.018-0.003zM7.022 17.072c0.022-0.014 0.048-0.027 0.074-0.038l0.003-0.001 0.019-1.71c-0.561 0.158-1.050 0.408-1.475 0.737l0.010-0.007zM10.734 16.24c0-0.116 0-0.226-0.007-0.342-0.013-0.012-0.028-0.023-0.044-0.032l-0.001-0.001-1.188 1.162c0.357 0.175 0.659 0.407 0.907 0.688l0.003 0.003c0.181-0.484 0.329-1.020 0.329-1.478zM7.732 22.274l0.239 1.646c0.11 0.006 0.219 0.013 0.329 0.013 0.003 0 0.007 0 0.010 0 0.321 0 0.634-0.035 0.935-0.102l-0.029 0.005 0.019-1.665c-0.279 0.102-0.6 0.161-0.936 0.161h-0c-0.001 0-0.002 0-0.002 0-0.2 0-0.396-0.021-0.584-0.061l0.018 0.003zM5.887 18.931c-0.049 0.185-0.077 0.398-0.077 0.617 0 0.336 0.066 0.656 0.187 0.949l-0.006-0.017 0.090 0.006 0.555-0.749c-0.006-0.052-0.006-0.103-0.013-0.155l-0.652-0.665zM6.293 18.873l0.362 0.361c0.032-0.165 0.081-0.312 0.147-0.45l-0.005 0.011zM7.093 18.389l0.006-0.929-0.077-0.058c-0.454 0.276-0.806 0.678-1.014 1.158l-0.006 0.016 0.065 0.064 0.916-0.136c0.039-0.039 0.071-0.084 0.11-0.116zM7.139 20.757l-0.929-0.006-0.052 0.071c0.275 0.452 0.675 0.804 1.152 1.013l0.016 0.006 0.071-0.064-0.136-0.917c-0.045-0.032-0.084-0.071-0.123-0.103zM6.913 20.493c-0.078-0.119-0.148-0.255-0.202-0.399l-0.005-0.014-0.303 0.407zM9.501 22.061l-0.019 1.71c0.56-0.162 1.048-0.412 1.476-0.737l-0.011 0.008-1.368-1.020-0.077 0.039zM7.629 21.551l0.361-0.361c-0.165-0.030-0.312-0.079-0.449-0.146l0.010 0.004zM9.236 21.764l-0.742-0.555c-0.048 0.007-0.104 0.012-0.16 0.013l-0.001 0-0.658 0.652 0.013 0.090c0.182 0.049 0.391 0.077 0.607 0.077 0.002 0 0.004 0 0.006 0h-0c0.003 0 0.006 0 0.009 0 0.334 0 0.653-0.066 0.943-0.187l-0.016 0.006zM5.829 20.828c-0.019-0.032-0.032-0.058-0.045-0.084l-1.704-0.013c0.159 0.561 0.409 1.049 0.737 1.475l-0.008-0.010zM7.352 18.163c0.119-0.085 0.256-0.155 0.402-0.203l0.011-0.003-0.406-0.303zM9.675 20.577l-0.065 0.007c-0.032 0.046-0.066 0.086-0.103 0.123v0l-0.007 0.929 0.071 0.052c0.233-0.136 0.431-0.301 0.598-0.494l0.002-0.003c-0.245-0.219-0.426-0.433-0.497-0.613zM7.455 22.203c-0.026-0.013-0.058-0.019-0.084-0.032l-1.22 1.2c0.447 0.254 0.97 0.436 1.526 0.514l0.023 0.003zM9.682 18.602c0.063 0.088 0.119 0.187 0.164 0.293l0.004 0.010c0.039-0.071 0.090-0.174 0.155-0.303zM5.919 23.229l1.188-1.168c-0.47-0.224-0.854-0.561-1.129-0.977l-0.006-0.010-0.994 1.33c0.274 0.315 0.584 0.587 0.926 0.816l0.017 0.011zM9.243 20.932c-0.117 0.080-0.251 0.15-0.394 0.202l-0.013 0.004 0.407 0.303zM8.971 17.543l-0.361 0.355c0.166 0.036 0.313 0.087 0.45 0.154l-0.012-0.005zM7.365 17.324l0.742 0.555c0.040-0.004 0.086-0.007 0.133-0.007 0.010 0 0.020 0 0.030 0l-0.002-0 0.658-0.652-0.013-0.090c-0.185-0.049-0.398-0.077-0.617-0.077-0.336 0-0.656 0.066-0.949 0.187l0.017-0.006zM10.275 18.027c-0.263-0.337-0.601-0.603-0.991-0.775l-0.016-0.006-0.065 0.064 0.136 0.923c0.046 0.032 0.086 0.066 0.123 0.103l-0-0 0.671 0.006c0.045-0.103 0.097-0.206 0.142-0.316zM9.204 19.544c0 0.499-0.405 0.904-0.904 0.904s-0.904-0.405-0.904-0.904c0-0.499 0.405-0.904 0.904-0.904v0c0.498 0.002 0.901 0.405 0.904 0.903v0z"></path>
<path fill="#ce1126" d="M8.3 14.123c-0 0-0 0-0 0-2.996 0-5.425 2.429-5.425 5.425s2.429 5.425 5.425 5.425c1.821 0 3.433-0.898 4.417-2.275l0.011-0.016c-0.266-0.098-0.471-0.185-0.671-0.28l0.051 0.022c-0.88 1.153-2.254 1.889-3.801 1.889-2.633 0-4.768-2.135-4.768-4.768s2.135-4.768 4.768-4.768c0.887 0 1.717 0.242 2.429 0.664l-0.022-0.012c-0.004-0.080-0.006-0.175-0.006-0.269 0-0.164 0.007-0.327 0.021-0.488l-0.001 0.021c-0.701-0.358-1.53-0.568-2.407-0.568-0.007 0-0.014 0-0.021 0h0.001z"></path>
<path fill="#ce1126" d="M17.394 9.037h4.098c5.241 0 7.532-1.872 8.435-3.53 0.052-0.097-0.013-0.123-0.11-0.032-1.142 1.026-2.84 2.814-9.791 2.814h-2.93c-4.608 0-6.344 2.078-6.796 3.459 0.275 0.070 0.501 0.143 0.721 0.228l-0.043-0.015c0.82-1.478 2.381-2.924 6.415-2.924zM1.588 16.698c0.174 0.142 0.032 0.387 0.155 0.561 0.977-2.733 3.543-4.653 6.558-4.653 0.822 0 1.611 0.143 2.343 0.405l-0.049-0.015q0.247 0.086 0.486 0.191c0.087-0.203 0.16-0.355 0.239-0.505l-0.019 0.040c-0.881-0.396-1.91-0.626-2.993-0.626-3.040 0-5.656 1.818-6.82 4.425l-0.019 0.047q-0.042 0.096-0.081 0.193c0.065 0.039 0.129-0.129 0.2-0.065zM14.328 22.887c-0.349 0.084-0.8 0.032-1.284-0.11-1.047 1.524-2.78 2.511-4.744 2.511-3.169 0-5.737-2.569-5.737-5.737 0-0 0-0 0-0v0c0-0.103 0-0.207 0.006-0.303-0.174 0.265-0.123 0.71-0.439 0.71-0.252 0-0.11-0.342-0.297-0.342-0.11 0-0.129 0.161-0.265 0.161-0.019 0-0.032-0.006-0.045-0.006-0.032 0-0.045 0.064-0.103 0.064-0.071 0-0.123-0.090-0.181-0.090-0.065 0-0.090 0.129-0.174 0.129-0.090 0-0.174-0.149-0.213-0.219 0.060 4.069 3.373 7.345 7.45 7.345 3.104 0 5.765-1.898 6.885-4.597l0.018-0.049c-0.633-0.202-1.174-0.432-1.688-0.704l0.055 0.027c0.045 0.497 0.755 1.213 0.755 1.213z"></path>
<path fill="#ce1126" d="M17.304 10.096c-4.105 0-6.467 2.82-6.196 5.512 0.2 2.007-0.923 3.634-0.923 3.634s1.568-0.71 1.568-3.563c0-2.711 2.691-4.679 4.963-4.679 2.194 0 4.737 0.013 6.002 0.013 6.693 0 8.313-3.092 8.545-3.698 0.039-0.090-0.019-0.071-0.039-0.026-1.401 1.885-3.356 2.962-8.668 2.962-3.414 0-4.492-0.155-5.26-0.155z"></path>
<path fill="#ce1126" d="M11.689 18.144c0.303 0.161 1.794-0.052 2.569-0.536-0.794-0.678-2.072-0.916-2.072-0.916-0.174 0.478-0.361 0.962-0.497 1.452zM17.788 12.238c-0.090-0.355-0.523-0.426-0.82-0.594-0.116-0.071-0.252-0.039-0.387 0.019-0.29 0.129-0.671-0.084-0.968 0.129-0.090 0.065-0.136 0.181-0.245 0.207-0.119 0.029-0.262 0.051-0.409 0.064l-0.011 0.001c-0.052 0.007-0.148 0.039-0.142 0.097 0.032 0.252-0.2 0.303-0.387 0.368-0.181 0.065-0.116 0.303-0.123 0.478 1.2 0.013 2.44-0.155 3.492-0.768zM13.877 13.29c-0.058 0.007-0.097 0.097-0.142 0.161-0.103 0.149-0.432 0.116-0.432 0.284 0.006 0.303-0.336 0.361-0.394 0.581-0.039 0.174-0.136 0.303-0.148 0.491 1.226 0.007 2.491-0.071 3.582-0.697 0.284-0.129-1.497-0.962-2.465-0.82zM12.295 16.111c0.019 0.155-0.019 0.407 0.013 0.407 0.203 0.023 0.437 0.035 0.675 0.035 0.989 0 1.927-0.222 2.765-0.62l-0.039 0.017c0.303-0.129-1.162-0.891-2.375-0.891-0.002-0-0.005-0-0.008-0-0.241 0-0.467 0.062-0.664 0.171l0.007-0.004c-0.071 0.039-0.123 0.2-0.206 0.316-0.058 0.090 0.058 0.226 0.013 0.284-0.090 0.11-0.2 0.174-0.181 0.284zM18.827 12.438c-1.104 0-1.213 0.31-1.213 0.31-0.039 0.045-0.019 0.149-0.097 0.174-0.252 0.097-0.536-0.11-0.749 0.174-0.136 0.168-0.452-0.039-0.658 0.077-0.045 0.026 0 0.148 0.032 0.161 0.097 0.045 0.258 0.032 0.323 0.077 0.065 0.052 0.052 0.129 0.116 0.174 0.071 0.052 0.207 0.077 0.271 0.161 0.045 0.065 0.064 0.194 0.129 0.194 1.665 0.097 3.369 0.097 4.95-0.516 0.174-0.277-1.549-0.987-3.104-0.987z"></path>
<path fill="#ce1126" d="M28.611 10.037c-0.045 0.026-0.032 0.187-0.129 0.232-0.161 0.077-0.355 0.077-0.529 0.129-0.064 0.019-0.064 0.11-0.123 0.149-0.090 0.058-0.219 0.006-0.284 0.058-0.426 0.31-0.936 0.174-1.407 0.252 0.006 0.355-0.555 0.136-0.787 0.29-0.252 0.174-0.213 0.123-0.594 0.129-0.11 0-0.052 0.174-0.142 0.174-0.303 0.007-0.684-0.090-0.91-0.026-0.039 0.013-0.052 0.2-0.129 0.219-0.161 0.045-0.336 0.065-0.491 0.116-0.123 0.039 0.032 0.265-0.123 0.316-0.278 0.084-0.581 0.019-0.852 0.181-0.11 0.058-0.271 0-0.407 0.026-0.123 0.026-0.168 0.148-0.071 0.206 0.090 0.045 0.239 0.032 0.323 0.078 0.207 0.103 0.368 0.245 0.587 0.258 3.563 0.219 8.164-2.311 8.887-5.376 0.026-0.123-0.032-0.097-0.058-0.032-0.768 1.839-2.762 2.62-2.762 2.62zM29.444 12.012c-0.124-0.030-0.266-0.047-0.412-0.047-0.082 0-0.163 0.005-0.243 0.016l0.009-0.001c-0.045 0.013-0.077 0.084-0.123 0.097-0.277 0.045-0.478 0.181-0.768 0.187-0.099 0.015-0.188 0.042-0.271 0.080l0.006-0.003c-0.11 0.052-0.252-0.071-0.336 0.019-0.052 0.058 0.039 0.207-0.052 0.252-0.252 0.116-0.549-0.097-0.794 0.065-0.071 0.045 0.077 0.2-0.013 0.232-0.355 0.11-0.968-0.439-1.194 0.129-0.039 0.090-0.148 0.052-0.219 0.032-0.065-0.019-0.162-0.052-0.2-0.013-0.219 0.174-0.342 0.245-0.645 0.155-0.077-0.019-0.084 0.213-0.232 0.174-0.168-0.039-0.336-0.168-0.491-0.097-0.071 0.032-0.019 0.226-0.123 0.232-0.426 0.045-0.865-0.019-1.259 0.155-0.090 0.045-0.103 0.219-0.239 0.239-0.297 0.052-0.594 0.019-0.871 0.11-0.045 0.013-0.039 0.142 0.032 0.155 0.174 0.026 0.381 0 0.516 0.077 0.168 0.103 0.278 0.387 0.439 0.394 3.369 0.065 5.802-1.142 7.474-2.537 0.071-0.058 0.039-0.077 0.006-0.103zM26.72 14.484c-0.136 0.045-0.323-0.084-0.439 0-0.174 0.129-0.381 0.103-0.555 0.084-0.084-0.007-0.219-0.039-0.297 0.019-0.045 0.039 0.026 0.103 0.071 0.142-0.452 0.155-0.949 0.013-1.375 0.181-0.032 0.019-0.052 0.174-0.129 0.187-0.394 0.077-0.755-0.071-1.142 0-0.097 0.013-0.058 0.226-0.155 0.226-0.086 0.003-0.187 0.004-0.288 0.004-0.264 0-0.526-0.011-0.785-0.033l0.034 0.002c-0.413-0.019-0.794 0.136-1.181 0.252-0.116 0.039-0.155 0.219-0.278 0.239-0.336 0.052-0.678-0.007-0.987 0.148-0.019 0.006-0.019 0.11 0 0.123 0.374 0.213 0.807 0.361 1.065 0.703 2.627-0.026 5.447-0.368 7.629-2.162 0.045-0.032-0.213-0.084-0.355-0.123-0.152-0.017-0.29-0.046-0.422-0.088l0.015 0.004c-0.148-0.045-0.284 0.039-0.426 0.090zM24.287 16.911c-0.219 0.103-0.471-0.013-0.71 0.045-0.058 0.013-0.013 0.103-0.078 0.116-0.232 0.032-0.478-0.032-0.697 0.058-0.168 0.064-0.381-0.013-0.568-0.006-0.071 0-0.071 0.097-0.084 0.174-0.020 0.057-0.073 0.097-0.136 0.097-0.002 0-0.004-0-0.006-0h0c-0.192-0.052-0.426-0.098-0.666-0.127l-0.025-0.002c-0.6-0.084-1.194-0.277-1.756-0.11-0.181 0.058-0.426 0.103-0.561 0.245-0.058 0.058-0.11 0.168-0.187 0.194-0.342 0.123-0.716 0.148-1.058 0.271-0.103 0.032-0.297 0.181-0.226 0.2 0.659 0.182 1.418 0.292 2.201 0.303l0.006 0c2.22 0 3.911-0.542 5.15-1.22-0.077-0.090-0.439-0.316-0.6-0.239zM21.363 19.054c-0.168 0.045-0.29-0.071-0.433-0.019-0.026 0.013-0.052 0.064-0.077 0.064-0.258 0-0.426-0.271-0.691-0.252-0.065 0.006-0.065 0.116-0.116 0.129-0.161 0.039-0.303-0.155-0.452-0.084-0.047 0.023-0.101 0.037-0.159 0.037-0.040 0-0.078-0.006-0.114-0.018l0.003 0.001c-0.129-0.039-0.226-0.155-0.349-0.174-0.11-0.019-0.219 0.090-0.342 0.058-0.31-0.097-0.549-0.387-0.878-0.316-0.168 0.032-0.303-0.077-0.42-0.006-0.123 0.071-0.161 0.161-0.284 0.232-0.084 0.052-0.284 0.045-0.374 0.097-0.064 0.045-0.084 0.149-0.161 0.181-0.142 0.058-0.31 0.019-0.452 0.090-0.013 0.013-0.026 0.090 0.032 0.103 1.265 0.426 3.311 0.897 5.757 0.265 0.071-0.026 0.090-0.064 0.026-0.136-0.136-0.155-0.316-0.31-0.516-0.252zM18.24 20.48c-0.058-0.006-0.155 0.077-0.213 0.064-0.168-0.026-0.297-0.181-0.503-0.284-0.084-0.045-0.123 0.155-0.187 0.148-0.336-0.019-0.82-0.374-1.123-0.555-0.052-0.032-0.368 0.032-0.426 0.045-0.187 0.039-0.432-0.297-0.587-0.368-0.11-0.058-0.271-0.11-0.381-0.032-0.148 0.11-0.323 0.052-0.484 0.052-0.065-0.006-0.123 0.129-0.194 0.155-0.226 0.071-0.471-0.084-0.684 0.026-0.017 0.017-0.028 0.039-0.032 0.064l-0 0.001c0.013 0.136 0.161 0.155 0.265 0.219 1.549 0.981 3.943 1.297 5.273 1 0.032-0.006-0.013-0.123-0.103-0.194-0.079-0.046-0.172-0.092-0.269-0.131l-0.015-0.005c-0.142-0.097-0.213-0.187-0.336-0.206zM16.245 21.7c-0.156-0.059-0.282-0.116-0.403-0.178l0.023 0.011c-0.077-0.032-0.148 0.090-0.232 0.039-0.171-0.119-0.318-0.233-0.459-0.355l0.007 0.006c-0.103-0.090-0.316-0.303-0.407-0.258-0.039 0.019-0.090 0.213-0.174 0.149-0.197-0.162-0.373-0.324-0.541-0.496l-0.001-0.001c-0.090-0.077-0.174 0.181-0.29 0.123-0.258-0.123-0.368-0.407-0.568-0.607-0.232-0.232-0.458-0.51-0.781-0.594-0.058-0.013-0.026 0.065-0.077 0.103-0.245 0.194-0.516-0.136-0.755-0.245-0.219-0.103-0.413-0.265-0.665-0.284-0.052 0-0.045 0.077-0.026 0.103 1.407 1.665 3.363 2.917 5.512 2.866 0.052 0 0.155 0.006 0.071-0.097-0.071-0.084-0.149-0.265-0.232-0.284zM13.276 22.035c-0.045-0.090-0.168-0.039-0.258-0.097-0.065-0.032-0.090-0.161-0.155-0.213-0.045-0.039-0.155 0.045-0.219 0.013-0.084-0.045-0.142-0.155-0.207-0.226-0.077-0.077-0.142-0.168-0.213-0.245-0.060-0.078-0.133-0.142-0.216-0.192l-0.004-0.002c-0.045-0.026-0.136 0.032-0.187 0.019-0.103-0.032-0.161-0.2-0.239-0.271-0.045-0.039-0.116-0.045-0.155-0.084-0.045-0.039-0.052-0.11-0.097-0.162-0.058-0.064-0.142-0.084-0.207-0.136-0.084-0.071-0.142-0.245-0.213-0.342-0.065-0.097-0.155-0.11-0.219-0.194-0.077-0.103-0.123-0.284-0.219-0.394-0.097-0.103-0.336 0.065-0.407 0.213-0.053 0.094-0.084 0.206-0.084 0.326 0 0.161 0.056 0.308 0.15 0.424l-0.001-0.001c0.904 1.007 2.078 1.846 3.421 2.065-0.103-0.142-0.207-0.394-0.271-0.503zM22.415 11.567c0.045-0.032 0.006-0.181-0.032-0.187-0.181-0.026-0.387-0.103-0.587 0.077-0.064 0.058-0.194-0.071-0.284-0.013-0.077 0.045-0.149 0.168-0.219 0.2-0.194 0.084-0.381-0.116-0.594-0.090-0.058 0.007-0.045 0.142-0.103 0.155-0.187 0.045-0.342-0.155-0.445-0.084-0.161 0.097-0.29 0.226-0.478 0.142s-0.426-0.252-0.555-0.148c-0.213 0.194-0.478-0.084-0.671-0.013-0.161 0.065-0.594 0.168-0.297 0.342 0.923 0.555 2.846 0.445 4.266-0.381zM20.46 15.059c0.136-0.090 0.303-0.097 0.381-0.219 0.181-0.232-1.523-0.607-2.22-0.607-0.684 0-1.956 0.168-2.169 0.245-0.090 0.039-0.097 0.219-0.2 0.239-0.207 0.019-0.407 0.045-0.613 0.065-0.065 0.007-0.052 0.11-0.026 0.129 0.111 0.083 0.192 0.201 0.225 0.338l0.001 0.004c0.007 0.013 0.148 0 0.174 0.026 0.136 0.116 0.232 0.277 0.394 0.316 0.807 0.194 1.588 0.252 2.414 0.058 0.090-0.019 0.155-0.090 0.232-0.103 0.29-0.039 0.594-0.052 0.813-0.265 0.161-0.155 0.413-0.11 0.594-0.226zM18.595 17.156c0.329-0.168 0.716-0.181 0.955-0.503-1.459-0.768-3.156-0.684-3.362-0.568-0.058 0.032-0.116 0.136-0.181 0.181-0.097 0.065-0.194 0.032-0.258 0.097-0.039 0.039 0.007 0.149-0.026 0.187-0.032 0.052-0.116 0.058-0.168 0.084-0.052 0.032-0.155-0.013-0.239 0.019-0.077 0.032-0.084 0.11-0.136 0.136-0.2 0.097-0.478-0.013-0.613-0.013-0.071 0-0.052 0.11-0.032 0.129 0.090 0.090 0.342 0.116 0.329 0.245 0 0.026-0.058 0.11-0.097 0.116 0.136 0.284 1.375 0.665 3.014 0.123 0.271-0.084 0.555-0.097 0.813-0.232zM11.463 18.428c-0.142 0.077-0.31 0.297-0.181 0.387 0.239 0.155 0.633 0.516 2.433 0.516 1.762 0 2.433-0.542 2.762-0.878 0-0.219-1.543-0.665-1.755-0.542-0.045 0.023-0.076 0.069-0.077 0.122v0c-0.071 0.026-0.284 0.032-0.336 0.064-0.123 0.090-0.097 0.232-0.129 0.239-0.278 0.071-0.613-0.103-0.878 0.019-0.065 0.032-0.065 0.226-0.155 0.232-0.187 0.013-0.394-0.103-0.574-0.045-0.072 0.018-0.134 0.040-0.194 0.067l0.007-0.003c-0.082-0.040-0.177-0.071-0.277-0.089l-0.007-0.001c-0.090-0.026-0.187 0.039-0.303 0.019-0.11-0.019-0.232-0.168-0.336-0.11z"></path>
</svg>
