<!-- Generated by IcoMoon.io -->
<svg version="1.1" xmlns="http://www.w3.org/2000/svg" width="32" height="32" viewBox="0 0 32 32">
<title>18</title>
<path fill="#fff" d="M0.357 12.13l0.985-1.292c0.051-0.077 0.141-0.128 0.23-0.141l9.271-1.854c-0.128-0.128-0.128-0.537 0.256-0.601 0.064-0.013 1.534-0.217 3.235-0.089l6.202-1.24c0.077-0.013 0.153 0 0.23 0.026l4.552 1.982c0.051 0.026 0.090 0.051 0.115 0.077l0.729 0.729 1.164 0.665c0.090 0.051 0.166 0.141 0.192 0.256l0.23 1.087 0.742 0.921 0.512 0.396 1.65 0.793c0.090 0.038 0.153 0.115 0.192 0.205l0.857 2.097c0.077 0.179 0 0.345-0.090 0.422 0 0-0.601 0.601-1.164 1.726-0.064 0.141-0.217 0.217-0.371 0.217-0.013 0-0.754-0.026-1.88 0.601-0.051 0.026-0.128 0.051-0.192 0.051h-1.138c-2.839 3.517-6.931 5.46-12.48 5.933-0.422 0.038-0.601-0.563-0.192-0.742l0.575-0.256c-0.128-0.077-0.179-0.473 0.128-0.614 0.051-0.026 5.32-2.366 6.854-6.841-1.010 0.205-3.031 0.639-4.578 1.151-1.010 0.332-1.637 0.857-2.008 1.291 0.153-0.064 0.358-0.153 0.537-0.153 0.422 0 0.601 0.332 0.601 0.332 0.038-0.013 0.077-0.026 0.115-0.026 0.345 0 0.729 0.281 0.729 0.703 0 0.665-1.036 1.496-1.854 1.854-0.102 0.512-0.575 1.138-2.238 1.138-1.407 0-2.366-0.678-2.66-0.908l-3.785-0.678c-0.307-0.051-0.396-0.396-0.243-0.601 0.013-0.013 1.036-1.483 1.036-2.992 0-4.066-6.713-4.987-6.777-5-0.307-0.051-0.448-0.396-0.269-0.627zM0.574 13.013c0.064 0.013 6.534 0.921 6.534 4.731 0 1.394-0.985 2.813-0.985 2.826-0.256 0.358-0.102 0.946 0.422 1.036l3.721 0.678c0.396 0.307 1.368 0.921 2.762 0.921 1.701 0 2.289-0.639 2.468-1.228 0.831-0.384 1.905-1.228 1.905-2.046 0-0.575-0.512-0.972-0.997-0.972-0.115-0.115-0.256-0.205-0.409-0.256 0.384-0.281 0.806-0.499 1.253-0.639 1.304-0.435 2.954-0.806 4.054-1.036-1.688 4.054-6.483 6.189-6.522 6.215-0.486 0.217-0.384 0.729-0.384 0.729l-0.32 0.141c-0.678 0.307-0.422 1.33 0.32 1.266 5.575-0.473 9.693-2.417 12.596-5.933h1.023c0.115 0 0.217-0.026 0.32-0.077 1.036-0.575 1.726-0.563 1.739-0.563 0.269 0.013 0.512-0.128 0.627-0.371 0.524-1.074 1.1-1.65 1.1-1.662 0.205-0.205 0.243-0.486 0.153-0.729l-0.857-2.097c-0.064-0.153-0.179-0.281-0.32-0.345l-1.624-0.78-0.46-0.358-0.691-0.857-0.23-1.036c-0.038-0.179-0.153-0.345-0.32-0.435l-1.125-0.639-0.703-0.703c-0.064-0.064-0.128-0.102-0.205-0.141l-4.552-1.982c-0.128-0.051-0.256-0.064-0.396-0.038l-6.163 1.228c-1.637-0.128-3.082 0.077-3.248 0.090-0.511 0.090-0.588 0.537-0.563 0.665-0.563 0.115-8.977 1.79-8.977 1.79-0.153 0.026-0.307 0.115-0.396 0.243l-0.985 1.317c-0.32 0.409-0.051 0.985 0.435 1.049z"></path>
<path fill="#fff" d="M28.86 14.585s1.023 0.652 1.483-0.179l-1.573-0.742c-0.435 0.256-0.87 0.384-1.266 0.448 0.767 0.205 1.355 0.473 1.355 0.473zM10.241 11.478s-1.215 0.499-2.059 1.752c0.422-0.115 0.831-0.217 1.253-0.32 0.384-0.857 0.806-1.432 0.806-1.432z"></path>
<path fill="#fff" d="M26.622 11.35l-0.217 0.831c0-0.627-0.371-0.997-1.471-1.637l1.688 0.806zM17.939 11.197c-0.908 0.038-1.624 0.371-2.174 0.78 0.742-0.051 1.471-0.064 2.212-0.064 0.371-0.486 0.588-1.023 0.588-1.586 0-0.972-0.499-1.534-0.499-1.534l2.404-0.537 0.742 0.371s-1.765 0.678-1.765 2.596c0 0.269 0.038 0.524 0.102 0.742 1.266 0.064 2.583 0.205 3.913 0.448 0 0 0.435 1.049 1.624 1.049 0.575 0 1.010-0.32 1.010-0.32 1.291 0.972 2.468 0.435 2.468 0.435l-0.448-0.371-0.422 0.23 0.256-0.396-0.166-0.179-0.563 0.294 0.358-0.537-0.128-0.141-0.486 0.205 0.281-0.473-0.192-0.294c-0.179 0.793-0.882 0.882-1.496 0.844l-0.026-0.345c-0.269 0.166-0.601 0.179-0.87 0.026s-0.448-0.435-0.448-0.754c0-0.269-1.343-1.471-1.343-1.471l1.726 0.537c1.445 0.448 1.381 1.164 1.407 1.56 0.243 0.102 0.793 0.192 1.036-0.384l-0.179-0.946-1.151-0.563-0.793-0.742-4.424-1.79-4.36 0.972c1.023 0.243 1.88 0.78 1.88 0.78s0.358 0.729-0.077 1.56zM23.221 14.227c-0.46 0.23-0.87 0.55-1.33 0.946l0.524-0.985s-1.394-0.051-2.724-0.026l-0.87 0.959c-0.332-0.102-0.678-0.153-1.023-0.166-0.026-0.486 0.166-1.036 0.588-1.56-0.563 0.422-0.908 0.972-0.972 1.573-0.243 0.013-0.486 0.064-0.716 0.128-0.115-0.396-0.102-0.895 0.077-1.432-0.332 0.499-0.46 1.036-0.396 1.534-0.23 0.089-0.46 0.192-0.665 0.332-0.205-0.307-0.332-0.729-0.345-1.228-0.115 0.511-0.089 0.985 0.089 1.394-0.742 0.55-1.074 1.228-1.074 1.228-2.353-0.422-3.785 1.547-3.836 2.928-0.153-0.959 0.153-2.66 2.059-3.465l0.627-1.471c0.038-0.089 0.089-0.179 0.153-0.256-2.097 0.371-3.414 1.202-3.414 1.202s-0.575 1.023-0.332 2.059c0 0-0.371-0.512-0.588-1.368-0.077 0.077-0.166 0.153-0.243 0.243 0.077 0.307 0.115 0.614 0.115 0.946 0 1.547-0.639 2.519-0.639 2.519l2.161 0.435s0.818 1.189 2.57 1.189c0.55 0 1.279-0.064 1.279-0.409 0-0.269-0.652-0.627-0.652-1.407 0-1.253 1.573-2.557 3.274-3.12 1.982-0.652 5-1.407 6.522-1.407 4.309 0 4.169 2.852 4.169 2.852l0.205-0.013c0.959-0.537 1.816-0.639 2.059-0.665 0.435-1.547-0.358-2.941-6.649-3.491zM6.226 11.44l5.575-1.24s0.217 0.716 1.176 1.292l-0.013 0.179c-0.448 0.089-1.138 0.371-1.79 0.895 1.087-0.205 2.187-0.358 3.286-0.46l0.281-0.665c-1.752 0.256-2.532-1.228-2.532-1.228l-0.141-0.448-10.153 2.251c1.1 0.077 2.302 0.422 3.401 0.985 0.269-0.882 0.908-1.56 0.908-1.56z"></path>
<path fill="#fff" d="M25.279 16.414c-1.982 0-1.944 4.207-8.926 7.762 5.933-0.857 10.422-4.898 10.422-6.56 0-0.614-1.010-1.202-1.496-1.202zM14.001 20.225c0.141 0.627 0.563 0.806 0.601 1.036 0 0 1.087-0.23 1.816-1.304-1.407 0.716-2.417 0.269-2.417 0.269zM12.518 10.046s0.639 1.087 1.777 1.087l1.176-0.077 0.972-1.010 1.317-0.205c-0.486-0.294-1.049-0.511-1.611-0.665l-1.1 1.547 0.703-1.637-0.614-0.115-0.946 1.33 0.588-1.381c-0.243-0.026-0.486-0.051-0.716-0.064l-0.729 1.010 0.435-1.036c-1.023-0.038-1.777 0.038-1.777 0.038l0.256 0.217 0.269 0.959zM5.906 13.319c0.217 0.128 0.422 0.269 0.614 0.409 0.179-0.064 0.396-0.128 0.639-0.205 0.384-1.432 1.151-2.378 1.151-2.378-1.598 0.588-2.263 1.893-2.404 2.174z"></path>
<path fill="#ffb81c" d="M30.1 18.127s-0.831-0.051-2.084 0.652h-1.049l-0.192-0.102c-2.839 3.657-6.867 5.563-12.416 6.036 0 0 1.88-0.831 2.903-1.368l-2.199 0.499s5.972-2.583 7.276-7.698c0 0-3.082 0.563-5.268 1.291-2.174 0.716-2.762 2.289-2.762 2.289 0.767-0.077 1.176-0.409 1.407-0.409 0.281 0 0.384 0.294 0.307 0.46 0.128-0.051 0.294-0.153 0.409-0.153 0.141 0 0.332 0.115 0.332 0.307 0 0.473-1.049 1.33-1.829 1.573 0 0.294-0.115 1.036-1.88 1.036-1.522 0-2.481-0.882-2.481-0.882l-3.887-0.703s1.112-1.56 1.112-3.21c0-4.463-7.11-5.383-7.11-5.383l0.985-1.291 10.025-2.008-0.524-0.448s1.509-0.217 3.197-0.077l6.24-1.253 4.552 1.982 0.767 0.767 1.202 0.691 0.269 1.189 0.831 1.023 0.575 0.448 1.688 0.818 0.857 2.097c-0.013-0.013-0.652 0.614-1.253 1.829zM31.699 16.145l-0.857-2.097c-0.038-0.089-0.102-0.166-0.192-0.205l-1.65-0.793-0.512-0.396-0.742-0.921-0.243-1.1c-0.026-0.102-0.090-0.192-0.192-0.256l-1.164-0.665-0.729-0.729c-0.038-0.038-0.077-0.064-0.115-0.077l-4.552-1.982c-0.077-0.026-0.153-0.038-0.23-0.026l-6.202 1.24c-1.688-0.128-3.171 0.077-3.235 0.089-0.384 0.064-0.384 0.473-0.243 0.601l-9.271 1.854c-0.089 0.013-0.179 0.077-0.23 0.141l-0.985 1.304c-0.179 0.23-0.038 0.575 0.256 0.614 0.064 0.013 6.777 0.921 6.777 5 0 1.496-1.023 2.967-1.036 2.992-0.153 0.205-0.064 0.55 0.243 0.601l3.785 0.678c0.281 0.23 1.253 0.908 2.66 0.908 1.662 0 2.135-0.627 2.238-1.138 0.818-0.345 1.854-1.176 1.854-1.854 0-0.422-0.371-0.703-0.729-0.703-0.038 0-0.077 0.013-0.115 0.026 0 0-0.179-0.332-0.601-0.332-0.179 0-0.384 0.090-0.537 0.153 0.384-0.435 1.010-0.959 2.008-1.291 1.547-0.512 3.568-0.946 4.578-1.151-1.534 4.463-6.803 6.816-6.854 6.841-0.307 0.141-0.256 0.537-0.128 0.614l-0.575 0.256c-0.409 0.179-0.23 0.78 0.192 0.742 5.563-0.473 9.642-2.417 12.48-5.933h1.138c0.064 0 0.128-0.013 0.192-0.051 1.125-0.627 1.867-0.601 1.88-0.601 0.153 0.013 0.294-0.077 0.371-0.217 0.55-1.125 1.151-1.726 1.164-1.726 0.090-0.077 0.166-0.23 0.102-0.409z"></path>
<path fill="#ffb81c" d="M25.215 12.258c0.179 0 0.307-0.089 0.307-0.089-0.013-0.064-0.026-0.128-0.038-0.179-0.038 0.026-0.102 0.051-0.179 0.051-0.192 0-0.32-0.153-0.32-0.32 0-0.141 0.090-0.269 0.23-0.307-0.166-0.243-0.345-0.345-0.345-0.345s-0.294 0.166-0.294 0.537c0 0.384 0.32 0.652 0.639 0.652zM7.032 14.138c0.038-0.205 0.077-0.409 0.128-0.601-0.243 0.077-0.46 0.141-0.639 0.205 0.179 0.115 0.358 0.256 0.511 0.396zM14.346 13.754l-0.678 0.153 0.78-1.829c-1.189 0.115-2.289 0.281-3.286 0.473-0.933 0.742-1.816 1.944-1.816 3.747 0 0.895 0.294 1.637 0.294 1.637-0.23-1.049 0.332-2.072 0.332-2.072s1.317-0.844 3.427-1.228c0.153-0.179 0.371-0.307 0.678-0.384 1.522-0.396 3.069-1.253 3.9-2.34-0.754 0-1.496 0.026-2.212 0.064-0.997 0.754-1.419 1.777-1.419 1.777zM23.476 12.399c-1.33-0.243-2.647-0.384-3.913-0.448 0.256 0.895 0.87 1.381 0.87 1.381l-0.742 0.806c1.33-0.026 2.724 0.026 2.724 0.026l-0.524 0.985 1.381-1.496 0.205-1.253zM9.449 12.91c-0.46 0.102-0.87 0.217-1.253 0.32-0.281 0.435-0.499 0.908-0.627 1.407 0.601 0.639 1.049 1.368 1.253 2.161 0.077-0.090 0.153-0.166 0.243-0.243-0.102-0.409-0.153-0.831-0.153-1.253-0.013-0.882 0.243-1.713 0.537-2.391zM28.86 14.585s-0.588-0.269-1.355-0.473c-1.176 0.166-2.072-0.32-2.072-0.32-0.972 0-1.637 0.153-2.212 0.448 6.291 0.55 7.084 1.944 6.675 3.491h0.077s0.422-0.793 0.921-1.368c0 0-0.639-1.343-2.89-1.458l0.857-0.32z"></path>
<path fill="#041e42" d="M5.906 13.319c0.128-0.281 0.806-1.586 2.404-2.174 0 0-0.767 0.946-1.138 2.378-0.051 0.205-0.090 0.396-0.128 0.601-0.166-0.141-0.332-0.281-0.511-0.396-0.205-0.141-0.409-0.281-0.627-0.409zM1.917 12.015l10.14-2.276 0.128 0.448s0.793 1.483 2.532 1.228l-0.281 0.665-0.767 1.829 0.678-0.153s0.422-1.023 1.419-1.777c0.55-0.409 1.266-0.742 2.174-0.78 0.422-0.831 0.102-1.586 0.102-1.586s-0.844-0.537-1.88-0.78l4.36-0.972 4.424 1.79 0.793 0.742 1.151 0.563 0.179 0.946 0.192 0.294-0.281 0.473 0.486-0.205 0.128 0.141-0.358 0.537 0.575-0.294 0.166 0.179-0.256 0.396 0.422-0.23 0.448 0.371s-1.176 0.537-2.468-0.435c0 0-0.435 0.32-1.010 0.32-1.189 0-1.624-1.049-1.624-1.049l-0.217 1.253-1.368 1.509c0.46-0.384 0.857-0.703 1.33-0.946 0.575-0.281 1.24-0.448 2.212-0.448 0 0 0.895 0.499 2.072 0.32 0.396-0.051 0.831-0.192 1.266-0.448l1.573 0.742c-0.46 0.831-1.483 0.179-1.483 0.179l-0.87 0.307c2.251 0.115 2.89 1.458 2.89 1.458-0.499 0.575-0.921 1.368-0.921 1.368h-0.077c-0.243 0.013-1.1 0.128-2.059 0.665l-0.205 0.013s0.141-2.852-4.169-2.852c-1.522 0-4.54 0.754-6.522 1.407-1.688 0.563-3.274 1.867-3.274 3.12 0 0.767 0.652 1.138 0.652 1.407 0 0.358-0.729 0.409-1.279 0.409-1.752 0-2.57-1.189-2.57-1.189l-2.161-0.435s0.639-0.972 0.639-2.519c0-0.32-0.038-0.639-0.115-0.946-0.205-0.793-0.652-1.534-1.253-2.161 0.128-0.499 0.332-0.972 0.627-1.407 0.818-1.228 2.033-1.726 2.033-1.726s-0.422 0.575-0.793 1.432c-0.294 0.678-0.55 1.509-0.55 2.404 0 0.473 0.064 0.895 0.153 1.253 0.217 0.857 0.588 1.368 0.588 1.368s-0.294-0.742-0.294-1.637c0-1.79 0.87-3.005 1.816-3.747 0.665-0.511 1.355-0.806 1.79-0.895l0.013-0.179c-0.933-0.563-1.164-1.279-1.164-1.279l-5.575 1.253s-0.652 0.678-0.908 1.56c-1.1-0.575-2.302-0.921-3.401-0.997zM13.758 8.831l-0.435 1.036 0.729-1.010c0.243 0.013 0.486 0.038 0.716 0.064l-0.588 1.381 0.946-1.33c0.205 0.026 0.409 0.064 0.614 0.115l-0.703 1.637 1.1-1.547c0.563 0.153 1.113 0.371 1.611 0.665l-1.317 0.205-0.972 1.010-1.176 0.077c-1.138 0-1.777-1.087-1.777-1.087l-0.281-0.959-0.256-0.217c0.013 0 0.767-0.077 1.79-0.038zM16.354 24.163c6.969-3.555 6.944-7.762 8.926-7.762 0.486 0 1.496 0.588 1.496 1.202 0 1.662-4.476 5.703-10.422 6.56zM16.418 19.956c-0.729 1.074-1.816 1.304-1.816 1.304-0.038-0.23-0.46-0.409-0.601-1.036 0 0 1.010 0.448 2.417-0.269zM7.773 17.744c0 1.65-1.112 3.21-1.112 3.21l3.887 0.703s0.972 0.882 2.481 0.882c1.765 0 1.88-0.742 1.88-1.036 0.78-0.256 1.829-1.1 1.829-1.573 0-0.192-0.192-0.307-0.332-0.307-0.115 0-0.281 0.090-0.409 0.153 0.077-0.166-0.026-0.46-0.32-0.46-0.23 0-0.639 0.332-1.407 0.409 0 0 0.588-1.573 2.762-2.289 2.187-0.729 5.268-1.291 5.268-1.291-1.304 5.115-7.276 7.698-7.276 7.698l2.199-0.499c-1.023 0.537-2.903 1.368-2.903 1.368 5.55-0.473 9.591-2.378 12.417-6.036l0.192 0.102h1.049c1.253-0.703 2.084-0.652 2.084-0.652 0.601-1.215 1.228-1.841 1.228-1.841l-0.857-2.097-1.688-0.818-0.575-0.448-0.831-1.023-0.269-1.189-1.202-0.691-0.767-0.767-4.501-1.969-6.253 1.253c-1.688-0.141-3.197 0.077-3.197 0.077l0.524 0.448-10.025 2.008-0.985 1.291s7.11 0.921 7.11 5.383z"></path>
<path fill="#041e42" d="M25.215 12.258c-0.32 0-0.639-0.269-0.639-0.639s0.307-0.537 0.307-0.537 0.166 0.102 0.345 0.345c-0.141 0.038-0.23 0.166-0.23 0.307 0 0.166 0.115 0.32 0.32 0.32 0.077 0 0.141-0.026 0.179-0.051 0.013 0.064 0.026 0.115 0.038 0.179-0.013-0.013-0.141 0.077-0.32 0.077zM26.034 12.296c-0.013-0.396 0.051-1.113-1.407-1.56l-1.726-0.537s1.343 1.189 1.343 1.471c0 0.473 0.384 0.857 0.857 0.857 0.166 0 0.32-0.051 0.46-0.128l0.026 0.345c0.601 0.051 1.317-0.051 1.496-0.844-0.256 0.575-0.806 0.499-1.049 0.396z"></path>
<path fill="#041e42" d="M10.574 19.828c0.051-1.381 1.483-3.363 3.836-2.928 0.269-0.486 0.639-0.895 1.074-1.228-0.179-0.435-0.217-0.933-0.089-1.394 0 0.435 0.115 0.857 0.345 1.228 0.217-0.128 0.435-0.243 0.665-0.332-0.064-0.537 0.077-1.087 0.396-1.534-0.179 0.46-0.205 0.959-0.077 1.432 0.23-0.064 0.473-0.102 0.716-0.128 0.077-0.601 0.409-1.151 0.972-1.573-0.422 0.524-0.614 1.074-0.588 1.56 0.345 0.013 0.691 0.064 1.023 0.166l0.87-0.959 0.742-0.806c-0.422-0.358-0.729-0.844-0.87-1.381-0.064-0.243-0.102-0.486-0.102-0.742 0-1.918 1.765-2.596 1.765-2.596l-0.742-0.371-2.43 0.55c0.332 0.448 0.512 0.985 0.499 1.534-0.013 0.575-0.23 1.138-0.588 1.586-0.818 1.087-2.378 1.944-3.9 2.34-0.256 0.051-0.499 0.192-0.678 0.384-0.064 0.077-0.115 0.153-0.153 0.243l-0.627 1.471c-1.905 0.818-2.212 2.519-2.059 3.478zM26.405 12.181l0.217-0.831-1.688-0.806c1.1 0.639 1.471 1.010 1.471 1.637z"></path>
</svg>
