<!-- Generated by IcoMoon.io -->
<svg version="1.1" xmlns="http://www.w3.org/2000/svg" width="32" height="32" viewBox="0 0 32 32">
<title>19</title>
<path fill="#002654" d="M32 3.212h-26.442c1.749 2.73 2.336 3.634 0.845 3.588l-2.201-3.588h-4.202l9.552 15.612c-0.129-0.006-0.258-0.013-0.387-0.013-3.918 0-6.983 2.188-6.983 4.989s3.066 4.989 6.983 4.989 6.983-2.188 6.983-4.989c-0.002-0.753-0.218-1.455-0.59-2.049l0.009 0.016-2.143-3.498s1.723 0.349 3.014-0.252l-0.62-0.8s2.627 0.245 5.047-0.478l-0.82-0.871c2.541-0.216 4.75-1.479 6.22-3.35l0.014-0.019h-0.252s1.904-0.916 2.704-2.949h-0.252s1.22-0.904 1.633-2.769h-0.355s1.936-1.368 2.239-3.569z"></path>
<path fill="#fff" d="M31.348 3.67h-24.932c2.040 3.098 1.439 3.595-0.271 3.595l-2.201-3.595h-3.124l9.597 15.683c-0.375-0.052-0.809-0.082-1.25-0.084h-0.002c-3.659 0-6.525 1.988-6.525 4.531 0 2.536 2.866 4.531 6.525 4.531s6.525-1.994 6.525-4.531c-0.003-0.666-0.197-1.286-0.531-1.808l0.008 0.014-2.717-4.434s1.891 0.62 3.214 0.207l-0.833-1.078s3.124 0.258 5.208-0.161l-0.994-1.058s4.653-0.045 6.383-2.917h-0.794s2.194-0.303 3.298-2.672h-0.807s1.885-0.871 2.394-2.846h-0.878s1.962-1.297 2.704-3.375z"></path>
<path fill="#fcb514" d="M30.825 3.999h-23.834c1.413 2.149 1.678 3.731-1.033 3.582l-2.194-3.582h-2.369l9.674 15.799c-0.572-0.13-1.229-0.206-1.903-0.207h-0.001c-3.42 0-6.202 1.891-6.202 4.208s2.782 4.208 6.202 4.208 6.202-1.891 6.202-4.208c-0.005-0.601-0.179-1.16-0.479-1.633l0.008 0.013-3.156-5.15s1.988 0.697 3.363 0.549c-0.303-0.367-0.6-0.776-0.873-1.201l-0.030-0.051c0.813 0.085 1.756 0.133 2.71 0.133 0.882 0 1.754-0.041 2.615-0.122l-0.11 0.008-1.11-1.175h0.29c4.789 0 6.228-2.452 6.228-2.452h-1.304s3.233-0.82 3.924-2.672h-1.2s2.562-1.259 2.814-2.679h-1.465c0.006 0 2.556-1.439 3.233-3.369z"></path>
<path fill="#002f87" d="M30.27 4.341h-22.666c1.878 3.066-0.006 3.763-1.846 3.569l-2.188-3.569h-1.562l9.804 16.012c-0.782-0.266-1.683-0.42-2.62-0.42-0.009 0-0.018 0-0.027 0h0.001c-3.233 0-5.854 1.73-5.854 3.866s2.62 3.866 5.854 3.866c3.24 0 5.86-1.73 5.86-3.866-0.003-0.535-0.161-1.032-0.432-1.45l0.006 0.010-3.634-5.938s2.349 0.813 3.433 0.813c-0.295-0.378-0.56-0.806-0.776-1.262l-0.018-0.042s2.814 0.303 5.066 0.123l-1.226-1.291c0.297 0.042 0.639 0.066 0.988 0.066 0.057 0 0.113-0.001 0.17-0.002l-0.008 0c3.963 0 5.479-1.762 5.479-1.762h-11.778l-0.174-0.284h9.778s3.982-0.762 4.944-2.394h-16.186l-0.168-0.278h14.896s2.775-1.336 3.169-2.394h-19.536l-0.168-0.278h17.955c0-0.006 2.614-1.368 3.466-3.098z"></path>
</svg>
