<!-- Generated by IcoMoon.io -->
<svg version="1.1" xmlns="http://www.w3.org/2000/svg" width="32" height="32" viewBox="0 0 32 32">
<title>2</title>
<path fill="#fff" d="M16 0.565c-8.836 0-15.999 6.911-15.999 15.435s7.163 15.435 15.999 15.435c8.836 0 15.999-6.91 15.999-15.435s-7.163-15.435-15.999-15.435z"></path>
<path fill="#fc4c02" d="M16 1.702c-8.208 0-14.861 6.401-14.861 14.298s6.653 14.298 14.861 14.298c8.207 0 14.86-6.401 14.86-14.298s-6.653-14.298-14.86-14.298z"></path>
<path fill="#003087" d="M5.149 19.397v-0.933l-0.922-0.81v1.802c0.281-0.075 0.628 0.021 0.922-0.058z"></path>
<path fill="#003087" d="M29.915 15.151c-1.309 0.459-2.938 0.995-4.201 1.428-0.425-0.069-0.716 0.169-1.018 0.369-0.45 0.194-1.017 0.116-1.461 0.305-0.414 0.342-1.027 0.486-1.535 0.27-0.137-0.155-0.316-0.344-0.531-0.295-0.338 0.034-0.408 0.646-0.826 0.327-0.258 0.136-0.483 0.325-0.768 0.393l-0.429 0.106-0.161 0.344-0.147 0.313-0.099 0.21-0.147 0.313-0.099 0.21-0.148 0.313-0.099 0.21-0.147 0.313-1.182 2.516c-0.075 0.156-0.213 0.271-0.381 0.312l-0.004 0.001-1.905 0.454c0.010 0.008 0.018 0.018 0.024 0.028l0 0 1.261 2.618v-2.39c0-0 0-0 0-0 0-0.066 0.053-0.119 0.119-0.119 0.005 0 0.010 0 0.015 0.001l-0.001-0 0.684 0.081c0.059 0.007 0.105 0.057 0.105 0.118 0 0 0 0 0 0v0 4.323c0 0.063-0.049 0.115-0.112 0.119h-0l-0.763 0.045c-0.002 0-0.005 0-0.007 0-0.046 0-0.086-0.026-0.105-0.064l-0-0.001-1.492-2.908v2.77c-0 0.066-0.054 0.119-0.119 0.119-0.005 0-0.011-0-0.016-0.001l0.001 0-0.684-0.094c-0.058-0.008-0.103-0.058-0.103-0.118 0-0 0-0 0-0v0-4.243l-0.799 0.19 0.633 4.009c0.001 0.004 0.001 0.009 0.001 0.014 0 0.053-0.043 0.095-0.095 0.095-0.011 0-0.021-0.002-0.030-0.005l0.001 0-0.767-0.25c-0.034-0.011-0.059-0.040-0.064-0.075l-0-0.001-0.145-0.909-1.003-0.327-0.189 0.748c-0.011 0.042-0.048 0.072-0.092 0.072-0.011 0-0.021-0.002-0.030-0.005l0.001 0-0.734-0.238c-0.039-0.013-0.066-0.048-0.066-0.090 0-0.008 0.001-0.017 0.003-0.024l-0 0.001 0.656-2.559-0.635 0.152c-0.015 0.004-0.032 0.006-0.049 0.006-0.107 0-0.196-0.078-0.213-0.181l-0-0.001-0.39-2.562c-0.002-0.010-0.002-0.021-0.002-0.032 0-0.107 0.078-0.196 0.181-0.212l0.001-0 0.003-0 6.405-0.882c0.192-0.027 0.351-0.146 0.433-0.311l0.002-0.003 0.661-1.342 0.152-0.31 0.103-0.208 0.152-0.31 0.041-0.083c-0.298-0.019-0.735 0.206-0.958 0.256-0.338 0.103-0.85-0.070-0.974 0.376-0.125 0.087-0.28 0.14-0.447 0.14-0.112 0-0.219-0.023-0.315-0.066l0.005 0.002c-0.276-0.423-0.757-0.071-1.075-0.065-0.507 0.077-0.911-0.346-1.384-0.104-0.612 0.369-1.343-0.321-1.858 0.261-0.328 0.025-0.636-0.131-0.989-0.106-0.517-0.002-0.963 0.161-1.445 0.247-0.544 0.358-1.293 0.185-1.92 0.139-0.316 0.127-0.707 0.092-1.049 0.101v3.44c0 0.203-0.105 0.26-0.269 0.024l-0.654-0.939v-2.467c-0.214-0.111-0.393 0.162-0.591 0.247-0.198 0.094-0.372-0.069-0.455-0.231-0.006-0.093-0.064-0.172-0.145-0.208l-0.002-0.001c-0.159 0.003-0.309 0.041-0.444 0.106l0.006-0.003q-0.098-0.36-0.175-0.726c0.131-0.083 0.292-0.194 0.246-0.342-0.087-0.18-0.325-0.163-0.386-0.379 0.026-0.215 0.089-0.498 0.345-0.549 0.19-0.18 0.166-0.541 0.107-0.79-0.172-0.224-0.404-0.406-0.31-0.723 0-0.085-0.087-0.189 0.001-0.267 0.208-0.085 0.413 0.111 0.56 0.251 0.137 0.028 0.173-0.129 0.231-0.206 0.008-0.021 0.012-0.044 0.012-0.069 0-0.096-0.067-0.176-0.156-0.197l-0.001-0c-0.012 0.003-0.026 0.005-0.040 0.005-0.077 0-0.14-0.059-0.147-0.135l-0-0.001c0.035-0.145 0.083-0.283 0.248-0.323 0.044-0.012 0.095-0.020 0.148-0.020 0.133 0 0.255 0.046 0.351 0.123l-0.001-0.001c0.171 0.155 0.153 0.404 0.326 0.534 0.222-0.206 0.053-0.628 0.312-0.825 0.37-0.163 0.729-0.438 1.178-0.368 0.121 0.233 0.040 0.664 0.426 0.681 0.106-0.094 0.114-0.335 0.313-0.24 0.173 0.071 0.162 0.37 0.368 0.328 0.208-0.386-0.187-0.706-0.136-1.075 0.277-0.182 0.645-0.025 0.842 0.19 0.088 0.18-0.258 0.282-0.019 0.431 0.345-0.129 0.5 0.268 0.804 0.19 0.196-0.36 0.616-0.403 0.968-0.307 0.517-0.007 0.817 0.768 1.358 0.461 0.295-0.198 0.868 0.077 0.957-0.394-0.002-0.016-0.003-0.035-0.003-0.054 0-0.185 0.12-0.343 0.287-0.398l0.003-0.001c0.291-0.089 0.564 0.515 0.807 0.060 0.453 0.182 0.986 0.174 1.484 0.254 0.766 0.406 1.774 0.349 2.638 0.376 0.752 0.399 1.82-0.17 2.681-0.033l0.402-0.818-3.371-7.261v6.751c-0 0.118-0.096 0.214-0.214 0.214h-3.278c-0 0-0 0-0 0-0.078 0-0.146-0.041-0.183-0.103l-0.001-0.001-2.152-3.589v3.479c-0 0.118-0.096 0.214-0.214 0.214h-2.922c-0.118 0-0.214-0.096-0.214-0.214v0-7.784c-3.071 2.455-5.026 6.15-5.026 10.285 0 7.39 6.243 13.381 13.946 13.381s13.946-5.991 13.946-13.381c0-0.286-0.012-0.568-0.031-0.849zM7.849 22.331c0 0.161-0.1 0.295-0.306 0.11l-0.485-0.436c-0.080-0.064-0.131-0.161-0.131-0.27 0-0.005 0-0.010 0-0.014l-0 0.001v-0.187c0-0.002 0-0.004 0-0.006 0-0.103-0.043-0.195-0.111-0.261l-0-0-0.258-0.232c-0.159-0.143-0.194 0.055-0.194 0.055v0.137c0.003 0.103 0.037 0.198 0.092 0.277l-0.001-0.002 1.015 1.32c0.226 0.29 0.367 0.656 0.38 1.054l0 0.003v0.792c0 0.69-0.289 0.981-0.624 0.682l-1.379-1.242c-0.225-0.207-0.375-0.493-0.404-0.814l-0-0.005v-0.719q0-0.352 0.137-0.22l0.602 0.55c0.094 0.078 0.159 0.186 0.182 0.309l0 0.003v0.159c0 0.128-0.009 0.275 0.084 0.347l0.261 0.223c0.096 0.086 0.22 0.099 0.22-0.041v-0.174c0-0.004 0-0.009 0-0.014 0-0.102-0.035-0.196-0.095-0.27l0.001 0.001-1.205-1.574c-0.116-0.135-0.187-0.312-0.187-0.505 0-0.005 0-0.009 0-0.013v0.001-1.239c0-0.298 0.359-0.705 0.875-0.241l1.332 1.199c0.125 0.123 0.203 0.293 0.203 0.482 0 0.011-0 0.022-0.001 0.032l0-0.002v0.744zM9.956 26.908c-0 0.066-0.053 0.119-0.119 0.119-0.022 0-0.043-0.006-0.061-0.017l0.001 0-1.472-0.873c-0.035-0.021-0.058-0.059-0.058-0.103 0-0 0-0 0-0v0-4.307c0 0 0-0 0-0 0-0.066 0.053-0.119 0.119-0.119 0.022 0 0.043 0.006 0.061 0.017l-0.001-0 0.684 0.406c0.035 0.021 0.058 0.059 0.058 0.102 0 0 0 0 0 0v0 3.641l0.73 0.433c0.035 0.021 0.058 0.059 0.058 0.103 0 0 0 0 0 0v0 0.599zM20.288 27.099c0 0.118 0 0.673-0.922 0.838l-1.869 0.334c-0.006 0.001-0.013 0.002-0.021 0.002-0.066 0-0.119-0.053-0.119-0.119v-4.3c0-0 0-0 0-0 0-0.058 0.041-0.106 0.095-0.117l0.001-0 1.913-0.381c0.922-0.183 0.922 0.369 0.922 0.369zM18.725 20.856v-1.087c0-0.366 0.878-0.662 1.961-0.662s1.961 0.297 1.961 0.662v1.087c0 0.366-0.878 0.662-1.961 0.662s-1.961-0.296-1.961-0.662zM22.704 22.784c-0 0.037-0.022 0.070-0.053 0.085l-0.001 0-0.886 0.434c-0.032 0.016-0.053 0.048-0.053 0.085 0 0 0 0.001 0 0.001v-0 0.876c0 0 0 0 0 0 0 0.052 0.042 0.095 0.095 0.095 0.015 0 0.030-0.004 0.042-0.010l-0.001 0 0.719-0.352c0.012-0.006 0.027-0.010 0.042-0.010 0.019 0 0.036 0.005 0.051 0.015l-0-0c0.027 0.017 0.045 0.047 0.045 0.081v0 0.615c0 0 0 0 0 0 0 0.038-0.023 0.072-0.056 0.086l-0.001 0-0.88 0.397c-0.033 0.015-0.056 0.048-0.056 0.086 0 0 0 0 0 0.001v-0 0.82c0 0.033 0.017 0.063 0.043 0.080l0 0c0.014 0.010 0.032 0.015 0.051 0.015 0.014 0 0.028-0.003 0.040-0.009l-0.001 0 0.724-0.326c0.011-0.005 0.024-0.008 0.038-0.008 0.053 0 0.096 0.043 0.096 0.095v0.612c0 0 0 0 0 0 0 0.038-0.023 0.072-0.056 0.087l-0.001 0-1.724 0.776c-0.012 0.005-0.025 0.009-0.039 0.009-0.052 0-0.095-0.043-0.095-0.095 0-0 0-0 0-0.001v0-4.331c0-0 0-0 0-0 0-0.037 0.021-0.070 0.053-0.085l0.001-0 1.724-0.844c0.012-0.006 0.027-0.010 0.042-0.010 0.053 0 0.095 0.043 0.096 0.095v0.635zM25.518 24.661l-0.536 0.364c-0.015 0.010-0.034 0.016-0.053 0.016-0.031 0-0.058-0.015-0.076-0.037l-0-0-0.803-1.050-0.151 0.105v1.651c-0 0.033-0.017 0.061-0.041 0.079l-0 0-0.732 0.496c-0.015 0.010-0.034 0.017-0.054 0.017-0.016 0-0.032-0.004-0.045-0.011l0 0c-0.030-0.016-0.050-0.048-0.051-0.084v-4.283c0-0 0-0 0-0 0-0.032 0.016-0.061 0.041-0.078l0-0 1.438-0.992c0.439-0.303 0.824-0.247 0.824 0.355v1.135c-0.004 0.456-0.212 0.862-0.537 1.133l-0.002 0.002 0.799 1.047c0.012 0.016 0.020 0.036 0.020 0.058 0 0.030-0.014 0.057-0.036 0.075l-0 0-0.005 0.004zM27.494 19.243c0.001 0.012 0.002 0.026 0.002 0.041 0 0.113-0.039 0.218-0.104 0.3l0.001-0.001-0.537 0.556c-0.062 0.064-0.1 0.023-0.1-0.046v-0.337c0-0.166-0.065-0.167-0.156-0.075l-0.086 0.088c-0.079 0.094-0.127 0.217-0.127 0.351 0 0.013 0 0.025 0.001 0.038l-0-0.002v0.235c0 0.147 0.042 0.253 0.195 0.28l0.428 0.075c0.203 0.035 0.483 0.17 0.483 0.499 0.002 0.034 0.003 0.073 0.003 0.113 0 0.419-0.137 0.807-0.368 1.12l0.004-0.005-0.878 1.16c-0.364 0.479-0.721 0.345-0.721-0.346v-0.385c-0.001-0.008-0.001-0.018-0.001-0.027 0-0.092 0.040-0.175 0.102-0.233l0-0 0.586-0.603c0.1-0.101 0.167-0.101 0.167 0.058v0.19c0 0.223 0.174 0.045 0.25-0.030 0.074-0.061 0.12-0.153 0.12-0.255 0-0.016-0.001-0.031-0.003-0.046l0 0.002v-0.111c0-0.118-0.092-0.164-0.256-0.2l-0.508-0.114c-0.395-0.083-0.457-0.357-0.457-0.662v-0.436c0-0.328 0.054-0.612 0.292-0.879l0.929-1.025c0.339-0.375 0.739-0.431 0.739 0.153v0.563z"></path>
<path fill="#003087" d="M12.022 25.998l-0.272-1.714-0.38 1.502zM24.24 21.925l-0.3 0.207c-0.025 0.017-0.041 0.046-0.041 0.078 0 0 0 0 0 0v-0 0.761c0 0 0 0 0 0 0 0.036 0.020 0.068 0.050 0.084l0 0c0.013 0.007 0.028 0.011 0.044 0.011 0.020 0 0.039-0.006 0.054-0.017l-0 0 0.207-0.143c0.12-0.099 0.197-0.246 0.201-0.412v-0.444c0-0.128-0.096-0.209-0.215-0.126zM18.965 24.313l-0.685 0.137v2.893l0.728-0.13c0.359-0.064 0.359-0.47 0.359-0.47v-2.136s0-0.373-0.401-0.293zM13.041 3.784c0-0.119 0.096-0.215 0.215-0.215h5.147c0.086 0 0.16 0.050 0.194 0.123l0.001 0.001 2.966 6.388 2.471-5.017c-2.258-1.533-5.044-2.447-8.043-2.447-1.876 0-3.668 0.358-5.312 1.008l0.098-0.034 2.265 4.375v-4.184zM22.832 13.166c0.632-0.202 1.176-0.525 1.629-0.945l-0.003 0.003c0.317-0.115 0.683-0.181 1.065-0.181 0.128 0 0.253 0.007 0.377 0.022l-0.015-0.001 0.044 0.062c-0.033 0.18-0.259 0.318-0.415 0.412-0.334 0.007-0.739-0.052-0.998 0.205-0.362 0.377-0.817 0.633-1.155 1.002 0.026 0.12 0.163 0.215 0.086 0.351-0.258 0.182-0.671 0.045-0.808 0.413-0.114 0.706-0.999 0.159-1.345 0.616-0.169 0.222-0.67 0.491-1.049 0.591l-0.363 0.772c0.422 0.149 1.004 0.373 1.391 0.313 0.903-0.289 1.252-1.664 2.308-1.583 0.097 0.019 0.208 0.030 0.321 0.030 0.473 0 0.901-0.191 1.211-0.501l-0 0c0.405-0.154 0.436 0.499 0.809 0.43 0.032-0.238 0.053-0.533 0.327-0.634 0.13-0.051 0.337-0.033 0.354 0.138-0.286 0.404 0.334 0.535 0.246 0.914 0.050 0.162 0.239 0.162 0.369 0.122 0.216-0.413 0.663-0.448 1.074-0.471 0.321-0.471 1.083-0.031 1.26-0.693l0.297-0.1c-0.42-3.495-2.242-6.58-4.914-8.723l-3.943 8.394c0.599-0.206 1.437-0.445 1.84-0.956z"></path>
<path fill="#fff" d="M16.448 20.47c-0.084 0.168-0.243 0.287-0.432 0.314l-0.003 0-6.405 0.882c-0.105 0.015-0.185 0.104-0.185 0.212 0 0.010 0.001 0.020 0.002 0.030l-0-0.001 0 0.003 0.39 2.562c0.016 0.104 0.105 0.182 0.213 0.182 0.017 0 0.034-0.002 0.051-0.006l-0.001 0 0.636-0.152 0.379-1.478c0.011-0.041 0.048-0.071 0.092-0.071 0.008 0 0.016 0.001 0.024 0.003l-0.001-0 1.245 0.305c0.037 0.009 0.065 0.039 0.071 0.077l0 0.001 0.112 0.707 0.799-0.19v-0.321c0-0 0-0 0-0.001 0-0.065 0.053-0.119 0.119-0.119 0.005 0 0.010 0 0.015 0.001l-0.001-0 0.992 0.117c0.028 0.004 0.052 0.017 0.069 0.037l0 0 1.905-0.454c0.172-0.042 0.311-0.157 0.384-0.309l0.001-0.003 1.182-2.516-1.246-0.636-0.406 0.824zM17.007 19.335l1.24 0.633 0.099-0.21-1.236-0.631zM18.837 18.712l-1.218-0.621-0.062 0.126-0.041 0.083 1.222 0.623zM17.262 18.817l1.231 0.628 0.099-0.21-1.227-0.625zM21.562 10.081l-2.965-6.388c-0.035-0.074-0.109-0.124-0.194-0.124h-5.147c-0.119 0-0.215 0.096-0.215 0.215v0 4.184l-2.265-4.375c-1.414 0.555-2.636 1.27-3.725 2.144l0.028-0.021v7.784c0 0.118 0.096 0.214 0.214 0.214h2.922c0.118-0 0.214-0.096 0.214-0.214v0-3.479l2.152 3.589c0.038 0.063 0.106 0.104 0.184 0.104 0 0 0 0 0 0h3.278c0.118-0 0.214-0.096 0.214-0.214v0-6.751l3.371 7.261-0.402 0.818-1.454 2.953 1.212 0.619 0.897-1.912 5.054-10.758c-0.258-0.208-0.552-0.426-0.855-0.632l-0.048-0.031-2.471 5.017z"></path>
<path fill="#fff" d="M22.646 19.769c0 0.366-0.878 0.662-1.961 0.662s-1.961-0.297-1.961-0.662c0-0.366 0.878-0.662 1.961-0.662s1.961 0.297 1.961 0.662z"></path>
</svg>
