<!-- Generated by IcoMoon.io -->
<svg version="1.1" xmlns="http://www.w3.org/2000/svg" width="32" height="32" viewBox="0 0 32 32">
<title>20</title>
<path fill="#faaf19" d="M22.945 2.338c0.672 0.008 1.135 0.030 1.37 0.067 0.195 0.029 0.515 0.088 0.711 0.13 0.197 0.042 0.517 0.122 0.712 0.179 0.195 0.056 0.467 0.144 0.605 0.194 0.136 0.051 0.408 0.16 0.604 0.242 0.197 0.082 0.549 0.259 0.783 0.395 0.235 0.134 0.572 0.346 0.748 0.469s0.472 0.351 0.658 0.507c0.186 0.155 0.471 0.426 0.634 0.6s0.429 0.493 0.589 0.709c0.162 0.216 0.359 0.496 0.437 0.624 0.080 0.126 0.227 0.395 0.327 0.597 0.101 0.2 0.232 0.49 0.293 0.642 0.061 0.15 0.154 0.411 0.21 0.578 0.054 0.166 0.139 0.488 0.191 0.714 0.050 0.226 0.112 0.554 0.138 0.73 0.029 0.202 0.046 0.672 0.046 1.266 0 0.727-0.016 1.047-0.066 1.389-0.035 0.245-0.091 0.573-0.184 1.015l-3.539 0.010c-1.947 0.005-3.555 0.003-3.575-0.005-0.022-0.010-0.005-0.131 0.046-0.312 0.045-0.163 0.106-0.442 0.138-0.618 0.032-0.178 0.058-0.53 0.059-0.784 0.002-0.267-0.016-0.555-0.043-0.677-0.027-0.118-0.099-0.327-0.163-0.464-0.064-0.136-0.179-0.322-0.258-0.41s-0.237-0.211-0.352-0.272c-0.115-0.062-0.298-0.131-0.405-0.155-0.128-0.029-0.357-0.038-0.658-0.026-0.339 0.013-0.559 0.043-0.818 0.112-0.197 0.051-0.517 0.171-0.712 0.264-0.195 0.094-0.443 0.229-0.551 0.298-0.109 0.069-0.317 0.223-0.463 0.341-0.147 0.117-0.431 0.384-0.632 0.592-0.2 0.208-0.48 0.535-0.623 0.727-0.142 0.191-0.351 0.495-0.463 0.677-0.112 0.181-0.314 0.549-0.448 0.82-0.134 0.269-0.304 0.642-0.378 0.829-0.074 0.186-0.195 0.53-0.272 0.765-0.075 0.235-0.178 0.605-0.226 0.82-0.048 0.216-0.112 0.56-0.141 0.767-0.030 0.206-0.054 0.631-0.054 0.945 0 0.323 0.022 0.717 0.051 0.909 0.029 0.186 0.086 0.467 0.126 0.624 0.042 0.155 0.136 0.413 0.208 0.57 0.074 0.157 0.187 0.365 0.253 0.463s0.17 0.237 0.229 0.309c0.061 0.072 0.215 0.215 0.341 0.317 0.128 0.104 0.344 0.242 0.48 0.306 0.138 0.066 0.378 0.154 0.533 0.194 0.211 0.056 0.402 0.077 0.73 0.080 0.32 0.003 0.509-0.013 0.676-0.058 0.128-0.034 0.344-0.117 0.48-0.184 0.138-0.067 0.378-0.224 0.535-0.351 0.155-0.125 0.378-0.338 0.491-0.474 0.114-0.134 0.291-0.375 0.395-0.531 0.102-0.157 0.275-0.461 0.383-0.677 0.107-0.215 0.226-0.469 0.331-0.733l7.665 0.003-0.019 0.17c-0.011 0.093-0.053 0.304-0.093 0.472-0.038 0.166-0.117 0.447-0.173 0.623s-0.184 0.522-0.285 0.767c-0.101 0.245-0.291 0.671-0.426 0.945s-0.378 0.724-0.541 0.997c-0.163 0.275-0.368 0.604-0.453 0.732-0.086 0.126-0.312 0.44-0.501 0.695s-0.503 0.648-0.696 0.872c-0.194 0.226-0.544 0.6-0.778 0.834-0.235 0.234-0.621 0.587-0.858 0.786-0.237 0.197-0.589 0.472-0.783 0.61s-0.512 0.349-0.708 0.469c-0.195 0.118-0.499 0.291-0.676 0.383-0.176 0.093-0.488 0.24-0.695 0.328-0.205 0.088-0.525 0.215-0.711 0.279-0.186 0.066-0.522 0.166-0.748 0.227-0.224 0.059-0.6 0.141-0.836 0.181s-0.611 0.090-0.836 0.109c-0.226 0.021-0.602 0.037-0.836 0.037-0.235-0.002-0.579-0.018-0.765-0.037s-0.498-0.067-0.693-0.107c-0.305-0.061-0.532-0.116-0.757-0.177l0.080 0.019c-0.176-0.048-0.44-0.13-0.586-0.181-0.147-0.051-0.644-0.242-1.103-0.424s-0.94-0.365-1.068-0.405c-0.126-0.042-0.335-0.099-0.463-0.128-0.126-0.029-0.287-0.062-0.355-0.075s-0.285-0.024-0.48-0.024c-0.242 0-0.458 0.024-0.676 0.075-0.176 0.043-0.448 0.141-0.605 0.218-0.157 0.078-0.407 0.234-0.557 0.347-0.149 0.112-0.451 0.365-0.671 0.562-0.219 0.195-0.506 0.434-0.636 0.528-0.13 0.096-0.347 0.23-0.485 0.299-0.136 0.069-0.368 0.157-0.515 0.195-0.195 0.053-0.379 0.070-0.693 0.070-0.338 0-0.498-0.019-0.765-0.088-0.186-0.048-0.466-0.141-0.623-0.206s-0.427-0.216-0.604-0.335c-0.174-0.118-0.322-0.232-0.327-0.251s0.162-0.118 0.371-0.219c0.21-0.102 0.509-0.271 0.666-0.373 0.157-0.104 0.397-0.303 0.533-0.442 0.138-0.138 0.293-0.336 0.347-0.437 0.053-0.102 0.090-0.186 0.080-0.186s-0.078 0.038-0.152 0.086c-0.072 0.048-0.258 0.136-0.408 0.197-0.152 0.059-0.424 0.133-0.605 0.162s-0.434 0.053-0.56 0.053-0.375-0.030-0.551-0.066c-0.176-0.037-0.432-0.118-0.57-0.181s-0.346-0.183-0.463-0.267-0.311-0.256-0.429-0.381c-0.118-0.125-0.28-0.323-0.359-0.44-0.078-0.118-0.192-0.303-0.251-0.41-0.059-0.109-0.167-0.341-0.235-0.517s-0.158-0.45-0.197-0.607c-0.040-0.157-0.096-0.445-0.125-0.642-0.030-0.195-0.064-0.491-0.077-0.658-0.014-0.168-0.056-0.416-0.094-0.554-0.038-0.136-0.112-0.354-0.162-0.48-0.051-0.128-0.157-0.344-0.235-0.482-0.077-0.136-0.203-0.333-0.279-0.437-0.123-0.168-0.13-0.191-0.077-0.23 0.040-0.030 0.205-0.045 0.525-0.043 0.37 0.002 0.522 0.018 0.741 0.080 0.15 0.043 0.343 0.114 0.426 0.157 0.109 0.054 0.146 0.062 0.13 0.026-0.011-0.027-0.050-0.147-0.083-0.264-0.034-0.118-0.107-0.439-0.165-0.712-0.056-0.275-0.126-0.716-0.155-0.981-0.030-0.264-0.058-0.543-0.072-0.757l-0.25-0.062c-0.136-0.035-0.36-0.109-0.498-0.165-0.136-0.056-0.28-0.122-0.32-0.144-0.038-0.022-0.062-0.048-0.053-0.056 0.010-0.006 0.138-0.083 0.285-0.168 0.155-0.091 0.378-0.269 0.535-0.426 0.192-0.192 0.311-0.352 0.415-0.555 0.085-0.163 0.216-0.528 0.311-0.855 0.091-0.314 0.231-0.708 0.309-0.874 0.080-0.166 0.213-0.391 0.296-0.499 0.083-0.107 0.237-0.267 0.343-0.354 0.107-0.086 0.21-0.171 0.229-0.189 0.019-0.016-0.077 0.010-0.215 0.056-0.136 0.046-0.453 0.128-0.701 0.179-0.275 0.058-0.64 0.102-0.925 0.117-0.272 0.013-0.621 0.005-0.828-0.018-0.195-0.021-0.483-0.072-0.64-0.112s-0.389-0.114-0.515-0.165c-0.128-0.050-0.336-0.152-0.463-0.227-0.126-0.074-0.327-0.214-0.445-0.312-0.117-0.098-0.28-0.264-0.363-0.37s-0.15-0.208-0.152-0.227c0-0.019 0.107-0.048 0.24-0.064 0.131-0.016 0.448-0.083 0.703-0.149s0.586-0.168 0.738-0.229c0.152-0.061 0.4-0.173 0.551-0.248 0.152-0.077 0.405-0.234 0.56-0.351 0.157-0.115 0.351-0.29 0.431-0.387 0.078-0.096 0.179-0.227 0.221-0.291 0.043-0.064 0.078-0.123 0.078-0.134 0-0.010-0.077-0.018-0.17-0.016-0.093 0-0.32-0.038-0.506-0.085s-0.458-0.146-0.605-0.223c-0.181-0.094-0.354-0.224-0.536-0.407-0.179-0.179-0.311-0.349-0.395-0.517-0.070-0.138-0.154-0.338-0.186-0.445-0.032-0.109-0.058-0.224-0.058-0.259 0.002-0.048 0.032-0.062 0.134-0.062 0.074 0 0.237-0.026 0.365-0.058 0.126-0.032 0.319-0.102 0.426-0.157 0.109-0.054 0.261-0.146 0.339-0.205 0.077-0.058 0.333-0.277 0.568-0.488s0.571-0.479 0.748-0.594c0.176-0.115 0.488-0.283 1.066-0.536l0.143-0.25c0.078-0.139 0.243-0.373 0.368-0.523 0.123-0.149 0.331-0.365 0.461-0.48 0.131-0.114 0.367-0.287 0.523-0.383 0.157-0.098 0.405-0.223 0.551-0.28 0.147-0.056 0.403-0.139 0.57-0.186 0.271-0.074 0.379-0.082 1.066-0.083 0.621 0 0.82 0.013 1.050 0.066 0.157 0.037 0.437 0.115 0.623 0.174s0.466 0.167 0.623 0.239c0.157 0.074 0.397 0.202 0.533 0.287 0.181 0.11 0.24 0.134 0.218 0.086-0.018-0.037-0.070-0.195-0.117-0.352-0.059-0.202-0.083-0.373-0.083-0.58 0-0.179 0.026-0.375 0.064-0.499 0.035-0.112 0.114-0.285 0.176-0.383 0.061-0.098 0.162-0.227 0.333-0.392l0.13 0.16c0.070 0.088 0.274 0.306 0.451 0.485s0.426 0.392 0.554 0.472c0.133 0.086 0.314 0.167 0.427 0.191 0.147 0.032 0.261 0.032 0.461 0.002 0.147-0.021 0.403-0.082 0.57-0.134s0.455-0.16 0.64-0.239c0.186-0.078 0.778-0.355 1.316-0.616 0.538-0.259 1.25-0.592 1.583-0.741 0.333-0.147 0.773-0.331 0.978-0.41 0.206-0.078 0.583-0.208 0.836-0.288 0.255-0.080 0.671-0.194 0.925-0.25 0.255-0.058 0.591-0.122 0.748-0.144 0.157-0.021 0.333-0.045 0.391-0.053 0.059-0.008 0.564-0.010 1.121-0.003zM5.621 18.129c-0.167 0.171-0.37 0.357-0.453 0.413l-0.152 0.104c0.267 0.344 0.456 0.53 0.591 0.632 0.146 0.112 0.362 0.232 0.53 0.298 0.157 0.061 0.365 0.125 0.463 0.142s0.322 0.032 0.498 0.032c0.176-0.002 0.424-0.024 0.552-0.050 0.126-0.027 0.351-0.099 0.498-0.16 0.147-0.062 0.383-0.181 0.525-0.264l0.259-0.15c-0.429-0.15-0.762-0.299-1.017-0.426-0.266-0.133-0.589-0.33-0.764-0.464-0.167-0.13-0.399-0.307-0.517-0.395-0.171-0.13-0.24-0.16-0.355-0.158-0.078 0-0.191 0.032-0.248 0.069-0.059 0.037-0.243 0.206-0.41 0.378z"></path>
<path fill="#d2001c" d="M22.91 3.087c-0.44-0.008-0.92 0-1.068 0.019-0.146 0.018-0.434 0.066-0.64 0.106-0.205 0.040-0.549 0.123-0.764 0.183-0.216 0.061-0.592 0.183-0.837 0.271-0.243 0.088-0.628 0.242-0.853 0.339-0.224 0.098-0.904 0.418-1.511 0.712s-1.295 0.62-1.53 0.722c-0.235 0.102-0.604 0.245-0.818 0.317s-0.511 0.157-0.658 0.187c-0.147 0.032-0.435 0.058-0.64 0.059-0.301 0.002-0.416-0.013-0.588-0.075-0.117-0.043-0.323-0.154-0.459-0.248-0.134-0.093-0.309-0.24-0.387-0.328l-0.141-0.162c0.042 0.277 0.099 0.485 0.155 0.642s0.186 0.421 0.288 0.589c0.114 0.186 0.309 0.427 0.507 0.626 0.176 0.179 0.442 0.405 0.589 0.503 0.146 0.098 0.354 0.224 0.463 0.282 0.107 0.058 0.198 0.115 0.203 0.131 0.005 0.014 0.037 0.026 0.069 0.026s0.048 0.013 0.032 0.027c-0.014 0.014-0.101 0.021-0.192 0.014s-0.319-0.040-0.504-0.075c-0.186-0.035-0.49-0.115-0.676-0.178s-0.53-0.205-0.765-0.319c-0.235-0.114-0.684-0.359-0.996-0.544-0.314-0.186-0.658-0.387-0.765-0.447s-0.347-0.17-0.533-0.243c-0.186-0.074-0.482-0.165-0.658-0.2-0.195-0.040-0.474-0.067-0.712-0.067-0.214 0-0.527 0.022-0.693 0.053-0.167 0.029-0.415 0.090-0.552 0.138-0.136 0.046-0.336 0.13-0.443 0.184-0.109 0.054-0.285 0.158-0.392 0.234-0.107 0.074-0.29 0.219-0.405 0.323-0.115 0.106-0.311 0.328-0.435 0.495-0.123 0.167-0.216 0.306-0.208 0.312 0.010 0.005 0.093-0.043 0.186-0.106s0.266-0.158 0.383-0.213c0.118-0.056 0.335-0.126 0.48-0.157 0.191-0.042 0.357-0.051 0.578-0.037 0.178 0.013 0.431 0.059 0.588 0.11 0.152 0.048 0.371 0.15 0.49 0.227 0.117 0.077 0.325 0.258 0.461 0.405 0.138 0.146 0.434 0.52 0.66 0.832 0.224 0.312 0.535 0.727 0.69 0.924 0.155 0.195 0.451 0.525 0.658 0.73 0.207 0.207 0.509 0.479 0.671 0.607 0.163 0.126 0.295 0.243 0.295 0.258-0.002 0.014-0.054 0.027-0.117 0.027-0.064 0-0.267-0.026-0.455-0.056-0.192-0.032-0.672-0.17-1.121-0.322-0.429-0.146-0.925-0.298-1.101-0.338-0.242-0.056-0.493-0.078-1.015-0.093-0.547-0.016-0.78-0.006-1.103 0.040-0.224 0.034-0.536 0.101-0.693 0.15s-0.397 0.149-0.533 0.223c-0.138 0.072-0.338 0.197-0.445 0.275s-0.371 0.335-0.588 0.567c-0.215 0.232-0.527 0.565-0.693 0.74s-0.391 0.387-0.498 0.471c-0.107 0.083-0.291 0.208-0.41 0.277-0.117 0.069-0.357 0.181-0.533 0.251-0.176 0.069-0.381 0.136-0.453 0.147-0.074 0.011-0.134 0.032-0.134 0.046-0.002 0.014 0.123 0.086 0.275 0.16 0.152 0.072 0.373 0.155 0.49 0.186s0.341 0.064 0.498 0.077c0.157 0.013 0.453 0.005 0.658-0.018 0.207-0.022 0.471-0.064 0.587-0.094 0.117-0.029 0.309-0.091 0.427-0.139 0.117-0.046 0.421-0.198 0.676-0.338s0.567-0.287 0.693-0.327c0.13-0.042 0.379-0.082 0.57-0.093 0.187-0.011 0.432-0.002 0.551 0.021 0.117 0.022 0.309 0.086 0.427 0.144 0.131 0.064 0.296 0.191 0.432 0.33 0.12 0.123 0.346 0.386 0.503 0.581 0.155 0.197 0.434 0.501 0.616 0.679 0.184 0.178 0.41 0.378 0.504 0.445 0.093 0.069 0.17 0.136 0.168 0.15 0 0.016-0.029 0.027-0.062 0.027-0.035 0-0.174-0.038-0.312-0.085-0.136-0.046-0.416-0.158-0.623-0.248-0.205-0.088-0.517-0.21-0.693-0.267-0.176-0.059-0.443-0.133-0.596-0.163s-0.408-0.056-0.57-0.056c-0.162 0-0.397 0.026-0.523 0.056-0.128 0.030-0.343 0.114-0.479 0.187-0.162 0.086-0.32 0.211-0.461 0.365-0.134 0.144-0.275 0.349-0.368 0.535-0.106 0.211-0.181 0.437-0.255 0.764-0.058 0.255-0.138 0.56-0.179 0.677-0.042 0.118-0.126 0.299-0.189 0.405-0.064 0.106-0.195 0.264-0.293 0.354l-0.178 0.162c0.381-0.037 0.536-0.080 0.676-0.15 0.146-0.072 0.304-0.198 0.498-0.4 0.157-0.163 0.349-0.357 0.427-0.434 0.077-0.077 0.205-0.171 0.283-0.213 0.098-0.050 0.211-0.074 0.357-0.075 0.163 0 0.266 0.024 0.443 0.107 0.128 0.059 0.328 0.187 0.445 0.283s0.349 0.283 0.515 0.418c0.167 0.134 0.431 0.307 0.588 0.384 0.203 0.101 0.439 0.176 0.818 0.261 0.293 0.066 0.658 0.162 0.81 0.213l0.035 0.011c0.181 0.066 0.357 0.141 0.498 0.213 0.143 0.072 0.335 0.205 0.429 0.295 0.093 0.090 0.17 0.184 0.168 0.208 0 0.024-0.037 0.051-0.082 0.061-0.043 0.008-0.208 0.040-0.365 0.070-0.155 0.029-0.411 0.096-0.568 0.147-0.157 0.053-0.533 0.211-0.836 0.354-0.304 0.142-0.664 0.299-0.8 0.347-0.138 0.048-0.362 0.11-0.498 0.138-0.143 0.029-0.448 0.048-0.712 0.046-0.36-0.002-0.528-0.021-0.765-0.083-0.167-0.045-0.399-0.123-0.515-0.178-0.117-0.053-0.309-0.16-0.426-0.237s-0.307-0.229-0.424-0.336c-0.117-0.109-0.283-0.293-0.37-0.41l-0.158-0.215c0.035 0.876 0.067 1.148 0.128 1.409 0.048 0.205 0.13 0.503 0.181 0.66 0.053 0.157 0.176 0.453 0.274 0.66 0.098 0.205 0.227 0.453 0.288 0.552 0.062 0.098 0.211 0.306 0.331 0.463s0.32 0.379 0.447 0.495c0.125 0.114 0.323 0.274 0.442 0.354 0.117 0.080 0.341 0.206 0.498 0.279 0.155 0.074 0.419 0.168 0.586 0.208 0.227 0.054 0.423 0.072 0.783 0.074 0.315 0 0.727-0.032 1.193-0.093 0.531-0.069 0.805-0.088 1.084-0.075 0.264 0.013 0.445 0.042 0.615 0.101 0.133 0.046 0.242 0.096 0.24 0.11 0 0.016-0.029 0.037-0.062 0.050-0.035 0.013-0.198 0.078-0.365 0.149-0.166 0.069-0.415 0.197-0.551 0.285-0.138 0.090-0.336 0.243-0.44 0.343-0.106 0.099-0.261 0.279-0.344 0.395-0.085 0.117-0.216 0.343-0.295 0.499-0.077 0.157-0.232 0.533-0.346 0.837-0.112 0.304-0.261 0.664-0.328 0.802-0.069 0.138-0.184 0.338-0.256 0.445-0.074 0.109-0.227 0.282-0.343 0.384-0.115 0.104-0.293 0.232-0.395 0.285-0.102 0.054-0.174 0.109-0.16 0.122s0.114 0.050 0.221 0.080c0.107 0.032 0.331 0.067 0.498 0.078 0.216 0.014 0.37 0.005 0.543-0.037 0.131-0.030 0.331-0.102 0.445-0.16 0.112-0.056 0.299-0.174 0.418-0.261 0.117-0.088 0.421-0.357 0.676-0.599s0.591-0.535 0.748-0.652c0.155-0.115 0.427-0.28 0.604-0.367 0.176-0.085 0.464-0.191 0.64-0.235 0.266-0.066 0.419-0.080 0.89-0.080 0.333-0.002 0.658 0.018 0.783 0.045 0.117 0.026 0.373 0.094 0.568 0.154 0.197 0.059 0.797 0.282 1.335 0.495s1.162 0.442 1.386 0.511c0.226 0.069 0.578 0.157 0.783 0.197 0.206 0.040 0.583 0.090 0.837 0.112 0.336 0.029 0.607 0.030 0.996 0.002 0.293-0.021 0.685-0.062 0.871-0.093s0.522-0.102 0.748-0.158c0.224-0.058 0.544-0.15 0.711-0.208 0.166-0.056 0.447-0.163 0.623-0.235 0.176-0.074 0.504-0.227 0.73-0.343 0.224-0.115 0.592-0.323 0.818-0.464 0.224-0.141 0.584-0.387 0.8-0.547 0.215-0.16 0.559-0.437 0.765-0.615 0.205-0.178 0.605-0.562 0.888-0.853s0.677-0.732 0.872-0.977c0.197-0.245 0.469-0.605 0.605-0.8 0.136-0.197 0.373-0.565 0.527-0.821 0.154-0.255 0.365-0.639 0.469-0.855s0.253-0.552 0.331-0.749c0.077-0.195 0.183-0.509 0.234-0.695s0.093-0.367 0.093-0.4c0-0.059-0.168-0.062-3.016-0.064l-3.014-0.002c-0.163 0.375-0.307 0.645-0.426 0.84-0.118 0.197-0.32 0.495-0.45 0.66-0.13 0.166-0.354 0.415-0.498 0.554-0.144 0.138-0.367 0.32-0.495 0.407-0.126 0.086-0.375 0.226-0.551 0.307-0.176 0.083-0.432 0.179-0.57 0.216-0.198 0.053-0.371 0.066-0.871 0.064-0.557-0.003-0.66-0.014-0.978-0.099-0.195-0.053-0.499-0.166-0.676-0.253-0.176-0.085-0.424-0.235-0.552-0.331-0.126-0.096-0.335-0.29-0.463-0.429-0.126-0.139-0.307-0.378-0.4-0.531s-0.223-0.407-0.291-0.564c-0.067-0.157-0.162-0.421-0.21-0.587-0.048-0.168-0.115-0.464-0.152-0.66-0.051-0.282-0.066-0.53-0.064-1.177 0-0.684 0.014-0.896 0.080-1.284 0.043-0.255 0.12-0.623 0.168-0.82l0.025-0.108c0.068-0.252 0.142-0.502 0.192-0.64 0.069-0.216 0.198-0.57 0.287-0.784 0.088-0.216 0.261-0.592 0.386-0.839 0.125-0.245 0.343-0.629 0.487-0.855 0.142-0.226 0.389-0.576 0.544-0.781 0.157-0.203 0.429-0.523 0.605-0.709s0.464-0.458 0.64-0.607c0.176-0.147 0.464-0.363 0.64-0.479 0.176-0.117 0.48-0.288 0.676-0.383s0.512-0.221 0.703-0.282c0.191-0.061 0.495-0.134 0.676-0.163s0.49-0.054 0.685-0.054c0.239 0 0.448 0.022 0.64 0.070 0.157 0.040 0.403 0.133 0.547 0.207 0.155 0.078 0.367 0.229 0.512 0.365 0.138 0.128 0.314 0.328 0.392 0.445 0.080 0.118 0.189 0.315 0.245 0.437 0.054 0.123 0.131 0.355 0.17 0.517 0.050 0.207 0.072 0.416 0.070 0.704 0 0.226-0.024 0.522-0.053 0.66-0.029 0.136-0.061 0.277-0.070 0.312-0.016 0.058 0.13 0.062 2.713 0.062h2.729c0.067-0.319 0.104-0.547 0.123-0.714 0.021-0.166 0.037-0.579 0.037-0.917 0-0.343-0.024-0.794-0.053-1.017-0.029-0.219-0.093-0.56-0.139-0.757l-0.015-0.066c-0.065-0.248-0.14-0.491-0.203-0.664-0.070-0.207-0.215-0.551-0.319-0.767s-0.28-0.536-0.392-0.712c-0.11-0.178-0.291-0.442-0.402-0.589s-0.322-0.402-0.469-0.568c-0.147-0.165-0.443-0.451-0.658-0.636-0.216-0.184-0.552-0.443-0.748-0.576s-0.499-0.322-0.676-0.419c-0.176-0.098-0.472-0.245-0.658-0.33-0.187-0.083-0.547-0.221-0.8-0.307-0.255-0.085-0.647-0.197-0.872-0.247-0.224-0.051-0.568-0.117-0.765-0.146-0.198-0.030-0.708-0.059-1.156-0.067zM6.031 8.074c-0.394-0.011-0.562 0-0.8 0.053-0.167 0.035-0.415 0.114-0.552 0.171-0.136 0.059-0.352 0.17-0.48 0.247-0.126 0.077-0.365 0.243-0.528 0.371-0.165 0.126-0.429 0.331-0.587 0.455s-0.418 0.288-0.573 0.367c-0.157 0.078-0.346 0.154-0.419 0.168s-0.133 0.037-0.133 0.051c0 0.016 0.077 0.104 0.171 0.197 0.093 0.093 0.282 0.229 0.418 0.301s0.359 0.158 0.496 0.192c0.171 0.042 0.392 0.059 0.711 0.058 0.317 0 0.57-0.024 0.8-0.070 0.187-0.040 0.467-0.12 0.623-0.181 0.184-0.070 0.506-0.255 0.908-0.522 0.343-0.227 0.703-0.443 0.8-0.479 0.098-0.037 0.282-0.086 0.41-0.112 0.144-0.027 0.343-0.037 0.533-0.022 0.167 0.013 0.419 0.051 0.562 0.086 0.144 0.034 0.267 0.051 0.277 0.037 0.008-0.016-0.117-0.152-0.279-0.304-0.162-0.154-0.397-0.352-0.525-0.443-0.126-0.091-0.383-0.239-0.568-0.327-0.187-0.088-0.435-0.186-0.552-0.219-0.134-0.037-0.399-0.064-0.711-0.074zM3.625 22.119c-0.090-0.026-0.091-0.024-0.048 0.077 0.024 0.056 0.086 0.23 0.139 0.387 0.067 0.2 0.106 0.413 0.128 0.712 0.018 0.235 0.066 0.589 0.106 0.784 0.040 0.197 0.106 0.469 0.147 0.607 0.040 0.136 0.133 0.386 0.203 0.552 0.072 0.166 0.219 0.439 0.33 0.605 0.109 0.166 0.293 0.389 0.408 0.495s0.306 0.245 0.423 0.311c0.117 0.066 0.317 0.146 0.445 0.179 0.141 0.037 0.362 0.061 0.568 0.061 0.202-0.002 0.432-0.026 0.57-0.062 0.126-0.032 0.335-0.115 0.463-0.181 0.133-0.070 0.344-0.232 0.498-0.381 0.147-0.144 0.443-0.445 0.658-0.672 0.216-0.227 0.512-0.507 0.658-0.624 0.147-0.117 0.376-0.275 0.507-0.354 0.133-0.078 0.242-0.15 0.242-0.16s-0.077-0.037-0.17-0.061c-0.094-0.024-0.25-0.053-0.347-0.064s-0.298-0.003-0.445 0.018c-0.147 0.021-0.451 0.102-0.676 0.183-0.226 0.080-0.562 0.192-0.748 0.25s-0.458 0.114-0.605 0.125c-0.179 0.013-0.352 0.002-0.533-0.037-0.147-0.030-0.371-0.107-0.498-0.17-0.162-0.078-0.319-0.2-0.519-0.4s-0.415-0.48-0.701-0.912c-0.229-0.343-0.485-0.704-0.57-0.802s-0.242-0.237-0.347-0.309c-0.107-0.070-0.235-0.141-0.287-0.155z"></path>
</svg>
