<!-- Generated by IcoMoon.io -->
<svg version="1.1" xmlns="http://www.w3.org/2000/svg" width="32" height="32" viewBox="0 0 32 32">
<title>21</title>
<path fill="#236192" d="M31.984 24.259l-0.666 1.211c-1.574 2.421-4.055 3.48-6.415 3.571s-3.026-0.908-3.6-1.331c-0.575-0.424-1.392-2.39-1.392-2.39l0.016-0.535c-0.262 0.117-0.717 0.292-1.178 0.456l-0.198 0.061c-2.089 0.723-4.16 1.169-6.114 1.357l-0.485 1.234s-8.595 0.513-11.953 1.181l2.682-4.443c-0.855-0.679-1.483-1.511-1.82-2.487-1.559-4.501 3.578-10.378 11.52-13.27l3.625-5.947 1.633 2.542c2.33 0.424 2.723 1.802 2.723 1.802 5.039-0.16 9.059 1.491 10.137 4.61 0.682 1.969 0.081 4.202-1.476 6.334 0 0 2.898 1.779 2.974 5.97l-0.015 0.076z"></path>
<path fill="#fff" d="M24.531 16.391l-4.096-6.537c0.202-0.364 0.202-1.065 0.202-1.065 4.451 0.275 7.853 2.058 8.548 4.894 0.327 1.333 0.015 2.738-0.804 4.091 0.001 0.002-1.45-0.978-3.85-1.382z"></path>
<path fill="#111" d="M30.221 22.634c-0.334 0.457-0.682 0.882-0.682 0.882-0.101 0.127-0.284 0.332-0.459 0.512l-0.144 1.728-0.279-0.043c-0.076-0.167-0.413-0.695-0.55-0.814-1.904 1.433-3.825 1.58-3.825 1.58-2.172 0.405-3.585-0.454-3.585-0.454 0.255 0.646 0.958 1.473 0.958 1.473 1.031 1.252 2.811 1.183 2.811 1.183 4.917-0.096 6.839-3.83 6.839-3.83l-0.327-0.016c-0.021-0.746-0.664-2.020-0.756-2.2z"></path>
<path fill="#a2aaad" d="M26.030 27.082c-0.968 0.284-3.541 0.874-4.738-0.471 0 0 1.462 1.212 4.999 0.040l-0.261 0.431z"></path>
<path fill="#a2aaad" d="M26.83 27.368c-3.541 1.174-5.003-0.040-5.003-0.040 1.491 1.675 5.116 0.35 5.116 0.35 0.552-0.17 1.111-0.487 1.43-0.684l0.183-0.481c-0.466 0.418-1.728 0.854-1.728 0.854z"></path>
<path fill="#fff" d="M10.531 11.035c-3.006 1.928-5.179 4.357-5.57 8.291 0 0 0.188-0.175 0.322-0.269 0.013 1.087 0.649 3.658 3.736 3.78s4.479-0.818 5.508-0.999c1.029-0.182 3.086-0.424 4.781-0.182s4.76 0.921 5.86 3.789c-0.686 0.234-2.108 0.448-2.895 0.357-0.786-0.091-1.755-0.454-1.876-1.363-0.061 1.029 0.756 1.543 1.665 1.633s1.965 0.010 3.389-0.344c0.304-0.415 0.304-1.016 0.319-1.305 0.317 0.225 0.56 0.649 0.619 0.861 0.272-0.424-0.071-1.363-0.263-1.756 0.413 0.272 0.941 1.125 0.979 1.334l0.22-0.274c-0.030-0.513-0.925-1.815-1.113-2.058l-0.783 0.491c-0.95-1.339-2.372-2.125-3.733-2.518s-3.009-0.599-4.864-0.481c1.051-0.487 3.472-0.698 4.894-0.366 1.422 0.334 2.702 0.854 4.030 2.439l0.707-0.484c0.74 0.646 2.218 2.77 2.472 4.139l0.131-0.015s0.063-2.69-0.018-3.66c0.221 0.182 0.509 0.472 0.576 0.619 0.251-0.317 0.069-1.164-0.012-1.506 0.444 0.464 1.473 2.008 1.685 3.646 0.17-0.56 0.111-1.166 0.091-1.387s-0.14-0.786-0.504-1.714c-0.364-0.928-0.847-1.997-2.058-3.006s-2.621-1.916-5.225-2.058c-2.22-0.12-5.568 1.13-6.456 1.493-0.887 0.364-3.288 1.412-4.922 1.655s-2.471 0.34-3.011-0.233l-0.16 0.249c-0.682-0.218-1.47-1.347-1.571-2.094-0.098-0.743-0.178-1.531 0.609-3.204 0.786-1.675 2.117-3.107 2.441-3.502z"></path>
<path fill="#236192" d="M7.221 14.852c-0.605 1.055-1.452 3.376-0.666 4.95s3.168 1.775 4.68 1.473c1.513-0.302 3.328-0.989 4.096-1.311 0.766-0.322 2.294-1.029 3.944-1.301s2.905-0.226 4.221 0.393c1.316 0.621 2.106 1.040 3.209 2.192l0.448-0.233 0.915 0.965 0.196-1.458 0.555-0.849c-0.206-0.54-1.27-2.101-3.455-2.439 0.675 0.296 2.053 0.839 2.938 2.421l-0.393 0.687-0.049 0.712-0.637-0.687-0.337 0.211c-0.497-0.633-1.627-1.601-3.24-2.065s-3.592-0.586-5.447-0.081c-1.554 0.424-2.502 0.847-2.945 1.049-0.444 0.201-1.23 0.585-2.279 0.889-1.049 0.302-2.097 0.524-3.369 0.344-1.272-0.182-2.38-0.786-2.684-2.198s-0.107-2.073 0.299-3.662z"></path>
<path fill="#fff" d="M13.345 24.23l-0.364 0.968c1.422 0.061 4.676-0.575 6.643-1.255-0.803-0.469-2.86-0.893-6.279 0.288z"></path>
<path fill="#a2aaad" d="M8.18 16.565l7.842-12.777 7.959 12.544c-0.499-0.061-1.368 0-1.79 0.071-0.424 0.071-1.373 0.272-1.633 0.343-0.263 0.071-1.614 0.454-2.068 0.605s-1.746 0.605-2.149 0.756c-0.405 0.15-1.414 0.575-1.797 0.705s-1.12 0.383-1.866 0.535c-0.746 0.152-1.452 0.292-2.188 0.221s-1.116-0.285-1.442-0.585c-0.243-0.221-0.664-0.761-0.786-1.473-0.102-0.585-0.089-0.813-0.081-0.946z"></path>
<path fill="#6f263d" d="M16.030 4.629l7.391 11.678c-0.444 0.003-0.941 0.046-1.23 0.096-0.424 0.071-1.373 0.273-1.633 0.344-0.263 0.071-1.614 0.454-2.068 0.605s-1.746 0.605-2.149 0.756c-0.405 0.15-1.414 0.575-1.797 0.705s-1.12 0.383-1.866 0.535c-0.746 0.152-1.452 0.292-2.188 0.221s-1.116-0.285-1.442-0.585c-0.243-0.221-0.664-0.761-0.786-1.473-0.010-0.056-0.020-0.109-0.026-0.158l7.795-12.724zM10.77 19.174c1.919 0.243 6.185-1.744 6.185-1.744 3.946-1.523 5.254-1.376 5.254-1.376-1.45-0.55-5.136 0.958-5.136 0.958l-0.993-3.186-1.604 4.263c-2.786 1.019-3.706 1.085-3.706 1.085z"></path>
<path fill="#236192" d="M15.039 17.832l1.582-0.652-0.606-1.924-0.976 2.576z"></path>
<path fill="#fff" d="M3.809 22.813c-0.801-0.703-1.353-1.549-1.59-2.515-0.874-3.564 2.811-7.632 8.553-9.877 0 0-4.458 2.018-6.355 6.415-0.89 2.064-0.444 4.236 0.020 4.983l-0.628 0.994z"></path>
<path fill="#a2aaad" d="M11 10.446l0.136-0.211c-1.059 0.454-2.497 1.467-2.966 1.845s-1.377 1.149-2.012 1.906-1.225 1.696-1.604 2.529c-0.378 0.832-0.621 1.633-0.681 3.026s0.818 2.738 0.818 2.738l-3.828 6.233s1.149-0.182 1.468-0.226c0.317-0.044 1.574-0.196 2.102-0.258 0.53-0.061 2.284-0.226 2.966-0.272 0.68-0.044 2.632-0.211 4.236-0.272l1.407-3.706c0.621-0.152 1.044-0.378 2.088-0.59s2.103-0.287 3.752-0.015c1.65 0.272 3.222 1.225 3.571 1.543-0.393-0.681-1.225-1.316-2.556-1.755s-2.785-0.439-3.571-0.408c-0.786 0.030-2.058 0.317-2.753 0.513s-1.377 0.514-2.225 0.695c-0.847 0.182-1.665 0.317-2.497 0.243s-2.073-0.167-3.207-1.272c-1.135-1.105-1.407-2.421-1.287-3.949 0.12-1.526 1.196-3.63 2.466-5.067s3.283-2.829 4.177-3.269z"></path>
<path fill="#6f263d" d="M12.547 23.896l-1.192 3.148c-5.584 0.332-9.569 0.865-9.569 0.865l3.206-5.237c0.274 0.393 1.045 1.12 1.937 1.437s1.468 0.393 2.299 0.348c0.834-0.046 1.873-0.167 3.32-0.561z"></path>
<path fill="#fff" d="M20.105 9.21c0.814-3.782-4.102-3.822-4.102-3.822l-0.223 1.077-0.756 0.233-0.465 1.688-0.609 0.496-0.892 1.455c-0.001-0.001 5.614-4.19 7.049-1.126z"></path>
<path fill="#236192" d="M15.285 7.859l0.078-0.31s2.89-0.951 4.113 0.213c0 0.001-1.28-0.988-4.19 0.097z"></path>
<path fill="#a2aaad" d="M14.346 8.867s4.102-2.643 5.653-0.14c0 0-0.854-2.25-5.956 0.601l0.302-0.461z"></path>
</svg>
