<!-- Generated by IcoMoon.io -->
<svg version="1.1" xmlns="http://www.w3.org/2000/svg" width="32" height="32" viewBox="0 0 32 32">
<title>22</title>
<path fill="#fff" d="M16.019 31.98c8.849 0 15.981-7.169 15.981-15.98s-7.169-15.98-15.981-15.98c-8.812 0-16.018 7.131-16.018 15.98s7.169 15.98 16.018 15.98z"></path>
<path fill="#fc4c02" d="M18.595 6.33c0-1.792-1.568-2.763-2.576-5.302-1.008 2.539-2.576 3.51-2.576 5.302 0 1.232 1.008 2.427 2.576 2.427s2.576-1.157 2.576-2.427z"></path>
<path fill="#041e42" d="M16.915 0.766c1.83 2.875 2.651 3.92 2.651 5.526 0 1.904-1.606 3.472-3.547 3.472-1.904 0-3.547-1.568-3.547-3.472 0-1.606 0.821-2.651 2.651-5.526-8.028 0.485-14.375 7.094-14.375 15.234 0 8.401 6.833 15.234 15.234 15.234s15.234-6.833 15.234-15.234c0.037-8.14-6.31-14.748-14.301-15.234zM16.019 29.852c-7.654 0-13.852-6.198-13.852-13.852 0-6.422 4.368-11.836 10.305-13.404-0.299 0.411-1.382 1.829-1.382 3.696 0 2.688 2.203 4.891 4.929 4.891s4.929-2.166 4.929-4.891c0-1.867-1.045-3.286-1.381-3.696 5.937 1.568 10.305 6.982 10.305 13.404 0 7.654-6.198 13.852-13.852 13.852z"></path>
<path fill="#041e42" d="M18.894 17.643h-1.008v1.605c0 0.299-0.261 0.56-0.56 0.56s-0.56-0.262-0.56-0.56v-2.016h1.157v-1.493h-1.157v-1.158c0-0.299 0.261-0.56 0.56-0.56s0.56 0.261 0.56 0.56v0.709h1.008v-3.361h-4.219v2.054c0.411 0 0.747 0.336 0.747 0.747v4.667c0 0.224-0.187 0.411-0.411 0.411v8.476c0 0.597-0.299 0.896-0.448 0.971 0.485 0.037 0.971 0.075 1.456 0.075 0.597 0 1.195-0.037 1.792-0.149 0 0 1.083-0.224 1.083-1.158v-10.38h-0z"></path>
<path fill="#041e42" d="M14.675 17.643h-1.008v1.755c0 0.224-0.187 0.411-0.411 0.411s-0.411-0.187-0.411-0.411v-5.003c0-0.224 0.187-0.411 0.411-0.411v-2.054h-2.166v2.054c0.224 0 0.411 0.187 0.411 0.411v5.003c0 0.224-0.187 0.411-0.411 0.411v7.393c0 0.634-0.336 0.821-0.485 0.896 0.933 0.485 1.979 0.859 3.062 1.045 0 0 1.008 0.149 1.008-0.859v-10.641z"></path>
<path fill="#041e42" d="M10.792 27.201v-7.393c-0.224 0-0.411-0.187-0.411-0.411v-5.003c0-0.224 0.187-0.411 0.411-0.411v-2.054h-2.166v2.054c0.224 0 0.411 0.187 0.411 0.411v5.003c0 0.224-0.187 0.411-0.411 0.411v5.041c0 1.045-0.523 1.232-0.821 1.232 0.672 0.672 1.419 1.232 2.24 1.68 0 0.037 0.747 0.336 0.747-0.56zM27.482 15.291v-2.278c0-0.597-0.485-1.083-1.083-1.083h-1.307c-0.597 0-1.083 0.485-1.083 1.083v3.024c0 0.149 0.112 0.373 0.224 0.485l1.718 1.568c0.112 0.112 0.224 0.336 0.224 0.485v0.672c0 0.336-0.261 0.597-0.597 0.597s-0.597-0.261-0.597-0.597v-1.568h-1.008v8.625c2.128-2.016 3.51-4.779 3.51-7.878v-0.448c0-0.149-0.112-0.373-0.224-0.485l-1.718-1.568c-0.112-0.112-0.224-0.336-0.224-0.485v-1.008c0-0.224 0.186-0.448 0.448-0.448s0.448 0.187 0.448 0.448v0.896l1.269-0.037z"></path>
<path fill="#041e42" d="M8.327 24.886v-11.873c0-0.597-0.485-1.12-1.083-1.12h-1.605c-0.597 0-1.083 0.485-1.083 1.12v5.377c0 2.688 1.008 5.153 2.688 7.094 0.299 0.41 1.083 0.56 1.083-0.598zM6.983 19.248c0 0.299-0.261 0.56-0.56 0.56-0.336 0-0.597-0.261-0.597-0.56v-4.667c0-0.336 0.261-0.56 0.597-0.56 0.299 0 0.56 0.261 0.56 0.56v4.667zM23.263 19.398v-2.464c0-0.411-0.448-0.597-0.448-0.597s0.448-0.187 0.448-0.597v-2.726c0-0.597-0.485-1.083-1.083-1.083h-2.95v2.054c0.224 0 0.411 0.187 0.411 0.411v5.003c0 0.224-0.187 0.411-0.411 0.411v8.252c0 0.448-0.187 0.747-0.411 0.971 0.784-0.187 1.531-0.448 2.24-0.784 0 0 0.485-0.224 0.485-1.158v-7.281c-0.336 0-0.597-0.261-0.597-0.597v-1.829c0-0.262 0.224-0.448 0.448-0.448 0.261 0 0.448 0.224 0.448 0.448v9.82c0 0.261-0.037 0.485-0.112 0.709 0.597-0.336 1.157-0.709 1.643-1.12 0 0 0.261-0.224 0.261-1.307v-5.675c-0.187-0-0.373-0.187-0.373-0.411zM21.956 15.216c0 0.261-0.224 0.485-0.485 0.485s-0.485-0.224-0.485-0.485v-0.747c0-0.261 0.224-0.485 0.485-0.485s0.485 0.224 0.485 0.485v0.747z"></path>
</svg>
