<!-- Generated by IcoMoon.io -->
<svg version="1.1" xmlns="http://www.w3.org/2000/svg" width="32" height="32" viewBox="0 0 32 32">
<title>23</title>
<path fill="#a7a9ac" d="M15.896 19.686l6.808-3.397c4.662 1.309 6.044 3.078 6.044 3.078l2.667-3.015c0.145-0.155 0.585-0.7 0.585-1.691 0-1.068-1.116-1.899-1.899-2.459-1.329-3.483-8.673-4.493-9.214-5.706-0.188-0.42-1.256-4.044-1.256-4.044-0.638-1.875-2.527-1.875-3.237-1.875-0.715 0-2.247 0.242-2.247 0.242 0 2.614-0.353 5.798-0.725 6.382-0.774 0.408-1.726 0.831-2.705 1.197l-0.18 0.059-3.72-2.508 0.976 3.372c-6.267 3.445-7.793 9.45-7.793 9.45s1.609 12.649 17.466 12.649c8.383 0 13.224-4.054 13.224-4.054l-2.701-6.039s-4.126 2.145-9.397 2.145c-4.861 0-6.759-2.266-7.455-3.585 4.116 0.121 4.759-0.203 4.759-0.203z"></path>
<path fill="#003d7d" d="M29.492 12.647c-1.295-3.498-8.441-4.136-9.228-5.788-0.319-0.662-0.725-2.242-1.314-4.17-0.474-1.392-1.87-1.392-2.566-1.392-0.553 0.014-1.082 0.062-1.6 0.144l0.068-0.009c0 1.425-0.271 5.566-0.933 6.281-0.164 0.203-1.382 0.696-2.706 1.208l0.396 0.266-1.169 1.169-0.836 2.619-1.092-0.57 0.386 0.971-1.947 0.324 1.102 0.382-3.17 2.435 0.855 0.068-1.131 2.044c1.628-0.739 2.126-0.879 2.126-0.879l-0.469-0.483 3.285-1.324s-0.246 0.657-0.246 1.933c0.008 0.276 0.041 0.541 0.097 0.796l-0.005-0.028c0.406 1.986 2.343 6.083 9.19 6.083 4.952 0 8.774-1.73 8.774-1.73l1.773 3.971s-4.648 3.218-11.678 3.218c-14.369 0-16.191-11.296-16.191-11.296 1.981-5.3 5.315-7.619 7.436-8.605l-0.662-0.072-0.058-0.198c-5.6 3.087-7.257 8.813-7.257 8.813s1.705 11.886 16.741 11.886c7.692 0 12.345-3.566 12.345-3.566l-2.174-4.865s-4.063 1.904-9.045 1.904c-7.416 0-8.513-5.059-8.513-5.059s4.223 0.251 5.576-0.111l6.982-3.488c4.73 1.334 6.093 2.778 6.093 2.778l2.165-2.435s0.396-0.372 0.396-1.208c-0.005-0.783-1.174-1.57-1.797-2.015zM14.287 13.942l-3.541-0.478 1.783-0.995zM13.698 9.168l-2.198 3.512-0.773-1.846zM6.426 15.826l4.112-2.768-0.309 2.198z"></path>
<path fill="#003d7d" d="M9.948 15.043l0.261-1.493-2.783 1.889zM11.35 13.367l2.31 0.28-1.358-0.793zM11.171 10.932l0.256 1.14 1.628-2.203z"></path>
<path fill="#003d7d" d="M5.001 16.763l-0.821 0.019 3.43-2.556-1.488-0.589 2.435-0.469-0.846-1.71 1.503 0.855 0.599-1.865c-1.807 0.628-5.687 2.619-7.938 8.489 0.271 1.348 2.623 10.663 15.591 10.663 5.6 0 9.687-2.121 10.943-2.865l-1.338-3c-2.515 0.974-5.426 1.545-8.468 1.561l-0.006 0c-7.885 0.005-9.866-5.397-9.866-7.426-0-0.007-0-0.016-0-0.025 0-0.393 0.025-0.78 0.072-1.16l-0.005 0.045-1.812 0.599 0.237 0.512-1.416 0.512-1.218 0.802 2.474 0.459-0.512 1.768 1.063-0.314 1.019 2.595 1.218-0.155 0.406 1.821s2.295 1.59 6.184 1.937c5.136 0.459 9.731-1.295 9.731-1.295s-5.479 2.15-10.465 1.623c-3.807-0.401-6.286-1.952-6.286-1.952l-0.029-1.643-1.503 0.019-0.705-2.517-1.338 0.628 0.589-2.252-2.566-0.314 0.522-1.57 0.609-1.232zM10.277 10.342l0.744-1-3.619-2.498 1.034 3.049z"></path>
<path fill="#002d56" d="M27.733 12.884c-2.962-0.242-4.112-1.213-4.112-1.976 0-0.367 0.338-0.435 0.565-0.435 1.208 0 3.078 0.957 3.382 1.773-0.531-0.57-1.459-1.068-2.165-1.068-0.15 0-0.309 0.044-0.309 0.232 0 0.478 0.85 1.227 3.957 1.575-1.188-3.43-7.75-3.672-9.223-5.827-0.411-0.599-1.087-4.426-1.768-4.952-0.749-0.575-2.672-0.314-2.672-0.314 0 0.531-0.13 5.228-1.102 6.209-0.657 0.551-1.759 0.792-3.078 1.488l-0.763 0.763-0.836 2.619-1.092-0.57 0.387 0.971-1.947 0.324 1.102 0.382-3.17 2.435 0.855 0.068-1.131 2.044c1.628-0.739 2.126-0.879 2.126-0.879l-0.469-0.483 3.285-1.324s-0.246 0.657-0.246 1.933c0.008 0.276 0.041 0.541 0.097 0.796l-0.005-0.028c0.14-0.27 2.725-5.039 8.262-5.363l-6.919 5.344s3.788 0.159 4.716-0.106c2.928-1.363 5.271-2.633 7.107-3.556 1.763-0.884 3.063-1.44 3.962-1.44 1.111 0 2.652 1.073 3.971 1.981 0.063-0.059 0.113-0.129 0.148-0.208l0.002-0.004c0.319-1.136-1.329-2.024-2.918-2.401zM10.229 15.256l-3.802 0.57 4.112-2.768zM13.698 9.168l-2.198 3.512-0.773-1.846zM10.746 13.463l1.783-0.995 1.759 1.474-3.541-0.478zM17.172 7.593c-0.546 0.034-1.652 0.391-1.652 0.391s0.995-0.575 1.198-0.884 0.256-3.793 0.256-3.793 0.319 3.411 0.589 3.754 1.276 0.768 1.276 0.768-1.266-0.261-1.667-0.237z"></path>
<path fill="#fff" d="M17.568 7.062c-0.27-0.343-0.589-3.754-0.589-3.754s-0.053 3.484-0.256 3.793-1.198 0.884-1.198 0.884 1.106-0.362 1.652-0.391c0.401-0.024 1.672 0.237 1.672 0.237s-1.010-0.425-1.28-0.768zM9.398 18.638c0.14-0.14 2.972-2.962 5.948-3.57l2.319-1.792c-5.537 0.328-8.122 5.097-8.267 5.363zM30.768 14.797c0-0.705-0.928-1.184-1.715-1.812-3.107-0.348-3.957-1.097-3.957-1.575 0-0.188 0.159-0.232 0.309-0.232 0.705 0 1.633 0.498 2.165 1.068-0.309-0.812-2.174-1.773-3.382-1.773-0.227 0-0.565 0.072-0.565 0.435 0 0.763 1.15 1.735 4.112 1.976 1.59 0.377 3.237 1.261 2.918 2.406 0.073-0.137 0.116-0.299 0.116-0.471 0-0.008-0-0.015-0-0.023l0 0.001zM24.941 14.792l1.155 0.411c0.179-0.070 0.331-0.148 0.475-0.239l-0.011 0.007c0.015-0.034 0.015-0.058-0.034-0.101-0.034-0.034-0.551-0.222-0.87-0.343zM25.912 14.425c0.309 0.121 0.734 0.295 0.768 0.3 0.027 0.006 0.058 0.009 0.089 0.009s0.063-0.003 0.092-0.010l-0.003 0.001c0.039-0.010 0.29-0.135 0.474-0.232-0.179-0.087-0.541-0.256-0.783-0.256-0.238 0.034-0.453 0.1-0.652 0.194l0.014-0.006zM27.052 14.826c-0.010 0.024 0 0.044 0.039 0.072 0.185 0.109 0.412 0.226 0.646 0.33l0.045 0.018c0.016 0.002 0.034 0.003 0.053 0.003 0.029 0 0.058-0.003 0.085-0.009l-0.003 0c0.148-0.080 0.273-0.159 0.392-0.244l-0.011 0.007-0.797-0.43c-0.173 0.078-0.32 0.161-0.459 0.257l0.009-0.006zM27.617 15.459c0.009-0.014 0.015-0.031 0.015-0.049 0-0.010-0.002-0.020-0.005-0.029l0 0.001c-0.197-0.125-0.425-0.247-0.664-0.35l-0.032-0.012c-0.017-0.004-0.036-0.007-0.056-0.007-0.039 0-0.077 0.010-0.109 0.027l0.001-0.001c-0.053 0.024-0.353 0.193-0.464 0.251l0.928 0.42c0.148-0.082 0.275-0.165 0.394-0.257l-0.008 0.005zM28.758 15.787c0.053-0.001 0.103-0.014 0.147-0.035l-0.002 0.001c0.098-0.067 0.183-0.133 0.263-0.205l-0.002 0.002-0.715-0.454c-0.143 0.087-0.264 0.172-0.381 0.262l0.009-0.006c0.008 0.030 0.021 0.055 0.039 0.078l-0-0 0.643 0.357zM29.052 15.86c-0.019 0.044-0.024 0.058-0.014 0.068 0.024 0.024 0.396 0.27 0.647 0.44l0.29-0.29-0.662-0.425c-0.099 0.062-0.184 0.13-0.261 0.208l-0 0zM28.642 15.981c0.014-0.024 0.005-0.053-0.019-0.082-0.039-0.034-0.609-0.343-0.652-0.353-0.013-0.001-0.028-0.002-0.043-0.002-0.049 0-0.095 0.008-0.139 0.022l0.003-0.001c-0.024 0.010-0.193 0.126-0.348 0.237l0.875 0.406c0.124-0.077 0.23-0.152 0.33-0.232l-0.007 0.005zM28.796 16.097c-0.024 0.010-0.188 0.135-0.314 0.232l0.793 0.488 0.295-0.324c-0.242-0.164-0.589-0.406-0.618-0.416-0.010-0.001-0.022-0.002-0.034-0.002-0.043 0-0.085 0.008-0.123 0.022l0.003-0.001z"></path>
<path fill="#fff" d="M22.573 14.961c4.271 1.135 6.093 2.614 6.093 2.614l0.454-0.512c-0.213-0.159-1.788-1.242-4.87-2.252 0.918-0.362 2.029-0.792 2.329-0.792 0.681 0 2.082 0.884 3.585 1.87l0.343-0.387c-1.314-0.908-2.856-1.981-3.972-1.981-0.904 0-2.203 0.556-3.962 1.44z"></path>
</svg>
