<!-- Generated by IcoMoon.io -->
<svg version="1.1" xmlns="http://www.w3.org/2000/svg" width="32" height="32" viewBox="0 0 32 32">
<title>24</title>
<path fill="#a4a9ad" d="M19.396 6.979c-8.61 0-15.463 4.716-15.463 4.716s8.451-0.684 8.451 1.065c0 1.537-6.694 4.031-6.694 4.031s5.279 0.145 5.279 1.415c0 2.152-10.968 5.050-10.968 5.050s3.841 1.765 9.842 1.765c10.755 0 22.157-6.1 22.157-10.846 0-4.374-6.412-7.196-12.603-7.196z"></path>
<path fill="#111" d="M19.396 7.359c-6.214 0-11.554 2.533-13.927 3.856 0 0 7.294-0.517 7.294 1.544 0 1.285-3.134 2.83-5.324 3.75 1.795 0.175 3.917 0.609 3.917 1.696 0 2.008-6.724 4.153-10.109 5.104 1.529 0.51 4.579 1.323 8.595 1.323 10.808 0 21.776-6.085 21.776-10.458 0-4.206-6.344-6.815-12.223-6.815z"></path>
<path fill="#f95602" d="M7.835 23.226l-1.27 0.335c0.815 0.083 1.761 0.13 2.719 0.13 0.071 0 0.142-0 0.213-0.001l-0.011 0c12.816 0 21.32-7.796 21.32-9.036-0.001-0.090-0.015-0.176-0.040-0.257l0.002 0.006c-4.541 5.4-13.562 9.127-22.933 8.823z"></path>
<path fill="#fff" d="M19.556 8.417c-4.792 0-10.002 1.856-10.002 1.856s5.362-0.266 5.362 1.977c0 2.092-3.788 3.628-3.788 3.628s2.297 0.532 2.297 1.864c0 3.020-7.454 4.898-7.454 4.898 15.646 0.761 24.583-7.606 24.583-9.15 0-1.445-4.351-5.073-10.999-5.073z"></path>
<path fill="#b5985a" d="M19.556 8.729c-3.004 0-6.199 0.745-8.123 1.285 0 0 3.796 0.152 3.796 2.236 0 1.689-2.122 2.989-3.271 3.575 0.753 0.304 1.78 0.905 1.78 1.917 0 2.251-3.582 3.849-5.864 4.64 14.193 0 22.377-7.545 22.377-8.892 0-1.225-4.206-4.761-10.694-4.761z"></path>
<path fill="#fff" d="M16.932 10.988s4.191 0.943 6.070 2.198l-8.177 2.114 7.751-0.251c-1.727 1.263-8.024 4.282-8.024 4.282s7.743-1.148 12.634-5.621c-4.351-3.91-10.253-2.723-10.253-2.723z"></path>
<path fill="#111" d="M18.727 11.14s3.24 0.829 5.012 2.175l-6.146 1.59 5.971-0.198c-1.673 1.407-6.587 3.773-6.587 3.773 2.586-0.684 6.671-2.107 9.721-4.761-2.715-2.274-6.001-2.624-7.971-2.579z"></path>
</svg>
