<!-- Generated by IcoMoon.io -->
<svg version="1.1" xmlns="http://www.w3.org/2000/svg" width="32" height="32" viewBox="0 0 32 32">
<title>26</title>
<path fill="#000" d="M2.567 0v22.291l13.451 9.708 13.415-9.708v-22.291h-26.866z"></path>
<path fill="#a2aaad" d="M3.232 0.665v21.286l12.786 9.228 12.751-9.228v-21.286h-25.536z"></path>
<path fill="#a2aaad" d="M5.348 2.721v-0h21.341v11.663h-21.341v-11.663z"></path>
<path fill="#000" d="M5.349 17.394h-0v3.398l10.67 7.711 10.671-7.711v-3.398zM26.689 14.384v-11.663h-21.341v11.663h21.341z"></path>
<path fill="#fff" d="M16.018 30.41l12.127-8.777v-20.344h-24.289v20.344l10.679 7.707zM4.631 2.001h22.776v13.441h-22.776zM4.631 16.145h22.776v5.015l-11.388 8.231-11.388-8.231v-5.015z"></path>
<path fill="#000" d="M26.689 14.384v-11.663h-21.341v11.663h21.341zM5.349 17.394h-0v3.398l10.67 7.711 10.671-7.711v-3.398z"></path>
<path fill="#a2aaad" d="M24.26 5.835h-6.316v2.464h6.316zM24.075 8.115h-5.946v-2.096h5.946v2.096z"></path>
<path fill="#a2aaad" d="M12.079 11.086h-4.116v-2.534c0-2.662 0.561-3.774 0.665-3.959 0.011-0.019 0.016-0.028 0.017-0.028h-2.656c0.003 0.004 0.682 1.056 0.682 3.987 0 2.937-0.683 3.986-0.683 3.986l8.681-0.001c0.453-0.692 0.723-1.539 0.723-2.449 0-0.012-0-0.025-0-0.037v0.002c-0.009 0.009-1 1.032-3.314 1.032zM25.365 8.552c0-0.33 0.009-0.634 0.024-0.918 0.121-2.24 0.659-3.069 0.659-3.069h-9.895c0.003 0.004 0.684 1.056 0.684 3.987 0 2.203-0.385 3.344-0.578 3.777-0.035 0.082-0.071 0.151-0.111 0.217l0.004-0.007h1.975v-2.97h5.947v2.97h1.974c-0.002-0.003-0.619-0.957-0.679-3.578-0.003-0.132-0.005-0.268-0.005-0.409zM24.075 8.115h-5.946v-2.096h5.946v2.096z"></path>
<path fill="#fff" d="M13.873 11.040c-0.52 0.146-1.117 0.23-1.733 0.23-0.022 0-0.044-0-0.065-0l0.003 0h-4.299v-2.718c-0-0.037-0.001-0.080-0.001-0.124 0-0.791 0.065-1.567 0.191-2.323l-0.011 0.082c0.070-0.428 0.164-0.802 0.285-1.164l-0.015 0.053q0.055-0.165 0.122-0.325h-2.065q0.067 0.16 0.122 0.325c0.105 0.309 0.199 0.683 0.264 1.068l0.006 0.044c0.114 0.674 0.18 1.45 0.18 2.241 0 0.044-0 0.087-0.001 0.13l0-0.007v0c0 0.036 0.001 0.079 0.001 0.122 0 0.785-0.064 1.555-0.187 2.305l0.011-0.082c-0.073 0.454-0.175 0.854-0.308 1.24l0.015-0.051q-0.047 0.136-0.103 0.268h8.285c0.102-0.162 0.199-0.351 0.28-0.547l0.009-0.025c0.164-0.39 0.28-0.841 0.325-1.313l0.001-0.019q-0.146 0.099-0.301 0.184c-0.29 0.161-0.626 0.3-0.978 0.399l-0.033 0.008zM25.23 9.848c-0.030-0.385-0.049-0.814-0.049-1.295 0-0.405 0.013-0.774 0.035-1.11 0.040-0.835 0.181-1.622 0.411-2.37l-0.018 0.068c0.051-0.159 0.101-0.29 0.143-0.39h-9.3c0.113 0.265 0.215 0.582 0.288 0.908l0.007 0.038c0.177 0.799 0.279 1.716 0.279 2.657 0 0.070-0.001 0.14-0.002 0.209l0-0.011c0.001 0.060 0.002 0.131 0.002 0.202 0 0.946-0.103 1.868-0.298 2.755l0.016-0.085c-0.080 0.358-0.18 0.668-0.305 0.965l0.014-0.037h1.492v-2.97h0v-0h6.316v2.971h1.491c-0.044-0.099-0.093-0.231-0.137-0.365l-0.009-0.033c-0.193-0.619-0.327-1.338-0.375-2.080l-0.001-0.027zM24.26 8.299h-6.316v-2.464h6.316v2.464zM19.854 20.197c-0.001 0.001-0.646 0.863-0.767 1.024l-0-0-0 0c-0.131-0.155-0.275-0.292-0.433-0.412l-0.007-0.005c-0.29-0.224-0.626-0.405-0.989-0.529l-0.024-0.007v-0c0.037-0.091 0.168-0.409 0.245-0.596l0.057-0.14-0.155 0.063q-0.195 0.079-0.389 0.159l0-0.001-0.001 0c0.016-0.034 0.033-0.066 0.034-0.067l-0.308 0.016c-0.156 0.008-0.322 0.017-0.368 0.020l-0.035-0.062c-0.051-0.092-0.144-0.255-0.224-0.398l-0.15-0.265c0.014-0.025 0.039-0.069 0.067-0.116 0.046-0.080 0.097-0.169 0.105-0.182 0.009-0.009 0.047-0.042 0.085-0.074l0.084-0.073-0.194-0.368-0.413 0.029-0.002 0.051-0.006 0.178-0.029 0.047-0.018 0.031-0-0.001-0 0-0.026-0.042-0.022-0.036c-0.001-0.036-0.008-0.227-0.008-0.228l-0.413-0.029-0.086 0.164-0.107 0.204s0.149 0.127 0.17 0.146c0.013 0.021 0.134 0.232 0.172 0.299-0.043 0.076-0.362 0.641-0.409 0.725-0.050-0.003-0.242-0.013-0.409-0.022l-0.269-0.014s0.010 0.018 0.022 0.043l0.012 0.024v0l-0.145-0.060-0.399-0.162c0.643 1.711 0.744 1.953 0.846 2.196l-0.545-1.46c-0.525 0.173-0.974 0.456-1.338 0.823l-0 0-0.005 0.005c-0.004 0.004-0.006 0.007-0.010 0.011q-0.052 0.055-0.101 0.114l-0.028-0.037c-0.169-0.226-0.739-0.987-0.739-0.987l-0.164 0.071 0.791 4.539s1.127 0.288 3.208 0.288c2.081 0 3.208-0.288 3.208-0.288l0.791-4.539-0.164-0.071z"></path>
<path fill="#000" d="M14.644 21.838c-0.139 0-0.251 0.112-0.252 0.25v0c0 0.139 0.113 0.252 0.252 0.252s0.252-0.113 0.252-0.252v0c0-0.138-0.112-0.251-0.251-0.251-0 0-0 0-0 0v0zM17.341 21.838c-0.139 0-0.251 0.112-0.252 0.25v0c0 0.139 0.113 0.252 0.252 0.252s0.252-0.113 0.252-0.252v0c-0-0.139-0.113-0.251-0.252-0.251-0 0-0 0-0.001 0h0z"></path>
<path fill="#000" d="M19.083 21.516l-0.002-0.002c-0.044-0.070-0.086-0.13-0.132-0.188l0.003 0.004c-0.050-0.063-0.1-0.118-0.153-0.171l-0.004-0.004q-0.083-0.083-0.174-0.158l-0.009-0.007q-0.093-0.075-0.191-0.143l-0.015-0.010q-0.111-0.074-0.228-0.139-0.121-0.067-0.247-0.124-0.13-0.059-0.264-0.108-0.126-0.046-0.254-0.084l-0.013-0.004 0-0 0.213-0.518v-0l-1.091 0.49v-0.269l-0.503-0.868-0 0-0.505 0.867v0.269h-0l-1.091-0.49 0.101 0.245 0.112 0.273c-0.546 0.147-1.017 0.417-1.4 0.78l0.002-0.001c-0.106 0.106-0.2 0.224-0.28 0.351l-0.005 0.008-0.705-0.945 0.242 1.41 0.454 2.637s0.899 0.224 2.416 0.267h0.002s-1.031-0.096-1.643-0.33l-0.001-0q0.105 0.015 0.211 0.029c0.204 0.027 0.443 0.054 0.697 0.075 0.262 0.022 0.539 0.038 0.805 0.038h0.002c-0.341-0.039-0.637-0.091-0.928-0.158l0.056 0.011c-0.205-0.045-0.379-0.097-0.548-0.16l0.028 0.009 0.002 0c0.141 0.019 0.303 0.039 0.475 0.057 0.323 0.038 0.701 0.061 1.083 0.064l0.005 0h0.002c-0.511-0.056-0.976-0.157-1.421-0.302l0.049 0.014q0.232-0.049 0.467-0.086c0.395-0.067 0.85-0.105 1.313-0.105 0.385 0 0.763 0.026 1.134 0.077l-0.043-0.005c0.25 0.032 0.483 0.073 0.695 0.118l-0 0c-0.395 0.131-0.859 0.233-1.338 0.285l-0.031 0.003h0.001c0.392-0.003 0.773-0.027 1.149-0.070l-0.050 0.005q0.233-0.024 0.465-0.056c-0.144 0.055-0.322 0.108-0.505 0.149l-0.027 0.005c-0.231 0.055-0.523 0.105-0.82 0.14l-0.039 0.004h0.001c0.267 0 0.545-0.016 0.809-0.038s0.512-0.051 0.721-0.078c0.065-0.009 0.126-0.017 0.182-0.025l-0.001 0c-0.612 0.234-1.643 0.33-1.643 0.33h0.003c1.517-0.043 2.415-0.267 2.415-0.267l0.697-4.048-0.706 0.945zM16.523 22.275v-1.827l0.921-0.413-0.921 2.241zM17.327 20.557v-0c0.491 0.136 0.917 0.369 1.273 0.681l-0.004-0.003c0.142 0.128 0.262 0.275 0.357 0.439l0.005 0.009 0 0-0.177 0.236-0.016 0.021c-0.12-0.233-0.279-0.43-0.47-0.589l-0.003-0.002q-0.041-0.034-0.083-0.065c-0.019-0.014-0.038-0.027-0.057-0.040-0.009-0.006-0.017-0.012-0.026-0.018-0.018-0.012-0.037-0.023-0.055-0.034-0.009-0.006-0.019-0.012-0.028-0.018-0.018-0.011-0.036-0.020-0.053-0.030-0.009-0.005-0.019-0.011-0.028-0.016-0.018-0.009-0.035-0.018-0.052-0.027-0.009-0.004-0.018-0.009-0.027-0.013-0.017-0.008-0.034-0.016-0.051-0.023l-0.025-0.011c-0.018-0.008-0.035-0.015-0.052-0.021l-0.020-0.008c-0.019-0.007-0.036-0.013-0.054-0.020l-0.014-0.005c-0.005-0.002-0.024-0.009-0.043-0.015l-0.013-0.004-0.007-0.002c-0.068-0.023-0.149-0.042-0.232-0.054l-0.008-0.001-0.002-0c0.22 0.080 0.41 0.178 0.584 0.297l-0.009-0.006c0.247 0.163 0.442 0.386 0.569 0.648l0.004 0.010c0.038 0.079 0.071 0.172 0.095 0.269l0.002 0.010-0.179 0.241c0 0 0.023 0.645-0.106 0.916q-0.041-0.015-0.082-0.030c-0.019-0.006-0.037-0.013-0.058-0.020 0.143-0.592 0.078-1.017-0.071-1.321q-0.026-0.053-0.056-0.103c-0.014-0.023-0.029-0.044-0.044-0.066-0.006-0.009-0.012-0.018-0.018-0.027-0.015-0.021-0.032-0.041-0.048-0.061-0.006-0.007-0.012-0.016-0.018-0.023-0.016-0.019-0.033-0.037-0.050-0.054-0.006-0.007-0.013-0.014-0.019-0.021-0.018-0.018-0.035-0.033-0.053-0.049-0.006-0.006-0.012-0.012-0.018-0.017q-0.028-0.024-0.057-0.046c-0.005-0.004-0.010-0.008-0.015-0.012q-0.029-0.022-0.059-0.042c-0.004-0.003-0.008-0.006-0.011-0.008-0.014-0.010-0.034-0.022-0.054-0.034l-0.007-0.004-0.009-0.005q-0.032-0.019-0.063-0.035l-0.002-0.001c-0.076-0.042-0.164-0.078-0.256-0.104l-0.009-0.002h-0.001c0.957 0.493 0.868 1.374 0.673 1.955l-0 0c0.050 0.010 0.001-0.003-0.048-0.016l-0.098-0.022q-0.058-0.015-0.117-0.029l-0.102-0.502-0.032-0.155c0.133-0.037 0.229-0.158 0.229-0.301 0-0.111-0.058-0.209-0.146-0.264l-0.001-0.001c-0.014-0.017-0.028-0.032-0.044-0.045l-0-0c-0.058-0.052-0.136-0.084-0.221-0.084-0.183 0-0.331 0.148-0.331 0.331 0 0 0 0 0 0v-0c0.005 0.119 0.068 0.223 0.162 0.283l0.001 0.001-0.334 0.609c-0.053-0.006-0.107-0.010-0.161-0.014q-0.088-0.007-0.177-0.012c-0.052-0.003-0.103-0.006-0.155-0.009l0.982-2.389zM17.341 22.372c-0.001 0-0.001 0-0.002 0-0.157 0-0.284-0.127-0.284-0.284s0.127-0.284 0.284-0.284c0.114 0 0.212 0.067 0.257 0.164l0.001 0.002c0.017 0.034 0.026 0.075 0.026 0.118 0 0.041-0.009 0.080-0.025 0.115l0.001-0.002c-0.045 0.101-0.143 0.17-0.258 0.171h-0zM16.018 19.872l0.001-0.001 0.412 0.538-0.412 0.488-0.001-0.001-0.411-0.488 0.411-0.537zM14.594 20.035v-0l0.921 0.413v1.828l-0.067-0.163-0.854-2.078zM13.079 21.682c0.11-0.189 0.244-0.349 0.401-0.483l0.003-0.002c0.343-0.288 0.754-0.508 1.204-0.634l0.023-0.005 0 0 0.982 2.389c-0.064 0.003-0.128 0.007-0.192 0.011-0.102 0.007-0.204 0.014-0.302 0.025l-0.006-0.011-0.299-0.544c0.097-0.055 0.161-0.157 0.161-0.274 0-0.056-0.015-0.109-0.041-0.155l0.001 0.002c-0-0.001-0.001-0.002-0.002-0.003-0.026-0.045-0.061-0.081-0.103-0.108l-0.001-0.001c-0.061-0.080-0.156-0.13-0.263-0.13-0.183 0-0.331 0.148-0.331 0.331 0 0.054 0.013 0.104 0.035 0.149l-0.001-0.002c0.037 0.074 0.099 0.131 0.175 0.162l0.002 0.001-0.145 0.713c-0.006 0.001-0.012 0.003-0.018 0.004-0.088 0.021-0.169 0.042-0.244 0.062v-0q-0.014-0.043-0.027-0.087c-0.105-0.35-0.161-0.789 0.015-1.186 0.145-0.302 0.383-0.539 0.677-0.679l0.009-0.004-0.001 0c-0.064 0.017-0.119 0.037-0.172 0.061l0.006-0.002q-0.028 0.012-0.059 0.027c-0.003 0.002-0.006 0.003-0.009 0.005-0.019 0.009-0.038 0.019-0.058 0.030-0.005 0.002-0.009 0.006-0.014 0.008-0.019 0.011-0.038 0.022-0.057 0.034-0.006 0.003-0.011 0.008-0.017 0.011-0.019 0.012-0.038 0.025-0.058 0.039-0.006 0.004-0.012 0.009-0.018 0.014-0.019 0.014-0.039 0.029-0.058 0.045-0.006 0.005-0.012 0.011-0.018 0.016-0.019 0.016-0.038 0.033-0.057 0.051-0.006 0.006-0.012 0.012-0.018 0.018-0.019 0.019-0.038 0.038-0.056 0.058-0.006 0.007-0.011 0.014-0.017 0.021-0.018 0.021-0.036 0.043-0.054 0.066-0.005 0.007-0.010 0.015-0.015 0.023-0.017 0.024-0.034 0.048-0.051 0.074-0.005 0.009-0.010 0.019-0.016 0.028-0.015 0.026-0.031 0.052-0.045 0.080q-0.029 0.058-0.052 0.119c-0.112 0.294-0.149 0.686-0.023 1.208q-0.070 0.023-0.14 0.050c-0.042-0.101-0.072-0.219-0.083-0.342l-0-0.005c-0.015-0.137-0.024-0.295-0.024-0.456 0-0.040 0.001-0.080 0.002-0.12l-0 0.006-0.179-0.241c0-0.002 0.001-0.004 0.002-0.006 0.095-0.395 0.358-0.799 0.944-1.092 0.079-0.041 0.178-0.085 0.28-0.123l0.020-0.007h-0.001c-0.118 0.018-0.224 0.045-0.325 0.083l0.011-0.004c-0.002 0.001-0.005 0.002-0.008 0.003-0.079 0.028-0.142 0.054-0.203 0.084l0.012-0.005-0.012 0.005c-0.001 0.001-0.003 0.002-0.004 0.002-0.379 0.183-0.681 0.476-0.868 0.839l-0.005 0.011-0.192-0.257zM14.828 22.303c-0.049 0.043-0.113 0.069-0.183 0.069h-0c-0.001 0-0.002 0-0.004 0-0.159 0-0.287-0.129-0.287-0.287s0.129-0.287 0.287-0.287c0.159 0 0.287 0.129 0.287 0.287 0 0.087-0.039 0.165-0.1 0.218l-0 0zM12.746 22.932l-0.041-0.241c0.003-0.001 0.007-0.001 0.011-0.002h0c0.006-0.002 0.013-0.003 0.020-0.003h0.001c0.034 0 0.065 0.016 0.085 0.041l0 0c0.019 0.022 0.030 0.051 0.030 0.082v0c0 0.001 0 0.002 0 0.004 0 0.061-0.046 0.112-0.106 0.119l-0.001 0h-0zM12.786 23.16l-0.008-0.045c0.075-0.013 0.139-0.055 0.181-0.112l0.001-0.001c0.040-0.053 0.064-0.12 0.064-0.193 0-0.074-0.025-0.142-0.067-0.197l0.001 0.001c-0.050-0.068-0.13-0.112-0.219-0.113h-0c-0 0-0.001 0-0.001 0-0.022 0-0.044 0.003-0.064 0.009l0.002-0-0.009-0.045c0.022-0.005 0.047-0.008 0.072-0.009h0.001c0.185 0.006 0.332 0.158 0.332 0.343 0 0.004-0 0.008-0 0.012l0-0.001c0 0.003 0 0.005 0 0.008 0 0.169-0.121 0.311-0.281 0.342l-0.002 0zM19.302 22.863l-0.012 0.069h-0c-0.060-0.007-0.106-0.058-0.106-0.12 0-0.001 0-0.002 0-0.003v0c0-0 0-0 0-0 0-0.045 0.024-0.084 0.060-0.106l0.001-0c0.015-0.010 0.034-0.016 0.054-0.017h0.001c0.001-0 0.003-0 0.005-0 0.010 0 0.019 0.002 0.028 0.005l-0.001-0-0.029 0.172zM19.371 22.463l-0.008 0.045v0c-0.019-0.005-0.040-0.008-0.062-0.008-0.001 0-0.002 0-0.002 0h0c-0 0-0 0-0 0-0.040 0-0.078 0.009-0.112 0.025l0.002-0.001c-0.104 0.051-0.175 0.157-0.175 0.279 0 0.002 0 0.004 0 0.006v-0c-0 0.002-0 0.005-0 0.008 0 0.147 0.104 0.269 0.243 0.297l0.002 0-0.003 0.022-0.003 0.023-0.001-0c-0.042-0.007-0.079-0.021-0.113-0.041l0.001 0.001c-0.104-0.064-0.172-0.177-0.172-0.306 0-0.002 0-0.003 0-0.005v0c-0-0.004-0-0.008-0-0.012 0-0.185 0.147-0.336 0.331-0.343l0.001-0c0.010 0.001 0.020 0.002 0.029 0.004l-0.002-0c0.017 0.001 0.032 0.003 0.047 0.006l-0.002-0v0zM19.635 20.929l-0.255 1.489-0 0c-0.008-0.002-0.016-0.003-0.025-0.005-0.016-0.003-0.035-0.005-0.055-0.006h-0c-0.21 0.007-0.378 0.179-0.378 0.39 0 0.004 0 0.008 0 0.012v-0.001c0 0 0 0 0 0 0 0.105 0.039 0.2 0.104 0.272l-0-0c0.041 0.046 0.092 0.083 0.149 0.105l0.003 0.001c0.019 0.007 0.041 0.013 0.063 0.017l0.002 0h0l-0.222 1.288v0c-0.095-0.039-0.241-0.090-0.388-0.136l-0.050-0.014c-0.23-0.075-0.531-0.153-0.836-0.215l-0.057-0.010c-0.501-0.105-1.078-0.166-1.668-0.168h-0.001c-0.933 0.005-1.83 0.153-2.672 0.424l0.063-0.017q-0.2 0.062-0.395 0.136l-0.163-0.95-0.058-0.339c0.119-0.022 0.216-0.096 0.27-0.198l0.001-0.002c0.031-0.057 0.050-0.125 0.050-0.198 0-0.108-0.041-0.207-0.109-0.281l0 0c-0.066-0.073-0.162-0.119-0.268-0.12h-0c-0.020 0-0.040 0.003-0.059 0.007l0.002-0c-0.007 0.001-0.015 0.002-0.022 0.004v-0l-0.258-1.49 1.117 1.491c-0.002 0.040-0.003 0.087-0.003 0.134 0 0.162 0.012 0.322 0.036 0.477l-0.002-0.017c0.018 0.152 0.060 0.291 0.123 0.418l-0.003-0.007s0.163-0.066 0.394-0.135c0.098-0.032 0.231-0.067 0.366-0.096l0.030-0.005 0.104-0.513 0.048-0.238c0.010 0.004 0.023 0.008 0.036 0.012l0.003 0.001c0.028 0.010 0.060 0.015 0.094 0.016h0c0.001 0 0.001 0 0.002 0 0.022 0 0.044-0.002 0.064-0.007l-0.002 0 0 0 0.111 0.202 0.229 0.417s0.129-0.012 0.284-0.024c0.139-0.011 0.3-0.020 0.409-0.020l-0.207-0.642 0.386-0.991 0.384 0.991-0.207 0.642h0c0.12 0 0.301 0.012 0.448 0.023 0.138 0.011 0.247 0.021 0.247 0.021l0-0 0.366-0.669 0 0c0.001 0.001 0.003 0.002 0.003 0.003l0 0c0.023 0.015 0.050 0.028 0.079 0.038l0.002 0.001c0.027 0.009 0.058 0.014 0.090 0.015h0l0.147 0.722q0.184 0.038 0.365 0.092l0.002 0 0.002 0.001c0.178 0.052 0.318 0.101 0.455 0.155l-0.034-0.012 0-0c0.002-0.002 0.136-0.228 0.152-0.766 0.001-0.034 0.002-0.075 0.002-0.115 0-0.043-0.001-0.086-0.002-0.129l0 0.006 1.115-1.49z"></path>
<path fill="#000" d="M15.475 20.049l0.022-0.037 0.521-0.898 0.001 0.001 0.544 0.935h0.431l0.053-0.102h-0.429l-0.541-0.935 0.267-0.454 0.063-0.065-0-0-0.005-0.007-0.039-0.058h-0l-0.098 0.007v0l-0.004 0.019-0.012 0.061-0.23 0.398-0.228-0.398-0.017-0.080-0.098-0.007-0.012 0.018-0.033 0.047v0l0.009 0.009 0.056 0.056 0.265 0.454-0.542 0.935h-0.428l0.051 0.102zM15.376 23.396c-0.004-0.002-0.007-0.006-0.012-0.008v0c0.004 0.006 0.008 0.012 0.011 0.020l0 0.001c0.015 0.023 0.024 0.051 0.025 0.081v0c0 0 0 0 0 0 0 0.092-0.074 0.166-0.166 0.166h-0.004l0 0c0.006 0.003 0.012 0.005 0.018 0.007 0.008 0.003 0.017 0.005 0.026 0.007l0.001 0c0.007 0.002 0.014 0.003 0.022 0.003h0c0.082-0 0.149-0.067 0.149-0.15 0-0.054-0.029-0.101-0.071-0.128l-0.001-0zM14.081 23.616l-0.001-0c0.011 0.013 0.020 0.028 0.026 0.045l0 0.001c0.001 0.003 0.001 0.006 0.002 0.009 0.005 0.014 0.008 0.031 0.008 0.048v0c-0.001 0.091-0.075 0.165-0.166 0.166h-0.003c0.010 0.005 0.022 0.010 0.035 0.012l0.001 0c0.009 0.002 0.020 0.004 0.030 0.004h0c0 0 0 0 0 0 0.083 0 0.151-0.068 0.151-0.151v0-0c-0.001-0.059-0.034-0.109-0.083-0.134l-0.001-0zM16.839 23.388c0.005 0.008 0.010 0.016 0.014 0.025l0 0.001c0.013 0.021 0.021 0.047 0.022 0.075v0.001c0 0 0 0 0 0 0 0.092-0.075 0.166-0.166 0.166-0 0-0 0-0.001 0h-0.003l0 0c0.005 0.003 0.012 0.005 0.018 0.007l0.001 0c0.007 0.003 0.015 0.005 0.024 0.006l0.001 0c0.006 0.002 0.014 0.003 0.021 0.003h0c0.020-0 0.038-0.004 0.055-0.011l-0.001 0c0.057-0.022 0.097-0.076 0.097-0.14 0-0.059-0.034-0.11-0.084-0.134l-0.001-0zM18.127 23.617l-0.001-0.001c0.006 0.008 0.011 0.017 0.016 0.027l0 0.001c0.012 0.022 0.020 0.047 0.020 0.075v0c-0 0.092-0.074 0.166-0.166 0.166h-0.003c0.008 0.004 0.017 0.008 0.027 0.011l0.001 0c0.011 0.003 0.024 0.006 0.038 0.006h0c0.053-0.001 0.1-0.030 0.126-0.072l0-0.001c0.016-0.022 0.025-0.050 0.025-0.080s-0.009-0.056-0.024-0.079l0 0c-0.015-0.023-0.035-0.041-0.059-0.054l-0.001-0zM16.14 22.238l0 0c0.002 0.003 0.003 0.006 0.005 0.009 0.019 0.025 0.030 0.056 0.031 0.090v0c0 0 0 0.001 0 0.002 0 0.091-0.073 0.165-0.163 0.168h-0c0.018 0.009 0.038 0.014 0.060 0.014h0c0 0 0 0 0 0 0.021 0 0.042-0.004 0.060-0.012l-0.001 0c0.003-0.001 0.006-0.004 0.009-0.006 0.050-0.024 0.083-0.074 0.084-0.132v-0c-0-0.059-0.035-0.109-0.084-0.133l-0.001-0zM16.010 22.507l0.003-0c-0.002-0.001-0.004-0.001-0.006-0.002l0.003 0.002z"></path>
<path fill="#000" d="M15.368 23.49c0-0.074-0.060-0.134-0.134-0.134s-0.134 0.060-0.134 0.134v0c0 0 0 0.001 0 0.001 0 0.073 0.059 0.133 0.132 0.133h0.002c0 0 0 0 0.001 0 0.074 0 0.133-0.059 0.134-0.133v-0.002zM13.95 23.855c0.022-0 0.043-0.007 0.061-0.017l-0.001 0c0.044-0.023 0.073-0.067 0.074-0.119v-0c-0-0.068-0.052-0.124-0.118-0.13l-0.001-0c-0.004-0.001-0.009-0.002-0.015-0.003l-0.001-0h-0.001c-0 0-0.001 0-0.001 0-0.074 0-0.133 0.060-0.133 0.133 0 0 0 0 0 0v0c0.001 0.074 0.060 0.134 0.134 0.136h0zM16.761 23.614c0.049-0.020 0.082-0.067 0.082-0.122 0-0.049-0.026-0.091-0.066-0.114l-0.001-0c-0.019-0.013-0.043-0.021-0.068-0.021h-0c-0.074 0-0.133 0.060-0.134 0.134v0c0 0 0 0 0 0 0 0.019 0.004 0.037 0.011 0.054l-0-0.001c0.020 0.048 0.067 0.081 0.122 0.081 0 0 0.001 0 0.001 0h-0c0 0 0 0 0 0 0.019 0 0.037-0.004 0.053-0.011l-0.001 0zM17.997 23.854c0.074-0.002 0.133-0.062 0.133-0.135v-0c0-0 0-0 0-0 0-0.073-0.059-0.133-0.133-0.133h-0l-0-0c-0 0-0.001 0-0.002 0-0.074 0-0.134 0.060-0.134 0.134v0c0.001 0.074 0.061 0.135 0.135 0.136h0zM16.062 22.463c0.049-0.022 0.082-0.069 0.082-0.125 0-0 0-0 0-0v0c-0.002-0.072-0.061-0.13-0.134-0.13s-0.132 0.058-0.134 0.13v0c0 0 0 0 0 0 0 0.056 0.033 0.103 0.081 0.125l0.001 0c0.015 0.007 0.033 0.011 0.052 0.011s0.037-0.004 0.053-0.011l-0.001 0zM12.767 22.158l-0-0.001-0.040 0.091-0.049 0.11 0.074 0.003 0.087 0.003-0.018-0.051zM12.915 22.391l0 0 0.058 0.037 0.078 0.050v-0l0.045-0.214-0.005 0.004zM13.175 22.687l0.149-0.163-0.22 0.018 0.071 0.145zM13.19 22.767l-0.010 0.108-0.005 0.055 0.212-0.064-0-0zM13.155 22.985l-0 0-0.088 0.137 0.216 0.042-0.062-0.088zM12.988 23.187l-0.148 0.064 0.156 0.155 0.001 0.001-0.009-0.221zM19.36 22.357l-0.075-0.168-0.015-0.032v0l-0.009 0.026-0.063 0.181 0.162-0.007zM18.941 22.265h-0l0.045 0.214 0.001-0 0.134-0.087-0.1-0.071zM18.862 22.687l0-0.001 0.060-0.123 0.010-0.021-0.221-0.018zM18.848 22.767l-0.199 0.099 0.212 0.064zM18.754 23.165l0.216-0.042-0.088-0.137zM19.197 23.251l-0.148-0.065v0l-0.008 0.221v0l0.061-0.062zM16.191 20.394c0-0 0-0 0-0 0-0.095-0.077-0.173-0.172-0.173h-0c-0.095 0-0.171 0.077-0.171 0.171s0.077 0.171 0.171 0.171v0c0 0 0.001 0 0.001 0 0.094 0 0.171-0.076 0.172-0.17v-0zM16.018 20.541c-0.081-0.002-0.146-0.067-0.147-0.147v-0c-0-0.001-0-0.003-0-0.004 0-0.082 0.066-0.148 0.148-0.148s0.148 0.066 0.148 0.148c0 0.001-0 0.003-0 0.004v-0c-0.003 0.081-0.068 0.145-0.148 0.147h-0zM16.866 20.872c0.021-0 0.041-0.005 0.060-0.012l-0.001 0 0.007-0.003c0.035-0.017 0.063-0.044 0.080-0.079l0-0.001c0.009-0.019 0.015-0.041 0.015-0.064v-0c0-0.001 0.001-0.002 0.001-0.003-0-0.058-0.030-0.109-0.076-0.137l-0.001-0c-0.015-0.019-0.034-0.035-0.055-0.046l-0.001-0c-0.023-0.013-0.051-0.020-0.080-0.020h-0c-0 0-0 0-0 0-0.024 0-0.047 0.005-0.068 0.014l0.001-0c-0.062 0.027-0.105 0.088-0.105 0.158 0 0.060 0.031 0.113 0.077 0.144l0.001 0c0.015 0.010 0.032 0.017 0.051 0.022l0.001 0c0.006 0.003 0.012 0.007 0.019 0.010l0.001 0c0.021 0.012 0.045 0.019 0.072 0.020h0c0.001 0 0.001-0 0.002-0zM16.667 20.676c-0-0.001-0-0.003-0-0.004 0-0.081 0.066-0.147 0.147-0.147s0.147 0.066 0.147 0.147c0 0.001-0 0.003-0 0.004v-0c0 0.081-0.066 0.147-0.147 0.147s-0.147-0.066-0.147-0.147v0zM15.285 20.571c-0.002-0.003-0.006-0.006-0.008-0.008-0.032-0.037-0.078-0.060-0.13-0.060-0.094 0-0.171 0.077-0.171 0.171 0 0.064 0.036 0.121 0.088 0.15l0.001 0c0.012 0.007 0.026 0.013 0.040 0.017l0.001 0 0 0c0.025 0.019 0.057 0.030 0.091 0.030 0 0 0 0 0.001 0h-0c0.001 0 0.001-0 0.002-0 0.021-0 0.041-0.005 0.060-0.012l-0.001 0 0.006-0.003c0.056-0.026 0.094-0.080 0.096-0.144v-0c0-0.001 0.001-0.002 0.001-0.004-0-0.058-0.030-0.109-0.076-0.137l-0.001-0zM15.296 20.676c0 0.081-0.066 0.147-0.147 0.147s-0.147-0.066-0.147-0.147v0c0-0.081 0.066-0.148 0.148-0.148s0.148 0.066 0.148 0.148v0z"></path>
<path fill="#000" d="M16.018 20.262c-0.072 0.001-0.13 0.059-0.13 0.131 0 0 0 0.001 0 0.001v-0c0 0.071 0.058 0.129 0.129 0.129 0 0 0 0 0 0h0c0 0 0.001 0 0.002 0 0.071 0 0.129-0.058 0.129-0.129v-0c0-0 0-0 0-0.001 0-0.072-0.058-0.131-0.13-0.131h-0zM16.814 20.546c-0.072 0-0.13 0.058-0.13 0.13s0.058 0.13 0.13 0.13 0.13-0.058 0.13-0.13c0-0 0-0 0-0.001v0c0-0.072-0.058-0.13-0.13-0.13h-0.001zM15.148 20.546c-0 0-0.001 0-0.001 0-0.071 0-0.129 0.057-0.13 0.129v0.001c0 0 0 0 0 0.001 0 0.072 0.058 0.13 0.13 0.13h0.001c0 0 0 0 0 0 0.072 0 0.131-0.058 0.131-0.131v0-0c-0-0.072-0.058-0.13-0.13-0.13 0 0 0 0 0 0h-0.001z"></path>
<path fill="#a2aaad" d="M15.514 22.276v-1.828l-0.921-0.413 0.921 2.241zM15.361 20.713c-0.001 0.045-0.020 0.086-0.051 0.114l-0 0c-0.013 0.012-0.027 0.022-0.044 0.029l-0.001 0c-0.019 0.009-0.041 0.014-0.065 0.015h-0c-0.001 0-0.001 0-0.002 0s-0 0-0.001 0c-0.034 0-0.066-0.011-0.091-0.030l0 0c-0.016-0.004-0.030-0.011-0.043-0.018l0.001 0c-0.053-0.030-0.088-0.085-0.088-0.149 0-0.094 0.076-0.171 0.171-0.171 0.051 0 0.097 0.023 0.129 0.059l0 0c0.003 0.003 0.006 0.005 0.008 0.009 0.046 0.029 0.077 0.080 0.077 0.138v0c0 0.001-0.001 0.002-0.001 0.004zM17.443 20.035l-0.921 0.413v1.827l0.307-0.746 0.614-1.495zM16.772 20.842c-0.020-0.005-0.037-0.012-0.053-0.023l0.001 0c-0.047-0.031-0.078-0.084-0.078-0.144 0-0.095 0.077-0.172 0.172-0.172 0 0 0 0 0.001 0h-0c0.029 0 0.057 0.008 0.081 0.021l-0.001-0c0.022 0.012 0.041 0.028 0.056 0.046l0 0c0.046 0.029 0.077 0.080 0.077 0.138v0c0 0.001-0.001 0.002-0.001 0.003-0.001 0.041-0.017 0.079-0.044 0.107l0-0c-0.014 0.015-0.031 0.028-0.051 0.037l-0.001 0c-0.003 0.001-0.005 0.002-0.007 0.003-0.017 0.007-0.037 0.011-0.058 0.012h-0c-0.001 0-0.001 0-0.002 0-0.027-0-0.051-0.008-0.073-0.020l0.001 0c-0.008-0.003-0.014-0.007-0.020-0.010l0.001 0zM16.43 20.409l-0.412-0.537-0.411 0.537 0.411 0.488zM16.018 20.563c-0.095 0-0.171-0.077-0.171-0.171s0.077-0.171 0.171-0.171v0c0 0 0 0 0 0 0.095 0 0.173 0.077 0.173 0.173 0 0 0 0 0 0v0 0c-0.001 0.094-0.078 0.17-0.172 0.17-0 0-0.001 0-0.001 0h0z"></path>
<path fill="#a2aaad" d="M19.053 21.706l-0.533 0.713c0.003 0.085 0.003 0.164 0 0.237-0.016 0.541-0.152 0.766-0.152 0.766h-0l-0 0s-0.176-0.071-0.42-0.143l-0.002-0.001-0.002-0q-0.181-0.054-0.366-0.092l-0.146-0.722c-0.032-0.001-0.064-0.006-0.093-0.016l0.002 0.001c-0.031-0.010-0.058-0.023-0.083-0.039l0.001 0.001c-0.001-0.002-0.002-0.003-0.003-0.003l-0-0h-0l-0.366 0.669s-0.109-0.010-0.247-0.021c-0.147-0.011-0.328-0.023-0.448-0.023v-0h-0l0.207-0.642-0.031-0.080-0.353-0.91-0.244 0.628-0.14 0.362 0.207 0.642c-0.109 0-0.27 0.010-0.409 0.020-0.155 0.012-0.284 0.024-0.284 0.024l-0-0-0.001 0-0.228-0.416-0.111-0.202c-0.019 0.004-0.041 0.007-0.064 0.007-0 0-0 0-0.001 0h0c-0.034-0.001-0.066-0.006-0.096-0.017l0.002 0.001c-0.016-0.004-0.028-0.009-0.041-0.013l0.003 0.001-0.048 0.238-0.104 0.513c-0.165 0.034-0.299 0.069-0.429 0.11l0.032-0.009c-0.23 0.069-0.394 0.135-0.394 0.135-0.060-0.119-0.102-0.258-0.119-0.404l-0.001-0.006c-0.022-0.141-0.035-0.303-0.035-0.468 0-0.044 0.001-0.088 0.003-0.132l-0 0.006-1.115-1.491 0.258 1.489c0.007-0.002 0.015-0.003 0.022-0.004 0.017-0.004 0.037-0.006 0.057-0.006h0c0.106 0.001 0.201 0.047 0.268 0.119l0 0c0.068 0.074 0.109 0.172 0.109 0.281 0 0.072-0.019 0.141-0.051 0.2l0.001-0.002c-0.055 0.103-0.153 0.177-0.269 0.199l-0.002 0 0.058 0.339 0.164 0.949q0.195-0.074 0.394-0.136c0.779-0.253 1.675-0.401 2.605-0.406h0.003c0.593 0.002 1.17 0.063 1.727 0.178l-0.056-0.010c0.363 0.072 0.663 0.149 0.957 0.241l-0.063-0.017c0.196 0.061 0.347 0.115 0.438 0.15l0.072-0.418 0.15-0.87c-0.025-0.004-0.047-0.010-0.068-0.018l0.002 0.001c-0.061-0.023-0.112-0.059-0.152-0.105l-0-0c-0.064-0.072-0.104-0.167-0.104-0.272 0-0 0-0 0-0v0c-0-0.003-0-0.007-0-0.011 0-0.211 0.168-0.384 0.378-0.39l0.001-0c0.020 0 0.038 0.003 0.057 0.006l-0.002-0c0.008 0.001 0.017 0.003 0.025 0.004l0.255-1.489-0.581 0.777zM12.995 23.408l-0.13-0.131-0.026-0.026 0.149-0.064 0.009 0.221-0.001-0.001v0.001zM12.839 22.363l-0.162-0.006v-0h-0.001l0.050-0.11 0.041-0.091 0 0.001 0-0.001 0.053 0.156 0.018 0.051h-0zM13.051 22.479l-0-0v0l-0.078-0.050-0.058-0.037h0l-0-0 0.181-0.127zM13.105 22.541l0.22-0.018-0.149 0.163-0.071-0.145zM13.067 23.122l0.088-0.137v-0l0.128 0.18-0.216-0.042zM13.175 22.93l0.005-0.055 0.009-0.108 0.198 0.099-0.212 0.064zM13.816 23.719c0-0 0-0 0-0 0-0.074 0.060-0.133 0.133-0.133 0 0 0.001 0 0.001 0h-0l0.001 0c0.006 0.001 0.011 0.002 0.016 0.003l-0.001-0c0.067 0.007 0.119 0.062 0.119 0.13v0c-0.001 0.052-0.030 0.096-0.073 0.118l-0.001 0c-0.017 0.010-0.038 0.016-0.060 0.017h-0l-0.001-0h-0c-0.074-0.001-0.134-0.061-0.135-0.135v-0zM14.014 23.902c-0.011-0-0.022-0.002-0.032-0.004l0.001 0c-0.013-0.003-0.025-0.007-0.036-0.013l0.001 0h0l-0.001-0h0.004c0.091-0.002 0.164-0.075 0.165-0.166v-0c-0-0.017-0.003-0.034-0.009-0.049l0 0.001c-0.001-0.003-0.001-0.006-0.002-0.009-0.006-0.018-0.015-0.033-0.026-0.046l0 0 0 0-0-0.001c0.050 0.025 0.084 0.077 0.085 0.136v0c-0 0.083-0.067 0.151-0.15 0.151h-0zM15.1 23.49c0-0.074 0.060-0.134 0.134-0.134s0.134 0.060 0.134 0.134c0 0.073-0.059 0.133-0.132 0.134h-0.002c-0 0-0.001 0-0.001 0-0.073 0-0.133-0.059-0.133-0.132v-0.002zM15.3 23.674c-0.008-0-0.016-0.002-0.023-0.003l0.001 0c-0.010-0.002-0.019-0.004-0.028-0.008l0.001 0c-0.006-0.002-0.012-0.004-0.018-0.007h0l-0-0h0.003c0 0 0 0 0 0 0.092 0 0.166-0.074 0.166-0.166v-0.001c-0.001-0.030-0.010-0.058-0.025-0.082l0 0.001c-0.004-0.008-0.008-0.015-0.013-0.022l0 0.001 0.001 0-0-0c0.004 0.002 0.008 0.006 0.012 0.008 0.043 0.026 0.072 0.073 0.072 0.126v0c0 0 0 0.001 0 0.001 0 0.083-0.066 0.15-0.149 0.151h-0zM15.875 22.338c0-0.074 0.060-0.135 0.135-0.135s0.135 0.060 0.135 0.135v0c0 0 0 0 0 0 0 0.075-0.060 0.135-0.135 0.136h-0c-0 0-0 0-0 0-0.019 0-0.037-0.004-0.053-0.011l0.001 0c-0.049-0.021-0.082-0.069-0.082-0.125 0-0 0-0 0-0v0zM16.142 22.503c-0.003 0.002-0.005 0.004-0.009 0.006-0.017 0.008-0.038 0.012-0.059 0.012-0 0-0 0-0 0v0c-0.022-0-0.043-0.005-0.061-0.015l0.001 0c-0.001 0-0.002 0-0.003 0l-0.003-0.002c0.002 0.001 0.004 0.001 0.006 0.002 0.091-0.002 0.163-0.077 0.163-0.168 0-0.001 0-0.001 0-0.002v0c-0.001-0.034-0.012-0.066-0.031-0.091l0 0c-0.002-0.003-0.003-0.006-0.005-0.009h0l-0-0c0.051 0.024 0.085 0.074 0.085 0.133v0c-0.001 0.058-0.035 0.108-0.083 0.132l-0.001 0zM16.586 23.543c-0.007-0.016-0.011-0.034-0.011-0.053 0-0 0-0 0-0v0c0-0.074 0.060-0.133 0.134-0.133h0c0.072 0.004 0.13 0.061 0.135 0.133l0 0c0 0 0 0 0 0.001 0 0.055-0.034 0.103-0.082 0.123l-0.001 0c-0.015 0.007-0.033 0.011-0.052 0.011v0c-0 0-0.001 0-0.001 0-0.055 0-0.102-0.033-0.122-0.081l-0-0.001zM16.827 23.663c-0.016 0.007-0.035 0.011-0.054 0.011h-0c-0.008-0-0.015-0.002-0.023-0.003l0.001 0c-0.009-0.002-0.018-0.004-0.026-0.007l0.001 0c-0.007-0.002-0.014-0.005-0.020-0.008h0l-0-0h0.003c0 0 0.001 0 0.001 0 0.091 0 0.165-0.074 0.166-0.165v-0.002c-0.001-0.028-0.009-0.054-0.022-0.076l0 0.001c-0.005-0.010-0.010-0.019-0.016-0.028l0 0.001 0.001 0c0.051 0.025 0.085 0.076 0.085 0.135 0 0.064-0.040 0.118-0.096 0.14l-0.001 0zM17.861 23.719c0 0 0 0 0 0 0-0.074 0.060-0.134 0.134-0.134 0.001 0 0.001 0 0.002 0h-0l0 0c0 0 0 0 0.001 0 0.073 0 0.132 0.059 0.132 0.132v0.002c-0 0.074-0.059 0.134-0.133 0.136h-0l-0-0c-0.074-0.001-0.135-0.061-0.135-0.135v-0zM18.186 23.829c-0.026 0.044-0.072 0.072-0.125 0.073h-0c-0.014-0-0.027-0.002-0.040-0.006l0.001 0c-0.011-0.003-0.020-0.007-0.029-0.011l0.001 0h0.001l-0.001-0h0.003c0.091-0.001 0.165-0.075 0.165-0.166 0-0 0-0 0-0v0c-0.001-0.028-0.008-0.053-0.021-0.076l0 0.001c-0.005-0.011-0.010-0.020-0.016-0.029l0 0 0.001 0.001-0.001-0.001c0.025 0.013 0.046 0.032 0.060 0.055l0 0.001c0.015 0.022 0.024 0.049 0.024 0.078s-0.009 0.058-0.025 0.081l0-0zM19.049 23.187l0 0v-0l0.148 0.065-0.094 0.095-0.061 0.062v-0l-0 0 0.008-0.221zM18.65 22.865l0.199-0.099v0l0.013 0.163-0.212-0.064 0-0h-0zM18.97 23.122l-0.216 0.042 0.128-0.179zM18.923 22.562l-0.059 0.124-0.001-0.001-0 0.001-0.15-0.163 0.221 0.018zM19.041 22.443l-0.054 0.035-0.001 0-0.045-0.214 0 0-0-0 0.080 0.057 0.1 0.071-0.080 0.052zM19.36 22.357l-0.162 0.007 0.063-0.181 0.009-0.026v0h0l0.015 0.032 0.076 0.168h-0z"></path>
</svg>
