<!-- Generated by IcoMoon.io -->
<svg version="1.1" xmlns="http://www.w3.org/2000/svg" width="32" height="32" viewBox="0 0 32 32">
<title>28</title>
<path fill="#fff" d="M30.031 13.057l-0.432 0.775 0.071 0.445c-1.155 2.252-2.407 4.344-2.859 5.079-0.174-0.394-0.4-0.626-0.846-0.865 0 0 2.040-3.705 2.594-6.641-1.549 0.768-3.163 1.523-3.163 1.523l2.762-4.479s-5.318 1.168-9.526 1.588c-4.531-6.686-8.655-7.861-8.655-7.861s2.859 4.673 3.388 7.945c-3.993-0.384-7.572-0.974-11.067-1.782l0.567 0.11 5.034 8.151c-2.943 0.174-7.9 0.329-7.9 0.329 1.259 1.265 5.324 2.866 10.701 4.195l0.962 1.555c-3.162 2.382-5.073 5.667-5.073 5.667l0.323 0.587s1.568-0.097 3.492-0.168c0 0 0.523-1.691 2.678-3.782l2.433 3.93 3.046-4.931 0.329-0.039 0.187 0.11c-0.052 0.074-0.106 0.161-0.154 0.25l-0.007 0.014c0.252 0.174 0.265 0.2 0.278 0.51 0.103 0.030 0.221 0.047 0.343 0.047 0.145 0 0.285-0.024 0.415-0.069l-0.009 0.003 0.116-0.206 0.142 0.064c0.019 0.142 0.058 0.31 0.058 0.31 0.088 0.040 0.192 0.064 0.3 0.064 0.155 0 0.3-0.048 0.418-0.13l-0.002 0.002c1.033 0.213 1.736 0.097 1.968 0.039 1.020 0.277 1.685 0.090 1.956-0.032 0.471 0.194 0.962 0.323 2.311 0.323 0.626 0 1.291-0.039 1.291-0.503 0-0.658-0.626-3.053-1.259-4.376 0.253 0.176 0.548 0.315 0.864 0.402l0.020 0.005 0.581-0.42c-0.265-0.31-0.213-0.394-0.181-0.639-0.137-0.107-0.303-0.182-0.484-0.212l-0.006-0.001c0.561-0.652 1.743-2.162 3.156-4.873 0.297-0.045 0.678-0.219 0.723-0.691 0.050-0.361 0.080-0.782 0.084-1.209l0-0.004c-0.897-0.407-1.968-0.11-1.968-0.11z"></path>
<path fill="#000" d="M26.533 10.043l-2.556 4.079c-0.059 0.012 0.226-0.12 0.511-0.25l0.354-0.144 2.724-4.408s-4.627 1.013-8.848 1.439c0.097 0.155 0.194 0.316 0.297 0.471 2.898-0.303 5.918-0.865 7.519-1.187z"></path>
<path fill="#000" d="M26.939 20.821c-0.355-1.465-0.407-1.73-1.194-2.123l-0.123-0.168c1.433-2.569 2.472-5.641 2.472-6.002 0-0.090-0.039-0.116-0.097-0.090-2.285 1.155-4.789 2.188-5.344 2.575l-0.148 0.206c-0.808-0.727-1.685-1.432-2.6-2.087l-0.091-0.062c-2.549-5.008-6.46-8.532-8.984-9.79 0 0.523 2.491 4.369 2.878 7.596-4.518-0.31-10.249-1.555-10.249-1.555l4.937 7.977c-4.053 0.252-7.609 0.336-7.609 0.336 0 0.278 4.524 2.44 11.204 3.956 1.459 0.329 2.549 0.278 3.259 0.278-0.135-0.148-0.265-0.291-0.4-0.432 0.968 0.594 1.852 1.181 2.646 1.71-0.2 0-0.42 0.006-0.658 0.006-1.601 0-2.814-0.084-3.582-0.142l-0.703-1.11c-0.174-0.032-0.349-0.064-0.523-0.103-0.071-0.013-0.136-0.026-0.207-0.039-0.303-0.071-0.594-0.142-0.794-0.187l1.013 1.633c-0.949 0.678-3.369 2.73-5.124 5.596l0.155 0.284s1.697-0.103 3.124-0.148c0 0 0.646-1.833 2.943-3.95l2.369 3.834 2.878-4.653c0.187-0.019 0.374-0.039 0.568-0.064 0.2 0.123 0.387 0.245 0.574 0.348-0.103 0.059-0.187 0.142-0.244 0.242l-0.002 0.003c0.102 0.079 0.168 0.199 0.174 0.335l0 0.001c0.030 0.005 0.065 0.007 0.1 0.007 0.068 0 0.133-0.010 0.195-0.028l-0.005 0.001c0.063-0.094 0.125-0.204 0.18-0.319l0.007-0.017c0.14 0.076 0.316 0.158 0.497 0.232l0.038 0.014c-0 0.002-0 0.005-0 0.008 0 0.095 0.009 0.188 0.027 0.278l-0.002-0.009s0.181 0.058 0.407-0.135c1.271 0.29 2.033 0.039 2.033 0.039 1.297 0.387 1.956-0.045 1.956-0.045 0.503 0.226 0.929 0.348 2.317 0.348 0.755 0 1-0.090 1-0.219 0.006-0.607-0.633-3.085-1.271-4.363z"></path>
<path fill="#000" d="M30.218 13.302l-0.323 0.581 0.071 0.439c-1.459 2.866-3.078 5.46-3.078 5.46l0.2 0.49 0.232-0.168 0.168 0.013s1.549-1.485 3.53-5.318c0 0 0.574 0.019 0.619-0.445 0.045-0.471 0.077-0.794 0.077-0.987-0.716-0.258-1.497-0.064-1.497-0.064zM27.314 20.369l0.045 0.174c0.206 0.141 0.443 0.265 0.693 0.36l0.023 0.008 0.239-0.174c-0.066-0.094-0.106-0.211-0.106-0.337 0-0.036 0.003-0.071 0.009-0.105l-0.001 0.004c-0.316-0.2-0.904 0.071-0.904 0.071z"></path>
<path fill="#fff" d="M21.511 24.648c0.234-0.138 0.432-0.273 0.622-0.418l-0.015 0.011c-1.162 0.052-1.594-0.090-1.594-0.090 0.206-0.206 0.465-0.387 0.626-0.549-0.123 0.019-0.252 0.032-0.374 0.045 0 0.052-0.065 0.116-0.239 0.226-0.348 0.052-0.691 0.103-1.026 0.149 0.096 0.107 0.197 0.204 0.305 0.293l0.005 0.004q0.116-0.039 0.252-0.077c-0.005 0.085-0.021 0.164-0.047 0.238l0.002-0.006c0.134 0.092 0.287 0.176 0.448 0.245l0.017 0.006c0.017-0.129 0.060-0.244 0.125-0.345l-0.002 0.003c0.058 0.019 0.090 0.187 0.123 0.239 0.084 0.123 0.2 0.142 0.219 0.245 0.49 0.116 1.104 0.142 1.917 0.039l0.226-0.181c-1.188 0.026-1.588-0.077-1.588-0.077zM19.582 22.906c-0.516 0.168-0.742 0.052-0.742 0.052 0.072-0.086 0.129-0.187 0.166-0.297l0.002-0.006c-0.458 0.129-0.6 0-0.6 0 0.062-0.061 0.112-0.134 0.147-0.215l0.002-0.004c-0.028-0.001-0.060-0.001-0.093-0.001-0.297 0-0.585 0.036-0.862 0.103l0.025-0.005c0.437 0.054 0.818 0.259 1.096 0.56l0.001 0.001c0.296-0.016 0.572-0.048 0.841-0.096l-0.041 0.006z"></path>
<path fill="#fff" d="M8.32 27.185l-0.568 0.729s1.678-0.258 2.691-0.11l0.278-0.478c-0.549-0.284-2.401-0.142-2.401-0.142zM18.575 22.602c0.016 0.001 0.034 0.001 0.052 0.001 0.176 0 0.344-0.031 0.5-0.088l-0.010 0.003c0 0.008 0.001 0.016 0.001 0.025 0 0.13-0.044 0.249-0.118 0.344l0.001-0.001c0.275-0.015 0.533-0.056 0.782-0.122l-0.026 0.006s-0.045 0.103-0.103 0.213c0.070-0.016 0.15-0.026 0.232-0.026h0c0.161 0 0.181 0.032 0.323 0.032 0.271 0 0.303 0.058 0.342 0.374 0.053 0.066 0.108 0.125 0.167 0.18l0.001 0.001c0.2-0.019 0.426-0.039 0.658-0.071-0.184 0.239-0.397 0.443-0.636 0.613l-0.009 0.006s1.078 0.103 1.639 0.032c-0.159 0.188-0.35 0.343-0.564 0.46l-0.010 0.005s0.742 0.045 1.549 0.032c-0.1 0.106-0.203 0.206-0.311 0.299l-0.005 0.004s0.987 0.22 1.691 0.052c-2.543-1.007-3.937-2.543-6.067-2.543-0.021 0.064-0.047 0.12-0.079 0.171l0.002-0.003z"></path>
<path fill="#fff" d="M10.488 24.771l-0.8 0.794s1.471-0.2 2.446-0.071l0.381-0.426c-0.361-0.31-2.027-0.297-2.027-0.297zM9.585 25.681l-0.607 0.691s1.684-0.174 2.375 0.019l0.697-0.807c-0.704-0.116-2.465 0.097-2.465 0.097zM8.881 26.487l-0.2 0.245s2.078-0.323 2.569-0.206l0.039-0.052c-0.516-0.168-2.407 0.013-2.407 0.013zM8.584 26.855l-0.181 0.22s1.736-0.129 2.369 0.161l0.413-0.62c-0.562-0.090-2.601 0.239-2.601 0.239z"></path>
<path fill="#fff" d="M10.636 24.635l-0.039 0.032s1.439-0.019 1.988 0.323l0.084-0.084c-0.445-0.252-2.033-0.271-2.033-0.271z"></path>
<path fill="#fff" d="M12.786 24.932l0.026 0.226 0.523-0.51-0.006-0.265zM12.599 25.132l0.052 0.194 0.077-0.077-0.032-0.226zM12.147 25.629l0.026 0.206 0.394-0.426-0.045-0.194zM11.398 26.5l0.032 0.168 0.652-0.742-0.026-0.2-0.665 0.775zM11.282 26.649l0.026 0.168 0.039-0.052-0.032-0.161zM10.824 27.346l0.019 0.135 0.387-0.561-0.026-0.155zM10.514 27.869l0.019 0.148 0.232-0.407-0.026-0.135zM11.437 23.945l-0.691 0.594s1.601 0.026 1.994 0.291l0.587-0.581c-0.516-0.297-1.891-0.303-1.891-0.303z"></path>
<path fill="#ea7200" d="M30.315 13.547l-0.2 0.323c0.214-0.037 0.461-0.059 0.713-0.059 0.147 0 0.292 0.007 0.434 0.021l-0.018-0.001 0.232-0.329c-0.149-0.035-0.321-0.056-0.497-0.056-0.237 0-0.466 0.037-0.681 0.105l0.016-0.004zM30.211 14.219c-0.962 1.736-2.014 4.027-3.156 5.447l0.329-0.206 0.071-0.078-0.058 0.2 0.135-0.071-0.206 0.374 0.194-0.161s0.981-1.097 3.466-5.583c-0.555-0.084-0.775 0.077-0.775 0.077zM10.391 27.894c-0.897-0.168-2.737 0.135-2.737 0.135l-0.49 0.716 2.878-0.135zM13.412 24.177l0.239-0.135s0.994 0.161 6.925-0.452c-0.142-0.103-0.213-0.084-0.213-0.316 0-0.077 0.013-0.090-0.116-0.090s-0.181-0.039-0.336-0.039c-0.194 0-0.471 0.194-3.382 0.194-2.311 0-3.93-0.194-4.040-0.194-0.103 0-0.316 0.2-0.936 0.697 0 0 1.22-0.013 1.859 0.336zM19.969 20.453c0.103 0.833 0.303 1.188 0.303 1.188 0.264 0.193 0.567 0.358 0.89 0.481l0.027 0.009c-0.607-1.117-1.22-1.678-1.22-1.678zM20.576 25.093c0.097-0.017 0.181-0.063 0.245-0.129l0-0c-0.068-0.103-0.132-0.221-0.187-0.345l-0.006-0.016c-0.038 0.106-0.060 0.228-0.060 0.356 0 0.048 0.003 0.094 0.009 0.14l-0.001-0.005zM19.562 24.913c0.2-0.265 0.329-0.432 0.362-0.536-0.174 0.071-0.394 0.116-0.516 0.297 0.065 0.067 0.117 0.146 0.153 0.234l0.002 0.005z"></path>
<path fill="#ea7200" d="M12.553 21.899c-0.174-0.032-0.349-0.064-0.523-0.103-0.065-0.013-0.136-0.032-0.2-0.045l0.755 1.207c0.052 0.007 0.11 0.007 0.174 0.013 0.135 0.006 0.303 0.026 0.49 0.039zM23.725 14.238c0.084-0.032 0.168-0.077 0.252-0.116l2.556-4.079c-1.601 0.323-4.621 0.884-7.519 1.188 0.027 0.055 0.055 0.101 0.086 0.145l-0.002-0.003 0.194 0.329c2.239-0.252 4.537-0.639 6.215-0.955l-2.388 3.788c0.181-0.090 0.387-0.194 0.607-0.297zM17.458 24.254c-0.174 0.019-0.336 0.032-0.497 0.045-0.799 0.070-1.772 0.121-2.754 0.141l-0.047 0.001c-0.265 0.006-0.407 0.006-0.407 0.006-0.019 0.006-0.026 0.019-0.045 0.032-0.039 0.032-0.071 0.065-0.11 0.103l1.917 3.059 2.13-3.401c-0.067 0.001-0.132 0.006-0.196 0.014l0.009-0.001zM28.114 20.363c-0.2-0.11-0.594 0.045-0.594 0.045 0.244 0.060 0.45 0.129 0.65 0.211l-0.030-0.011c-0.019-0.053-0.030-0.115-0.030-0.179 0-0.023 0.001-0.046 0.004-0.069l-0 0.003zM27.255 19.698c-0.069 0.047-0.148 0.085-0.233 0.108l-0.006 0.001 0.123 0.258 0.077-0.058-0.032-0.090 0.123-0.239z"></path>
<path fill="#006d75" d="M14.593 16.058s-2.427-2.014-5.441-2.517c-0.11 0-0.329 0.458-0.329 0.458s0.323-0.29 0.419-0.29c2.575 0.497 5.35 2.349 5.35 2.349zM16.013 18.233c-0.043 0.271-0.068 0.583-0.068 0.9 0 0.524 0.067 1.032 0.193 1.516l-0.009-0.042c-0.064-0.6 0.142-2.001 0.142-2.001zM16.639 18.788c-0.047 0.272-0.073 0.586-0.073 0.906 0 0.469 0.057 0.924 0.165 1.36l-0.008-0.039c-0.058-0.458 0.174-1.794 0.174-1.794zM17.271 19.408c-0.057 0.287-0.089 0.617-0.089 0.955 0 0.35 0.035 0.691 0.101 1.021l-0.006-0.033c-0.032-0.361 0.252-1.568 0.252-1.568zM9.862 17.2s0.497 0.297 1.304 0.903c-0.2-0.348-0.723-0.723-1.297-1.065l-1.258 0.090 0.097 0.148c0.381-0.026 0.768-0.045 1.155-0.077zM25.552 18.82s-1.891-2.646-5.518-5.318c0.31 0.633 0.594 1.297 0.852 1.975 0.039 0.097 0.032 0.181-0.045 0.181-0.8 0-3.608-1.549-6.364-1.271 1.433 1.368 2.859 3.279 1.478 2.582 0 0 1.439 0.884 3.13 2.672 1.265 0 1.517 0.213 1.588 0.387 0.142 0.342 0.355 0.949 1.181 1.923 0.381 0 0.445-0.026 0.587-0.368 0 0 0.103 0.432-0.090 0.755 1.723 1.362 5.066 2.724 5.576 2.724 0.206 0-0.219-1.865-1.188-4.118-0.316-1.42-0.49-1.82-1.187-2.123zM13.76 11.669c0-0.009 0-0.019 0-0.029 0-0.178-0.009-0.355-0.028-0.528l0.002 0.022c-1.555 0.161-2.478 0.529-2.833 0.697 0.542-0.155 1.51-0.2 2.859-0.161zM25.506 10.746l-2.388 3.788c0.181-0.090 0.387-0.194 0.607-0.297l2.491-3.976c-1.575 0.31-4.395 0.82-7.119 1.11l0.194 0.329c2.239-0.245 4.537-0.639 6.215-0.955zM12.766 22.97c0.135 0.006 0.297 0.026 0.49 0.039l-0.703-1.11c-0.174-0.026-0.349-0.064-0.523-0.103zM16.961 24.3c-1.271 0.103-2.278 0.129-2.801 0.142-0.265 0.006-0.413 0.006-0.413 0.006-0.013 0.006-0.019 0.019-0.039 0.032l1.807 2.885 1.943-3.111c-0.168 0.019-0.336 0.032-0.497 0.045z"></path>
<path fill="#fff" d="M15.516 26.591l1.446-2.291c-1.271 0.103-2.278 0.129-2.801 0.142z"></path>
</svg>
