<!-- Generated by IcoMoon.io -->
<svg version="1.1" xmlns="http://www.w3.org/2000/svg" width="32" height="32" viewBox="0 0 32 32">
<title>30</title>
<path fill="#e2d6b5" d="M29.876 9.936c0.013 0 1.11-0.865 1.11-0.865-2.345-0.589-5.038-0.926-7.809-0.926-0.633 0-1.263 0.018-1.887 0.052l0.087-0.004s-0.742-2.491-4.26-2.517c-2.614-0.013-4.118 1.613-4.589 2.885-4.937 1.071-8.707 3.563-8.707 3.563l0.904 0.691c-2.33 1.22-4.724 3.169-4.724 3.169s0.219 1.175 1.633 3.059c0 0 0.949 0.736 3.453 1.697 0.281-0.067 0.523-0.147 0.754-0.244l-0.032 0.012c0.283 0.102 0.636 0.2 0.997 0.274l0.055 0.009c-0.019 0.316-0.116 0.768 0.465 1.304l-0.426 0.226s0.516 1.304 3.401 2.007c1.11-0.258 6.131-1.175 7.842 1.994l8.797-8.526-1.865-0.013 6.925-7.261c-0.568-0.206-1.279-0.409-2.007-0.566l-0.116-0.021z"></path>
<path fill="#024930" d="M30.321 10.872c-0.66-0.249-1.487-0.496-2.334-0.69l-0.138-0.027 0.884-0.671c-4.763-0.994-8.035-0.71-8.035-0.71s-0.639-2.491-3.814-2.511c-3.072-0.019-4.014 2.717-4.014 2.717-4.214 0.8-8.19 3.188-8.19 3.188l0.962 0.736c-2.491 1.207-5.079 3.266-5.079 3.266 0.355 1.136 1.413 2.524 1.413 2.524 0.981 0.691 3.143 1.549 3.143 1.549 0.249-0.067 0.465-0.156 0.668-0.266l-0.016 0.008c0.658 0.26 1.42 0.421 2.217 0.445l0.010 0c0.419 0.006 0.884-0.045 0.891-0.207 0-0.284-0.859-0.374-0.859-0.691 0-0.239 0.523-0.555 2.491-0.542 1.175 0.006 2.511 0.097 2.511 0.097-0.968-0.006-2.879 0.232-2.879 0.678-0.007 0.355 1.291 0.381 1.291 0.852-0.006 0.684-1.020 0.91-2.201 0.904-1.058-0.006-1.562-0.31-1.801-0.316-0.090 0-0.148 0.045-0.148 0.11 0 0.245 0.465 0.742 0.845 0.884l-0.516 0.291c0.568 0.762 2.691 1.342 2.691 1.342 6.086-1.284 7.938 1.762 7.938 1.762l7.17-7.325-1.672-0.013z"></path>
<path fill="#af1e24" d="M13.87 10.259c-0-0.006-0-0.012-0-0.019 0-0.121 0.009-0.239 0.028-0.355l-0.002 0.013c-2.749 0.4-5.318 1.168-7.409 2.285 2.146-0.707 4.659-1.244 7.253-1.51l0.156-0.013c-0.017-0.113-0.026-0.243-0.026-0.375 0-0.009 0-0.018 0-0.027l-0 0.001zM19.705 9.601c0.049 0.197 0.078 0.423 0.078 0.656 0 0.017-0 0.034-0 0.050l0-0.003c0 0.005 0 0.012 0 0.018 0 0.117-0.009 0.231-0.028 0.342l0.002-0.012c1.414 0.158 2.7 0.444 3.93 0.852l-0.135-0.039c-1.388 0.039-2.807 0.161-4.182 0.323-0.521 0.871-1.459 1.446-2.532 1.446-0.011 0-0.021-0-0.032-0l0.002 0c-0.001 0-0.002 0-0.003 0-0.743 0-1.422-0.279-1.935-0.738l0.003 0.002c-2.859 0.555-4.866 1.11-4.866 1.11 1.413 0.077 2.207 0.407 2.207 0.407-3.653 0.716-7.061 2.097-8.171 2.575 0.265 0.419 0.6 0.91 0.6 0.91l-0.549 0.671c0.974 0.187 2.181 0.090 2.181 0.090l1.82-1.097 1.42 0.439 0.432-0.587h-0.465l0.949-1.504 0.774 1.517h-0.355l0.239 0.516 0.981-0.168 0.419-0.529h-0.374l0.568-0.858h-0.42l0.891-1.491 0.749 1.549h-0.336l0.497 0.904-0.4-0.006 0.813 1.497 0.826-1.142h-0.562l0.852-1.265-0.542-0.006 1.233-2.078 1.039 2.123h-0.439l0.716 1.246-0.51-0.006 0.684 1.555 1.2-1.93-0.652-0.006 0.975-1.562-0.594-0.007 1.31-2.62 1.336 2.762h-0.478l0.871 1.452-0.6-0.006 0.658 1.439 1.104-1.659-0.587-0.006 1.284-1.82h-0.684l2.052-2.795 1.058 1.936 2.298-2.788c-2.62-0.994-5.609-1.542-8.623-1.659z"></path>
<path fill="#edaa00" d="M16.846 7.323c-0.005-0-0.010-0-0.015-0-1.499 0-2.737 1.114-2.932 2.56l-0.002 0.015s1.491-0.658 5.525-1.033c-0.511-0.918-1.47-1.531-2.574-1.542l-0.002-0zM16.807 13.234c0.010 0 0.022 0 0.035 0 1.071 0 2.009-0.575 2.52-1.432l0.007-0.013c-1.897 0.236-3.427 0.486-4.939 0.783l0.447-0.073c0.511 0.456 1.187 0.734 1.929 0.736h0zM19.705 9.601c-0.38-0.016-0.825-0.025-1.273-0.025-1.6 0-3.173 0.117-4.71 0.343l0.174-0.021c-0.014 0.106-0.024 0.232-0.026 0.359l-0 0.003c0 0.136 0.013 0.271 0.026 0.4 0.888-0.099 1.918-0.156 2.961-0.156 1.021 0 2.029 0.054 3.022 0.16l-0.123-0.011c0.017-0.099 0.026-0.213 0.026-0.33 0-0.007-0-0.013-0-0.020v0.001c0-0.003 0-0.007 0-0.011 0-0.246-0.028-0.484-0.082-0.714l0.004 0.021z"></path>
<path fill="#fff" d="M17.162 11.35c-2.652 0.099-5.168 0.472-7.585 1.093l0.246-0.054c-0.026-0.174-0.052-0.342-0.077-0.51-0.123 0.2-0.232 0.394-0.355 0.587 0 0-1.749 0.632-2.904 1.226 1.478-0.497 2.678-0.8 2.678-0.8-0.123 0.252-0.239 0.497-0.361 0.755 0.189-0.173 0.404-0.363 0.621-0.549l0.038-0.031 0.465 0.252c-0.019-0.187-0.039-0.368-0.058-0.562 0 0 3.898-1.058 7.293-1.407z"></path>
</svg>
