<!-- Generated by IcoMoon.io -->
<svg version="1.1" xmlns="http://www.w3.org/2000/svg" width="32" height="32" viewBox="0 0 32 32">
<title>4</title>
<path fill="#000" d="M21.809 4.783h-21.809v1.026c-0 0.008-0 0.016-0 0.025 0 1.615 0.643 3.079 1.686 4.152l-0.001-0.001h-1.685v1.033c-0 0.006-0 0.013-0 0.020 0 1.614 0.643 3.078 1.686 4.15l-0.001-0.001h-1.685v1.026c-0 0.008-0 0.016-0 0.025 0 1.615 0.643 3.079 1.686 4.152l-0.001-0.001h-1.685v1.033c0 3.195 2.44 5.796 5.447 5.796h5.060l3.434-5.802c1.881 2.285 4.71 3.73 7.877 3.73 5.623 0 10.181-4.558 10.181-10.181s-4.558-10.181-10.181-10.181c-0.003 0-0.007 0-0.010 0h0.001z"></path>
<path fill="#fff" d="M21.809 5.125h-21.479v0.671c-0 0.014-0 0.030-0 0.047 0 1.834 0.888 3.46 2.257 4.473l0.015 0.011h-2.272v0.684c-0 0.011-0 0.025-0 0.038 0 1.837 0.887 3.466 2.257 4.482l0.015 0.011h-2.272v0.671c-0 0.014-0 0.030-0 0.047 0 1.834 0.888 3.46 2.257 4.473l0.015 0.011h-2.272v0.684c0 3.001 2.291 5.447 5.112 5.447h4.86l3.588-6.060c1.813 2.441 4.688 4.005 7.927 4.005 5.439 0 9.848-4.409 9.848-9.848s-4.409-9.848-9.848-9.848c-0.003 0-0.006 0-0.008 0h0z"></path>
<path fill="#000" d="M21.809 5.796h-20.602c0 2.64 1.988 4.776 4.428 4.776h7.764c0.121 0.001 0.218 0.099 0.219 0.219v0c-0.004 0.12-0.1 0.216-0.219 0.219h-12.192c0 2.633 1.988 4.77 4.428 4.77h4.679c0.001-0 0.002-0 0.003-0 0.119 0 0.216 0.097 0.216 0.216 0 0.118-0.095 0.214-0.213 0.216h-9.113c0 2.64 1.988 4.77 4.428 4.77h1.601c0.123 0 0.223 0.1 0.223 0.223s-0.1 0.223-0.223 0.223h-6.028c0 2.633 1.988 4.77 4.428 4.77h4.279l7.997-13.521c0.802-1.344 2.249-2.23 3.902-2.23 2.501 0 4.529 2.028 4.529 4.529s-2.028 4.529-4.529 4.529c-2.468 0-4.475-1.974-4.528-4.429l-0-0.005-3.027 5.118c1.678 2.407 4.433 3.962 7.552 3.962 5.069 0 9.177-4.109 9.177-9.177s-4.109-9.177-9.177-9.177c-0 0-0 0-0 0h0z"></path>
<path fill="#f74902" d="M24.416 14.974c-0.002 1.437-1.167 2.601-2.604 2.601-1.438 0-2.604-1.166-2.604-2.604 0-1.437 1.164-2.602 2.601-2.604h0c0.001 0 0.002 0 0.003 0 1.438 0 2.604 1.166 2.604 2.604 0 0.001 0 0.002 0 0.003v-0z"></path>
</svg>
