<!-- Generated by IcoMoon.io -->
<svg version="1.1" xmlns="http://www.w3.org/2000/svg" width="32" height="32" viewBox="0 0 32 32">
<title>5</title>
<path fill="#fff" d="M29.805 5.309h-2.059c-0.099-0.267-0.246-0.495-0.433-0.684l0 0c-0.6-0.6-1.407-0.697-1.878-0.226-0.095 0.096-0.169 0.213-0.217 0.342l-0.002 0.007c-0.149-0.108-0.319-0.202-0.501-0.272l-0.015-0.005c-0.29-0.607-0.697-1.465-1.62-1.465-0.312 0.003-0.605 0.082-0.862 0.218l0.010-0.005c-0.684-0.536-2.149-1.542-3.646-1.542-1.646 0-3.931 1.51-4.595 1.51-0.49 0-1.581-2.414-3.279-2.414-0.91 0-1.833 0.62-2.937 1.284-1.045 0.632-1.323 1.388-1.627 2.194-0.256 0.403-0.548 0.75-0.88 1.055l-0.004 0.003h-5.26l8.965 15.593h-6.138l-1.956 3.518h9.003c0.355-0.013 0.684-0.109 0.973-0.27l-0.011 0.006 4.066 7.073 3.956-6.886h3.298v-1.93h-0.226c0-0.671-0.51-1.4-0.762-1.723l-0.045-0.278 0.755-1.317 4.408-1.627c0.595-0.257 1.038-0.768 1.197-1.393l0.003-0.014c0.379-0.042 0.707-0.233 0.927-0.513l0.002-0.003c0.3 0.089 0.647 0.147 1.005 0.161l0.008 0c0.665 0 1.368-0.374 1.549-1.091 0 0 0.704-0.433 1.020-1.769l-5.486-1.813z"></path>
<path fill="#000" d="M25.533 12.060l0.691 0.232-0.007 0.439c-0.368-0.013-0.665-0.084-0.665 0.994 0 0.8 0.155 1.058 0.155 1.284 0 0.381-0.032 0.471-1.239 0.471-0.234-0.215-0.517-0.381-0.83-0.48l-0.016-0.004s-0.013-0.058-0.039-0.168l5.099-8.868h-1.549c0.116-0.219 0.007-0.587-0.278-0.871-0.329-0.329-0.755-0.433-0.955-0.232-0.065 0.072-0.105 0.167-0.105 0.272 0 0.039 0.005 0.076 0.016 0.112l-0.001-0.003-0.633 0.665c0.013-0.097 0.045-0.626-0.949-0.91-0.297-0.594-0.549-1.336-1.149-1.336-0.349 0.026-0.663 0.161-0.913 0.37l0.003-0.002s-1.82-1.698-3.589-1.698c-1.542 0-3.659 1.51-4.595 1.51-0.994 0-1.878-2.414-3.272-2.414-0.755 0-1.646 0.607-2.601 1.194-0.955 0.574-1.136 1.291-1.368 1.872-0.155 0.387-0.645 0.904-1.213 1.465h-4.408l8.958 15.574c-0.056 0.011-0.124 0.020-0.194 0.025l-0.006 0h-6.673l-1.233 2.214h7.906c0.398-0.022 0.754-0.188 1.020-0.446l-0 0 0.129-0.135 3.873 6.738 3.582-6.228h3.021v-0.633h-0.723l-0.129-0.4h0.11l0.523-0.245c0-0.6-0.729-1.452-0.729-1.452l-0.116-0.678 0.994-1.723 4.628-1.71c0.82-0.297 0.91-1.497 0.91-1.497s0.755 0.355 1.168-0.561c0.375 0.126 0.814 0.22 1.267 0.263l0.024 0.002c0.394 0 0.949-0.213 0.949-0.8 0.361-0.237 0.639-0.575 0.795-0.973l0.005-0.014-5.447-1.807z"></path>
<path fill="#fcb514" d="M11.966 18.423c-0.284-0.691-0.161-0.845-0.161-0.845s-0.917-0.755-0.645-1.691c0 0-2.362-3.427-2.362-5.46 0-1.052 0.503-0.949 0.503-1.814 0-0.704-0.478-1.233-0.826-1.233-0.4 0-1.639 0.82-3.447 1.891l0.684-1.575-1.652 1.691s-0.323-1.652 0.568-2.543c0.142-0.142 0.291-0.291 0.439-0.433h-3.156l8.61 14.973c0.155-0.069 0.288-0.16 0.4-0.271l-0 0 1.362-1.368c-0.177-0.388-0.291-0.839-0.316-1.314l-0-0.009zM25.998 6.413l-0.122 0.142c0.21 0.232 0.338 0.541 0.338 0.88 0 0.116-0.015 0.229-0.043 0.336l0.002-0.009c0 0.465-0.245 0.458-0.245 0.458 0 1.078-0.568 0.884-0.568 0.884 0 1.42-1.562 0.845-1.562 0.845-0.237-0.029-0.453-0.095-0.651-0.192l0.012 0.005-1.058 1.181c0.484 0.918 0.931 1.998 1.279 3.121l0.037 0.138 4.479-7.79zM18.362 22.987l0.187-0.323h-0.303zM22.332 7.936l-0.162-0.362c-0.832 0.142-1.581-0.284-1.794-0.394s0.020-0.574 0.020-0.574c-0.050-0.077-0.112-0.142-0.185-0.192l-0.002-0.001h-0.871c-0.091 0.064-0.15 0.169-0.15 0.288 0 0.085 0.030 0.162 0.080 0.223l-0-0.001c0.84 0.878 1.587 1.857 2.218 2.914l0.041 0.075 0.968-1.013zM20.028 20.095l0.691-1.201-0.768 0.374zM18.621 17.862c0-0.097-1.42-0.471-1.975-0.684-0.51 0.2 0.148 0.297 0.148 0.961-0.017 0.311-0.084 0.601-0.194 0.87l0.006-0.018-0.284 0.077s-0.568 1.046-0.929 0.891c-0.516 0.91-0.729 1.116-1.549 1.116-0.003 0-0.007 0-0.011 0-0.257 0-0.496-0.075-0.698-0.203l0.005 0.003-1.794 1.956 3.556 6.177 3.053-5.312h-2.195c0.016-0.389 0.147-0.745 0.359-1.038l-0.004 0.006c0-0.904 0.561-1.091 0.974-1.129 0.871-0.078 1.233-0.007 1.233-0.433 0-0.303-0.026-0.665-0.026-0.665h0.323c0-1.175-0.329-1.465-0.329-2.065 0-0.232 0.329-0.329 0.329-0.51z"></path>
<path fill="#fcb514" d="M17.046 23.064h0.297l0.129-0.4h-0.652l0.226 0.4z"></path>
<path fill="#fff" d="M27.153 12.596l-0.219 0.329 1.562 0.523-0.007-0.407zM29.483 13.37l-0.239 0.323 0.607 0.2-0.084-0.426zM19.079 22.664l-0.232 0.4h0.949l0.116-0.4zM29.786 14.422c0.026 0.11-0.11 0.239-0.303 0.284-0.2 0.045-0.374-0.007-0.4-0.116-0.026-0.103 0.11-0.232 0.303-0.278s0.375 0 0.4 0.11zM17.059 21.831c0.064 0.090-0.007 0.258-0.162 0.381-0.161 0.122-0.342 0.155-0.413 0.064-0.071-0.084 0-0.258 0.161-0.381 0.155-0.123 0.342-0.155 0.413-0.065z"></path>
<path fill="#fff" d="M23.668 4.586l-0.291-0.619c-0.026-0.058-0.226-0.051-0.226 0.071-0.007 0.084 0.206 0.549 0.516 0.549zM23.655 5.244l-0.917-1.246c-0.004-0-0.010-0-0.015-0-0.125 0-0.23 0.084-0.262 0.199l-0 0.002 0.994 1.058c0.129 0.136 0.2-0.013 0.2-0.013zM23.364 5.709l-1.091-1.246c-0.142-0.161-0.394 0.148-0.394 0.148l1.226 1.207c0.116 0.11 0.316-0.052 0.258-0.11zM22.977 6.058c0-0.271-1.168-1.168-1.349-1.168-0.187 0-0.271 0.226-0.271 0.226l1.491 1.058c0.045 0.033 0.129-0.084 0.129-0.116zM22.577 6.677c0.084 0.045 0.219-0.219 0.135-0.278-0.461-0.328-0.985-0.638-1.536-0.902l-0.064-0.028c-0.064 0.077-0.103 0.178-0.103 0.287 0 0.026 0.002 0.052 0.006 0.077l-0-0.003zM22.325 7.155c0.058 0.026 0.219-0.148 0.11-0.226-0.416-0.252-0.907-0.505-1.417-0.724l-0.080-0.031c-0.181 0.181-0.078 0.291-0.078 0.291zM21.983 7.329c-0.373-0.202-0.813-0.392-1.27-0.544l-0.060-0.017-0.039 0.122s0.323 0.491 1.368 0.439zM25.442 6.626l0.594 1.046c-0.035-0.437-0.205-0.828-0.467-1.139l0.003 0.003s-0.129-0.019-0.129 0.091zM25.952 8.026c0-0.413-0.658-1.136-0.658-1.136l-0.155 0.316 0.633 0.955s0.181 0.090 0.181-0.135zM24.797 7.807s0.291 0.845 0.607 0.845c0.007-0.045 0.010-0.098 0.010-0.151 0-0.352-0.165-0.665-0.421-0.867l-0.002-0.002c-0.099 0.003-0.18 0.078-0.193 0.173l-0 0.001zM24.339 8.2s0.181 1.142 0.691 1.142c0.051-0.174-0.155-1.142-0.691-1.142zM24.526 9.937c0.174-0.736-0.581-1.497-0.581-1.497-0.529-0.039-0.542 0.148-0.542 0.148s0.374 1.349 1.123 1.349zM22.68 8.723c0.092-0.058 0.204-0.092 0.325-0.092 0.018 0 0.035 0.001 0.052 0.002l-0.002-0c-0.148-0.465-0.413-0.355-0.413-0.355-0.103 0.155 0.039 0.445 0.039 0.445zM25.41 6.277c0.389-0.030 0.716-0.27 0.869-0.607l0.003-0.006c0-0.103-0.103-0.174-0.297-0.174-0.187 0-0.697 0.542-0.697 0.697 0 0.032 0.026 0.090 0.122 0.090zM23.616 7.897c0.026 0.094 0.111 0.162 0.212 0.162 0.007 0 0.014-0 0.021-0.001l-0.001 0c0.387 0 1.175-0.832 1.175-1.517 0-0.136-0.207-0.142-0.207-0.142-0.716 0.465-1.2 1.497-1.2 1.497zM24.674 6.148c0.465-0.232-0.019-0.833-0.348-0.645-0.781 0.496-1.334 1.29-1.501 2.219l-0.003 0.020c0.079 0.096 0.198 0.157 0.332 0.157 0.040 0 0.080-0.006 0.117-0.016l-0.003 0.001s0.729-1.407 1.407-1.736zM14.909 15.777c-0.024 0.099-0.037 0.213-0.037 0.33 0 0.239 0.057 0.466 0.157 0.666l-0.004-0.009c0.084-0.045 0.142-0.019 0.142-0.561s-0.258-0.426-0.258-0.426zM14.167 15.397c-0.007 0.094-0.010 0.204-0.010 0.314 0 0.297 0.027 0.588 0.079 0.87l-0.005-0.029s0.271 0.11 0.362-0.026c-0.020-0.148-0.020-0.478-0.020-0.678 0-0.497-0.407-0.452-0.407-0.452zM13.651 15.222c-0.148 0.323-0.045 0.794-0.045 1.123 0 0.342 0.226 0.329 0.336 0.271-0.129-0.258 0.219-1.149-0.291-1.394zM13.264 16.074c0-1.168-0.4-0.968-0.4-0.549 0 0.471 0.265 0.684 0.4 0.549zM12.747 16.455c0-0.097-0.142-0.091-0.142-0.82 0-0.581-0.652-0.361-0.652-0.051 0 0.303 0.529 0.684 0.529 0.91 0 0 0.265 0.103 0.265-0.039zM11.553 15.816c-0.497 0.691 0.316 1.407 0.316 1.407 0.017 0.002 0.036 0.002 0.056 0.002 0.156 0 0.298-0.055 0.41-0.145l-0.001 0.001s-0.252-0.942-0.781-1.265zM14.645 18.546c0.078 1.762-0.207 1.73-0.207 2.001 0 0.439 0.749-0.122 0.749-1.233 0-1.31-0.542-0.768-0.542-0.768zM12.973 17.901c0.419 1.717 0.936 2.724 1.149 2.782 0 0 0.148-0.252 0.148-1.736 0 0-0.368-1.562-1.297-1.046zM12.309 18.546c0.142 1.601 1.104 2.285 1.104 2.285l0.187-0.103c-0.366-0.729-0.71-1.596-0.982-2.494l-0.031-0.12zM16.284 17.965l-0.039 0.374 0.252 0.039 0.071-0.213c-0.071-0.038-0.135-0.239-0.284-0.2zM15.8 17.804c-0.284 0-0.181 0.626-0.181 0.833 0.001 0.009 0.001 0.019 0.001 0.029 0 0.104-0.029 0.201-0.080 0.283l0.001-0.002c0.058 0.11 0.051 0.4 0.239 0.4 0.11 0 0.265-0.161 0.265-0.568 0-0.613 0.013-0.975-0.245-0.975zM15.206 17.475c-0.168 0-0.258 0.2-0.258 0.536 0 0.11 0.135 0.194 0.219 0.194 0.051 0 0.181-0.122 0.181-0.503 0-0.116-0.045-0.226-0.142-0.226zM14.8 17.378c0-0.278-0.245-0.329-0.51-0.329-0.012-0.001-0.027-0.002-0.041-0.002-0.18 0-0.33 0.127-0.365 0.297l-0 0.002c0.017 0.272 0.186 0.501 0.421 0.605l0.005 0.002c0.26-0.079 0.453-0.3 0.49-0.571l0-0.004zM13.528 17.398s0.11-0.407-0.207-0.407c-0.645 0-1.265 0.535-1.265 0.813 0.002 0.096 0.023 0.187 0.060 0.269l-0.002-0.004s0.846-0.807 1.413-0.671zM22.783 8.975l-7.416 7.797c-0.271 0.278 0.439 0.774 0.691 0.484l7.099-7.919c0.059-0.048 0.096-0.121 0.096-0.202 0-0.145-0.117-0.262-0.262-0.262-0.085 0-0.16 0.040-0.208 0.102l-0 0.001zM8.236 4.186c0-0.284 0.4-0.574 0.452-0.71-0.097-0.132-0.251-0.217-0.426-0.217-0.075 0-0.146 0.016-0.21 0.044l0.003-0.001c-0.052 0.8-0.258 1.181-0.349 1.672 0.297 0.252 0.2-0.374 0.633-0.374 0.193 0.028 0.341 0.185 0.355 0.38l0 0.001c0 0.006 0 0.013 0 0.021 0 0.134-0.052 0.256-0.136 0.347l0-0 0.303-0.026c0.081-0.097 0.13-0.223 0.13-0.36 0-0.009-0-0.019-0.001-0.028l0 0.001c0.007-0.581-0.762-0.594-0.762-0.749zM4.622 7.213c-0.316 0.361-0.362 1.407-0.362 1.407l2.627-2.253-1.052 1.93s1.775-0.807 1.936-1.207c-0.304-0.657-0.698-1.218-1.175-1.698l0 0s-1.646 1.459-1.975 1.82zM17.104 16.526c1.549 0.665 2.988 1.020 3.737 1.020 0.697 0 1.646-0.194 1.646-1.698 0-0.987-0.536-2.381-1.394-3.782zM15.82 15.913l4.608-4.847c-1.685-2.336-4.143-4.447-6.364-4.447-1.975 0-3.311 1.458-3.311 3.001 0 2.775 2.491 4.931 5.066 6.293zM26.424 12.763l0.297 0.097 0.349-0.516 1.627 0.542 0.019 0.633 0.323 0.103 0.361-0.503 0.549 0.181 0.135 0.671 0.226 0.077c0.244-0.172 0.443-0.389 0.589-0.642l0.005-0.010-5.041-1.665-0.065 0.194 0.639 0.213-0.007 0.626zM20.131 22.664l-0.174 0.613h-1.71l-0.226-0.613h-0.323l-0.2 0.613h-0.574l-0.348-0.613h-0.187c-0.192 0.226-0.332 0.503-0.398 0.807l-0.002 0.012h5.305v-0.206h-0.671l-0.194-0.613zM2.447 23.497h1.071l0.929-1.665h-1.078zM11.121 21.315c-0.329 0.298-0.759 0.489-1.234 0.516l-0.005 0h-0.039l-0.755 1.665h0.788c0.32-0.020 0.606-0.154 0.82-0.362l-0 0 2.201-2.394-0.503-0.71z"></path>
</svg>
