<!-- Generated by IcoMoon.io -->
<svg version="1.1" xmlns="http://www.w3.org/2000/svg" width="32" height="32" viewBox="0 0 32 32">
<title>52</title>
<path fill="#8e9090" d="M31.999 16c0 8.836-7.163 15.999-15.999 15.999s-15.999-7.163-15.999-15.999c0-8.836 7.163-15.999 15.999-15.999 0 0 0 0 0 0h-0c8.836 0.001 15.999 7.163 15.999 15.999v0z"></path>
<path fill="#041e41" d="M30.921 16c-0.002 8.241-6.683 14.921-14.925 14.921-8.243 0-14.925-6.682-14.925-14.925s6.682-14.925 14.925-14.925c0.001 0 0.002 0 0.003 0h-0c0 0 0.001 0 0.001 0 8.24 0 14.92 6.68 14.92 14.92 0 0.003 0 0.005 0 0.008v-0z"></path>
<path fill="#fff" d="M17.446 5.086l-1.446-3.633-1.53 3.633c-5.417 0.759-9.541 5.361-9.545 10.926v0c0 6.092 4.982 11.030 11.075 11.030 6.072-0.025 10.985-4.953 10.985-11.029 0-5.566-4.123-10.168-9.481-10.921l-0.058-0.007z"></path>
<path fill="#7b303e" d="M15.077 22.008l0.116 0.258zM12.231 22.189v1.665l2.627-1.297 0.2-0.497 0.942 4.556 0.949-4.595 0.213 0.536 2.633 1.297v-1.665l-0.981-1.407 0.019 0.019 1.542-0.252-0.703-0.878 1.2-1.046 1.22-0.084 0.658 0.329v-1.891l1.801-1.568-1.762-0.013 1.194-3.311-3.272 1.239-0.058-1.762-2.239 2.233c0.058-0.349 0.852-5.008 0.852-5.008l-2.123 1.388zM17.142 10.178l-1.142 0.51-1.123-0.523-2.097-1.375s0.845 5.002 0.845 5.008l-2.233-2.233-0.065 1.762-3.272-1.239 1.194 3.311-1.762 0.013 1.788 1.555v1.904l0.658-0.329 1.239 0.078 1.2 1.045-0.71 0.878 1.181 0.194z"></path>
<path fill="#ac162c" d="M23.732 12.353l-3.124 1.181-0.916 1.581 0.626 0.297zM19.046 9.107l-1.872 1.233 0.206 0.968zM7.881 15.554l1.388 1.213v-1.22zM15.322 22.563l0.678 3.434v-1.885zM13.625 14.005l-0.006-0.006-2.091-2.084-0.065 1.62-3.13-1.181 3.059 3.208 2.569-1.226zM14.845 10.32l-1.859-1.22v0.019l1.484 3.621 0.097-1.142zM14.135 18.82l-2.724-0.181 1.155 1.007c-0.019 0.045-0.626 0.794-0.626 0.794l1.342 0.219 0.852-1.22z"></path>
<path fill="#55565a" d="M22.738 13.909l-0.891 2.233-4.169-1.988-0.226-2.556-1.452-6.641-1.426 6.641-0.226 2.556-4.169 1.988-0.917-2.201 0.006 1.084v3.847l0.665-0.329 4.201 0.278v0.626l-1.904 2.743v1.665l2.633-1.297 0.213-0.549 0.923 2.104 0.949-2.104 0.213 0.549 2.633 1.297v-1.665l-1.904-2.743v-0.626l4.201-0.278 0.665 0.329v-3.846l-0.019-1.117z"></path>
<path fill="#8e9090" d="M14.858 11.637l-0.239 2.704-0.129 1.53-0.271-1.336-4.188 2.001-0.471-1.129v3.001l0.316-0.161 4.55 0.303v0.988l-1.91 2.743v1.11l2.117-1.039 0.329-0.826-0.181-0.916 0.31 0.716 0.91 2.072v-17.271l-1.142 5.512z"></path>
</svg>
