<!-- Generated by IcoMoon.io -->
<svg version="1.1" xmlns="http://www.w3.org/2000/svg" width="32" height="32" viewBox="0 0 32 32">
<title>53</title>
<path fill="#ede1c6" d="M29.736 30.287l-0.002-1.507-3.464-1.847-0.594-1.639-2.195-2.771 0.601-0.528 0.457 0.268 1.281-1.151 0.405 3.645 1.462-3.578 2.398 4.208-0.654-5.949-2.789-3.074-1.375 1.115-0.1-0.084-0.145-2.387-6.417-2.76-0.631-0.52 2.73 0.259-2.987-2.223 0.158-0.157-0.338-5.553-3.257 3.866-0.281-0.002 0.132-2.983-2.797-4.934 0.416 4.567-0.376 0.65-3.626-2.039 2.714 3.551-1.238 2.082-0.703 5.95-3.119 2.099 2.079 3.479-5.164 3.712 2.245 3.204-2.522 1.508-0.002 1.545-0.589 1.637 11.13 0.007 3.116-2.67 1.058 0.101 1.88-1.552-0.182-0.914 0.859-0.763 2.682 2.917 0.005 1.729 0.472 1.19 8.079 0.008zM12.824 28.48l-2.595-0.007-1.573-2.967 1.663-1.008 3.095 1.965-0.379 0.687 0.501 0.713zM18.822 18.79l-0.771-1.355 1.201 0.231zM19.933 17.781l1.689 0.27-1.593 0.7zM21.23 21.352l-0.995-0.295 1.817-2.55 0.167 2.023z"></path>
<path fill="#791026" d="M13.296 7.733l0.121-2.639-1.082-1.9 0.137 1.438 0.824 3.101zM12.848 20.371l4.79 0 0.003-3.895 0.003-3.958-1.961-0.143 1.159 1.64-2.684-0.619-3.275 3.6-2.175-1.056 0.050-0.482-2.402 1.616 0.386 0.626 5.344 0.491zM12.791 16.476c0.369-0.631 1.043-1.049 1.815-1.050h0c0.062 0 0.123 0.003 0.184 0.008 0.015-0 0.029-0.001 0.044-0.001v0.005c1.059 0.117 1.875 1.007 1.875 2.087 0 1.159-0.94 2.099-2.099 2.099s-2.099-0.94-2.099-2.099c0-0.387 0.105-0.749 0.287-1.060l-0.005 0.010zM21.022 17.574l0.9 0.154 2.214-2.331-2.060-0.886-1.053 3.063zM18.883 17.205l0.759-3.741-1.597-0.687-0.001 4.28 0.839 0.148zM10.487 23.995l2.668-1.542-0.701-2.007-4.079 0.005-1.395-2.342-0.003-0 3.51 5.887zM15.796 23.278l1.838-0.004 0.001-0.348h-1.836l-0.003 0.352zM15.796 23.974l1.838-0.004 0.001-0.347-1.836-0-0.003 0.352zM26.407 19.547l0.11 1.13 0.567 0.092 0.285-0.697 0.016-1.133 0.618 1.321 0.304 0.568 0.567-0.219-0.107-0.897-1.152-1.199-1.208 1.034zM13.879 11.596c0 0 0 0 0 0 0.257 0 0.464-0.208 0.464-0.464s-0.208-0.464-0.464-0.464c-0.257 0-0.464 0.208-0.464 0.464 0 0 0 0 0 0v0c0 0.256 0.208 0.464 0.464 0.464h0zM11.276 28.85l0.001-0.003-1.533 0.002-0.792 2.396 1.55 0.002 0.775-2.398z"></path>
<path fill="#035130" d="M24.968 25.558l-2.239-2.825-3.103 2.719 1.017 1.109 4.326-1.003zM18.007 20.798l-0.003 3.266 2.896-2.421-2.893-0.844zM8.241 25.302l1.896-1.162-2.017-3.39-4.837 3.479 0.959 1.357 3.999-0.284zM28.304 20.829l0.747 1.356-0.175-1.573-0.572 0.217zM26.514 20.676l0.125 1.17 0.447-1.075-0.573-0.094zM13.082 4.505l-0.747-1.312 0.137 1.44 0.61-0.128zM11.267 6.018l-1.074-0.682 0.864 1.035 0.21-0.353z"></path>
<path fill="#b95b27" d="M29.025 30.356v-1.151l-3.336-1.774-0.547-1.521-4.231 0.962 1.774 1.921v1.565l6.34-0.002zM22.328 17.838l0.253 2.537 1.864 1.021 1.582-1.413-0.096-0.988-1.437-1.246-0.149-2.015-2.017 2.105zM19.818 20.934l1.802-2.482-1.892 0.817-0.172-1.31-0.703 1.631-0.837-1.471 0.005 2.282 1.797 0.533zM14.476 26.997l1.765-1.47-2.989-2.691-2.535 1.467 3.189 2.031-0.441 0.774 1.32 2.020 0.457-0.407-0.766-1.723z"></path>
<path fill="#b95b27" d="M17.041 26.259l-1.813 1.452 0.37 0.851 0.911 0.095 1.348-1.108-0.177-0.807-0.638-0.483zM9.793 28.477l-1.479-2.806-3.826 0.277 1.093 1.525-2.816 1.679 0.001 1.222 3.353-0.003 0.643-1.902 3.031 0.007zM12.4 9.701l0.249 0.87-2.031 4.677 0.21 1.229 3.194-3.503 1.938 0.441-1.045-1.479 2.408 0.184-1.604-1.321 2.52 0.243-1.602-1.198 0.509-0.518-0.205-3.453-2.332 2.768-1.064-0.037zM13.88 10.274c0 0 0 0 0 0 0.472 0 0.855 0.383 0.855 0.855s-0.383 0.855-0.855 0.855c-0.472 0-0.855-0.383-0.855-0.855v0c0-0.472 0.383-0.854 0.854-0.855h0z"></path>
<path fill="#4a3291" d="M21.007 16.476l-0.338 1.038 0.364 0.063 0.375-1.101 0.67-1.97-0.376-0.162-0.694 2.132zM18.883 17.205l0.364 0.065 0.77-3.649-0.374-0.162-0.76 3.746zM12.34 20.116l-4.165-0.004 0.201 0.338 4.088-0.005-0.114-0.334h-0.002l0.002 0.005h-0.010zM17.606 20.747l-1.546-0 0.768 1.049 0.778-1.049zM13.436 13.621l0.001 0.003 0.589-0.65-0.004-0.001-0.812-0.121 0.226 0.769zM12.517 13.497l0.207 0.911 0.001 0.002 0.706-0.778-0.003-0-0.91-0.135zM11.629 14.302l0.186 1.092-1.197-0.145 0.051 0.3 0.16 0.933 1.888-2.064-0.002-0-1.086-0.116zM15.161 18.598c0.828 0 1.197-0.392 1.199-1.27-0.037-0.324-0.157-0.614-0.338-0.857l0.003 0.005c-0.291-0.393-0.734-0.658-1.241-0.708l-0.007-0.001c-0.566 0.015-0.944 0.262-1.103 0.709-0.054 0.156-0.086 0.336-0.086 0.523 0 0.009 0 0.019 0 0.028l-0-0.001c0.001 0.868 0.704 1.571 1.572 1.572h0zM14.517 20.748l0.765 1.056 0.778-1.057-1.526-0.005-0.017 0.007-0.019-0.009-1.533 0.007 0.774 1.054 0.779-1.052zM23.405 27.768l-1.137-1.206-0.43 0.098 1.129 1.211 0.438-0.104zM24.258 27.573l-1.136-1.205-0.43 0.098 1.129 1.211 0.438-0.104zM25.119 27.377l-1.14-1.204-0.424 0.096 1.126 1.211 0.438-0.104zM11.621 28.838l-0.347 0.002-0.775 2.412h0.339l0.783-2.414zM8.951 31.246l0.398-1.201-1.206 0.434 0.807 0.768zM8.532 29.279l0.818 0.766 0.394-1.196-1.212 0.43zM6.616 27.204l-0.96-1.344-0.437 0.032 0.948 1.354 0.448-0.042zM7.502 27.138l-0.955-1.343-0.44 0.032 0.947 1.353 0.448-0.042zM8.4 27.073l-0.954-1.342-0.44 0.032 0.947 1.352 0.448-0.042zM16.642 7.208l-1.245 1.457 1.326 0.023-0.081-1.48z"></path>
<path fill="#010101" d="M29.408 30.361l-0.002-1.385-3.402-1.814-0.618-1.708-2.355-2.973 1.012-0.89 0.455 0.266 1.576-1.416 0.334 3.001 1.231-3.011 1.948 3.419-0.47-4.272-2.509-2.766-1.346 1.090-0.414-0.349-0.14-2.326-6.275-2.698-1.492-1.23 2.628 0.25-2.353-1.751 0.323-0.32-0.279-4.589-2.828 3.358-0.774-0.004 0.143-3.229-2.002-3.532 0.288 3.159-0.59 1.020-2.522-1.418 1.883 2.464-1.316 2.212-0.712 6.030-2.986 2.010 2.075 3.471-5.145 3.698 2.261 3.228-2.665 1.594-0.002 1.417-0.45 1.252 10.543 0.007 3.13-2.681 1.062 0.101 1.624-1.341-0.181-0.907 1.241-1.101 2.985 3.247 0.005 1.793 0.367 0.926 7.339 0.007zM27.615 18.514l1.152 1.2 0.283 2.456-0.008-0.004-1.039-1.905-0.618-1.321-0.016 1.133-0.73 1.773-0.232-2.298zM26.566 17.335l0.799 0.877-0.864 0.749-0.952-0.801zM24.345 15.734l0.149 2.015 1.437 1.246 0.096 0.988-1.582 1.413-1.864-1.021-0.253-2.537zM18.046 12.777l6.090 2.62-2.214 2.331-3.877-0.67zM22.219 20.53l-0.989 0.822-0.995-0.295 1.817-2.55zM21.622 18.051l-1.593 0.7-0.096-0.97zM19.252 17.666l-0.43 1.124-0.771-1.355zM18.853 19.59l0.703-1.631 0.172 1.31 1.893-0.817-1.802 2.482-1.797-0.533-0.005-2.282zM18.007 20.798l2.893 0.844-2.896 2.421zM14.61 8.641l2.332-2.768 0.205 3.453-0.509 0.519 1.602 1.198-2.52-0.243 1.604 1.321-2.408-0.184 1.045 1.479-1.938-0.441-3.194 3.503-0.211-1.227v-0.002l0.001 0 2.031-4.677-0.249-0.87 1.146-1.096zM13.417 5.094l-0.121 2.639-0.824-3.101-0.137-1.438zM10.193 5.336l1.074 0.682-0.21 0.353zM9.908 9.045l2.318-3.891 0.889 3.339-1.199 1.095 0.288 0.959-1.997 4.552-1.090 0.6zM6.743 17.702l-0.385-0.626 2.402-1.616-0.050 0.482 2.175 1.056 3.275-3.6 2.684 0.619-1.159-1.64 1.961 0.143-0.003 3.958-0.003 3.895-4.79-0-0.761-2.179zM17.631 24.378l-1.090 0.907-2.931-2.639-0.644-1.895-0.002-0.003h0.001l-0-0.002 4.668 0zM6.977 18.107v-0.005l4.812 0.439 1.366 3.91-2.668 1.542zM13.537 27.864l-0.713 0.616-2.595-0.007-1.573-2.967 1.663-1.008 3.095 1.965-0.379 0.687zM4.242 25.585l-0.959-1.357 4.837-3.479 2.017 3.39-1.896 1.162zM5.842 31.237l-3.362-0.003 0.175-0.487 3.333 0.003zM2.766 30.374l-0.001-1.222 2.816-1.679-1.093-1.525 3.825-0.277 1.479 2.805-3.031-0.007-0.643 1.902zM12.325 31.246h-6.087l0.796-2.396 5.927-0.001 0.762-0.648 0.783 1.182zM14.786 29.127l-1.32-2.020 0.441-0.774-3.189-2.031 2.535-1.467 2.989 2.691-1.765 1.47 0.766 1.723zM16.509 28.656l-0.911-0.094-0.37-0.851 1.813-1.452 0.638 0.483 0.177 0.807zM17.91 26.448l-0.875-0.675-1.973 1.585-0.117-0.262 1.916-1.581 5.649-4.748 1.163 0.64zM20.643 26.561l-1.017-1.109 3.103-2.719 2.239 2.825zM22.686 30.358v-1.565l-1.774-1.921 4.231-0.962 0.547 1.521 3.336 1.774v1.151zM22.713 30.74l6.489-0.001 0.261 0.545h-6.521z"></path>
<path fill="#010101" d="M14.607 19.622c1.157-0.001 2.095-0.94 2.095-2.098 0-1.078-0.813-1.965-1.858-2.084l-0.010-0.001v-0.005c-0.015 0-0.029 0.001-0.044 0.001-0.061-0.005-0.122-0.009-0.184-0.009-1.151 0.009-2.081 0.945-2.081 2.098s0.93 2.088 2.080 2.098h0.001zM13.674 16.476c0.159-0.447 0.537-0.694 1.103-0.709 0.756 0.077 1.367 0.62 1.543 1.334l0.003 0.012c0.015 0.059 0.028 0.132 0.037 0.206l0.001 0.008c-0.002 0.878-0.372 1.27-1.199 1.27-0.868-0.001-1.571-0.704-1.572-1.572v-0c-0-0.007-0-0.016-0-0.025 0-0.188 0.031-0.368 0.089-0.536l-0.003 0.012zM13.187 16.476c0.073-0.097 0.15-0.183 0.236-0.26l0.002-0.001c-0.036 0.074-0.069 0.16-0.095 0.251l-0.003 0.011c-0.045 0.16-0.070 0.344-0.070 0.533 0 0.006 0 0.012 0 0.017v-0.001c0.001 1.051 0.853 1.903 1.904 1.904h0c0.009 0 0.019 0 0.029 0 0.209 0 0.411-0.032 0.601-0.091l-0.014 0.004c-0.31 0.277-0.721 0.446-1.172 0.446-0.974 0-1.764-0.79-1.764-1.764 0-0.395 0.13-0.76 0.349-1.054l-0.003 0.005zM11.647 10.165l-1.187-0.397-0.167 0.441 1.169 0.381 0.185-0.425zM11.894 6.427l-1.216 2.051h0.69l0.526-2.051zM10.059 14.478c-0 0-0 0-0 0-0.094 0-0.169 0.076-0.169 0.169s0.076 0.169 0.169 0.169c0.094 0 0.169-0.076 0.169-0.169 0-0 0-0 0-0v0c0-0 0-0 0-0 0-0.093-0.076-0.169-0.169-0.169 0 0 0 0 0 0v0zM10.138 14.257c0.093-0 0.169-0.076 0.169-0.169s-0.076-0.169-0.169-0.169-0.169 0.076-0.169 0.169c0 0 0 0 0 0v0c0 0 0 0 0 0 0 0.094 0.076 0.169 0.169 0.169 0 0 0 0 0.001 0h-0zM10.218 13.698c0.093-0 0.169-0.076 0.169-0.169s-0.076-0.169-0.169-0.169-0.169 0.076-0.169 0.169v0c0 0 0 0 0 0 0 0.094 0.076 0.169 0.169 0.169 0 0 0 0 0 0h-0zM9.584 14.724c-0.093 0-0.169 0.076-0.169 0.169s0.076 0.169 0.169 0.169 0.169-0.076 0.169-0.169c0-0 0-0 0-0v0c-0-0.094-0.076-0.169-0.17-0.169-0 0-0 0-0 0v0zM9.664 14.165c-0 0-0 0-0 0-0.094 0-0.169 0.076-0.169 0.169s0.076 0.169 0.169 0.169c0.093 0 0.169-0.076 0.169-0.169v0c-0-0.093-0.076-0.169-0.169-0.169h-0zM9.743 13.606c-0.094 0-0.169 0.076-0.169 0.17s0.076 0.17 0.17 0.17 0.17-0.076 0.17-0.17c0-0 0-0 0-0v0c0-0 0-0 0-0 0-0.094-0.076-0.169-0.169-0.169-0 0-0 0-0 0h0zM13.026 11.129c0 0 0 0 0 0 0 0.472 0.383 0.855 0.855 0.855s0.855-0.383 0.855-0.855c0-0.472-0.383-0.855-0.855-0.855-0 0-0 0-0.001 0h0c-0.472 0-0.854 0.383-0.854 0.855v0zM13.879 10.667c0 0 0 0 0 0 0.257 0 0.464 0.208 0.464 0.464s-0.208 0.464-0.464 0.464c-0.256 0-0.464-0.208-0.464-0.464v0c0-0.257 0.208-0.464 0.464-0.465h0z"></path>
</svg>
