<!-- Generated by IcoMoon.io -->
<svg version="1.1" xmlns="http://www.w3.org/2000/svg" width="32" height="32" viewBox="0 0 32 32">
<title>55</title>
<path fill="#001425" d="M3.258 26.053c6.23 0.545 10.194 2.302 12.114 5.946 6.591-1.068 12.686-5.294 12.686-10.743 0-7.258-8.795-8.399-9.029-10.514 3.698 1.341 7.77-0.069 9.714-4.685-5.745-0.425-9.952-2.52-11.771-6.057-7.047 1.25-12.684 5.819-12.684 10.739 0 7.197 9.25 9.102 10.285 10.629-5.047-1.914-9.401 0.266-11.314 4.685z"></path>
<path fill="#96d8d8" d="M14.195 10.367c-0.789-0.801-1.117-1.433-1.117-2.257 0-0.949 0.456-1.416 0.456-1.942 0-0.456-0.283-0.814-0.835-0.923 0.292-0.327 0.709-0.537 1.174-0.558l0.004-0c2.352 0 3.047 5.199 7.954 5.012 1.749-0.167 3.398-1.017 4.441-2.509-4.286-0.561-8.198-2.381-10.11-5.476-1.982 0.361-10.299 3.231-10.088 9.228 0.218 6.254 9.468 7.992 12.056 10.678 2.040 2.124 0.603 4.247-0.708 5.028-2.032-5.282-8.707-5.663-11.365-1.841 4.28 0.551 8.193 2.373 10.105 5.468 4.727-0.991 7.008-5.137 6.14-8.127-1.437-4.955-10.76-5.819-13.239-10.454-1.322-2.608-0.235-5.391 2.183-7.007-0.861 1.073-1.382 2.451-1.383 3.95v0c0.215 0.234 0.306 0.783 0.309 0.793 0.031 0.191 0.088 0.596-0.013 0.85 0.118 0.305 0.254 0.567 0.414 0.812l-0.010-0.016c0.323 0.081 0.688 0.503 0.694 0.513 0.357 0.409 0.412 0.667 0.425 0.765 0.219 0.197 0.456 0.387 0.708 0.566 0.208-0.024 0.527 0.076 0.85 0.283 0.371 0.242 0.556 0.484 0.609 0.664 0.259 0.152 0.524 0.299 0.796 0.445 0.208-0.057 0.551 0.008 0.893 0.185s0.597 0.425 0.673 0.62l0.823 0.409c0.207-0.061 0.552 0 0.899 0.176s0.588 0.412 0.667 0.613c0.283 0.142 0.566 0.293 0.834 0.443 0.255-0.052 0.661 0.103 0.883 0.235 0.274 0.145 0.488 0.372 0.615 0.647l0.004 0.009c0.283 0.18 0.545 0.365 0.803 0.556 0.217-0.010 0.537 0.115 0.834 0.368 0.321 0.283 0.487 0.588 0.494 0.801 0.212 0.225 0.412 0.467 0.595 0.722l0.014 0.021c0.263 0.065 0.528 0.37 0.675 0.675 0.204 0.446 0.178 0.759 0.117 0.922 0.355 1.106 0.45 2.5-0.12 4.106 0 0.016-0.013 0.035-0.021 0.057 1.194-1.301 2.001-2.901 1.933-4.822-0.225-6.262-9.473-8.001-12.061-10.687z"></path>
<path fill="#c8102e" d="M17.744 11.023c-1.056-1.215-1.732-3.371-2.897-4.212-0.522 1.856 0.565 3.885 2.897 4.212z"></path>
<path fill="#639fb6" d="M16.908 28.464c-0.241 0.718-0.493 1.316-0.783 1.892l0.037-0.081c-1.911-3.096-5.825-4.917-10.109-5.474 4.426-2.22 9.013 0.116 10.855 3.663zM26.272 7.184c-4.429 2.22-9.013-0.116-10.855-3.664 0.239-0.715 0.491-1.312 0.781-1.887l-0.037 0.080c-1.872 0.337-10.3 3.176-10.088 9.226 0.218 6.254 9.468 7.992 12.056 10.678 2.040 2.124 0.603 4.247-0.708 5.028-0.164 0.737-0.339 1.345-0.546 1.939l0.037-0.121c0.963-0.168 3.884-1.715 3.903-4.691 0.026-4.106-5.275-5.188-9.292-7.677-3.31-2.049-3.953-4.080-4.12-5.367-0.395-3.026 1.741-5.791 4.846-7.093-0.375 0.313-0.704 0.658-0.992 1.036l-0.011 0.016c-0.861 1.073-1.382 2.451-1.383 3.951v0c0.215 0.234 0.306 0.782 0.309 0.793 0.031 0.191 0.088 0.596-0.013 0.85 0.119 0.298 0.255 0.554 0.413 0.793l-0.010-0.016c0.323 0.082 0.688 0.504 0.694 0.513 0.357 0.409 0.412 0.668 0.425 0.766 0.219 0.197 0.456 0.385 0.708 0.566 0.208-0.024 0.527 0.078 0.85 0.283 0.371 0.244 0.556 0.484 0.609 0.664q0.388 0.227 0.796 0.445c0.208-0.057 0.551 0.008 0.893 0.185s0.597 0.425 0.673 0.622l0.823 0.408c0.207-0.059 0.552 0 0.899 0.177s0.588 0.411 0.667 0.612q0.425 0.219 0.834 0.443c0.255-0.052 0.661 0.103 0.883 0.236 0.274 0.145 0.489 0.372 0.615 0.647l0.004 0.009c0.283 0.18 0.545 0.365 0.803 0.556 0.217-0.010 0.537 0.115 0.834 0.368 0.321 0.283 0.487 0.588 0.494 0.8 0.211 0.225 0.411 0.467 0.594 0.722l0.015 0.021c0.263 0.067 0.528 0.371 0.675 0.675 0.204 0.446 0.178 0.759 0.117 0.922 0.355 1.107 0.45 2.502-0.12 4.106 1.526-2.585 1.379-5.154-0.326-7.323-3.565-4.531-12.533-5.077-12.499-10.276 0.016-1.148 0.464-2.188 1.188-2.969l-0.003 0.003c0.291-0.324 0.705-0.532 1.167-0.552l0.003-0c2.352 0 3.047 5.199 7.954 5.012 1.751-0.168 3.405-1.018 4.443-2.509z"></path>
</svg>
