<!-- Generated by IcoMoon.io -->
<svg version="1.1" xmlns="http://www.w3.org/2000/svg" width="32" height="32" viewBox="0 0 32 32">
<title>6</title>
<path fill="#fcb514" d="M16 31.999c8.836 0 15.999-7.163 15.999-15.999s-7.163-15.999-15.999-15.999c-8.836 0-15.999 7.163-15.999 15.999v0c0.001 8.836 7.163 15.999 15.999 15.999h0z"></path>
<path fill="#111" d="M16 31.405c8.508 0 15.405-6.897 15.405-15.405s-6.897-15.405-15.405-15.405c-8.508 0-15.405 6.897-15.405 15.405v0c0.001 8.508 6.898 15.404 15.405 15.405h0z"></path>
<path fill="#fcb514" d="M15.128 29.082c0.29 0.019 0.574 0.032 0.871 0.032 0.29 0 0.581-0.013 0.865-0.032v-4.214h-1.736zM21.969 23.202l2.666 2.666c0.441-0.386 0.842-0.789 1.213-1.217l0.013-0.015-2.646-2.646zM22.453 16l0.897 0.865h5.731c0.019-0.284 0.039-0.574 0.039-0.865 0-0.297-0.020-0.587-0.032-0.871h-5.738zM9.746 15.128h-6.835c-0.020 0.259-0.031 0.563-0.032 0.869v0.002c0 0.29 0.013 0.581 0.032 0.865h6.835zM7.364 25.867l1.278-1.284v-2.459l-2.511 2.511c0.386 0.444 0.789 0.846 1.218 1.22l0.015 0.013zM8.642 7.409l-1.284-1.278c-0.44 0.386-0.84 0.786-1.213 1.212l-0.013 0.015 2.511 2.511zM16.864 2.911c-0.257-0.020-0.558-0.031-0.863-0.032h-0.002c-0.297 0-0.581 0.013-0.871 0.032v4.214h1.736v-4.214zM25.868 7.358c-0.387-0.439-0.79-0.84-1.217-1.213l-0.015-0.013-2.665 2.665 1.246 1.213z"></path>
<path fill="#fcb514" d="M10.417 20.717l-1.104 1.071v2.407h10.668l2.704-2.627v-4.414l-1.194-1.155 1.194-1.162v-4.408l-2.704-2.633h-10.668v2.407l1.104 1.078v9.436z"></path>
<path fill="#fff" d="M23.357 14.412h5.66c-0.306-2.486-1.271-4.704-2.712-6.526l0.021 0.027-2.969 2.969zM14.412 7.125v-4.143c-2.486 0.306-4.704 1.271-6.526 2.712l0.027-0.021 1.459 1.459h5.040zM23.357 17.581v3.537l2.969 2.962c1.422-1.795 2.388-4.012 2.685-6.436l0.006-0.063zM21.453 8.3l2.627-2.627c-1.796-1.42-4.012-2.385-6.436-2.685l-0.063-0.006v4.15h2.672zM9.746 11.985l-4.072-4.072c-1.421 1.796-2.387 4.012-2.691 6.435l-0.007 0.064h6.77zM9.746 20.007v-2.427h-6.77c0.309 2.487 1.276 4.704 2.719 6.526l-0.021-0.027zM20.253 24.867h-2.672v4.15c2.489-0.305 4.708-1.27 6.533-2.712l-0.027 0.021-2.627-2.627zM14.412 24.867h-5.040l-1.459 1.459c1.795 1.421 4.012 2.386 6.436 2.685l0.063 0.006z"></path>
<path fill="#111" d="M9.868 22.028v1.613h9.894l2.368-2.311v-3.937l-1.433-1.394 1.433-1.394v-3.943l-2.375-2.304h-9.887v1.607l1.11 1.078v9.907l-1.11 1.078z"></path>
<path fill="#fcb514" d="M19.588 13.786v-2.065l-1.084-1.058h-5.163v4.182h5.157zM19.588 20.278v-2.072l-1.084-1.059h-5.163v4.182h5.157z"></path>
<path fill="#111" d="M19.033 18.445l-0.755-0.736h-4.376v3.066h4.376l0.755-0.736zM19.033 11.953l-0.755-0.736h-4.376v3.072h4.376l0.755-0.736z"></path>
<path fill="#fff" d="M18.362 19.756v-1.033l-0.361-0.342h-3.427v1.723h3.427zM18.362 13.27v-1.033l-0.361-0.348h-3.427v1.73h3.427z"></path>
</svg>
