<!-- Generated by IcoMoon.io -->
<svg version="1.1" xmlns="http://www.w3.org/2000/svg" width="32" height="32" viewBox="0 0 32 32">
<title>7</title>
<path fill="#ffb81c" d="M15.259 0.009c-0.099 0.006-0.275 0.019-0.392 0.027s-0.326 0.027-0.466 0.042c-0.388 0.039-0.702 0.081-1.013 0.131l0.096-0.013c-0.139 0.022-0.418 0.074-0.618 0.112-0.202 0.040-0.543 0.117-0.759 0.171-0.214 0.054-0.458 0.118-0.538 0.141-0.080 0.024-0.287 0.088-0.458 0.142-0.173 0.054-0.418 0.138-0.546 0.184-0.128 0.045-0.355 0.133-0.506 0.192-0.149 0.061-0.389 0.16-0.531 0.224-0.142 0.062-0.435 0.202-0.651 0.309s-0.514 0.264-0.664 0.347c-0.15 0.085-0.327 0.186-0.392 0.224s-0.21 0.128-0.319 0.197c-0.11 0.069-0.296 0.19-0.413 0.267-0.117 0.078-0.258 0.174-0.312 0.213s-0.189 0.138-0.299 0.218c-0.11 0.082-0.314 0.238-0.451 0.347-0.139 0.11-0.373 0.306-0.519 0.434-0.147 0.128-0.323 0.287-0.392 0.351-0.070 0.064-0.237 0.226-0.371 0.359-0.133 0.131-0.338 0.343-0.453 0.466-0.115 0.125-0.307 0.339-0.429 0.479-0.12 0.139-0.299 0.355-0.397 0.479-0.099 0.125-0.246 0.315-0.327 0.426s-0.197 0.27-0.259 0.359c-0.061 0.088-0.178 0.261-0.259 0.386-0.080 0.125-0.192 0.298-0.246 0.386s-0.122 0.198-0.149 0.246c-0.029 0.046-0.12 0.208-0.205 0.358-0.083 0.15-0.24 0.448-0.347 0.664s-0.246 0.509-0.309 0.651c-0.064 0.142-0.163 0.383-0.224 0.531-0.059 0.15-0.147 0.378-0.192 0.506-0.094 0.242-0.219 0.625-0.332 1.012l-0.034 0.137c-0.035 0.133-0.098 0.374-0.138 0.539s-0.101 0.44-0.134 0.611c-0.034 0.171-0.077 0.402-0.094 0.512-0.018 0.109-0.045 0.277-0.058 0.371-0.014 0.096-0.042 0.307-0.059 0.472-0.019 0.165-0.043 0.41-0.053 0.546-0.011 0.134-0.027 0.383-0.035 0.551-0.011 0.198-0.014 0.501-0.008 0.858 0.003 0.304 0.013 0.647 0.021 0.765 0.008 0.117 0.027 0.344 0.042 0.504 0.014 0.162 0.045 0.434 0.067 0.605 0.021 0.171 0.058 0.423 0.080 0.559 0.022 0.134 0.069 0.392 0.106 0.571 0.035 0.179 0.101 0.472 0.146 0.651s0.11 0.431 0.147 0.559c0.037 0.128 0.106 0.355 0.154 0.504 0.048 0.15 0.134 0.405 0.192 0.565 0.059 0.162 0.17 0.447 0.246 0.632 0.078 0.186 0.182 0.432 0.235 0.546 0.051 0.112 0.17 0.358 0.262 0.544 0.093 0.187 0.235 0.456 0.315 0.599 0.078 0.142 0.214 0.376 0.302 0.519 0.086 0.142 0.226 0.363 0.309 0.491s0.224 0.334 0.312 0.459c0.088 0.123 0.218 0.299 0.286 0.392 0.070 0.091 0.197 0.253 0.28 0.358 0.085 0.106 0.222 0.274 0.306 0.371 0.085 0.099 0.234 0.27 0.333 0.379 0.098 0.11 0.338 0.358 0.531 0.552s0.466 0.455 0.605 0.578c0.138 0.125 0.344 0.304 0.458 0.398 0.115 0.096 0.288 0.237 0.387 0.314 0.099 0.078 0.287 0.221 0.419 0.319 0.131 0.096 0.403 0.285 0.603 0.418 0.202 0.134 0.471 0.306 0.599 0.383 0.281 0.174 0.647 0.378 1.020 0.568l0.097 0.045c0.179 0.090 0.445 0.216 0.591 0.28 0.147 0.064 0.368 0.158 0.493 0.21 0.123 0.051 0.298 0.12 0.386 0.154 0.086 0.032 0.285 0.102 0.439 0.157 0.154 0.053 0.378 0.126 0.498 0.163 0.122 0.037 0.304 0.091 0.407 0.12 0.196 0.061 0.528 0.146 0.863 0.223l0.126 0.024c0.122 0.026 0.336 0.067 0.479 0.093 0.142 0.027 0.386 0.066 0.539 0.088 0.154 0.021 0.386 0.051 0.519 0.066 0.131 0.014 0.346 0.035 0.479 0.046 0.131 0.011 0.362 0.027 0.511 0.037 0.15 0.010 0.509 0.016 0.799 0.016 0.288 0 0.663-0.006 0.831-0.016s0.427-0.029 0.578-0.043c0.15-0.014 0.351-0.035 0.445-0.046 0.096-0.011 0.282-0.035 0.413-0.053 0.131-0.019 0.328-0.048 0.439-0.067 0.109-0.018 0.334-0.061 0.498-0.093 0.165-0.034 0.474-0.104 0.685-0.158 0.213-0.053 0.52-0.138 0.685-0.186 0.165-0.050 0.389-0.118 0.498-0.155 0.11-0.038 0.311-0.109 0.447-0.158 0.134-0.048 0.355-0.134 0.491-0.189 0.134-0.054 0.365-0.152 0.512-0.218 0.146-0.064 0.431-0.198 0.631-0.298 0.202-0.101 0.471-0.24 0.599-0.312s0.352-0.202 0.498-0.29c0.147-0.088 0.358-0.219 0.472-0.293s0.296-0.195 0.407-0.272c0.109-0.077 0.304-0.218 0.431-0.312 0.128-0.096 0.317-0.24 0.419-0.32s0.246-0.198 0.319-0.259c0.074-0.062 0.224-0.192 0.333-0.288 0.11-0.096 0.311-0.283 0.445-0.415 0.136-0.131 0.354-0.349 0.485-0.483s0.304-0.32 0.386-0.411c0.082-0.091 0.213-0.243 0.294-0.339 0.080-0.094 0.211-0.256 0.293-0.358 0.080-0.102 0.224-0.291 0.32-0.419 0.094-0.126 0.235-0.322 0.312-0.431 0.077-0.11 0.198-0.293 0.272-0.407s0.205-0.325 0.293-0.472c0.088-0.146 0.218-0.37 0.29-0.498s0.211-0.397 0.312-0.599c0.099-0.2 0.234-0.485 0.298-0.631 0.066-0.147 0.163-0.378 0.218-0.512 0.054-0.136 0.141-0.357 0.189-0.491 0.050-0.136 0.12-0.336 0.158-0.447 0.037-0.109 0.106-0.333 0.155-0.498 0.048-0.165 0.131-0.472 0.186-0.685 0.054-0.211 0.125-0.52 0.158-0.685 0.032-0.163 0.075-0.389 0.093-0.498 0.019-0.11 0.048-0.307 0.067-0.439 0.018-0.131 0.042-0.317 0.053-0.413 0.011-0.094 0.032-0.294 0.046-0.445s0.034-0.41 0.043-0.578c0.010-0.168 0.016-0.543 0.016-0.831 0-0.29-0.006-0.648-0.016-0.799-0.010-0.149-0.026-0.379-0.037-0.511-0.011-0.133-0.032-0.347-0.046-0.479-0.014-0.133-0.045-0.365-0.066-0.519-0.022-0.154-0.061-0.397-0.088-0.539-0.026-0.142-0.067-0.357-0.093-0.479-0.1-0.461-0.185-0.793-0.279-1.122l0.032 0.132c-0.029-0.102-0.083-0.285-0.12-0.407-0.037-0.12-0.11-0.344-0.163-0.498-0.054-0.154-0.125-0.352-0.157-0.439-0.034-0.088-0.102-0.262-0.154-0.386-0.051-0.125-0.146-0.346-0.21-0.493-0.064-0.146-0.19-0.411-0.28-0.591-0.235-0.471-0.439-0.836-0.656-1.193l0.043 0.076c-0.077-0.128-0.248-0.397-0.383-0.599-0.133-0.2-0.322-0.472-0.418-0.603-0.098-0.133-0.24-0.32-0.319-0.419-0.077-0.099-0.218-0.272-0.314-0.387-0.094-0.114-0.274-0.32-0.398-0.458-0.123-0.139-0.384-0.411-0.578-0.605s-0.442-0.434-0.552-0.531c-0.109-0.099-0.28-0.248-0.379-0.333-0.098-0.083-0.266-0.221-0.371-0.306-0.106-0.083-0.267-0.21-0.358-0.28-0.093-0.069-0.269-0.198-0.392-0.286-0.125-0.088-0.331-0.229-0.459-0.312s-0.349-0.222-0.491-0.309c-0.142-0.088-0.376-0.224-0.519-0.302-0.142-0.080-0.411-0.222-0.599-0.315-0.186-0.093-0.432-0.211-0.544-0.262-0.114-0.053-0.36-0.157-0.546-0.235-0.186-0.077-0.471-0.187-0.632-0.246-0.16-0.058-0.415-0.144-0.565-0.192-0.149-0.048-0.376-0.117-0.504-0.154s-0.379-0.102-0.559-0.147-0.472-0.11-0.651-0.146c-0.179-0.037-0.437-0.083-0.571-0.106-0.136-0.022-0.387-0.059-0.559-0.080-0.171-0.022-0.443-0.053-0.605-0.067-0.16-0.014-0.387-0.034-0.504-0.042-0.118-0.008-0.504-0.016-0.858-0.019-0.355-0.002-0.725 0.002-0.824 0.006z"></path>
<path fill="#003087" d="M15.451 0.941c-0.131 0.005-0.346 0.016-0.479 0.026-0.131 0.008-0.383 0.030-0.559 0.048-0.174 0.019-0.439 0.051-0.584 0.074-0.146 0.021-0.383 0.061-0.525 0.086s-0.37 0.070-0.506 0.099c-0.134 0.029-0.365 0.083-0.511 0.12-0.147 0.038-0.405 0.109-0.573 0.158-0.168 0.051-0.427 0.133-0.578 0.184-0.15 0.050-0.368 0.128-0.485 0.171-0.117 0.045-0.326 0.128-0.466 0.186-0.139 0.059-0.367 0.158-0.504 0.222-0.139 0.064-0.358 0.17-0.485 0.234-0.428 0.217-0.761 0.405-1.087 0.604l0.069-0.039c-0.117 0.070-0.314 0.195-0.439 0.277-0.125 0.080-0.328 0.218-0.451 0.306-0.125 0.088-0.328 0.238-0.453 0.333-0.123 0.094-0.333 0.262-0.464 0.373-0.133 0.109-0.344 0.291-0.472 0.405s-0.376 0.351-0.552 0.527c-0.176 0.174-0.424 0.435-0.552 0.578s-0.317 0.362-0.419 0.485c-0.102 0.125-0.264 0.328-0.359 0.453-0.096 0.123-0.242 0.322-0.325 0.439s-0.224 0.323-0.312 0.458c-0.088 0.136-0.227 0.357-0.309 0.493-0.080 0.134-0.205 0.349-0.275 0.474-0.070 0.126-0.189 0.354-0.266 0.506-0.075 0.152-0.187 0.384-0.246 0.515-0.061 0.131-0.157 0.352-0.213 0.491-0.058 0.139-0.142 0.352-0.187 0.472s-0.126 0.347-0.179 0.506c-0.031 0.076-0.090 0.253-0.145 0.431l-0.027 0.1c-0.040 0.134-0.106 0.378-0.146 0.538-0.040 0.162-0.098 0.403-0.128 0.539-0.030 0.134-0.075 0.358-0.101 0.498s-0.064 0.378-0.085 0.531c-0.022 0.154-0.053 0.394-0.067 0.533-0.014 0.138-0.038 0.405-0.053 0.591-0.014 0.187-0.029 0.546-0.034 0.797-0.006 0.287-0.003 0.587 0.006 0.799 0.008 0.186 0.024 0.453 0.035 0.591 0.011 0.139 0.032 0.366 0.046 0.506s0.045 0.378 0.067 0.531c0.022 0.154 0.064 0.405 0.093 0.559s0.083 0.415 0.12 0.578c0.037 0.165 0.102 0.432 0.146 0.592 0.043 0.162 0.115 0.41 0.16 0.552s0.122 0.376 0.171 0.519c0.050 0.142 0.134 0.373 0.189 0.511 0.056 0.139 0.157 0.384 0.227 0.546 0.069 0.16 0.178 0.4 0.243 0.531 0.064 0.131 0.178 0.357 0.254 0.499s0.198 0.363 0.272 0.491c0.074 0.128 0.194 0.328 0.266 0.445 0.074 0.117 0.208 0.323 0.301 0.459 0.091 0.134 0.245 0.351 0.339 0.479s0.256 0.336 0.359 0.464c0.102 0.128 0.261 0.32 0.352 0.426s0.262 0.298 0.381 0.426 0.359 0.373 0.533 0.544c0.174 0.171 0.426 0.403 0.557 0.517s0.335 0.287 0.451 0.383c0.117 0.096 0.319 0.251 0.447 0.347 0.126 0.094 0.331 0.24 0.451 0.325s0.327 0.222 0.458 0.306c0.133 0.085 0.339 0.211 0.459 0.283 0.12 0.070 0.347 0.2 0.506 0.287 0.157 0.085 0.374 0.2 0.485 0.256 0.109 0.054 0.315 0.152 0.458 0.216s0.368 0.16 0.499 0.214c0.131 0.054 0.373 0.149 0.538 0.21s0.41 0.146 0.546 0.19c0.134 0.045 0.351 0.11 0.479 0.147s0.367 0.101 0.531 0.141c0.165 0.042 0.427 0.102 0.584 0.134 0.447 0.097 1.007 0.183 1.577 0.24l0.065 0.005c0.154 0.014 0.427 0.035 0.608 0.046s0.531 0.021 0.778 0.021c0.246 0 0.613-0.010 0.815-0.021 0.2-0.010 0.464-0.029 0.584-0.040 0.122-0.011 0.298-0.029 0.392-0.040 0.361-0.042 0.654-0.087 0.943-0.141l-0.085 0.013c0.165-0.029 0.397-0.074 0.519-0.099 0.12-0.026 0.363-0.082 0.538-0.126 0.176-0.043 0.421-0.109 0.546-0.146 0.123-0.037 0.346-0.106 0.491-0.154s0.368-0.125 0.491-0.171c0.125-0.046 0.317-0.118 0.426-0.163 0.311-0.121 0.545-0.225 0.774-0.337l-0.064 0.028c0.114-0.053 0.296-0.141 0.407-0.195 0.109-0.054 0.283-0.146 0.386-0.2s0.285-0.157 0.405-0.226c0.12-0.070 0.323-0.192 0.451-0.272 0.128-0.082 0.338-0.218 0.466-0.302s0.4-0.282 0.605-0.435c0.205-0.154 0.464-0.357 0.578-0.451s0.293-0.25 0.398-0.344c0.107-0.093 0.389-0.365 0.626-0.603 0.238-0.237 0.514-0.525 0.613-0.639 0.098-0.114 0.245-0.283 0.325-0.379 0.176-0.212 0.37-0.458 0.557-0.709l0.034-0.048c0.074-0.102 0.205-0.291 0.291-0.419s0.222-0.336 0.302-0.464c0.080-0.128 0.19-0.311 0.246-0.407 0.054-0.094 0.158-0.28 0.23-0.411 0.134-0.238 0.298-0.563 0.45-0.894l0.040-0.096c0.050-0.114 0.128-0.296 0.174-0.405 0.045-0.11 0.13-0.322 0.186-0.472s0.144-0.395 0.194-0.546c0.050-0.149 0.13-0.407 0.176-0.571 0.048-0.165 0.12-0.434 0.16-0.597 0.042-0.165 0.107-0.464 0.147-0.666 0.040-0.2 0.094-0.509 0.12-0.683 0.041-0.257 0.083-0.618 0.115-0.982l0.005-0.070c0.011-0.131 0.027-0.39 0.035-0.578 0.010-0.205 0.011-0.523 0.006-0.803-0.003-0.256-0.014-0.573-0.021-0.706-0.008-0.131-0.026-0.365-0.042-0.519-0.014-0.152-0.042-0.395-0.059-0.538-0.019-0.142-0.054-0.383-0.080-0.531-0.027-0.15-0.077-0.413-0.112-0.586-0.035-0.171-0.094-0.434-0.133-0.584-0.037-0.15-0.101-0.386-0.141-0.525-0.042-0.139-0.112-0.37-0.158-0.512s-0.122-0.363-0.17-0.491c-0.048-0.128-0.134-0.352-0.194-0.499-0.058-0.146-0.16-0.383-0.226-0.525s-0.182-0.387-0.261-0.544c-0.080-0.157-0.198-0.386-0.264-0.506s-0.186-0.33-0.266-0.466c-0.080-0.134-0.258-0.413-0.394-0.618s-0.334-0.488-0.44-0.631c-0.107-0.142-0.27-0.355-0.365-0.472s-0.25-0.303-0.344-0.413c-0.096-0.109-0.237-0.267-0.314-0.352-0.077-0.083-0.227-0.242-0.333-0.351s-0.315-0.312-0.466-0.453c-0.149-0.139-0.358-0.328-0.464-0.419-0.107-0.090-0.293-0.243-0.413-0.339s-0.323-0.253-0.451-0.347c-0.128-0.094-0.338-0.245-0.466-0.331s-0.322-0.214-0.432-0.283c-0.109-0.067-0.319-0.194-0.466-0.28-0.146-0.086-0.363-0.21-0.485-0.274-0.12-0.064-0.351-0.181-0.512-0.259-0.16-0.077-0.408-0.192-0.551-0.256-0.142-0.062-0.376-0.158-0.519-0.214-0.142-0.058-0.39-0.149-0.552-0.206-0.16-0.056-0.411-0.139-0.559-0.184-0.146-0.045-0.387-0.114-0.538-0.154-0.15-0.038-0.405-0.101-0.565-0.138-0.162-0.037-0.407-0.090-0.546-0.115-0.138-0.026-0.371-0.064-0.517-0.086-0.147-0.022-0.398-0.056-0.559-0.074-0.162-0.018-0.41-0.042-0.552-0.053s-0.415-0.027-0.605-0.034c-0.19-0.008-0.456-0.013-0.592-0.011-0.134 0-0.352 0.006-0.485 0.011z"></path>
<path fill="#fff" d="M17.37 2.418c0.002 0.006 0.016 0.019 0.032 0.029s0.107 0.051 0.203 0.091c0.094 0.042 0.28 0.117 0.411 0.168 0.133 0.051 0.336 0.13 0.453 0.173 0.117 0.045 0.362 0.134 0.544 0.202s0.57 0.205 0.858 0.307c0.288 0.102 0.872 0.303 1.296 0.445s0.965 0.319 1.202 0.392c0.238 0.074 0.552 0.165 0.698 0.205 0.147 0.040 0.338 0.090 0.426 0.107 0.088 0.019 0.208 0.035 0.269 0.037 0.059 0.002 0.114-0.003 0.118-0.008 0.006-0.006 0-0.027-0.016-0.046-0.016-0.021-0.094-0.070-0.186-0.117-0.088-0.043-0.282-0.128-0.431-0.187-0.15-0.061-0.419-0.162-0.599-0.224-0.179-0.064-0.557-0.194-0.837-0.286-0.282-0.094-0.76-0.248-1.064-0.344-0.302-0.094-0.763-0.235-1.023-0.314l-0.858-0.253c-0.213-0.061-0.53-0.149-0.704-0.197-0.176-0.048-0.397-0.106-0.493-0.13-0.094-0.022-0.202-0.046-0.238-0.051-0.035-0.005-0.064-0.005-0.062 0.002zM13.292 2.568c-0.091 0.011-0.227 0.029-0.299 0.040-0.074 0.011-0.229 0.042-0.346 0.069-0.117 0.026-0.296 0.074-0.399 0.107-0.102 0.032-0.261 0.090-0.352 0.125-0.093 0.035-0.272 0.117-0.4 0.182-0.128 0.064-0.323 0.173-0.435 0.242s-0.293 0.192-0.4 0.272c-0.107 0.080-0.277 0.216-0.374 0.301s-0.287 0.264-0.418 0.398c-0.133 0.134-0.291 0.304-0.354 0.378-0.062 0.072-0.168 0.202-0.234 0.285-0.066 0.085-0.173 0.229-0.237 0.32-0.066 0.091-0.149 0.208-0.187 0.259-0.037 0.051-0.088 0.112-0.114 0.136-0.024 0.024-0.075 0.059-0.11 0.075-0.038 0.019-0.203 0.062-0.379 0.099-0.173 0.037-0.424 0.098-0.559 0.133-0.136 0.037-0.327 0.094-0.426 0.128-0.098 0.034-0.262 0.101-0.365 0.147s-0.25 0.122-0.327 0.165c-0.077 0.045-0.194 0.12-0.259 0.17s-0.176 0.146-0.246 0.216c-0.069 0.069-0.165 0.179-0.213 0.245-0.046 0.067-0.118 0.186-0.158 0.267-0.042 0.080-0.096 0.214-0.123 0.298-0.027 0.085-0.061 0.213-0.075 0.287s-0.034 0.205-0.042 0.293c-0.010 0.102-0.013 0.259-0.008 0.439 0.005 0.157 0.019 0.37 0.035 0.488 0.014 0.115 0.042 0.28 0.059 0.365 0.019 0.086 0.050 0.208 0.067 0.27 0.019 0.061 0.054 0.154 0.078 0.205s0.072 0.13 0.104 0.173c0.034 0.045 0.099 0.115 0.146 0.158s0.13 0.112 0.184 0.154c0.054 0.042 0.178 0.128 0.272 0.192 0.096 0.066 0.2 0.139 0.232 0.166 0.050 0.040 0.075 0.082 0.16 0.261 0.056 0.117 0.144 0.275 0.195 0.352 0.053 0.078 0.157 0.205 0.238 0.291 0.080 0.082 0.187 0.181 0.238 0.219s0.155 0.107 0.232 0.155c0.077 0.046 0.178 0.122 0.224 0.165s0.139 0.149 0.205 0.232c0.066 0.085 0.144 0.179 0.174 0.211s0.080 0.075 0.11 0.096c0.032 0.021 0.094 0.048 0.141 0.061 0.054 0.013 0.102 0.018 0.142 0.011 0.032-0.005 0.093-0.024 0.133-0.042 0.059-0.027 0.118-0.078 0.325-0.29 0.24-0.243 0.259-0.261 0.367-0.31 0.062-0.030 0.158-0.064 0.216-0.075 0.056-0.011 0.138-0.021 0.179-0.021s0.090 0.003 0.106 0.006c0.029 0.006 0.026 0.013-0.045 0.090-0.042 0.046-0.107 0.122-0.144 0.17-0.038 0.048-0.099 0.134-0.134 0.194-0.037 0.058-0.074 0.136-0.083 0.173-0.014 0.050-0.014 0.074-0.003 0.096s0.027 0.029 0.061 0.029c0.026 0 0.114-0.014 0.197-0.034 0.094-0.022 0.192-0.037 0.262-0.037 0.062-0.002 0.2 0.013 0.306 0.029 0.107 0.018 0.254 0.032 0.333 0.032 0.077 0.002 0.174-0.006 0.219-0.014 0.043-0.010 0.118-0.029 0.165-0.045 0.048-0.014 0.138-0.053 0.2-0.083 0.062-0.032 0.157-0.088 0.21-0.125s0.139-0.109 0.19-0.158c0.080-0.075 0.091-0.090 0.070-0.098-0.014-0.005-0.064-0.014-0.112-0.024-0.050-0.008-0.139-0.042-0.213-0.077-0.102-0.051-0.146-0.082-0.234-0.17-0.083-0.083-0.118-0.13-0.162-0.219-0.030-0.062-0.066-0.149-0.077-0.192-0.011-0.045-0.021-0.128-0.021-0.187 0-0.058 0.006-0.136 0.014-0.173 0.010-0.037 0.032-0.099 0.051-0.139s0.072-0.109 0.115-0.154c0.059-0.061 0.101-0.088 0.16-0.11 0.043-0.016 0.115-0.034 0.16-0.037 0.043-0.005 0.112-0.002 0.152 0.006s0.109 0.034 0.154 0.054c0.043 0.022 0.114 0.069 0.155 0.104 0.042 0.034 0.102 0.099 0.138 0.142 0.034 0.045 0.088 0.134 0.12 0.2s0.074 0.179 0.093 0.253c0.030 0.114 0.035 0.162 0.037 0.338 0.002 0.155-0.005 0.235-0.022 0.32-0.014 0.062-0.040 0.16-0.058 0.219-0.019 0.058-0.061 0.163-0.093 0.232-0.034 0.070-0.091 0.174-0.131 0.232-0.038 0.059-0.118 0.162-0.176 0.227l-0.107 0.118c0.040 0.088 0.077 0.139 0.107 0.171 0.030 0.030 0.090 0.075 0.13 0.098 0.040 0.024 0.122 0.056 0.179 0.070 0.059 0.014 0.181 0.037 0.272 0.046 0.091 0.011 0.214 0.027 0.274 0.035 0.058 0.006 0.15 0.026 0.205 0.038 0.056 0.014 0.146 0.043 0.2 0.067 0.054 0.022 0.139 0.062 0.186 0.088 0.048 0.027 0.131 0.078 0.187 0.115 0.054 0.037 0.138 0.096 0.186 0.131l0.086 0.067c0.267-0.045 0.399-0.062 0.466-0.070 0.066-0.006 0.21-0.013 0.322-0.013h0.203c0-0.058-0.010-0.126-0.021-0.194-0.011-0.066-0.042-0.179-0.066-0.251-0.024-0.074-0.066-0.179-0.094-0.234-0.027-0.054-0.080-0.147-0.118-0.206-0.038-0.058-0.109-0.152-0.158-0.208-0.048-0.058-0.102-0.112-0.122-0.123-0.030-0.018-0.040-0.018-0.106 0.006-0.040 0.014-0.12 0.050-0.176 0.078-0.058 0.029-0.122 0.066-0.144 0.080-0.021 0.016-0.050 0.027-0.062 0.027s-0.066-0.027-0.117-0.062c-0.050-0.035-0.117-0.093-0.147-0.13s-0.072-0.102-0.093-0.147c-0.021-0.043-0.045-0.118-0.053-0.165-0.013-0.070-0.013-0.104 0.002-0.173 0.010-0.048 0.035-0.123 0.056-0.166 0.022-0.045 0.058-0.107 0.080-0.139 0.022-0.034 0.080-0.101 0.128-0.152 0.048-0.050 0.117-0.114 0.154-0.141s0.096-0.064 0.13-0.085l0.064-0.035c-0.043-0.061-0.090-0.114-0.14-0.163l-0-0c-0.043-0.043-0.133-0.12-0.198-0.168-0.066-0.050-0.162-0.117-0.213-0.149-0.051-0.034-0.139-0.085-0.195-0.115-0.058-0.030-0.102-0.059-0.101-0.062 0.002-0.005 0.064-0.002 0.136 0.006 0.074 0.006 0.211 0.029 0.306 0.046 0.096 0.019 0.237 0.053 0.314 0.075s0.211 0.070 0.298 0.106c0.088 0.037 0.222 0.102 0.299 0.146s0.187 0.115 0.246 0.16c0.059 0.043 0.162 0.134 0.23 0.202 0.067 0.067 0.16 0.174 0.203 0.237 0.045 0.061 0.109 0.173 0.144 0.245 0.035 0.074 0.077 0.178 0.094 0.234 0.016 0.054 0.037 0.147 0.048 0.205 0.010 0.059 0.018 0.19 0.018 0.293s-0.006 0.246-0.013 0.319c-0.008 0.074-0.027 0.202-0.042 0.287-0.014 0.083-0.045 0.224-0.067 0.312l-0.042 0.16c0.050 0.090 0.096 0.147 0.136 0.186s0.109 0.086 0.154 0.107c0.070 0.032 0.099 0.037 0.245 0.042 0.138 0.005 0.202 0 0.36-0.029 0.106-0.018 0.24-0.043 0.299-0.054s0.218-0.024 0.358-0.027c0.2-0.006 0.285-0.003 0.405 0.014 0.085 0.013 0.23 0.043 0.326 0.067l0.173 0.045c0.165-0.082 0.278-0.128 0.358-0.157s0.221-0.067 0.312-0.086c0.091-0.019 0.184-0.035 0.206-0.037 0.034-0.003 0.038-0.010 0.035-0.037-0.002-0.019-0.016-0.074-0.032-0.12-0.014-0.048-0.054-0.141-0.088-0.206s-0.101-0.17-0.149-0.232c-0.050-0.062-0.13-0.154-0.181-0.202-0.050-0.048-0.142-0.125-0.203-0.171-0.062-0.045-0.131-0.091-0.154-0.102-0.037-0.018-0.046-0.016-0.126 0.016-0.046 0.019-0.125 0.061-0.173 0.093-0.046 0.032-0.118 0.093-0.158 0.136-0.053 0.058-0.091 0.086-0.138 0.101-0.034 0.013-0.115 0.032-0.179 0.043s-0.16 0.019-0.216 0.019c-0.054 0-0.138-0.006-0.186-0.014-0.048-0.006-0.096-0.016-0.109-0.019s-0.024-0.014-0.024-0.026 0.018-0.067 0.042-0.123c0.022-0.056 0.061-0.139 0.088-0.182 0.026-0.045 0.074-0.114 0.106-0.154s0.104-0.114 0.162-0.162c0.056-0.050 0.15-0.122 0.21-0.16 0.061-0.038 0.11-0.075 0.11-0.080s-0.019-0.016-0.042-0.022c-0.024-0.008-0.090-0.043-0.144-0.078-0.071-0.049-0.133-0.103-0.188-0.163l-0.001-0.001c-0.050-0.054-0.091-0.104-0.091-0.112 0.002-0.008 0.101-0.011 0.28-0.010 0.154 0.002 0.288-0.002 0.299-0.006 0.014-0.008 0-0.038-0.067-0.142-0.048-0.074-0.134-0.229-0.192-0.346s-0.125-0.27-0.15-0.339c-0.026-0.069-0.062-0.181-0.082-0.246s-0.045-0.178-0.058-0.248c-0.013-0.070-0.019-0.131-0.016-0.136s0.075-0.029 0.16-0.053c0.083-0.026 0.219-0.054 0.302-0.067 0.082-0.011 0.234-0.021 0.339-0.021 0.104 0 0.243 0.010 0.309 0.019s0.166 0.030 0.226 0.045c0.207 0.059 0.381 0.125 0.549 0.202l-0.024-0.010c0.054 0.026 0.219 0.102 0.365 0.173 0.147 0.070 0.326 0.149 0.398 0.173 0.074 0.026 0.181 0.054 0.24 0.062 0.066 0.011 0.142 0.013 0.2 0.008 0.051-0.005 0.134-0.018 0.186-0.029s0.224-0.058 0.386-0.104c0.16-0.048 0.358-0.101 0.439-0.118s0.194-0.040 0.253-0.050c0.058-0.010 0.184-0.016 0.278-0.016 0.11 0 0.211 0.010 0.278 0.024 0.059 0.011 0.162 0.040 0.227 0.061s0.186 0.067 0.266 0.102c0.080 0.035 0.211 0.102 0.291 0.149 0.082 0.046 0.206 0.123 0.28 0.173 0.192 0.132 0.359 0.262 0.518 0.402l-0.006-0.005 0.099 0.091c0.536 0.013 0.727 0.022 0.771 0.029 0.043 0.006 0.11 0.018 0.149 0.024l0.070 0.011c0-0.058-0.018-0.141-0.038-0.222-0.022-0.083-0.064-0.213-0.094-0.29s-0.083-0.19-0.117-0.253c-0.032-0.062-0.091-0.157-0.128-0.211s-0.115-0.149-0.174-0.211c-0.059-0.061-0.115-0.114-0.126-0.117s-0.074 0.010-0.139 0.029c-0.066 0.018-0.171 0.058-0.232 0.086-0.062 0.029-0.118 0.048-0.125 0.043-0.005-0.006-0.013-0.050-0.018-0.098-0.005-0.064-0.002-0.106 0.018-0.16l0.024-0.075c-0.267-0.136-0.432-0.232-0.538-0.301l-0.194-0.126c-0.144 0.018-0.32 0.030-0.485 0.038-0.235 0.013-0.373 0.013-0.651 0-0.194-0.008-0.363-0.021-0.378-0.026-0.016-0.006-0.021-0.013-0.014-0.018 0.008-0.003 0.098-0.034 0.2-0.067s0.285-0.085 0.405-0.114c0.122-0.029 0.291-0.069 0.379-0.086 0.088-0.019 0.258-0.048 0.379-0.067 0.12-0.019 0.296-0.043 0.392-0.056 0.101-0.013 0.328-0.024 0.551-0.029 0.251-0.005 0.424-0.002 0.512 0.010 0.115 0.013 0.147 0.022 0.232 0.070 0.056 0.029 0.154 0.090 0.221 0.134 0.066 0.043 0.163 0.114 0.219 0.155 0.054 0.042 0.158 0.128 0.23 0.194 0.074 0.066 0.186 0.178 0.251 0.251s0.155 0.181 0.2 0.238c0.043 0.059 0.080 0.107 0.080 0.109 0.002 0 0.101 0.011 0.221 0.024 0.122 0.011 0.322 0.042 0.445 0.067 0.125 0.026 0.272 0.059 0.33 0.077 0.077 0.022 0.104 0.026 0.109 0.013 0.005-0.010 0.008-0.093 0.008-0.186-0.002-0.093-0.010-0.232-0.021-0.309s-0.037-0.206-0.059-0.287c-0.021-0.080-0.059-0.197-0.086-0.259-0.026-0.062-0.070-0.152-0.099-0.198-0.029-0.048-0.069-0.107-0.090-0.131l-0.037-0.045c-0.237 0.032-0.351 0.058-0.407 0.075-0.054 0.018-0.102 0.030-0.106 0.026s-0.006-0.056-0.006-0.117c0.002-0.082 0.008-0.123 0.030-0.171l0.029-0.062c-0.107-0.046-0.198-0.088-0.272-0.125-0.074-0.035-0.174-0.091-0.226-0.125-0.051-0.032-0.144-0.099-0.206-0.147s-0.17-0.144-0.24-0.211l-0.126-0.125c-0.154 0.026-0.28 0.034-0.378 0.034-0.122-0.002-0.208-0.008-0.269-0.024-0.050-0.011-0.118-0.035-0.154-0.053s-0.083-0.050-0.109-0.070c-0.028-0.026-0.052-0.056-0.070-0.089l-0.001-0.002c-0.018-0.035-0.026-0.080-0.026-0.133 0-0.043 0.018-0.157 0.040-0.253 0.022-0.094 0.050-0.229 0.061-0.299 0.013-0.069 0.026-0.21 0.029-0.312 0.005-0.109 0.002-0.258-0.006-0.359-0.010-0.094-0.029-0.245-0.043-0.333-0.014-0.086-0.050-0.251-0.078-0.365s-0.053-0.211-0.053-0.216c0-0.005 0.022-0.006 0.050-0.002 0.027 0.003 0.125 0.019 0.216 0.034 0.091 0.016 0.259 0.051 0.373 0.078 0.114 0.029 0.275 0.075 0.358 0.104 0.085 0.029 0.186 0.064 0.226 0.080s0.133 0.058 0.206 0.091c0.074 0.034 0.178 0.088 0.232 0.12 0.056 0.034 0.133 0.085 0.171 0.115 0.038 0.029 0.088 0.080 0.109 0.114 0.022 0.032 0.040 0.075 0.040 0.093s-0.011 0.051-0.024 0.074c-0.014 0.021-0.070 0.082-0.128 0.133-0.066 0.059-0.114 0.117-0.134 0.158-0.019 0.037-0.034 0.080-0.034 0.098 0 0.016 0.010 0.046 0.019 0.066 0.010 0.021 0.043 0.059 0.074 0.086 0.029 0.027 0.088 0.067 0.131 0.088 0.042 0.021 0.134 0.058 0.205 0.080 0.072 0.022 0.197 0.053 0.28 0.069 0.082 0.014 0.235 0.032 0.343 0.038 0.115 0.008 0.258 0.008 0.358 0.002 0.091-0.006 0.214-0.022 0.272-0.035 0.059-0.011 0.146-0.035 0.192-0.054 0.048-0.018 0.112-0.046 0.144-0.064 0.030-0.019 0.054-0.035 0.053-0.040-0.002-0.003-0.069-0.014-0.149-0.026-0.082-0.010-0.219-0.035-0.306-0.054-0.088-0.018-0.214-0.053-0.28-0.075s-0.154-0.058-0.195-0.078c-0.043-0.021-0.091-0.053-0.11-0.072-0.020-0.019-0.033-0.047-0.034-0.077v-0c0-0.026 0.013-0.059 0.030-0.082 0.016-0.021 0.083-0.074 0.149-0.118 0.067-0.043 0.138-0.094 0.158-0.114s0.046-0.051 0.056-0.072c0.011-0.019 0.019-0.054 0.019-0.075 0-0.022-0.006-0.056-0.014-0.077s-0.030-0.054-0.050-0.075c-0.019-0.021-0.072-0.062-0.115-0.091-0.045-0.030-0.146-0.086-0.227-0.123-0.080-0.038-0.208-0.094-0.285-0.125-0.077-0.032-0.187-0.074-0.246-0.096-0.058-0.022-0.533-0.189-1.056-0.371-0.523-0.184-0.992-0.347-1.043-0.367-0.051-0.018-0.336-0.118-0.632-0.224-0.296-0.104-0.789-0.282-1.096-0.392s-0.839-0.303-1.183-0.427c-0.344-0.125-0.714-0.258-0.824-0.298-0.109-0.038-0.49-0.173-0.843-0.299-0.355-0.125-0.935-0.33-1.29-0.453s-0.835-0.288-1.071-0.365c-0.234-0.077-0.557-0.178-0.717-0.226-0.162-0.046-0.383-0.106-0.491-0.133-0.11-0.026-0.278-0.062-0.373-0.080s-0.248-0.042-0.339-0.053c-0.109-0.014-0.306-0.022-0.578-0.026-0.296-0.005-0.459 0-0.578 0.013z"></path>
<path fill="#003087" d="M7.13 6.816c-0.066 0.013-0.173 0.043-0.24 0.067-0.066 0.022-0.155 0.058-0.198 0.080-0.045 0.021-0.136 0.074-0.206 0.118-0.077 0.051-0.179 0.134-0.262 0.218-0.074 0.074-0.133 0.139-0.13 0.144 0.005 0.006 0.021 0.005 0.037-0.002s0.107-0.029 0.203-0.048c0.146-0.032 0.205-0.037 0.392-0.038 0.174 0 0.237 0.005 0.306 0.024 0.046 0.013 0.109 0.035 0.136 0.050 0.027 0.013 0.074 0.046 0.104 0.075 0.030 0.027 0.067 0.074 0.082 0.102s0.030 0.086 0.034 0.126c0.005 0.042 0 0.101-0.010 0.139-0.010 0.037-0.046 0.131-0.082 0.21-0.037 0.080-0.072 0.182-0.080 0.232-0.013 0.077-0.013 0.102 0.006 0.166 0.014 0.053 0.038 0.093 0.072 0.126 0.027 0.029 0.085 0.066 0.13 0.083 0.066 0.027 0.101 0.032 0.205 0.030 0.070 0 0.166-0.011 0.213-0.024 0.048-0.011 0.128-0.042 0.179-0.066 0.051-0.026 0.133-0.075 0.181-0.112 0.046-0.035 0.114-0.101 0.146-0.144 0.034-0.042 0.077-0.104 0.096-0.136 0.019-0.034 0.054-0.117 0.078-0.187 0.040-0.118 0.043-0.138 0.043-0.306-0.002-0.157-0.005-0.192-0.035-0.285-0.019-0.059-0.058-0.142-0.083-0.187-0.027-0.043-0.070-0.106-0.098-0.138-0.026-0.034-0.082-0.086-0.122-0.118-0.040-0.030-0.12-0.080-0.179-0.109-0.058-0.029-0.154-0.066-0.213-0.082-0.088-0.024-0.149-0.030-0.346-0.034s-0.259 0-0.359 0.022z"></path>
<path fill="#fff" d="M28.352 9.61c-0.157 0.184-0.448 0.511-0.645 0.727s-0.551 0.594-0.786 0.839c-0.234 0.245-0.661 0.679-0.949 0.963-0.29 0.283-0.743 0.723-1.010 0.976-0.257 0.243-0.56 0.525-0.865 0.806l-0.066 0.060c-0.449 0.41-0.983 0.886-1.522 1.356l-0.118 0.101c-0.219 0.189-0.597 0.512-0.837 0.717-0.242 0.205-0.627 0.528-0.858 0.717-0.23 0.19-0.592 0.487-0.805 0.659-0.211 0.171-0.61 0.491-0.883 0.711s-0.683 0.543-0.911 0.719c-0.226 0.176-0.583 0.45-0.791 0.61-0.208 0.162-0.589 0.45-0.843 0.642-0.285 0.213-0.471 0.344-0.479 0.338s-0.202-0.154-0.432-0.328c-0.23-0.174-0.584-0.443-0.784-0.597-0.556-0.419-0.82-0.623-1.084-0.829l0.272 0.205c-0.245-0.19-0.667-0.523-0.938-0.738-0.27-0.216-0.664-0.533-0.877-0.704-0.211-0.173-0.576-0.472-0.81-0.666-0.746-0.617-1.324-1.108-1.896-1.606l0.121 0.103c-0.23-0.2-0.584-0.511-0.784-0.69-0.202-0.179-0.563-0.506-0.805-0.725s-0.632-0.583-0.871-0.805c-0.237-0.222-0.733-0.704-1.101-1.071-0.368-0.365-0.835-0.837-1.037-1.050-0.203-0.211-0.515-0.547-0.695-0.744-0.172-0.19-0.37-0.414-0.566-0.64l-0.041-0.048c-0.155-0.181-0.286-0.328-0.293-0.328-0.005 0-0.002 0.053 0.008 0.115 0.010 0.064 0.034 0.186 0.056 0.27 0.021 0.083 0.062 0.224 0.093 0.312s0.085 0.23 0.122 0.319c0.037 0.088 0.109 0.243 0.158 0.346s0.139 0.27 0.2 0.373c0.059 0.101 0.162 0.266 0.229 0.365 0.066 0.099 0.165 0.238 0.219 0.312 0.056 0.074 0.157 0.202 0.227 0.285 0.070 0.085 0.298 0.336 0.507 0.559 0.21 0.224 0.682 0.706 1.050 1.071 0.368 0.367 0.853 0.835 1.075 1.043 0.222 0.21 0.531 0.493 0.685 0.632s0.45 0.407 0.658 0.592c0.208 0.186 0.531 0.469 0.717 0.631 0.232 0.204 0.641 0.554 1.051 0.902l0.205 0.169c0.162 0.136 0.479 0.398 0.706 0.584 0.226 0.187 0.669 0.546 0.983 0.799 0.315 0.253 0.803 0.642 1.085 0.864s0.789 0.616 1.125 0.875c0.338 0.259 0.615 0.475 0.615 0.479 0.002 0.003-0.251 0.19-0.56 0.413-0.31 0.224-0.749 0.538-0.975 0.698-0.227 0.158-0.415 0.29-0.416 0.291-0.002 0-0.003 0.096-0.003 0.213s0.006 0.258 0.016 0.314c0.008 0.054 0.027 0.123 0.042 0.152s0.053 0.093 0.085 0.142c0.032 0.050 0.091 0.126 0.134 0.171l0.075 0.082c0.947-0.696 1.495-1.103 1.828-1.352s0.613-0.458 0.623-0.463c0.010-0.006 0.296 0.2 0.744 0.533 0.4 0.299 0.954 0.709 1.232 0.914l0.506 0.37c0.11-0.122 0.165-0.19 0.192-0.23s0.066-0.106 0.086-0.147c0.029-0.056 0.040-0.109 0.056-0.238 0.010-0.091 0.016-0.232 0.014-0.311l-0.003-0.146c-0.743-0.525-1.17-0.831-1.429-1.016-0.259-0.187-0.485-0.351-0.503-0.365l-0.029-0.024c0.983-0.755 1.455-1.122 1.68-1.301 0.227-0.179 0.712-0.565 1.077-0.858 0.365-0.291 0.819-0.659 1.010-0.816 0.19-0.158 0.507-0.421 0.704-0.586 0.198-0.165 0.656-0.554 1.018-0.864s0.819-0.709 1.016-0.885c0.198-0.176 0.506-0.455 0.685-0.618 0.179-0.165 0.458-0.421 0.618-0.571s0.48-0.456 0.711-0.68c0.23-0.224 0.591-0.579 0.799-0.791s0.511-0.525 0.671-0.696c0.162-0.173 0.334-0.36 0.386-0.419 0.051-0.058 0.133-0.154 0.181-0.213 0.048-0.058 0.122-0.154 0.166-0.211 0.045-0.059 0.123-0.17 0.174-0.246s0.152-0.235 0.222-0.352c0.070-0.117 0.171-0.303 0.226-0.413 0.054-0.109 0.131-0.28 0.171-0.378 0.040-0.099 0.096-0.25 0.126-0.333 0.029-0.085 0.070-0.234 0.093-0.333 0.022-0.098 0.045-0.216 0.050-0.262 0.005-0.045 0.006-0.082 0.003-0.082-0.002 0-0.133 0.15-0.29 0.335z"></path>
<path fill="#003087" d="M8.166 9.644c-0.037 0.013-0.086 0.038-0.112 0.058-0.026 0.018-0.061 0.061-0.080 0.093s-0.050 0.098-0.069 0.146c-0.018 0.046-0.040 0.118-0.048 0.158s-0.034 0.19-0.056 0.333c-0.024 0.142-0.054 0.298-0.069 0.346s-0.038 0.11-0.054 0.139c-0.014 0.029-0.045 0.077-0.067 0.106-0.022 0.027-0.059 0.059-0.082 0.067l-0.040 0.018c0.072 0.035 0.126 0.048 0.166 0.053 0.040 0.003 0.101-0.002 0.133-0.011 0.043-0.011 0.080-0.037 0.134-0.091 0.051-0.053 0.083-0.099 0.107-0.16 0.019-0.048 0.043-0.125 0.053-0.17 0.010-0.046 0.021-0.085 0.024-0.085 0.005 0 0.027 0.021 0.053 0.045 0.024 0.024 0.051 0.058 0.061 0.077 0.010 0.018 0.021 0.053 0.026 0.078 0.005 0.029 0 0.075-0.013 0.117-0.013 0.045-0.037 0.088-0.069 0.12-0.027 0.027-0.066 0.061-0.083 0.074l-0.034 0.024c0.093-0.008 0.152-0.026 0.194-0.045 0.040-0.019 0.098-0.059 0.128-0.090 0.032-0.029 0.077-0.091 0.099-0.136 0.034-0.067 0.043-0.104 0.048-0.189 0.005-0.080 0-0.125-0.018-0.181-0.013-0.040-0.037-0.094-0.054-0.122-0.018-0.029-0.054-0.075-0.085-0.104-0.029-0.029-0.083-0.066-0.12-0.083-0.046-0.021-0.066-0.037-0.066-0.056 0-0.014 0.011-0.075 0.027-0.133 0.014-0.059 0.048-0.146 0.075-0.194 0.026-0.046 0.067-0.11 0.091-0.142 0.032-0.040 0.040-0.059 0.029-0.066-0.010-0.005-0.050-0.010-0.090-0.013-0.048-0.003-0.096 0.003-0.141 0.019z"></path>
<path fill="#c8102e" d="M8.076 10.747c-0.013 0.058-0.040 0.139-0.062 0.182-0.021 0.045-0.053 0.096-0.069 0.114-0.018 0.018-0.054 0.051-0.083 0.072-0.048 0.035-0.051 0.040-0.027 0.048 0.014 0.005 0.056 0.014 0.093 0.019 0.053 0.008 0.078 0.005 0.12-0.014 0.029-0.014 0.078-0.050 0.11-0.082 0.038-0.038 0.062-0.078 0.075-0.126 0.013-0.042 0.018-0.088 0.013-0.117-0.005-0.026-0.016-0.058-0.022-0.072-0.008-0.014-0.035-0.050-0.062-0.077-0.026-0.027-0.051-0.050-0.054-0.050-0.005 0-0.019 0.046-0.030 0.102z"></path>
<path fill="#fff" d="M22.344 14.202c-0.070 0.018-0.24 0.062-0.379 0.099s-0.411 0.115-0.605 0.173c-0.194 0.059-0.591 0.181-0.883 0.272-0.293 0.093-0.871 0.28-1.284 0.416-0.413 0.138-1.019 0.346-1.349 0.463-0.328 0.118-0.727 0.261-0.883 0.32-0.157 0.058-0.426 0.163-0.599 0.232-0.171 0.069-0.402 0.166-0.512 0.216-0.109 0.048-0.25 0.117-0.312 0.15s-0.141 0.082-0.174 0.107c-0.035 0.029-0.064 0.061-0.067 0.080-0.003 0.021 0.005 0.034 0.026 0.042 0.018 0.008 0.059 0.013 0.093 0.013 0.035 0 0.12-0.010 0.19-0.021 0.069-0.013 0.219-0.045 0.331-0.074 0.114-0.029 0.336-0.091 0.493-0.138 0.157-0.048 0.525-0.166 0.818-0.264 0.291-0.099 0.77-0.266 1.063-0.371 0.293-0.107 0.714-0.262 0.938-0.346 0.222-0.085 0.573-0.219 0.776-0.299 0.205-0.080 0.552-0.218 0.771-0.306s0.511-0.205 0.645-0.262c0.136-0.056 0.36-0.152 0.498-0.213 0.139-0.061 0.328-0.146 0.419-0.19 0.091-0.043 0.181-0.091 0.2-0.107l0.032-0.027c-0.091 0.002-0.176 0.016-0.245 0.035z"></path>
<path fill="#ffb81c" d="M12.972 21.775c-0.069-0.003-0.149 0.002-0.176 0.008-0.027 0.008-0.086 0.032-0.133 0.054-0.050 0.026-0.117 0.077-0.17 0.13-0.054 0.056-0.102 0.12-0.128 0.174-0.024 0.048-0.053 0.125-0.066 0.173-0.019 0.069-0.024 0.131-0.024 0.299 0.002 0.146 0.011 0.27 0.030 0.398 0.016 0.102 0.054 0.301 0.083 0.439 0.029 0.139 0.082 0.397 0.118 0.571 0.035 0.176 0.078 0.413 0.094 0.527 0.024 0.163 0.030 0.267 0.030 0.504 0 0.264-0.003 0.315-0.030 0.439-0.016 0.077-0.051 0.203-0.077 0.28s-0.082 0.211-0.123 0.299c-0.042 0.086-0.117 0.219-0.166 0.291-0.050 0.074-0.125 0.174-0.168 0.226-0.042 0.051-0.125 0.142-0.187 0.2-0.061 0.059-0.147 0.136-0.19 0.173-0.045 0.037-0.139 0.107-0.213 0.155s-0.19 0.117-0.259 0.154c-0.069 0.037-0.195 0.094-0.278 0.128-0.085 0.034-0.213 0.075-0.287 0.093-0.074 0.019-0.192 0.045-0.266 0.056-0.091 0.016-0.21 0.024-0.379 0.024-0.197 0-0.275-0.005-0.399-0.029-0.085-0.016-0.206-0.043-0.272-0.062-0.066-0.018-0.203-0.075-0.306-0.126s-0.243-0.133-0.312-0.182c-0.070-0.050-0.211-0.173-0.314-0.277-0.102-0.101-0.266-0.278-0.362-0.392-0.098-0.112-0.205-0.229-0.238-0.258-0.035-0.030-0.096-0.074-0.138-0.098-0.040-0.024-0.117-0.053-0.173-0.064-0.085-0.019-0.11-0.021-0.179-0.006-0.043 0.010-0.112 0.032-0.152 0.053-0.040 0.019-0.102 0.062-0.139 0.096s-0.086 0.096-0.109 0.139c-0.024 0.043-0.053 0.115-0.064 0.158s-0.021 0.118-0.021 0.166c0 0.046 0.006 0.114 0.014 0.146 0.008 0.034 0.030 0.093 0.050 0.133 0.019 0.038 0.066 0.104 0.102 0.144 0.045 0.050 0.098 0.086 0.165 0.12 0.090 0.043 0.112 0.050 0.226 0.053 0.104 0.003 0.142 0 0.202-0.022 0.040-0.014 0.099-0.048 0.133-0.072 0.032-0.024 0.082-0.075 0.109-0.114l0.050-0.069c0.138 0.17 0.246 0.288 0.331 0.373s0.222 0.205 0.307 0.267c0.083 0.062 0.189 0.134 0.232 0.162 0.045 0.026 0.142 0.077 0.219 0.114s0.211 0.091 0.299 0.12c0.088 0.029 0.222 0.066 0.299 0.082l-0.018-0.003c0.091 0.018 0.184 0.033 0.29 0.043 0.074 0.006 0.197 0.011 0.274 0.013 0.077 0 0.219-0.010 0.319-0.019 0.099-0.011 0.227-0.029 0.287-0.042 0.058-0.011 0.174-0.042 0.258-0.066 0.085-0.024 0.21-0.066 0.28-0.093 0.069-0.027 0.206-0.091 0.306-0.141s0.242-0.131 0.319-0.182c0.077-0.050 0.2-0.139 0.274-0.197 0.072-0.058 0.176-0.147 0.23-0.198s0.154-0.158 0.221-0.238c0.067-0.080 0.158-0.2 0.202-0.266s0.101-0.155 0.128-0.2c0.026-0.043 0.074-0.136 0.107-0.206 0.032-0.069 0.086-0.203 0.118-0.298 0.034-0.096 0.072-0.23 0.086-0.299 0.014-0.070 0.035-0.184 0.043-0.253 0.011-0.086 0.014-0.219 0.010-0.419-0.005-0.189-0.018-0.357-0.037-0.479-0.014-0.102-0.045-0.275-0.066-0.386-0.022-0.109-0.091-0.415-0.154-0.677-0.062-0.264-0.126-0.551-0.142-0.639-0.021-0.118-0.029-0.218-0.029-0.386-0.002-0.216 0-0.229 0.032-0.299 0.019-0.040 0.053-0.091 0.074-0.112 0.027-0.027 0.077-0.054 0.158-0.082 0.069-0.022 0.122-0.048 0.123-0.059s-0.008-0.038-0.022-0.062c-0.016-0.024-0.053-0.056-0.083-0.072-0.045-0.022-0.085-0.030-0.184-0.032zM19.041 21.77c-0.083 0-0.122 0.006-0.173 0.030-0.037 0.018-0.080 0.048-0.098 0.070-0.016 0.021-0.029 0.050-0.026 0.064 0.002 0.019 0.032 0.037 0.117 0.066 0.086 0.032 0.126 0.054 0.17 0.098 0.038 0.040 0.062 0.080 0.078 0.133 0.019 0.059 0.024 0.12 0.022 0.269-0.002 0.133-0.011 0.246-0.030 0.36-0.016 0.091-0.038 0.205-0.050 0.253-0.011 0.046-0.058 0.245-0.104 0.439s-0.106 0.453-0.131 0.578c-0.026 0.125-0.059 0.319-0.075 0.432-0.016 0.115-0.032 0.32-0.035 0.466-0.006 0.163-0.003 0.317 0.008 0.418 0.008 0.088 0.034 0.232 0.054 0.319 0.021 0.088 0.062 0.229 0.091 0.314 0.030 0.083 0.096 0.23 0.146 0.325 0.050 0.096 0.117 0.214 0.15 0.266s0.114 0.162 0.178 0.245c0.066 0.083 0.194 0.224 0.285 0.311 0.091 0.088 0.235 0.211 0.319 0.275 0.085 0.062 0.205 0.146 0.267 0.182 0.061 0.038 0.205 0.114 0.319 0.168 0.114 0.056 0.259 0.118 0.325 0.142 0.067 0.022 0.189 0.058 0.274 0.080 0.083 0.021 0.21 0.048 0.278 0.059s0.213 0.027 0.319 0.034c0.131 0.010 0.25 0.010 0.366 0 0.094-0.008 0.245-0.027 0.331-0.043 0.088-0.014 0.222-0.048 0.299-0.074s0.197-0.070 0.266-0.101c0.070-0.030 0.178-0.086 0.24-0.122 0.062-0.037 0.17-0.109 0.238-0.16 0.070-0.051 0.17-0.13 0.221-0.174 0.050-0.043 0.155-0.15 0.232-0.238s0.157-0.179 0.176-0.205c0.029-0.037 0.040-0.042 0.046-0.027 0.005 0.011 0.027 0.043 0.050 0.072s0.070 0.074 0.107 0.098c0.035 0.026 0.098 0.056 0.136 0.070 0.045 0.018 0.102 0.026 0.162 0.026s0.125-0.010 0.176-0.027c0.046-0.014 0.114-0.046 0.149-0.069 0.037-0.024 0.088-0.070 0.115-0.102 0.027-0.034 0.064-0.090 0.082-0.126 0.019-0.037 0.040-0.098 0.050-0.136 0.008-0.038 0.014-0.104 0.014-0.146 0-0.043-0.010-0.112-0.021-0.154-0.010-0.042-0.035-0.107-0.054-0.146s-0.064-0.101-0.098-0.136c-0.035-0.037-0.093-0.083-0.128-0.102s-0.101-0.046-0.144-0.059l0.003 0.001c-0.042-0.012-0.086-0.018-0.132-0.018-0.077 0-0.149 0.018-0.21 0.048-0.048 0.022-0.128 0.074-0.179 0.114-0.056 0.045-0.165 0.16-0.269 0.285-0.096 0.115-0.227 0.264-0.291 0.33-0.066 0.066-0.17 0.163-0.23 0.214-0.062 0.053-0.155 0.123-0.206 0.157s-0.15 0.091-0.219 0.126l0.012-0.006c-0.154 0.079-0.318 0.14-0.505 0.183-0.054 0.013-0.152 0.027-0.219 0.035l0.013-0.001c-0.1 0.010-0.202 0.015-0.305 0.015s-0.204-0.005-0.292-0.014c-0.066-0.008-0.165-0.022-0.219-0.034l-0.020-0.004c-0.167-0.038-0.329-0.090-0.465-0.148-0.074-0.030-0.178-0.080-0.234-0.109l-0.023-0.013c-0.077-0.045-0.153-0.092-0.209-0.13-0.074-0.048-0.184-0.13-0.246-0.181-0.061-0.053-0.168-0.154-0.238-0.227-0.069-0.072-0.155-0.173-0.194-0.224-0.037-0.051-0.098-0.141-0.134-0.2-0.037-0.058-0.088-0.147-0.114-0.198s-0.069-0.15-0.094-0.219c-0.026-0.070-0.062-0.186-0.080-0.259s-0.040-0.176-0.048-0.229c-0.008-0.054-0.014-0.206-0.014-0.339 0-0.171 0.008-0.304 0.029-0.45 0.014-0.112 0.046-0.307 0.072-0.431 0.024-0.125 0.077-0.379 0.118-0.565 0.040-0.187 0.088-0.435 0.106-0.552s0.035-0.282 0.040-0.366c0.006-0.11 0.003-0.184-0.011-0.269-0.011-0.064-0.034-0.147-0.050-0.186-0.014-0.038-0.048-0.101-0.072-0.139-0.026-0.038-0.074-0.098-0.109-0.131s-0.093-0.078-0.13-0.099c-0.037-0.019-0.099-0.046-0.139-0.058-0.040-0.013-0.12-0.021-0.179-0.021zM12.036 23.293c-0.002-0.002-0.011 0-0.021 0.003-0.011 0.005-0.285 0.184-0.611 0.402-0.325 0.218-0.776 0.515-1.003 0.664l0.428-0.267c-0.605 0.402-1.214 0.798-2.296 1.467-0.288 0.182-0.544 0.346-0.568 0.363s-0.040 0.038-0.037 0.045c0.005 0.008 0.027 0.010 0.050 0.006 0.024-0.005 0.16-0.069 0.302-0.142s0.379-0.2 0.525-0.283c0.147-0.082 0.381-0.218 0.519-0.301 0.139-0.083 0.363-0.222 0.499-0.309 0.134-0.086 0.389-0.253 0.565-0.37 0.174-0.117 0.463-0.315 0.639-0.44 0.174-0.125 0.402-0.288 0.504-0.365s0.258-0.2 0.344-0.274c0.101-0.086 0.158-0.146 0.162-0.165 0.002-0.016 0.003-0.032 0-0.035zM19.958 23.285c-0.003 0-0.006 0.006-0.006 0.014 0 0.006 0.006 0.026 0.016 0.042 0.010 0.014 0.115 0.106 0.237 0.203 0.12 0.096 0.326 0.256 0.458 0.355 0.131 0.098 0.344 0.253 0.472 0.344 0.128 0.090 0.362 0.248 0.519 0.352 0.157 0.102 0.408 0.264 0.559 0.358 0.149 0.094 0.431 0.266 0.624 0.383s0.463 0.274 0.599 0.347c0.134 0.075 0.288 0.158 0.339 0.184s0.134 0.062 0.186 0.082c0.066 0.026 0.098 0.032 0.106 0.022 0.010-0.010 0.008-0.021-0.006-0.034-0.011-0.011-0.288-0.189-0.618-0.397s-0.802-0.507-1.050-0.667c-0.248-0.158-0.88-0.573-1.402-0.92-0.523-0.347-0.968-0.64-0.987-0.65-0.021-0.010-0.040-0.019-0.043-0.019zM12.098 23.752c-0.042 0-0.090 0.005-0.107 0.011s-0.048 0.029-0.067 0.050c-0.019 0.021-0.038 0.062-0.045 0.091-0.005 0.029-0.005 0.093 0 0.142 0.006 0.050 0.006 0.090 0 0.090-0.005 0-0.029-0.021-0.053-0.048-0.026-0.027-0.064-0.051-0.093-0.059-0.032-0.008-0.069-0.008-0.104 0.002-0.030 0.008-0.066 0.029-0.086 0.053-0.018 0.022-0.037 0.056-0.042 0.077-0.005 0.019-0.005 0.088-0.003 0.152 0.003 0.064 0.003 0.117-0.002 0.117-0.003 0-0.029-0.027-0.056-0.059-0.032-0.040-0.067-0.066-0.099-0.075-0.027-0.008-0.066-0.013-0.083-0.008-0.019 0.005-0.050 0.019-0.070 0.035-0.019 0.014-0.046 0.046-0.059 0.070-0.018 0.034-0.021 0.074-0.019 0.182 0.002 0.136 0.002 0.139-0.021 0.107-0.013-0.019-0.042-0.053-0.066-0.077s-0.064-0.046-0.088-0.051c-0.022-0.005-0.064-0.002-0.090 0.006s-0.062 0.030-0.083 0.051c-0.019 0.019-0.042 0.056-0.046 0.080s-0.006 0.098-0.003 0.163c0.005 0.066 0.003 0.117-0.002 0.115s-0.024-0.024-0.040-0.048c-0.018-0.026-0.046-0.056-0.064-0.070-0.019-0.014-0.058-0.029-0.086-0.032-0.037-0.005-0.067 0.002-0.099 0.018-0.026 0.013-0.061 0.045-0.077 0.070-0.027 0.042-0.030 0.062-0.030 0.192-0.002 0.141-0.002 0.146-0.024 0.114-0.011-0.019-0.042-0.053-0.066-0.077s-0.062-0.046-0.086-0.051c-0.024-0.005-0.059-0.005-0.080 0-0.019 0.005-0.059 0.029-0.086 0.053l-0.050 0.046-0.013 0.326c-0.058-0.086-0.093-0.123-0.117-0.138-0.024-0.016-0.066-0.027-0.096-0.027s-0.072 0.011-0.096 0.027c-0.024 0.014-0.056 0.050-0.070 0.078-0.022 0.046-0.026 0.072-0.021 0.19 0.005 0.109 0.003 0.131-0.010 0.11-0.008-0.014-0.040-0.053-0.069-0.085-0.046-0.051-0.062-0.059-0.12-0.064-0.051-0.005-0.077 0-0.109 0.021-0.024 0.014-0.054 0.043-0.067 0.062-0.018 0.027-0.026 0.074-0.030 0.181l-0.006 0.146c-0.061-0.083-0.101-0.12-0.126-0.134s-0.061-0.027-0.080-0.027c-0.018 0-0.059 0.013-0.091 0.029-0.045 0.022-0.066 0.043-0.083 0.086-0.021 0.048-0.022 0.075-0.014 0.17 0.006 0.062 0.006 0.114 0 0.114-0.005 0-0.045-0.027-0.086-0.061s-0.098-0.067-0.123-0.074c-0.027-0.006-0.067-0.006-0.099 0.002-0.029 0.006-0.067 0.021-0.083 0.032s-0.042 0.040-0.056 0.064c-0.014 0.024-0.027 0.058-0.027 0.077 0.002 0.018 0.011 0.054 0.024 0.082 0.013 0.029 0.080 0.112 0.149 0.186 0.070 0.074 0.168 0.17 0.219 0.211s0.115 0.086 0.142 0.098c0.029 0.011 0.078 0.021 0.114 0.022 0.045 0 0.085-0.011 0.136-0.038 0.061-0.030 0.080-0.050 0.11-0.11 0.032-0.061 0.037-0.086 0.037-0.178l-0.002-0.107c0.058 0.054 0.086 0.077 0.101 0.083 0.014 0.008 0.046 0.018 0.069 0.022 0.026 0.005 0.072 0 0.11-0.011 0.046-0.014 0.078-0.035 0.107-0.070 0.038-0.048 0.040-0.054 0.037-0.154-0.003-0.056-0.003-0.102-0.002-0.102s0.022 0.014 0.043 0.034c0.022 0.018 0.062 0.040 0.090 0.048 0.040 0.013 0.064 0.011 0.11-0.002 0.032-0.010 0.074-0.027 0.091-0.038 0.016-0.011 0.042-0.045 0.056-0.075 0.022-0.045 0.026-0.069 0.018-0.158l-0.008-0.107c0.048 0.061 0.086 0.090 0.115 0.102s0.069 0.024 0.086 0.024c0.019 0 0.066-0.014 0.102-0.034 0.048-0.022 0.077-0.046 0.093-0.075 0.016-0.032 0.019-0.069 0.016-0.141-0.003-0.054 0-0.101 0.005-0.104 0.006-0.003 0.010 0.002 0.010 0.008 0 0.008 0.022 0.029 0.050 0.046 0.038 0.026 0.067 0.034 0.117 0.034 0.042 0 0.085-0.011 0.114-0.027 0.026-0.014 0.061-0.051 0.078-0.083 0.029-0.051 0.030-0.066 0.022-0.155l-0.010-0.099c0.067 0.064 0.112 0.090 0.141 0.099 0.029 0.008 0.072 0.013 0.093 0.008 0.022-0.005 0.059-0.021 0.083-0.035s0.056-0.051 0.072-0.083c0.024-0.048 0.027-0.069 0.019-0.155l-0.010-0.101c0.069 0.069 0.109 0.093 0.134 0.101 0.029 0.006 0.070 0.006 0.107 0 0.042-0.010 0.072-0.027 0.102-0.059 0.024-0.027 0.048-0.070 0.056-0.098 0.006-0.027 0.006-0.078 0-0.117-0.005-0.035-0.008-0.069-0.005-0.072s0.019 0.006 0.035 0.021c0.016 0.016 0.043 0.035 0.059 0.043 0.018 0.008 0.064 0.016 0.104 0.016 0.066 0 0.078-0.005 0.126-0.051 0.030-0.027 0.061-0.070 0.067-0.096 0.010-0.029 0.011-0.080 0.005-0.133l-0.011-0.086c0.066 0.058 0.107 0.080 0.134 0.086 0.034 0.010 0.066 0.008 0.096 0 0.026-0.008 0.061-0.022 0.077-0.034 0.016-0.010 0.042-0.038 0.056-0.062 0.021-0.034 0.027-0.067 0.027-0.149 0-0.059-0.006-0.162-0.014-0.227-0.006-0.066-0.021-0.158-0.032-0.205-0.010-0.048-0.024-0.114-0.034-0.147-0.010-0.032-0.034-0.075-0.054-0.096-0.034-0.032-0.050-0.037-0.115-0.035zM19.937 23.76c-0.026-0.005-0.066-0.002-0.090 0.005-0.024 0.008-0.058 0.032-0.077 0.056-0.022 0.030-0.042 0.088-0.064 0.202-0.019 0.088-0.040 0.243-0.046 0.346-0.014 0.182-0.014 0.189 0.014 0.24 0.018 0.029 0.054 0.066 0.083 0.082 0.030 0.018 0.074 0.030 0.098 0.030 0.022 0 0.062-0.008 0.086-0.018 0.022-0.010 0.050-0.027 0.059-0.040 0.010-0.011 0.022-0.018 0.030-0.014 0.006 0.003 0.010 0.013 0.006 0.019-0.005 0.008-0.008 0.045-0.010 0.083 0 0.048 0.008 0.088 0.027 0.126s0.045 0.066 0.082 0.083c0.029 0.014 0.077 0.027 0.107 0.027 0.029 0 0.067-0.006 0.085-0.014 0.019-0.006 0.050-0.029 0.067-0.050l0.034-0.037c-0.006 0.214-0.003 0.235 0.021 0.269 0.016 0.021 0.048 0.051 0.074 0.067 0.030 0.021 0.064 0.030 0.107 0.030 0.035 0 0.080-0.008 0.101-0.019 0.019-0.010 0.045-0.027 0.056-0.040s0.022-0.022 0.027-0.021c0.003 0 0.006 0.050 0.006 0.11 0 0.094 0.003 0.115 0.030 0.149 0.018 0.022 0.048 0.050 0.067 0.062 0.021 0.014 0.061 0.024 0.098 0.024 0.035 0 0.085-0.011 0.112-0.024s0.056-0.034 0.064-0.046c0.008-0.013 0.018-0.018 0.024-0.013 0.005 0.005 0.005 0.051 0.002 0.102-0.006 0.083-0.005 0.098 0.024 0.141 0.018 0.026 0.053 0.059 0.078 0.077 0.032 0.021 0.064 0.029 0.112 0.029 0.043 0 0.080-0.010 0.106-0.027 0.022-0.014 0.051-0.040 0.064-0.056 0.024-0.029 0.024-0.027 0.014 0.083-0.006 0.091-0.003 0.122 0.013 0.157 0.016 0.029 0.045 0.053 0.093 0.075 0.037 0.019 0.083 0.034 0.102 0.034 0.018 0 0.058-0.011 0.086-0.024s0.067-0.042 0.083-0.062l0.030-0.040c-0.006 0.229-0.003 0.248 0.021 0.282 0.014 0.021 0.048 0.051 0.072 0.067 0.032 0.022 0.066 0.030 0.109 0.030 0.035 0 0.080-0.006 0.099-0.014 0.021-0.008 0.054-0.032 0.074-0.053l0.037-0.040-0.021 0.237c0.085 0.083 0.13 0.112 0.16 0.122 0.029 0.008 0.067 0.014 0.083 0.014s0.051-0.010 0.077-0.019c0.026-0.011 0.061-0.035 0.080-0.054 0.018-0.018 0.034-0.030 0.035-0.027 0.003 0.003 0 0.038-0.003 0.077-0.005 0.040 0 0.099 0.010 0.138 0.008 0.035 0.027 0.080 0.042 0.099 0.014 0.018 0.054 0.051 0.090 0.074 0.051 0.030 0.078 0.038 0.138 0.038 0.053 0 0.094-0.010 0.141-0.032 0.040-0.021 0.13-0.094 0.226-0.187 0.088-0.085 0.187-0.19 0.219-0.234 0.043-0.056 0.061-0.093 0.064-0.131 0.003-0.037-0.005-0.066-0.022-0.096-0.016-0.024-0.053-0.056-0.085-0.070-0.030-0.014-0.080-0.026-0.109-0.026-0.032 0-0.072 0.011-0.101 0.027-0.026 0.016-0.072 0.051-0.104 0.077l-0.059 0.048c0.016-0.242 0.014-0.266-0.008-0.309-0.013-0.027-0.042-0.059-0.062-0.072-0.021-0.011-0.056-0.026-0.078-0.030-0.024-0.005-0.058-0.002-0.086 0.010-0.026 0.010-0.064 0.040-0.086 0.066-0.021 0.026-0.046 0.058-0.054 0.072-0.014 0.021-0.016-0.003-0.018-0.122 0-0.134-0.003-0.149-0.034-0.192-0.019-0.026-0.048-0.054-0.064-0.062-0.016-0.010-0.054-0.018-0.086-0.018-0.030 0-0.072 0.010-0.093 0.021-0.019 0.011-0.054 0.045-0.075 0.072-0.022 0.029-0.045 0.050-0.051 0.046-0.005-0.003-0.006-0.056-0.002-0.115 0.006-0.082 0.003-0.123-0.010-0.157-0.011-0.026-0.040-0.062-0.066-0.083-0.032-0.026-0.062-0.038-0.106-0.040-0.040-0.002-0.074 0.005-0.096 0.021-0.021 0.013-0.056 0.050-0.080 0.083l-0.043 0.061c-0.011-0.285-0.018-0.322-0.040-0.354-0.014-0.021-0.046-0.046-0.069-0.056-0.024-0.010-0.059-0.018-0.077-0.018-0.019 0-0.054 0.010-0.080 0.021-0.027 0.011-0.066 0.045-0.090 0.080l-0.043 0.061c-0.013-0.307-0.016-0.322-0.046-0.355-0.019-0.019-0.050-0.043-0.070-0.053-0.019-0.011-0.056-0.019-0.080-0.019-0.022 0-0.062 0.011-0.086 0.027-0.022 0.014-0.061 0.051-0.083 0.082l-0.040 0.058v-0.32c-0.077-0.075-0.117-0.101-0.139-0.106-0.021-0.005-0.061-0.005-0.086 0s-0.064 0.029-0.086 0.051c-0.021 0.022-0.050 0.056-0.064 0.075-0.022 0.032-0.022 0.030-0.016-0.096 0.006-0.101 0.003-0.141-0.013-0.179-0.013-0.029-0.035-0.062-0.050-0.075-0.016-0.013-0.043-0.030-0.059-0.037s-0.045-0.011-0.064-0.011c-0.018 0-0.053 0.008-0.075 0.019-0.024 0.010-0.062 0.043-0.083 0.074-0.022 0.029-0.043 0.054-0.046 0.053-0.005 0-0.005-0.064-0.002-0.142 0.005-0.142 0.003-0.144-0.034-0.189-0.021-0.024-0.054-0.053-0.075-0.062-0.019-0.010-0.054-0.018-0.077-0.018-0.021 0-0.056 0.008-0.075 0.018-0.021 0.010-0.056 0.042-0.080 0.070l-0.043 0.051c0.006-0.262 0.003-0.285-0.022-0.32-0.014-0.021-0.048-0.050-0.072-0.061-0.026-0.013-0.067-0.026-0.093-0.029z"></path>
</svg>
