<!-- Generated by IcoMoon.io -->
<svg version="1.1" xmlns="http://www.w3.org/2000/svg" width="32" height="32" viewBox="0 0 32 32">
<title>1</title>
<path fill="#fff" d="M31.646 4.43c0-4.429-4.986-4.429-5.658-4.429h-1.208s1.706 1.715 1.706 2.334c-0 0.14-0.114 0.253-0.254 0.253-0 0-0 0-0 0h-4.345c-0 0-0 0-0 0-0.14 0-0.253-0.113-0.254-0.253v-0c0-0.619 1.706-2.334 1.706-2.334-1.656 0-4.030 0.37-5.679 1.542q-0.699-0.070-1.402-0.070c-7.663 0.004-13.874 6.218-13.874 13.882 0 1.545 0.252 3.032 0.718 4.42l-0.029-0.098c-1.026 1.254-2.721 3.821-2.721 7.093 0 2.828 1.397 5.231 1.397 5.231s2.488-3.643 8.065-3.643c0.002 0 0.003 0 0.005 0 0.269 0 0.493-0.189 0.549-0.441l0.001-0.004c1.724 0.827 3.749 1.31 5.886 1.31 7.664 0 13.877-6.213 13.877-13.877 0-2.488-0.655-4.823-1.802-6.843l0.036 0.069c1.536-0.472 3.279-1.694 3.279-4.141z"></path>
<path fill="#010101" d="M31.074 4.43c0-2.751-2.524-3.953-5.065-3.858 0 0 1.049 1.011 1.049 1.762 0 0.399-0.298 0.825-1.132 0.825h-3.759c-0.845 0-1.35-0.29-1.35-0.778 0-0.798 1.255-1.73 1.255-1.73s-2.544 0.153-4.247 1.487c-0.469-0.059-1.014-0.094-1.566-0.095h-0.002c-7.347 0.001-13.302 5.958-13.302 13.305 0 2.555 0.72 4.941 1.968 6.968l-0.033-0.058c-0.192 0.111-0.423 0.176-0.669 0.176-0.004 0-0.008-0-0.011-0h0.001c-0.931 0-0.937-2.065-0.937-2.065s-2.349 2.739-2.349 6.399c0 2.253 0.952 4.192 0.952 4.192s2.636-3.176 7.938-3.176c0 0-2.515-1.010-2.515-2.23 0.015-0.108 0.049-0.206 0.098-0.293l-0.002 0.004c2.342 2.1 5.453 3.385 8.864 3.385 7.345 0 13.3-5.955 13.3-13.3 0-2.658-0.78-5.134-2.123-7.212l0.032 0.052c1.283-0.205 3.605-1.082 3.605-3.76zM4.355 15.347c0-0 0-0 0-0 0-6.574 5.329-11.903 11.903-11.904h0c0.155 0 0.307 0.006 0.46 0.011-0.248 0.487-0.393 1.063-0.393 1.672 0 0.017 0 0.034 0 0.051l-0-0.003c0 3.058 3.389 3.088 3.389 3.088l-1.654 4.369-2.873-3.639c-1.020-1.292-2.077-1.563-2.784-1.563-1.443 0-2.562 1.022-3.324 3.037l-3.686 9.74c-0.656-1.426-1.038-3.095-1.038-4.852 0-0.003 0-0.006 0-0.009v0zM5.841 21.107c0.968-0.331 2.085-0.528 3.245-0.542l0.007-0c1.137 0.013 2.233 0.162 3.281 0.432l-0.095-0.021 1.464-3.867 1.388 2.519-1.258 1.316c-0.765 0.8-2.672 0.3-4.779 0.3-1.462 0-2.351 0.165-2.952 0.373q-0.156-0.251-0.3-0.51zM28.162 15.347c0 0.001 0 0.002 0 0.004 0 6.572-5.328 11.9-11.9 11.9-2.803 0-5.38-0.969-7.414-2.591l0.024 0.018c1.961 0.085 3.033 1.353 5.794 1.353 4.056 0 6.432-2.458 7.303-4.76l4.534-11.982c1.042 1.728 1.659 3.814 1.659 6.044 0 0.005 0 0.011 0 0.016v-0.001z"></path>
<path fill="#c8102e" d="M27.14 1.159c0.295 0.304 0.48 0.717 0.49 1.173l0 0.002c0 0.714-0.556 1.397-1.703 1.397h-3.759c-1.461 0-1.921-0.746-1.921-1.349-0-0.011-0.001-0.024-0.001-0.038 0-0.343 0.13-0.655 0.343-0.89l-0.001 0.001s-3.692 0.72-3.692 3.721c0 2.524 2.822 2.516 2.822 2.516h0.823l-2.304 6.087-3.499-4.432c-0.217-0.275-1.068-1.346-2.336-1.346-1.762 0-2.529 1.977-2.79 2.668l-3.718 9.825c0.948-0.318 2.040-0.502 3.174-0.502 0.008 0 0.017 0 0.025 0h-0.001c1.005 0.004 1.981 0.117 2.92 0.328l-0.090-0.017 1.723-4.554 2.187 3.969-1.548 1.619c-1.018 1.065-3.144 0.476-5.192 0.476-3.822 0-3.453 1.191-4.882 1.191-1.012 0-1.274-1.229-1.274-1.229s-1.44 2.387-1.44 4.992c0.019 1.146 0.235 2.235 0.616 3.244l-0.022-0.066s2.979-2.535 5.979-2.535c0 0-1.34-0.643-1.34-1.857 0-0.345 0.458-1.453 1.935-1.453 2.287 0 3.239 1.357 6.002 1.357 3.866 0 6.013-2.395 6.769-4.391l5.061-13.375s4.007 0.008 4.007-3.263c0-3.001-3.363-3.27-3.363-3.27z"></path>
</svg>
