<!-- Generated by IcoMoon.io -->
<svg version="1.1" xmlns="http://www.w3.org/2000/svg" width="32" height="32" viewBox="0 0 32 32">
<title>10</title>
<path fill="#00205b" d="M23.885 17.263c-0.096-0.048-0.192-0.106-0.298-0.154-0.027-0.018-0.060-0.028-0.096-0.029h-0c-0 0-0.001 0-0.001 0-0.088 0-0.163 0.050-0.2 0.124l-0.001 0.001-0.711 1.364c-0.015 0.028-0.023 0.062-0.023 0.097 0 0.027 0.005 0.053 0.014 0.077l-0-0.002c0.015 0.059 0.054 0.106 0.105 0.134l0.001 0.001c0.096 0.048 0.202 0.106 0.298 0.154 0.030 0.018 0.067 0.028 0.106 0.029h0c0 0 0.001 0 0.001 0 0.088 0 0.163-0.050 0.2-0.124l0.001-0.001 0.701-1.364c0.017-0.031 0.027-0.068 0.027-0.107 0-0.087-0.050-0.163-0.122-0.2l-0.001-0.001zM13.788 20.981h0.48l-0.24-1.076zM15.94 23.306l-0.279 1.076h0.557zM15.892 17.311h0.346c0.123-0.006 0.22-0.107 0.221-0.231v-1.537c-0.001-0.121-0.1-0.22-0.221-0.221h-0.346c-0.121 0.001-0.22 0.099-0.221 0.221v1.537c-0 0.002-0 0.003-0 0.005 0 0.123 0.098 0.223 0.221 0.226h0zM13.25 16.668c0.154-0.029 0.307-0.058 0.471-0.077 0.059-0.010 0.109-0.041 0.144-0.086l0-0.001c0.027-0.035 0.043-0.080 0.043-0.129 0-0.016-0.002-0.031-0.005-0.046l0 0.001-0.106-0.634c-0.021-0.106-0.113-0.185-0.224-0.185-0.012 0-0.025 0.001-0.037 0.003l0.001-0c-0.154 0.019-0.307 0.048-0.461 0.077h-0.038l0.173 1.086zM16.641 19.847h-0.461v0.865h0.461c0.001 0 0.001 0 0.002 0 0.084 0 0.152-0.068 0.152-0.152 0-0.001 0-0.001 0-0.002v0-0.548c0-0.001 0-0.002 0-0.003 0-0.086-0.068-0.157-0.153-0.16h-0z"></path>
<path fill="#00205b" d="M16.459 31.913c-0.048-0.002-0.091-0.019-0.125-0.048l0 0c-0.355-0.375-0.651-0.809-0.872-1.286l-0.012-0.030c-0.108-0.228-0.203-0.497-0.272-0.777l-0.006-0.030c-0.073-0.265-0.125-0.573-0.144-0.89l-0.001-0.012c-0.643 0.314-1.425 0.627-2.232 0.886l-0.132 0.037c-0.722 0.243-1.623 0.476-2.544 0.651l-0.136 0.022h-0.029c-0.047-0.001-0.088-0.023-0.115-0.057l-0-0c-0.014-0.026-0.022-0.057-0.022-0.090 0-0.012 0.001-0.024 0.003-0.036l-0 0.001c0.178-0.592 0.416-1.109 0.716-1.582l-0.015 0.026c-0.736 0.16-1.657 0.303-2.593 0.395l-0.106 0.008h-0.019c-0.003 0-0.006 0-0.009 0-0.044 0-0.083-0.023-0.106-0.058l-0-0c-0.018-0.023-0.029-0.052-0.029-0.084 0-0.018 0.004-0.036 0.010-0.052l-0 0.001c0.171-0.483 0.343-0.879 0.537-1.262l-0.028 0.061c-0.87 0.23-1.933 0.429-3.019 0.556l-0.113 0.011h-0.019c-0.054-0.002-0.1-0.032-0.125-0.076l-0-0.001c-0.009-0.019-0.014-0.040-0.014-0.063 0-0.030 0.009-0.058 0.024-0.082l-0 0.001c0.837-1.209 1.787-2.254 2.859-3.16l0.023-0.019c-0.851-0.359-1.585-0.794-2.251-1.313l0.022 0.016c-0.035-0.026-0.058-0.067-0.058-0.114 0-0.004 0-0.008 0-0.011l-0 0c-0-0.002-0-0.004-0-0.006 0-0.047 0.027-0.089 0.067-0.109l0.001-0c0.826-0.475 1.785-0.905 2.789-1.236l0.112-0.032c-0.827-0.153-1.565-0.399-2.252-0.734l0.052 0.023c-0.039-0.012-0.067-0.049-0.067-0.091 0-0.002 0-0.003 0-0.005v0c-0.002-0.009-0.004-0.020-0.004-0.031 0-0.033 0.012-0.062 0.033-0.085l-0 0c0.244-0.307 0.515-0.576 0.816-0.808l0.011-0.008c-0.502-0.213-0.925-0.435-1.328-0.686l0.040 0.023c-0.445-0.28-0.831-0.571-1.19-0.892l0.009 0.008c-0.031-0.025-0.050-0.063-0.050-0.106 0-0.033 0.012-0.063 0.031-0.087l-0 0c0.284-0.329 0.593-0.622 0.927-0.883l0.014-0.011c-0.532-0.349-0.986-0.683-1.421-1.041l0.028 0.023c-0.488-0.39-0.923-0.777-1.338-1.184l0.003 0.002c-0.023-0.029-0.038-0.065-0.038-0.105v-0c0.003-0.037 0.017-0.070 0.039-0.096l-0 0c0.208-0.201 0.437-0.382 0.684-0.537l0.017-0.010c-0.327-0.281-0.62-0.582-0.883-0.909l-0.010-0.013c-0.282-0.348-0.555-0.737-0.8-1.145l-0.026-0.047c-0.010-0.020-0.016-0.045-0.016-0.070 0-0.016 0.002-0.032 0.007-0.046l-0 0.001c0.016-0.040 0.047-0.071 0.085-0.086l0.001-0c0.341-0.138 0.742-0.252 1.157-0.322l0.034-0.005c-0.302-0.647-0.54-1.398-0.675-2.185l-0.008-0.053c-0.002-0.009-0.004-0.020-0.004-0.031 0-0.033 0.012-0.062 0.033-0.085l-0 0c0.024-0.034 0.062-0.056 0.106-0.058h0c0.002-0 0.004-0 0.006-0 0.012 0 0.023 0.004 0.033 0.010l-0-0c0.887 0.252 1.645 0.547 2.369 0.901l-0.083-0.037c0.104-0.528 0.271-0.998 0.495-1.433l-0.014 0.030c0.025-0.044 0.071-0.075 0.124-0.077h0c0.033 0.001 0.062 0.011 0.087 0.029l-0-0c0.402 0.296 0.752 0.582 1.088 0.885l-0.012-0.011c0.325 0.288 0.623 0.583 0.904 0.893l0.009 0.010c0.164-0.25 0.365-0.46 0.598-0.629l0.007-0.005c0.023-0.018 0.052-0.029 0.083-0.029 0.001 0 0.002 0 0.004 0h-0c0.042 0.002 0.079 0.020 0.106 0.048l0 0c0.865 1.076 2.181 2.546 3.622 3.593-0.421-1.229-0.882-2.27-1.419-3.263l0.055 0.112c-0.012-0.021-0.020-0.046-0.020-0.072 0-0.019 0.004-0.037 0.010-0.053l-0 0.001c0.020-0.038 0.054-0.065 0.095-0.077l0.001-0c0.211-0.042 0.461-0.073 0.717-0.086l0.013-0.001c-0.597-0.926-1.094-1.993-1.437-3.128l-0.023-0.090c-0.002-0.010-0.004-0.021-0.004-0.033 0-0.035 0.012-0.067 0.033-0.092l-0 0c0.022-0.035 0.059-0.058 0.103-0.058 0.001 0 0.002 0 0.003 0h0.009c0.629 0.033 1.219 0.146 1.777 0.331l-0.048-0.014c-0.048-0.313-0.076-0.675-0.076-1.042 0-0.123 0.003-0.246 0.009-0.368l-0.001 0.017c0.025-0.548 0.087-1.063 0.184-1.566l-0.011 0.067c0.010-0.066 0.066-0.115 0.133-0.115 0 0 0.001 0 0.001 0h-0c0.003-0 0.007-0.001 0.011-0.001 0.014 0 0.027 0.004 0.038 0.011l-0-0c0.464 0.182 0.856 0.376 1.23 0.598l-0.039-0.021c-0.006-0.125-0.009-0.272-0.009-0.42 0-0.299 0.014-0.594 0.041-0.886l-0.003 0.037c0.040-0.481 0.111-0.92 0.214-1.347l-0.012 0.060c0.016-0.061 0.070-0.105 0.134-0.106h0c0.003-0.001 0.007-0.001 0.011-0.001 0.014 0 0.027 0.004 0.038 0.011l-0-0c0.351 0.13 0.652 0.279 0.934 0.455l-0.022-0.013c0.307-0.903 0.807-1.758 1.287-2.555 0.027-0.041 0.073-0.067 0.125-0.067s0.098 0.026 0.124 0.067l0 0.001c0.317 0.509 0.538 0.913 0.74 1.287 0.181 0.341 0.369 0.759 0.531 1.189l0.026 0.079c0.259-0.168 0.557-0.317 0.872-0.432l0.031-0.010c0.013-0.006 0.028-0.010 0.044-0.010 0.002 0 0.003 0 0.005 0h-0c0.003-0 0.006-0 0.009-0 0.063 0 0.115 0.046 0.125 0.105l0 0.001c0.093 0.366 0.168 0.805 0.209 1.253l0.003 0.034c0.023 0.227 0.036 0.49 0.036 0.756 0 0.18-0.006 0.359-0.018 0.536l0.001-0.024c0.338-0.207 0.73-0.401 1.14-0.559l0.051-0.017c0.013-0.006 0.028-0.010 0.044-0.010 0.002 0 0.003 0 0.005 0h-0c0.069 0.002 0.127 0.050 0.144 0.114l0 0.001c0.086 0.435 0.148 0.95 0.172 1.475l0.001 0.023c0.005 0.105 0.009 0.227 0.009 0.351 0 0.368-0.028 0.729-0.081 1.082l0.005-0.040c0.511-0.171 1.101-0.285 1.713-0.316l0.016-0.001c0.001-0 0.002-0 0.004-0 0.046 0 0.087 0.023 0.111 0.057l0 0c0.018 0.018 0.029 0.044 0.029 0.071 0 0.016-0.004 0.031-0.010 0.044l0-0.001c-0.361 1.224-0.859 2.293-1.49 3.267l0.029-0.049c0.264 0.010 0.515 0.045 0.757 0.101l-0.027-0.005c0.043 0.009 0.079 0.037 0.096 0.076l0 0.001c0.009 0.018 0.014 0.040 0.014 0.062s-0.005 0.044-0.015 0.063l0-0.001c-0.5 0.98-1.018 2.037-1.374 3.141 1.576-1.153 2.767-2.517 3.622-3.583 0.029-0.030 0.069-0.048 0.114-0.048 0 0 0.001 0 0.001 0h-0c0.001-0 0.002-0 0.003-0 0.029 0 0.055 0.011 0.074 0.029l-0-0c0.242 0.171 0.444 0.382 0.6 0.625l0.005 0.009c0.288-0.326 0.586-0.624 0.902-0.903l0.011-0.009c0.336-0.298 0.701-0.586 1.076-0.865 0.024-0.017 0.054-0.028 0.086-0.029h0c0.051 0.002 0.096 0.028 0.125 0.067l0 0c0.221 0.408 0.388 0.882 0.476 1.384l0.004 0.028c0.641-0.322 1.4-0.619 2.187-0.849l0.099-0.025h0.038c0 0 0.001 0 0.001 0 0.042 0 0.079 0.019 0.104 0.048l0 0c0.024 0.031 0.038 0.070 0.038 0.113 0 0.001 0 0.002-0 0.003v-0c-0.149 0.841-0.389 1.592-0.715 2.295l0.024-0.057c0.449 0.073 0.849 0.187 1.23 0.34l-0.038-0.014c0.057 0.022 0.096 0.076 0.096 0.139 0 0.027-0.007 0.052-0.020 0.073l0-0.001c-0.263 0.453-0.533 0.842-0.83 1.208l0.013-0.017c-0.276 0.339-0.572 0.641-0.893 0.914l-0.010 0.008c0.265 0.163 0.495 0.344 0.702 0.548l-0-0c0.024 0.023 0.039 0.054 0.039 0.090 0 0.002-0 0.005-0 0.007v-0c0 0.002 0 0.005 0 0.007 0 0.038-0.015 0.073-0.039 0.098l0-0c-0.41 0.406-0.842 0.793-1.293 1.156l-0.032 0.025c-0.451 0.365-0.922 0.701-1.402 1.018 0.353 0.266 0.662 0.56 0.934 0.885l0.007 0.009c0.019 0.023 0.031 0.054 0.031 0.086 0 0.042-0.019 0.080-0.050 0.106l-0 0c-0.348 0.313-0.731 0.604-1.137 0.863l-0.035 0.021c-0.366 0.23-0.793 0.452-1.237 0.64l-0.060 0.023c0.315 0.241 0.589 0.509 0.829 0.807l0.007 0.009c0.020 0.022 0.033 0.052 0.033 0.085 0 0.011-0.001 0.021-0.004 0.032l0-0.001c-0.005 0.045-0.036 0.081-0.076 0.096l-0.001 0c-0.633 0.318-1.368 0.566-2.141 0.704l-0.049 0.007c1.113 0.366 2.069 0.795 2.97 1.309l-0.079-0.041c0.043 0.022 0.073 0.065 0.077 0.115l0 0c0 0.001 0 0.003 0 0.004 0 0.049-0.022 0.092-0.057 0.12l-0 0c-0.826 0.605-1.518 1.018-2.238 1.307 1.1 0.918 2.051 1.961 2.848 3.118l0.034 0.052c0.019 0.022 0.030 0.052 0.030 0.083 0 0.026-0.008 0.050-0.021 0.071l0-0c-0.020 0.046-0.066 0.077-0.118 0.077-0.002 0-0.005-0-0.007-0h0c-0.008-0.001-0.014-0.004-0.019-0.010l-0-0c-1.194-0.137-2.255-0.337-3.288-0.603l0.166 0.036c0.173 0.365 0.346 0.778 0.509 1.201 0.004 0.014 0.007 0.030 0.007 0.046 0 0.033-0.010 0.063-0.026 0.089l0-0.001c-0.027 0.034-0.069 0.057-0.115 0.058h-0.019c-1.030-0.094-1.951-0.237-2.853-0.431l0.154 0.028c0.275 0.447 0.51 0.963 0.679 1.508l0.013 0.049c0.006 0.015 0.010 0.032 0.010 0.051 0 0.032-0.011 0.061-0.029 0.084l0-0c-0.028 0.033-0.069 0.054-0.115 0.058l-0.001 0c-0.001 0-0.003 0-0.004 0-0.009 0-0.018-0.004-0.024-0.010v0c-1.165-0.236-2.138-0.498-3.088-0.812l0.186 0.053c-0.932-0.298-1.796-0.615-2.382-0.874-0.010-0.010-0.010-0.010-0.019-0.010-0.026 0.001-0.047 0.016-0.057 0.038l-0 0c-0.058 0.298 0.048 0.682 0.317 1.124 0.178 0.294 0.372 0.548 0.589 0.781l-0.003-0.003v0.010c0.024 0.030 0.039 0.068 0.039 0.11 0 0.047-0.018 0.089-0.048 0.121l0-0-0.98 0.893c-0.027 0.028-0.064 0.046-0.105 0.048h-0z"></path>
<path fill="#fff" d="M15.998 0c-0.001-0-0.003-0-0.004-0-0.038 0-0.073 0.011-0.103 0.029l0.001-0c-0.039 0.021-0.071 0.050-0.095 0.086l-0.001 0.001c-0.317 0.519-0.538 0.913-0.74 1.297-0.171 0.318-0.346 0.705-0.496 1.103l-0.023 0.069c-0.228-0.134-0.499-0.269-0.78-0.386l-0.046-0.017c-0.022-0.006-0.046-0.010-0.072-0.010-0.005 0-0.010 0-0.015 0l0.001-0c-0.051 0.001-0.098 0.019-0.135 0.048l0.001-0c-0.045 0.031-0.076 0.078-0.086 0.133l-0 0.001c-0.093 0.369-0.168 0.811-0.209 1.262l-0.003 0.035c-0.022 0.234-0.035 0.507-0.035 0.782 0 0.117 0.002 0.233 0.007 0.349l-0.001-0.017c-0.297-0.174-0.645-0.342-1.007-0.482l-0.050-0.017c-0.022-0.011-0.049-0.019-0.077-0.019h-0c-0.002-0-0.003-0-0.005-0-0.113 0-0.207 0.083-0.225 0.191l-0 0.001h-0.010c-0.086 0.437-0.147 0.956-0.172 1.484l-0.001 0.024c-0.005 0.103-0.008 0.224-0.008 0.345 0 0.325 0.020 0.646 0.060 0.96l-0.004-0.038c-0.475-0.145-1.026-0.244-1.594-0.278l-0.020-0.001h-0.010c-0.128 0.005-0.231 0.111-0.231 0.24 0 0.024 0.004 0.047 0.010 0.069l-0-0.002c0.206 0.676 0.418 1.234 0.662 1.774l-0.037-0.093c0.251 0.557 0.504 1.023 0.787 1.469l-0.028-0.047c-0.217 0.015-0.417 0.046-0.612 0.092l0.026-0.005c-0.070 0.012-0.127 0.060-0.153 0.124l-0.001 0.001c-0.018 0.029-0.029 0.063-0.029 0.101s0.011 0.072 0.029 0.102l-0-0.001c0.428 0.786 0.855 1.73 1.217 2.706l0.051 0.157c-1.345-1.028-2.555-2.392-3.362-3.401-0.046-0.049-0.11-0.082-0.182-0.086l-0.001-0c-0 0-0.001 0-0.001 0-0.051 0-0.097 0.018-0.133 0.048l0-0h-0.010c-0.14 0.102-0.262 0.213-0.373 0.334l-0.002 0.002c-0.066 0.069-0.127 0.144-0.179 0.225l-0.003 0.006c-0.259-0.288-0.548-0.567-0.836-0.836-0.346-0.298-0.711-0.596-1.095-0.865-0.032-0.030-0.075-0.048-0.123-0.048-0.004 0-0.008 0-0.012 0l0.001-0c-0.088 0.002-0.164 0.047-0.211 0.114l-0.001 0.001c-0.117 0.213-0.222 0.462-0.3 0.722l-0.007 0.028c-0.055 0.153-0.108 0.343-0.149 0.537l-0.005 0.030c-0.336-0.154-0.672-0.298-0.999-0.432-0.442-0.163-0.845-0.298-1.201-0.394h-0.058c-0.071 0.001-0.136 0.030-0.183 0.077v0c-0.033 0.043-0.052 0.097-0.052 0.155 0 0.016 0.002 0.033 0.005 0.048l-0-0.002c0.088 0.479 0.191 0.886 0.318 1.282l-0.020-0.072c0.099 0.36 0.217 0.67 0.36 0.965l-0.014-0.033c-0.425 0.088-0.788 0.194-1.14 0.325l0.054-0.018c-0.063 0.030-0.114 0.080-0.143 0.142l-0.001 0.002c-0.008 0.024-0.013 0.051-0.013 0.080 0 0.045 0.012 0.087 0.033 0.123l-0.001-0.001c0.268 0.457 0.541 0.849 0.84 1.219l-0.014-0.018c0.253 0.313 0.52 0.593 0.809 0.849l0.007 0.006c-0.227 0.149-0.425 0.31-0.605 0.49l0-0c-0.046 0.040-0.076 0.098-0.077 0.163v0c0.001 0.068 0.030 0.13 0.077 0.173l0 0c0.413 0.409 0.848 0.798 1.302 1.166l0.033 0.026c0.413 0.336 0.845 0.653 1.287 0.951-0.135 0.106-0.26 0.221-0.375 0.327-0.164 0.156-0.317 0.315-0.463 0.482l-0.007 0.008c-0.036 0.048-0.058 0.108-0.058 0.173 0 0 0 0 0 0v0c0.010 0.065 0.041 0.122 0.086 0.163l0 0c0.173 0.155 0.361 0.306 0.557 0.448l0.020 0.014c0.177 0.137 0.377 0.277 0.585 0.406l0.030 0.017c0.18 0.117 0.397 0.242 0.621 0.355l0.042 0.019c0.163 0.077 0.327 0.163 0.49 0.231-0.263 0.227-0.498 0.469-0.712 0.729l-0.008 0.010c-0.032 0.043-0.051 0.097-0.051 0.156 0 0.013 0.001 0.026 0.003 0.038l-0-0.001c0.016 0.072 0.062 0.13 0.124 0.163l0.001 0.001c0.327 0.17 0.712 0.327 1.113 0.448l0.049 0.013c0.221 0.067 0.461 0.125 0.72 0.182-0.365 0.125-0.72 0.269-1.076 0.423-0.601 0.251-1.097 0.499-1.574 0.775l0.066-0.035h-0.010c-0.067 0.039-0.112 0.11-0.115 0.192v0c-0.001 0.007-0.001 0.016-0.001 0.025 0 0.074 0.039 0.139 0.097 0.177l0.001 0c0.319 0.248 0.679 0.495 1.054 0.721l0.051 0.028c0.28 0.174 0.609 0.344 0.95 0.49l0.049 0.019c-1.049 0.905-1.964 1.921-2.741 3.040l-0.035 0.053c-0.027 0.040-0.043 0.089-0.043 0.142 0 0.039 0.009 0.076 0.024 0.109l-0.001-0.002c0.043 0.074 0.121 0.123 0.211 0.125h0.039c0.634-0.086 1.191-0.163 1.7-0.259 0.461-0.077 0.865-0.163 1.239-0.259-0.115 0.239-0.258 0.578-0.388 0.924l-0.035 0.104c-0.010 0.024-0.016 0.052-0.016 0.081 0 0.049 0.017 0.095 0.045 0.131l-0-0c0.040 0.064 0.109 0.106 0.189 0.106 0.001 0 0.002 0 0.003-0h0.029c0.567-0.067 1.066-0.125 1.508-0.192 0.365-0.058 0.692-0.115 0.989-0.173-0.096 0.173-0.182 0.346-0.269 0.528-0.115 0.269-0.221 0.548-0.327 0.865-0.007 0.020-0.010 0.044-0.010 0.069 0 0.054 0.018 0.104 0.049 0.143l-0-0.001c0.045 0.057 0.114 0.094 0.192 0.096h0.039c0.471-0.096 0.932-0.192 1.374-0.307 0.451-0.106 0.893-0.231 1.316-0.365s0.845-0.288 1.239-0.442c0.346-0.134 0.682-0.288 1.009-0.432 0.034 0.3 0.081 0.564 0.144 0.823l-0.009-0.045c0.086 0.323 0.184 0.598 0.302 0.862l-0.014-0.035c0.244 0.512 0.546 0.953 0.906 1.338l-0.003-0.003c0.048 0.048 0.115 0.077 0.188 0.077 0.001 0 0.003 0 0.004-0h-0c0.001 0 0.002 0 0.004 0 0.066 0 0.125-0.026 0.169-0.067l-0 0 0.97-0.893c0.046-0.048 0.077-0.111 0.086-0.181l0-0.002c0-0.003 0-0.007 0-0.010 0-0.067-0.026-0.127-0.068-0.172l0 0c-0.826-0.941-0.922-1.499-0.884-1.768 0.6 0.267 1.377 0.558 2.172 0.808l0.172 0.047q0.749 0.245 1.47 0.432c0.519 0.134 1.009 0.25 1.441 0.336h0.048c0.078-0.002 0.147-0.039 0.192-0.096l0-0.001c0.029-0.042 0.046-0.094 0.046-0.149 0-0.022-0.003-0.043-0.008-0.064l0 0.002c-0.121-0.369-0.232-0.655-0.354-0.935l0.027 0.071c-0.108-0.231-0.198-0.404-0.293-0.574l0.024 0.046c0.288 0.067 0.615 0.115 0.98 0.173 0.452 0.067 0.942 0.125 1.518 0.192h0.029c0.078-0.002 0.147-0.039 0.192-0.096l0-0.001c0.026-0.040 0.041-0.088 0.041-0.141 0-0.029-0.005-0.056-0.013-0.082l0.001 0.002c-0.134-0.365-0.279-0.711-0.432-1.028 0.384 0.096 0.788 0.183 1.249 0.259 0.509 0.096 1.066 0.173 1.7 0.259h0.029c0.002 0 0.005 0 0.008 0 0.088 0 0.165-0.050 0.203-0.124l0.001-0.001c0.017-0.030 0.027-0.067 0.027-0.105 0-0.051-0.017-0.098-0.047-0.135l0 0c-0.81-1.177-1.725-2.196-2.756-3.086l-0.021-0.017c0.395-0.165 0.726-0.335 1.042-0.528l-0.034 0.019c0.429-0.256 0.789-0.5 1.136-0.762l-0.031 0.022c0.059-0.046 0.097-0.116 0.097-0.196 0-0.005-0-0.011-0-0.016l0 0.001c-0.007-0.083-0.055-0.154-0.124-0.192l-0.001-0.001c-0.402-0.232-0.898-0.479-1.407-0.701l-0.101-0.039c-0.355-0.154-0.711-0.298-1.076-0.423 0.25-0.058 0.49-0.115 0.721-0.183 0.452-0.137 0.837-0.294 1.204-0.48l-0.042 0.019c0.063-0.034 0.108-0.092 0.125-0.162l0-0.002c0.002-0.011 0.003-0.023 0.003-0.036 0-0.060-0.023-0.115-0.061-0.156l0 0c-0.222-0.271-0.458-0.513-0.713-0.733l-0.007-0.006c0.173-0.067 0.336-0.154 0.5-0.231 0.221-0.115 0.451-0.24 0.663-0.375 0.238-0.146 0.438-0.285 0.631-0.435l-0.016 0.012c0.216-0.155 0.404-0.306 0.583-0.467l-0.006 0.006c0.046-0.040 0.076-0.098 0.077-0.163v-0c0.001-0.009 0.002-0.019 0.002-0.030 0-0.054-0.019-0.104-0.050-0.143l0 0c-0.153-0.175-0.307-0.334-0.468-0.487l-0.003-0.003c-0.117-0.112-0.242-0.219-0.373-0.319l-0.011-0.008c0.497-0.329 0.919-0.641 1.326-0.974l-0.029 0.023c0.487-0.393 0.922-0.782 1.337-1.193l-0.002 0.002c0.042-0.034 0.068-0.085 0.068-0.143 0-0.007-0-0.015-0.001-0.022l0 0.001c0-0.003 0-0.006 0-0.010 0-0.064-0.026-0.121-0.067-0.163v0c-0.184-0.176-0.385-0.337-0.599-0.48l-0.016-0.010c0.299-0.26 0.566-0.54 0.807-0.842l0.010-0.013c0.294-0.353 0.57-0.745 0.813-1.159l0.023-0.041c0.017-0.031 0.027-0.067 0.027-0.106 0-0.031-0.006-0.061-0.018-0.087l0.001 0.001c-0.018-0.068-0.068-0.122-0.133-0.144l-0.001-0c-0.308-0.125-0.672-0.232-1.049-0.302l-0.036-0.006c0.109-0.24 0.226-0.549 0.327-0.865l0.019-0.067c0.105-0.324 0.208-0.734 0.287-1.153l0.011-0.067c0.001-0.010 0.002-0.022 0.002-0.034 0-0.064-0.023-0.122-0.060-0.168l0 0c-0.043-0.047-0.104-0.077-0.172-0.077-0.004 0-0.007 0-0.011 0l0-0h-0.058c-0.355 0.096-0.759 0.231-1.191 0.394-0.521 0.209-0.85 0.354-1.176 0.506l0.176-0.074c-0.048-0.183-0.096-0.375-0.154-0.567-0.091-0.289-0.199-0.537-0.328-0.771l0.011 0.022c-0.043-0.068-0.117-0.113-0.201-0.115h-0c-0 0-0.001 0-0.001 0-0.054 0-0.104 0.018-0.143 0.048l0.001-0c-0.405 0.292-0.759 0.578-1.096 0.884l0.010-0.009c-0.299 0.262-0.572 0.532-0.828 0.817l-0.008 0.009c-0.059-0.086-0.122-0.162-0.192-0.23l-0-0c-0.108-0.126-0.227-0.237-0.359-0.332l-0.006-0.004c-0.041-0.028-0.090-0.045-0.143-0.048l-0.001-0c-0.072 0.005-0.136 0.037-0.182 0.086l-0 0c-0.54 0.682-1.077 1.29-1.646 1.867l0.003-0.003q-0.49 0.49-0.98 0.922c-0.25 0.211-0.49 0.413-0.74 0.605 0.405-1.122 0.833-2.063 1.324-2.965l-0.056 0.111c0.014-0.030 0.022-0.064 0.022-0.101s-0.008-0.071-0.022-0.102l0.001 0.002c-0.028-0.067-0.089-0.116-0.162-0.125l-0.001-0c-0.169-0.041-0.37-0.072-0.575-0.086l-0.011-0.001c0.265-0.404 0.519-0.871 0.734-1.358l0.025-0.063c0.224-0.466 0.436-1.024 0.604-1.601l0.020-0.080c0.009-0.023 0.013-0.050 0.013-0.078 0-0.050-0.016-0.096-0.043-0.134l0 0.001c-0.045-0.057-0.114-0.094-0.192-0.096h-0.010c-0.588 0.035-1.139 0.138-1.663 0.301l0.049-0.013c0.042-0.282 0.066-0.609 0.066-0.94 0-0.115-0.003-0.23-0.009-0.344l0.001 0.016c-0.034-0.561-0.099-1.079-0.195-1.585l0.012 0.077c-0.018-0.11-0.112-0.192-0.225-0.192-0.002 0-0.004 0-0.005 0h0c-0.005-0-0.010-0.001-0.016-0.001-0.022 0-0.043 0.004-0.062 0.011l0.001-0c-0.412 0.161-0.76 0.332-1.092 0.528l0.035-0.019c0.002-0.081 0.003-0.177 0.003-0.273 0-0.296-0.012-0.589-0.035-0.88l0.002 0.038c-0.044-0.49-0.118-0.935-0.224-1.368l0.013 0.062c-0.026-0.1-0.115-0.173-0.222-0.173-0.003 0-0.006 0-0.009 0h0c-0.003-0-0.007-0-0.011-0-0.020 0-0.040 0.004-0.057 0.010l0.001-0c-0.324 0.12-0.599 0.252-0.86 0.407l0.024-0.013c-0.177-0.467-0.351-0.85-0.547-1.22l0.028 0.058c-0.202-0.384-0.423-0.778-0.74-1.297-0.022-0.036-0.051-0.065-0.085-0.086l-0.001-0.001c-0.035-0.024-0.078-0.038-0.125-0.038h-0zM15.998 0.192c0.019 0 0.038 0 0.048 0.019 0.519 0.855 0.999 1.71 1.297 2.594 0.009 0.017 0.027 0.029 0.047 0.029 0 0 0.001 0 0.001 0h-0c0.001 0 0.003 0 0.004 0 0.010 0 0.018-0.004 0.025-0.010v0c0.27-0.173 0.58-0.328 0.907-0.45l0.034-0.011h0.010c0 0 0.001 0 0.001 0 0.020 0 0.038 0.012 0.047 0.029l0 0c0.15 0.628 0.236 1.349 0.236 2.091 0 0.187-0.005 0.373-0.016 0.557l0.001-0.025c-0 0.001-0 0.002-0 0.003 0 0.025 0.020 0.045 0.045 0.045 0.001 0 0.002-0 0.003-0h0.029c0.357-0.228 0.768-0.438 1.2-0.607l0.049-0.017h0.010c0.019 0 0.048 0.010 0.048 0.038 0.183 0.97 0.25 2.008 0.096 2.94-0.010 0.029 0.010 0.048 0.038 0.048h0.019c0.525-0.184 1.132-0.305 1.762-0.336l0.015-0.001h0.010c0.023 0.001 0.041 0.019 0.041 0.042 0 0.006-0.001 0.011-0.003 0.016l0-0c-0.365 1.239-0.873 2.32-1.518 3.303l0.029-0.046c-0.004 0.008-0.007 0.017-0.007 0.027 0 0.023 0.015 0.043 0.036 0.050l0 0c0.286 0.007 0.561 0.038 0.827 0.092l-0.030-0.005c0.021 0.007 0.036 0.027 0.036 0.050 0 0.010-0.003 0.019-0.007 0.027l0-0c-0.519 1.018-1.057 2.133-1.422 3.305-0.001 0.003-0.001 0.006-0.001 0.010 0 0.027 0.021 0.048 0.048 0.048 0 0 0.001 0 0.001 0h-0c0.010 0 0.010-0.010 0.019-0.010 1.576-1.134 2.796-2.488 3.766-3.689 0.007-0.012 0.019-0.020 0.033-0.020 0.002 0 0.003 0 0.005 0l-0-0c0.001-0 0.003-0 0.004-0 0.009 0 0.018 0.004 0.024 0.010v0c0.247 0.176 0.45 0.397 0.6 0.653l0.005 0.010c0.013 0.012 0.029 0.019 0.048 0.019h0c0.010 0 0.019-0.010 0.038-0.019 0.602-0.667 1.263-1.261 1.981-1.781l0.037-0.025c0.008-0.004 0.018-0.008 0.028-0.010l0.001-0c0.019 0 0.029 0.010 0.038 0.029 0.259 0.452 0.384 0.97 0.49 1.431-0 0.001-0 0.002-0 0.003 0 0.019 0.016 0.035 0.035 0.035 0.001 0 0.002-0 0.003-0h0.019c0.652-0.328 1.423-0.632 2.224-0.868l0.101-0.026h0.010c0 0 0.001 0 0.001 0 0.027 0 0.048 0.021 0.048 0.048 0 0.003-0 0.007-0.001 0.010l0-0c-0.143 0.853-0.39 1.618-0.733 2.328l0.022-0.051c-0.001 0.004-0.002 0.009-0.002 0.014 0 0.025 0.017 0.046 0.040 0.053l0 0c0.465 0.069 0.882 0.183 1.277 0.34l-0.038-0.013c0.017 0.006 0.029 0.022 0.029 0.040 0 0.010-0.004 0.020-0.010 0.027l0-0c-0.468 0.829-1.048 1.534-1.729 2.124l-0.010 0.008c-0.013 0.008-0.022 0.022-0.022 0.038s0.009 0.030 0.021 0.038l0 0c0.28 0.168 0.522 0.355 0.741 0.568l-0.001-0.001c0.009 0.010 0.015 0.024 0.015 0.038s-0.006 0.028-0.015 0.039l0-0c-0.822 0.806-1.723 1.537-2.69 2.177l-0.067 0.042c-0.014 0.009-0.023 0.025-0.023 0.043 0 0.013 0.005 0.025 0.013 0.034l-0-0c0.359 0.279 0.677 0.578 0.964 0.905l0.007 0.008c0.019 0.019 0.019 0.058 0 0.067-0.717 0.634-1.549 1.158-2.459 1.535l-0.058 0.021c-0.038 0.010-0.038 0.058-0.010 0.086 0.326 0.254 0.612 0.532 0.867 0.837l0.007 0.009c0.007 0.008 0.011 0.019 0.011 0.031 0 0.020-0.012 0.038-0.029 0.046l-0 0c-0.682 0.355-1.518 0.586-2.382 0.74-0.019 0.003-0.034 0.020-0.034 0.040 0 0.017 0.010 0.031 0.024 0.037l0 0c1.184 0.364 2.209 0.814 3.168 1.365l-0.075-0.039c0.018 0.005 0.030 0.021 0.030 0.041 0 0.015-0.008 0.029-0.020 0.036l-0 0c-0.659 0.519-1.413 0.964-2.223 1.302l-0.064 0.024c-0.018 0.005-0.030 0.021-0.030 0.041 0 0.015 0.008 0.029 0.020 0.036l0 0c1.114 0.93 2.078 1.985 2.886 3.156l0.034 0.052c0.005 0.008 0.008 0.017 0.008 0.027 0 0.026-0.020 0.048-0.046 0.050h-0.010c-1.229-0.141-2.322-0.347-3.387-0.623l0.168 0.037c0-0 0-0 0-0 0-0.005-0.004-0.009-0.009-0.009-0 0-0 0-0 0v0c-0.038 0-0.058 0.038-0.048 0.077 0.202 0.404 0.384 0.826 0.557 1.278 0.001 0.004 0.002 0.010 0.002 0.015 0 0.028-0.022 0.051-0.050 0.052h-0.010c-1.080-0.106-2.033-0.255-2.969-0.454l0.173 0.031h-0.010c-0.001-0-0.003-0-0.004-0-0.026 0-0.046 0.021-0.046 0.046 0 0.012 0.004 0.023 0.012 0.031l-0-0c0.307 0.467 0.559 1.006 0.729 1.58l0.011 0.043c0.001 0.004 0.002 0.009 0.002 0.014 0 0.024-0.020 0.044-0.044 0.044-0.002 0-0.004-0-0.006-0l0 0h-0.010c-2.008-0.415-3.769-0.978-5.444-1.702l0.18 0.069c-0.016-0.007-0.034-0.010-0.053-0.010-0.005 0-0.010 0-0.015 0.001l0.001-0c-0 0-0.001 0-0.001 0-0.068 0-0.123 0.050-0.133 0.115l-0 0.001c-0.163 0.759 0.721 1.768 0.913 1.989 0.013 0.012 0.022 0.029 0.022 0.048s-0.008 0.036-0.022 0.048l-0 0-0.97 0.903c-0.014 0.008-0.030 0.015-0.047 0.019l-0.001 0c-0.023-0.002-0.044-0.012-0.058-0.029l-0-0c-0.75-0.786-1.229-1.835-1.287-2.996l-0-0.011c-0.002-0.031-0.027-0.055-0.057-0.058h-0c-0.001-0-0.003-0-0.004-0-0.009 0-0.018 0.004-0.024 0.010v0c-1.461 0.699-3.158 1.255-4.935 1.585l-0.128 0.020h-0.010c-0.028-0.001-0.050-0.024-0.050-0.052 0-0.005 0.001-0.010 0.002-0.015l-0 0c0.194-0.619 0.448-1.157 0.766-1.651l-0.016 0.027c0.005-0.008 0.008-0.017 0.008-0.027 0-0.026-0.020-0.048-0.046-0.050h-0c-0.010 0-0.010 0-0.019 0.010-0.764 0.169-1.718 0.318-2.687 0.414l-0.109 0.009c-0.038 0-0.067-0.038-0.048-0.067 0.187-0.52 0.372-0.945 0.579-1.356l-0.032 0.069c0.003-0.006 0.005-0.013 0.005-0.021 0-0.025-0.019-0.045-0.043-0.046h-0.019c-0.895 0.242-1.988 0.451-3.104 0.585l-0.115 0.011c-0.031-0.003-0.054-0.029-0.054-0.060 0-0.010 0.002-0.019 0.006-0.027l-0 0c0.848-1.218 1.814-2.27 2.904-3.178l0.026-0.021c0.029-0.019 0.019-0.067-0.019-0.086-0.87-0.358-1.62-0.8-2.297-1.332l0.021 0.016c-0.015-0.009-0.025-0.025-0.025-0.043s0.010-0.035 0.025-0.043l0-0c0.881-0.501 1.905-0.951 2.977-1.293l0.117-0.032c0.038-0.010 0.038-0.067 0-0.067-0.865-0.163-1.7-0.384-2.392-0.74-0.017-0.009-0.028-0.027-0.028-0.047 0-0.011 0.003-0.021 0.009-0.030l-0 0c0.263-0.319 0.553-0.6 0.871-0.846l0.012-0.009c0.011-0.008 0.017-0.021 0.017-0.035 0-0.018-0.011-0.034-0.027-0.041l-0-0c-0.961-0.398-1.787-0.922-2.506-1.564l0.009 0.007c-0.014-0.007-0.023-0.021-0.023-0.037 0-0.012 0.005-0.023 0.013-0.030l0-0c0.291-0.337 0.609-0.637 0.955-0.901l0.015-0.011c0.013-0.010 0.022-0.026 0.022-0.043s-0.008-0.033-0.021-0.043l-0-0c-1.039-0.679-1.944-1.41-2.769-2.221l0.002 0.002c-0.009-0.008-0.014-0.020-0.014-0.034s0.006-0.025 0.014-0.034l0-0c0.218-0.209 0.461-0.396 0.721-0.556l0.019-0.011c0.014-0.009 0.023-0.025 0.023-0.043 0-0.013-0.005-0.025-0.013-0.034l0 0c-0.697-0.597-1.28-1.302-1.728-2.094l-0.020-0.039c-0.004-0.007-0.007-0.015-0.007-0.024 0-0.021 0.015-0.039 0.036-0.043l0-0c0.355-0.144 0.769-0.258 1.199-0.323l0.031-0.004c0.025-0.007 0.043-0.029 0.043-0.055 0-0.008-0.002-0.015-0.004-0.022l0 0c-0.318-0.656-0.565-1.417-0.704-2.215l-0.007-0.052c-0.001-0.003-0.001-0.006-0.001-0.010 0-0.027 0.022-0.048 0.048-0.048 0 0 0.001 0 0.001 0h0.010c0.895 0.251 1.667 0.555 2.398 0.927l-0.073-0.034h0.019c0.029 0 0.038-0.010 0.048-0.038 0.103-0.538 0.269-1.018 0.495-1.463l-0.014 0.031c0.009-0.017 0.027-0.029 0.047-0.029 0 0 0.001 0 0.001 0h-0c0.010 0 0.019 0.010 0.029 0.010 0.754 0.545 1.415 1.139 2.008 1.795l0.010 0.011c0.010 0.010 0.023 0.017 0.038 0.019l0 0c0.019 0 0.029-0.010 0.038-0.029 0.162-0.261 0.367-0.478 0.608-0.649l0.007-0.005c0.006-0.006 0.015-0.010 0.024-0.010 0.002 0 0.003 0 0.004 0l-0-0c0.010 0 0.019 0 0.029 0.019 1.038 1.287 2.382 2.719 3.775 3.689 0.010 0.010 0.010 0.010 0.019 0.010 0.023-0.001 0.041-0.019 0.041-0.042 0-0.006-0.001-0.011-0.003-0.016l0 0c-0.355-1.172-0.893-2.286-1.422-3.305-0.001-0.005-0.002-0.011-0.002-0.016 0-0.027 0.017-0.050 0.040-0.060l0-0c0.233-0.048 0.505-0.079 0.782-0.086l0.006-0c0.026-0.004 0.045-0.025 0.045-0.052 0-0.009-0.002-0.018-0.007-0.026l0 0c-0.616-0.936-1.124-2.018-1.467-3.17l-0.022-0.087c-0.002-0.005-0.003-0.010-0.003-0.015 0-0.023 0.018-0.042 0.041-0.042h0.010c0.646 0.032 1.252 0.152 1.823 0.35l-0.046-0.014h0.019c0 0 0.001 0 0.001 0 0.021 0 0.039-0.017 0.039-0.039 0-0.003-0-0.007-0.001-0.010l0 0c-0.163-0.932-0.086-1.979 0.096-2.94 0-0.029 0.019-0.038 0.048-0.038h0.010c0.483 0.189 0.894 0.395 1.283 0.634l-0.034-0.020c0.006 0.006 0.015 0.010 0.024 0.010 0.002 0 0.003-0 0.005-0l-0 0c0.001 0 0.002 0 0.003 0 0.025 0 0.045-0.020 0.045-0.045 0-0.001-0-0.002-0-0.003v0c-0.010-0.159-0.015-0.345-0.015-0.532 0-0.741 0.086-1.462 0.249-2.154l-0.013 0.063c0.008-0.020 0.026-0.035 0.048-0.038l0-0c0 0 0 0 0 0 0.005 0 0.009 0.004 0.009 0.009 0 0 0 0 0 0v0c0.361 0.133 0.672 0.289 0.962 0.473l-0.020-0.012c0.010 0 0.019 0.009 0.029 0.009 0.001 0 0.002 0 0.003 0 0.019 0 0.035-0.016 0.035-0.035 0-0.001-0-0.002-0-0.003v0c0.307-0.874 0.788-1.729 1.306-2.584 0.010-0.019 0.019-0.019 0.038-0.019z"></path>
<path fill="#00205b" d="M24.951 14.669c0.077 0 0.154 0.010 0.231 0.010 0.585-0.010 1.135-0.147 1.628-0.385l-0.023 0.010 0.010 0.010c-0.553 0.344-1.223 0.548-1.942 0.548-0.027 0-0.053-0-0.080-0.001l0.004 0c-0.001 0-0.001-0-0.002-0-0.023 0-0.043 0.011-0.056 0.029l-0 0c-0.221 0.231-0.413 0.432-0.586 0.624-0.010 0.010-0.010 0.010-0.019 0.010h-0.010l-0.192-0.096c-0.005-0.005-0.008-0.012-0.009-0.019l-0-0c0.001-0.008 0.004-0.014 0.010-0.019l0-0c0.471-0.48 0.98-0.97 1.518-1.45 0.018-0.013 0.029-0.033 0.029-0.056 0-0.001 0-0.001-0-0.002v0c-0.012-0.112-0.019-0.241-0.019-0.372 0-0.424 0.074-0.831 0.21-1.209l-0.008 0.025h0.019c-0.055 0.259-0.087 0.557-0.087 0.862 0 0.204 0.014 0.405 0.042 0.602l-0.003-0.023h0.010c0.72-0.673 1.383-1.326 2.027-1.979l0.019 0.010c-0.547 0.644-1.153 1.297-1.787 1.931-0.307 0.298-0.625 0.605-0.932 0.932h-0.010zM24.528 17.686l-0.855 1.643c-0.086 0.178-0.264 0.298-0.471 0.298-0.007 0-0.013-0-0.020-0l0.001 0c-0.003 0-0.006 0-0.009 0-0.092 0-0.178-0.025-0.253-0.069l0.002 0.001c-0.221-0.115-0.432-0.221-0.653-0.327-0.183-0.1-0.305-0.291-0.305-0.511 0-0.090 0.021-0.175 0.057-0.251l-0.002 0.003 0.855-1.643c0.101-0.184 0.294-0.307 0.515-0.307 0.092 0 0.179 0.021 0.257 0.059l-0.003-0.002c0.211 0.106 0.432 0.221 0.644 0.336 0.183 0.098 0.305 0.287 0.305 0.505 0 0.096-0.024 0.187-0.066 0.267l0.002-0.003zM19.754 27.417c-0.306-0.002-0.606-0.026-0.898-0.072l0.034 0.004h-0.010c0.269 0.259 0.788 0.519 1.086 0.634l0.144 0.058-0.144-0.019c-0.355-0.058-1.076-0.404-1.47-0.749-0.010-0.010-0.010-0.010-0.019-0.010-0.644-0.144-1.201-0.346-1.758-0.346-0.72 0-1.239 0.163-1.499 0.884-0.005-0.038-0.008-0.082-0.008-0.126 0-0.109 0.017-0.215 0.048-0.314l-0.002 0.007c0-0 0-0 0-0 0-0.005-0.004-0.009-0.009-0.009-0 0-0 0-0 0v0c-0.134-0.096-0.673-0.423-1.201-0.423-0.797 0-1.816 0.893-2.603 0.98 0.375-0.125 0.807-0.413 1.239-0.673v-0.010c-0.73-0.144-1.643 0.010-2.613 0.259 0.932-0.365 1.873-0.557 2.863-0.404 0.010 0 0.010 0 0.019-0.010 0.365-0.211 0.74-0.375 1.076-0.375 0.497 0.022 0.952 0.18 1.335 0.438l-0.009-0.006c0.010 0.010 0.010 0.010 0.010 0 0.25-0.365 0.768-0.509 1.316-0.509 0.855 0 2.181 0.634 3.237 0.634 1.153 0 1.489-0.106 1.825-0.183-0.317 0.134-0.836 0.336-1.989 0.336zM10.186 15.851l0.692-0.231c0.052-0.018 0.111-0.029 0.173-0.029h0c0.253 0.001 0.468 0.164 0.546 0.39l0.001 0.004 0.596 1.758c0.019 0.053 0.030 0.114 0.030 0.177 0 0.090-0.022 0.174-0.060 0.248l0.001-0.003c-0.068 0.132-0.183 0.232-0.323 0.278l-0.004 0.001-0.692 0.231c-0.052 0.024-0.114 0.039-0.178 0.039-0.005 0-0.010-0-0.015-0l0.001 0c-0.239-0.004-0.442-0.157-0.517-0.371l-0.001-0.004-0.596-1.758c-0.018-0.055-0.029-0.117-0.029-0.183 0-0.248 0.154-0.46 0.371-0.546l0.004-0.001zM9.283 19.521l-1.134-2.209-0.038 0.019c-0.192 0.106-0.384 0.211-0.576 0.307l-0.231-0.432c0.557-0.307 1.124-0.605 1.7-0.884l0.221 0.442c-0.192 0.096-0.384 0.192-0.586 0.288l-0.029 0.019 1.143 2.209c-0.154 0.077-0.317 0.154-0.471 0.24zM6.843 14.545c-0.010-0.010-0.019-0.019-0.029-0.019h-0.077c-0.012 0-0.025 0-0.039 0-0.766 0-1.48-0.222-2.081-0.605l0.016 0.009v-0.009c0.517 0.268 1.127 0.431 1.774 0.442l0.004 0c0.077 0 0.163-0.010 0.24-0.010-0.128-0.137-0.256-0.266-0.389-0.39l-0.005-0.004c-0.734-0.702-1.422-1.432-2.069-2.197l-0.034-0.042 0.010-0.010c0.692 0.73 1.297 1.326 1.844 1.825h0.010c0.021-0.128 0.033-0.276 0.033-0.426 0-0.322-0.054-0.631-0.154-0.919l0.006 0.020 0.010-0.010c0.173 0.342 0.274 0.746 0.274 1.174 0 0.098-0.005 0.194-0.016 0.289l0.001-0.012c0 0 0 0.001 0 0.001 0 0.020 0.012 0.038 0.029 0.047l0 0c0.49 0.442 0.961 0.874 1.383 1.307 0-0.009 0-0.019 0-0.030 0-0.609-0.187-1.174-0.506-1.642l0.006 0.010 0.010-0.010c0.428 0.492 0.692 1.137 0.701 1.843l0 0.002c0 0.019 0 0.038 0.019 0.048 0.067 0.077 0.135 0.144 0.202 0.211v0.019c0 0.009 0 0.009-0.010 0.019l-0.173 0.086h-0.010c-0.010 0-0.019 0-0.019-0.010-0.365-0.404-0.682-0.73-0.961-1.009zM11.876 21.961v-1.201l-0.461 1.038-0.451-1.038v1.201h-0.509v-2.594h0.404l0.557 1.297 0.567-1.297h0.404v2.594zM11.972 24.872v0.49h-1.518v-2.594h0.509v2.104zM13.644 14.996c0.018-0.007 0.039-0.010 0.061-0.010 0.006 0 0.011 0 0.016 0.001l-0.001-0c0.286 0.002 0.523 0.212 0.566 0.487l0 0.003 0.154 0.942c0.004 0.026 0.007 0.056 0.007 0.087 0 0.226-0.136 0.421-0.33 0.507l-0.004 0.001-0.048 0.019 0.029 0.038c0.183 0.269 0.375 0.528 0.557 0.797-0.163 0.019-0.336 0.038-0.509 0.067-0.183-0.269-0.375-0.528-0.557-0.797l-0.019-0.019-0.019 0.010c-0.077 0.010-0.144 0.019-0.221 0.029l-0.038 0.010 0.144 0.884c-0.173 0.029-0.346 0.058-0.509 0.096l-0.48-2.949c0.394-0.077 0.797-0.144 1.201-0.202zM16.795 21.202h-0.615v0.759h-0.509v-2.594h1.124c0.001 0 0.002 0 0.003 0 0.28 0 0.506 0.227 0.506 0.506 0 0.001 0 0.002 0 0.003v-0 0.807c0 0.001 0 0.003 0 0.004 0 0.282-0.227 0.512-0.509 0.515h-0zM15.133 17.254v-1.854c0.007-0.312 0.255-0.564 0.566-0.576l0.001-0h0.73c0.311 0.012 0.56 0.264 0.567 0.576v1.855c-0.001 0.308-0.252 0.557-0.56 0.557-0.002 0-0.005 0-0.007-0h0c-0.404-0.010-0.673 0-0.74 0-0.002 0-0.004 0-0.006 0-0.305 0-0.551-0.247-0.551-0.551 0-0.002 0-0.004 0-0.006v0zM15.594 22.768h0.701l0.692 2.594h-0.528l-0.115-0.49h-0.807l-0.125 0.49h-0.528zM13.673 21.471l-0.106 0.49h-0.519l0.634-2.594h0.692l0.634 2.594h-0.519l-0.106-0.49zM13.951 23.815v0.49h-0.797v0.567h1.114v0.49h-1.624v-2.594h1.624v0.49h-1.114v0.557zM13.087 9.751c0.715 1.064 1.627 1.94 2.691 2.591l0.038 0.022h0.010v-0.010c-0.010-0.807 0-1.623 0.019-2.421 0-0.001 0-0.002 0-0.003 0-0.029-0.011-0.055-0.029-0.074l0 0c-0.618-0.467-1.12-1.054-1.475-1.73l-0.014-0.028h0.010c0.406 0.624 0.904 1.15 1.482 1.574l0.017 0.012c0.010 0 0.019 0 0.019-0.010 0.010-0.298 0.019-0.538 0.029-0.769 0.048-0.672 0.077-1.374 0.106-2.075 0-0.001 0-0.002 0-0.003 0-0.026-0.011-0.049-0.029-0.065l-0-0c-0.436-0.518-0.834-1.097-1.173-1.712l-0.028-0.055 0.019-0.010c0.373 0.581 0.769 1.086 1.206 1.552l-0.005-0.006h0.010c0 0 0 0 0 0 0.005 0 0.009-0.004 0.009-0.009 0-0 0-0 0-0v0c0.029-1.095 0.038-2.181 0.038-3.247h0.010c0.096 0.999 0.134 3.141 0.106 4.976v0.010c0.002 0.003 0.006 0.004 0.010 0.004s0.007-0.002 0.010-0.004v0c0.564-0.292 1.050-0.631 1.486-1.024l-0.006 0.005 0.010 0.010c-0.427 0.463-0.917 0.858-1.459 1.175l-0.030 0.016c-0.015 0.007-0.026 0.021-0.029 0.038l-0 0c0 0.163 0 0.307-0.010 0.452-0.048 1.037-0.048 2.257 0 3.746 0 0.010 0.010 0.010 0.019 0.010 1.21-0.865 2.123-1.796 2.699-2.767h0.019c-0.471 0.98-1.46 2.094-2.719 3.036-0.010 0.010-0.010 0.019-0.010 0.038 0.010 0.231 0.019 0.461 0.029 0.701 0 0 0 0 0 0 0 0.005-0.004 0.009-0.009 0.009-0 0-0 0-0 0v0c0 0.010-0.010 0.010-0.019 0.010h-0.259c-0.010 0-0.029-0.010-0.029-0.019-0.010-0.336-0.019-0.673-0.029-1.037 0-0.019 0-0.029-0.010-0.029-1.134-0.735-2.059-1.699-2.726-2.833l-0.022-0.040zM18.073 21.961v-2.594h0.509v2.104h0.941v0.49zM18.918 23.815v0.49h-0.797v1.057h-0.509v-2.594h1.624v0.49h-1.114v0.557zM19.053 16.821l0.288-1.681c0.173 0.029 0.346 0.058 0.509 0.096l-0.5 2.94c-0.134-0.029-0.269-0.058-0.403-0.077-0.192-0.567-0.384-1.143-0.576-1.7l-0.048-0.144-0.288 1.681c-0.173-0.019-0.346-0.048-0.519-0.067l0.5-2.94c0.134 0.019 0.279 0.038 0.413 0.058 0.192 0.557 0.384 1.134 0.576 1.691zM19.907 24.603h0.519v0.106c-0 0.001-0 0.002-0 0.003 0 0.086 0.068 0.157 0.153 0.16h0.423c0.089-0.003 0.161-0.074 0.163-0.163v-0.154c-0.002-0.061-0.036-0.115-0.086-0.144l-0.001-0c-0.010 0-0.922-0.413-0.922-0.413-0.15-0.082-0.251-0.239-0.251-0.42 0-0.011 0-0.022 0.001-0.033l-0 0.002v-0.269c0-0 0-0 0-0.001 0-0.281 0.228-0.509 0.509-0.509 0.004 0 0.007 0 0.011 0h0.73c0.001 0 0.003-0 0.004-0 0.282 0 0.511 0.227 0.515 0.509v0.24h-0.509v-0.106c-0.003-0.089-0.074-0.161-0.163-0.163h-0.423c-0.086 0.004-0.154 0.074-0.154 0.16 0 0.001 0 0.002 0 0.003v-0 0.058c0.001 0.059 0.036 0.11 0.086 0.134l0.001 0c0.010 0.010 0.913 0.413 0.913 0.413 0.151 0.086 0.251 0.245 0.251 0.428 0 0.012-0 0.023-0.001 0.034l0-0.002v0.365c0 0.001 0 0.001 0 0.002 0 0.285-0.231 0.517-0.517 0.517-0.001 0-0.002 0-0.002 0h-0.73c-0.286-0.002-0.517-0.233-0.519-0.519v-0zM20.176 19.367h1.499v0.48h-0.989v0.567h0.672v0.49h-0.673v0.567h0.99v0.49h-1.499zM21.108 16.101c-0.211-0.067-0.423-0.134-0.624-0.202l0.154-0.471c0.615 0.183 1.22 0.394 1.816 0.605l-0.163 0.471c-0.202-0.077-0.404-0.144-0.615-0.221l-0.038-0.010-0.788 2.354c-0.163-0.058-0.336-0.106-0.5-0.163l0.797-2.354z"></path>
<path fill="#00205b" d="M11.098 18.157c0.004 0 0.008 0 0.013 0 0.023 0 0.045-0.004 0.066-0.010l-0.002 0 0.317-0.115c0.057-0.019 0.104-0.056 0.134-0.105l0.001-0.001c0.012-0.030 0.020-0.064 0.020-0.101 0-0.026-0.004-0.051-0.010-0.074l0 0.002-0.5-1.46c-0.028-0.090-0.11-0.154-0.207-0.154-0.002 0-0.003 0-0.005 0h0c-0.019 0-0.048 0.010-0.067 0.010-0.115 0.038-0.221 0.077-0.327 0.115-0.086 0.030-0.147 0.111-0.147 0.206 0 0.026 0.005 0.051 0.013 0.074l-0-0.002 0.49 1.46c0.028 0.090 0.11 0.154 0.207 0.154 0.002 0 0.003-0 0.005-0h-0z"></path>
<path fill="#fff" d="M23.981 17.571l-0.701 1.364c-0.037 0.075-0.113 0.125-0.201 0.125-0 0-0.001 0-0.001 0h0c-0.039-0.002-0.075-0.012-0.107-0.029l0.001 0.001c-0.096-0.048-0.202-0.106-0.298-0.154-0.052-0.028-0.090-0.076-0.105-0.133l-0-0.001c-0.009-0.022-0.014-0.048-0.014-0.075 0-0.036 0.009-0.069 0.024-0.099l-0.001 0.001 0.711-1.364c0.037-0.075 0.113-0.125 0.201-0.125 0 0 0 0 0.001 0h-0c0.036 0.001 0.069 0.011 0.097 0.029l-0.001-0c0.106 0.048 0.202 0.106 0.298 0.154 0.074 0.038 0.123 0.113 0.123 0.2 0 0.039-0.010 0.076-0.028 0.108l0.001-0.001zM24.288 16.917c-0.211-0.115-0.432-0.231-0.644-0.336-0.073-0.036-0.159-0.057-0.25-0.058h-0c-0.003-0-0.007-0-0.011-0-0.219 0-0.41 0.123-0.506 0.304l-0.002 0.003-0.855 1.643c-0.037 0.071-0.059 0.156-0.059 0.245 0 0.064 0.011 0.125 0.031 0.181l-0.001-0.004c0.043 0.145 0.144 0.262 0.276 0.325l0.003 0.001c0.221 0.115 0.432 0.221 0.653 0.336 0.072 0.042 0.158 0.067 0.25 0.067 0.003 0 0.007-0 0.010-0h-0c0.003 0 0.006 0 0.009 0 0.209 0 0.391-0.12 0.48-0.295l0.001-0.003 0.855-1.643c0.041-0.077 0.065-0.167 0.065-0.264 0-0.218-0.122-0.407-0.302-0.503l-0.003-0.002zM14.268 23.258v-0.49h-1.624v2.594h1.624v-0.49h-1.114v-0.567h0.797v-0.49h-0.797v-0.557zM20.849 18.627l0.788-2.354 0.038 0.010c0.202 0.077 0.413 0.144 0.615 0.221l0.163-0.471c-0.596-0.211-1.21-0.423-1.816-0.605l-0.154 0.471c0.202 0.067 0.413 0.135 0.624 0.202l0.029 0.010-0.788 2.354c0.163 0.058 0.336 0.106 0.5 0.163zM19.523 21.471h-0.942v-2.104h-0.509v2.594h1.451zM21.675 21.471h-0.989v-0.567h0.672v-0.49h-0.673v-0.567h0.99v-0.48h-1.499v2.594h1.499zM20.426 25.362h0.73c0.001 0 0.001 0 0.002 0 0.285 0 0.517-0.231 0.517-0.517 0-0.001 0-0.002 0-0.002v0-0.365c0.001-0.010 0.001-0.021 0.001-0.033 0-0.183-0.1-0.343-0.248-0.427l-0.002-0.001s-0.903-0.404-0.913-0.404c-0.050-0.030-0.083-0.083-0.086-0.144l-0-0v-0.058c0-0.001 0-0.001 0-0.002 0-0.084 0.068-0.152 0.152-0.152 0.001 0 0.001 0 0.002 0h0.423c0.001-0 0.002-0 0.003-0 0.086 0 0.156 0.068 0.16 0.153v0.106h0.509v-0.24c-0.003-0.282-0.232-0.509-0.515-0.509-0.002 0-0.003 0-0.005 0h-0.73c-0.001 0-0.003-0-0.004-0-0.282 0-0.511 0.227-0.515 0.509v0.269c-0.001 0.010-0.001 0.021-0.001 0.033 0 0.183 0.1 0.343 0.248 0.427l0.002 0.001s0.913 0.403 0.922 0.403c0.047 0.033 0.079 0.084 0.086 0.143l0 0.001v0.163c-0.004 0.086-0.074 0.154-0.16 0.154-0.001 0-0.002 0-0.003-0h-0.423c-0.001 0-0.001 0-0.002 0-0.084 0-0.152-0.068-0.152-0.152 0-0.001 0-0.001 0-0.002v0-0.115h-0.519v0.24c0.002 0.286 0.233 0.517 0.519 0.519h0zM18.015 14.919l-0.5 2.94c0.173 0.029 0.346 0.058 0.519 0.077l0.288-1.691 0.048 0.154c0.192 0.557 0.384 1.133 0.576 1.691 0.134 0.029 0.269 0.058 0.413 0.086l0.49-2.94c-0.163-0.038-0.336-0.067-0.509-0.106l-0.288 1.691-0.048-0.144-0.576-1.7c-0.134-0.019-0.269-0.038-0.413-0.058zM19.235 23.258v-0.49h-1.624v2.594h0.509v-1.057h0.797v-0.49h-0.797v-0.557zM13.788 20.981l0.24-1.076 0.24 1.076zM14.489 21.961h0.519l-0.634-2.594h-0.692l-0.644 2.594h0.528l0.106-0.49h0.701zM13.068 15.592c0.163-0.029 0.317-0.058 0.471-0.077 0.011-0.002 0.023-0.003 0.035-0.003 0.111 0 0.203 0.079 0.224 0.184l0 0.001 0.106 0.634c0.001 0.010 0.002 0.022 0.002 0.034 0 0.052-0.015 0.1-0.041 0.14l0.001-0.001c-0.037 0.047-0.091 0.079-0.153 0.086l-0.001 0c-0.154 0.019-0.307 0.048-0.461 0.077l-0.048 0.010-0.173-1.086zM13.433 18.051l-0.144-0.884 0.038-0.009c0.067-0.010 0.144-0.019 0.211-0.029l0.029-0.010 0.010 0.019c0.192 0.269 0.375 0.528 0.567 0.797 0.173-0.029 0.336-0.048 0.509-0.077-0.192-0.259-0.375-0.528-0.557-0.788l-0.029-0.038 0.038-0.019c0.203-0.084 0.343-0.28 0.343-0.509 0-0.030-0.002-0.060-0.007-0.089l0 0.003-0.154-0.941c-0.047-0.276-0.282-0.485-0.566-0.49h-0.001c-0.004-0-0.009-0-0.014-0-0.026 0-0.051 0.004-0.074 0.010l0.002-0c-0.394 0.058-0.797 0.125-1.201 0.202l0.48 2.94 0.519-0.086zM12.386 19.367h-0.404l-0.567 1.297-0.557-1.297h-0.403v2.594h0.509v-1.201l0.451 1.038 0.461-1.038v1.201h0.509zM10.455 22.768v2.594h1.518v-0.49h-1.009v-2.104zM16.795 20.558c0 0.001 0 0.001 0 0.002 0 0.084-0.068 0.152-0.152 0.152-0.001 0-0.001 0-0.002 0h-0.461v-0.865h0.461c0.086 0.004 0.154 0.074 0.154 0.16 0 0.001 0 0.002-0 0.003v-0 0.548zM17.304 20.683v-0.807c0-0.001 0-0.002 0-0.003 0-0.28-0.227-0.506-0.506-0.506-0.001 0-0.002 0-0.003 0h-1.124v2.594h0.509v-0.759h0.615c0.282-0.003 0.509-0.232 0.509-0.515 0-0.002 0-0.003-0-0.005v0zM15.94 23.306l0.279 1.076h-0.557zM15.536 24.872h0.807l0.115 0.49h0.528l-0.701-2.594h-0.692l-0.711 2.594h0.528zM15.671 15.544c-0-0.001-0-0.002-0-0.004 0-0.12 0.097-0.217 0.217-0.217 0.001 0 0.003 0 0.004 0h0.336c0.124 0.001 0.224 0.098 0.231 0.22l0 0.001v1.537c-0.002 0.127-0.104 0.229-0.23 0.231h-0.336c-0.123-0.003-0.221-0.103-0.221-0.226 0-0.002 0-0.004 0-0.005v0zM16.43 17.811c0.002 0 0.005 0 0.007 0 0.308 0 0.558-0.249 0.56-0.557v-1.854c-0.007-0.312-0.255-0.564-0.566-0.576l-0.001-0h-0.73c-0.311 0.012-0.56 0.264-0.567 0.576v1.855c0 0.308 0.25 0.557 0.557 0.557h0c0.058 0 0.336-0.010 0.74 0zM10.531 16.264l0.317-0.115c0.029 0 0.048-0.010 0.077-0.010 0.001-0 0.003-0 0.004-0 0.097 0 0.179 0.064 0.207 0.152l0 0.002 0.5 1.46c0.006 0.019 0.010 0.041 0.010 0.064 0 0.040-0.011 0.078-0.029 0.11l0.001-0.001c-0.025 0.051-0.069 0.089-0.124 0.105l-0.001 0-0.317 0.115c-0.029 0-0.048 0.010-0.077 0.010-0.098-0.002-0.18-0.065-0.211-0.152l-0.001-0.002-0.49-1.46c-0.008-0.022-0.012-0.047-0.012-0.073 0-0.095 0.061-0.176 0.145-0.205l0.002-0zM10.954 18.714c0.004 0 0.009 0 0.014 0 0.065 0 0.126-0.014 0.181-0.040l-0.003 0.001 0.692-0.231c0.144-0.047 0.259-0.146 0.325-0.275l0.001-0.003c0.037-0.071 0.059-0.156 0.059-0.245 0-0.064-0.011-0.125-0.031-0.181l0.001 0.004-0.586-1.758c-0.086-0.229-0.303-0.39-0.557-0.394h-0c-0.062 0-0.121 0.011-0.177 0.030l0.004-0.001-0.691 0.231c-0.222 0.084-0.377 0.295-0.377 0.542 0 0.067 0.011 0.132 0.033 0.192l-0.001-0.004 0.596 1.758c0.077 0.217 0.28 0.371 0.518 0.375h0zM8.639 17.052c0.202-0.096 0.394-0.192 0.596-0.288l-0.231-0.442c-0.576 0.279-1.143 0.576-1.7 0.884l0.231 0.432c0.192-0.096 0.384-0.202 0.576-0.307l0.038-0.019 1.143 2.21c0.154-0.086 0.307-0.163 0.461-0.24l-1.143-2.209zM16.68 26.62c-0.547 0-1.066 0.154-1.316 0.519 0 0 0 0.010-0.010 0-0.374-0.252-0.829-0.411-1.32-0.432l-0.005-0c-0.336 0-0.711 0.163-1.076 0.375h-0.019c-0.989-0.144-1.931 0.048-2.863 0.413 0.97-0.25 1.883-0.404 2.613-0.259v0.010c-0.432 0.259-0.865 0.548-1.239 0.673 0.788-0.086 1.806-0.98 2.603-0.98 0.528 0 1.066 0.327 1.201 0.423 0 0 0 0 0 0 0.005 0 0.009 0.004 0.009 0.009 0 0 0 0 0 0v0c-0.029 0.092-0.046 0.197-0.046 0.306 0 0.044 0.003 0.088 0.008 0.131l-0.001-0.005c0.259-0.721 0.778-0.884 1.499-0.884 0.557 0 1.114 0.202 1.758 0.346 0.010 0 0.010 0 0.019 0.010 0.394 0.336 1.114 0.682 1.47 0.74l0.144 0.029-0.144-0.058c-0.288-0.115-0.817-0.375-1.086-0.634 0-0 0-0 0-0 0-0.005 0.004-0.009 0.009-0.009 0 0 0 0 0 0v0c0.258 0.049 0.555 0.077 0.858 0.077 0.002 0 0.005 0 0.007 0h-0c1.143 0 1.671-0.202 1.989-0.336-0.346 0.067-0.673 0.173-1.825 0.173-1.057 0.009-2.382-0.634-3.237-0.634zM25.883 13.728c0.634-0.634 1.23-1.287 1.787-1.931l-0.019-0.010c-0.644 0.653-1.316 1.307-2.027 1.979h-0.010c-0.025-0.174-0.039-0.375-0.039-0.579 0-0.305 0.032-0.603 0.092-0.89l-0.005 0.028h-0.019c-0.131 0.364-0.207 0.785-0.207 1.223 0 0.117 0.005 0.233 0.016 0.348l-0.001-0.015c0.003 0.006 0.005 0.012 0.005 0.019 0 0.017-0.010 0.031-0.024 0.038l-0 0c-0.547 0.49-1.057 0.98-1.518 1.46-0 0-0 0-0 0-0.005 0-0.009 0.004-0.009 0.009 0 0 0 0 0 0v0c0.001 0.008 0.005 0.014 0.010 0.019v0l0.182 0.096h0.019c0.010 0 0.010 0 0.019-0.010 0.173-0.183 0.365-0.384 0.586-0.615 0.013-0.017 0.033-0.029 0.056-0.029 0.001 0 0.001 0 0.002 0h-0c0.008 0 0.018 0 0.028 0 0.734 0 1.421-0.204 2.006-0.557l-0.017 0.010-0.010-0.019c-0.472 0.228-1.026 0.365-1.611 0.375l-0.003 0c-0.010 0-0.022 0-0.033 0-0.066 0-0.131-0.004-0.195-0.011l0.008 0.001h-0.010v-0.010c0.317-0.317 0.634-0.634 0.941-0.932zM7.822 15.563h0.010l0.173-0.086 0.019-0.019c0-0.010 0-0.010-0.010-0.019l-0.202-0.202c-0.010-0.017-0.017-0.036-0.019-0.057l-0-0.001c-0.006-0.707-0.267-1.352-0.695-1.848l0.003 0.004-0.019 0.010c0.319 0.456 0.509 1.023 0.509 1.633 0 0.010-0 0.020-0 0.030v-0.002h-0.010c-0.423-0.432-0.893-0.865-1.383-1.307-0.017-0.009-0.029-0.027-0.029-0.047 0-0 0-0.001 0-0.001v0c0.009-0.083 0.014-0.179 0.014-0.277 0-0.428-0.101-0.831-0.281-1.189l0.007 0.015-0.010 0.010c0.094 0.268 0.148 0.578 0.148 0.899 0 0.15-0.012 0.298-0.035 0.442l0.002-0.016h-0.010c-0.548-0.5-1.153-1.095-1.844-1.825l-0.010 0.010c0.686 0.809 1.373 1.542 2.095 2.24l0.009 0.008c0.125 0.115 0.25 0.24 0.394 0.384-0.077 0-0.163 0.009-0.24 0.009-0.65-0.011-1.26-0.173-1.8-0.453l0.023 0.011v0.019c0.593 0.374 1.315 0.596 2.089 0.596 0.005 0 0.011 0 0.016-0h0.076c0.001-0 0.003-0 0.004-0 0.010 0 0.018 0.004 0.025 0.010v0c0.322 0.321 0.635 0.65 0.94 0.986l0.020 0.023c0.005 0.005 0.012 0.009 0.019 0.010l0 0zM15.815 12.633c0.010 0 0.010 0.010 0.010 0.019 0.010 0.375 0.019 0.711 0.029 1.047 0 0.010 0.010 0.019 0.029 0.019h0.259c0.010 0 0.010 0 0.019-0.010 0.010 0 0.010-0.010 0.010-0.019-0.010-0.231-0.019-0.471-0.029-0.701-0-0.001-0-0.003-0-0.004 0-0.010 0.004-0.018 0.010-0.025v0c1.258-0.951 2.248-2.056 2.719-3.036l-0.019-0.010c-0.576 0.97-1.489 1.902-2.699 2.767-0.010 0.010-0.019 0-0.019-0.010-0.048-1.479-0.048-2.709 0-3.737 0-0.144 0.010-0.288 0.010-0.452 0-0.019 0.010-0.029 0.029-0.038 0.572-0.333 1.062-0.728 1.485-1.187l0.004-0.004-0.010-0.010c-0.431 0.387-0.917 0.728-1.44 1.008l-0.040 0.019c-0.009 0-0.019 0-0.019-0.010v-0.010c0.029-1.835-0.009-3.967-0.106-4.976h-0.010c0.010 1.066-0.010 2.161-0.038 3.247 0 0 0 0 0 0 0 0.005-0.004 0.009-0.009 0.009-0 0-0 0-0 0v0h-0.010c-0.436-0.457-0.831-0.959-1.177-1.497l-0.024-0.040h-0.019c0.361 0.671 0.759 1.251 1.212 1.781l-0.011-0.014c0.018 0.016 0.029 0.039 0.029 0.065 0 0.001 0 0.002-0 0.003v-0c-0.029 0.711-0.058 1.402-0.106 2.075-0.010 0.231-0.019 0.48-0.029 0.768 0 0.010-0.010 0.019-0.019 0.010-0.592-0.438-1.090-0.963-1.484-1.562l-0.014-0.023-0.010 0.010c0.372 0.703 0.873 1.289 1.476 1.749l0.013 0.009c0.018 0.014 0.029 0.035 0.029 0.059 0 0.003-0 0.006-0 0.008l0-0c-0.019 0.807-0.029 1.614-0.019 2.421v0.010h-0.010c-1.101-0.673-2.014-1.549-2.709-2.582l-0.020-0.031-0.019 0.010c0.691 1.171 1.615 2.135 2.715 2.852l0.033 0.020z"></path>
</svg>
