<!-- Generated by IcoMoon.io -->
<svg version="1.1" xmlns="http://www.w3.org/2000/svg" width="32" height="32" viewBox="0 0 32 32">
<title>25</title>
<path fill="#00843d" d="M4.802 23.312h-2.62l3.569-5.983-5.751-4.634h8.526l0.91-1.536h2.704l5.021-8.306 0.839 8.351c1.414 0.142 2.569 0.652 3.369 1.491h10.63l-10.101 5.409c-0.142 0.3-0.269 0.537-0.405 0.768l0.024-0.045c-0.623 1.103-1.454 2.018-2.446 2.719l-0.026 0.017 0.71 7.048-6.609-5.331c-0.316 0.019-0.645 0.032-0.968 0.032l-10.901 5.834z"></path>
<path fill="#010101" d="M5.777 22.757h-2.627l3.324-5.557-4.912-3.956h7.274l0.917-1.53h2.698l4.324-7.164 0.723 7.17c1.594 0.071 2.846 0.594 3.627 1.523h8.674l-8.332 4.46c-0.152 0.343-0.296 0.623-0.455 0.893l0.022-0.041c-0.637 1.12-1.505 2.040-2.545 2.718l-0.030 0.018 0.613 6.060-5.75-4.634c-0.413 0.026-0.846 0.039-1.291 0.039l-9.242 4.95z"></path>
<path fill="#fff" d="M25.403 14.348h-4.86c-0.516-0.955-1.704-1.53-3.401-1.53h-0.639l-0.491-4.866-2.937 4.866h-2.698l-0.916 1.53h-4.776l3.227 2.594-2.814 4.711h4.615l-2.362 0.639-1.542 2.549 5.951-3.188h0.245c0.6 0 1.155-0.026 1.672-0.064l4.034 3.253-0.355-3.388c-1.091 0.116-2.143 0.026-2.633 0.013 2.84-0.458 4.331-1.697 5.363-3.466 0.703-1.2 0.897-2.285 0.665-3.137 0.373 0.442 0.623 1 0.689 1.613l0.001 0.013z"></path>
<path fill="#8d9093" d="M21.118 15.419c0.168 0.31 0.283 0.674 0.322 1.059l0.001 0.012 3.963-2.143zM20.543 14.348l-1.691 0.826c0.11 0.29 0.265 0.975-0.155 1.994-0.478 1.168-1.904 3.227-5.802 3.227h-5.221l-2.575 1.259h4.615l-0.594 0.161-3.311 3.020 5.951-3.182h0.245c0.6 0 1.155-0.026 1.672-0.064l1.046-0.129c2.84-0.452 4.331-1.691 5.363-3.459 0.703-1.207 0.897-2.285 0.665-3.143-0.064-0.2-0.134-0.369-0.216-0.531l0.010 0.021zM11.179 15.187h3.995c1.149 0 1.839 0.213 2.014 0.8l1.665-0.813c-0.452-1.058-1.749-1.175-2.562-1.175h-4.795l-0.007-0.006-3.814 6.402 2.582-1.265 1.923-3.143zM8.713 15.6l-4.027-1.252 3.227 2.594zM16.013 7.952l-1.155 4.86h1.646zM17.355 21.447l0.355 3.388-1.762-3.33c0.079 0.002 0.172 0.003 0.265 0.003 0.402 0 0.8-0.022 1.19-0.066l-0.048 0.004z"></path>
<path fill="#010101" d="M15.174 15.187h-3.995l1 0.8-1.923 3.143h2.646c0.884 0 1.897-0.032 2.749-0.529 1.065-0.633 1.704-1.736 1.555-2.511-0.123-0.671-0.82-0.904-2.033-0.904z"></path>
</svg>
