<!-- Generated by IcoMoon.io -->
<svg version="1.1" xmlns="http://www.w3.org/2000/svg" width="32" height="32" viewBox="0 0 32 32">
<title>29</title>
<path fill="#a4a9ad" d="M25.771 22.060l6.228-14.328c-2.678 1.585-5.851 3.163-9.139 4.519l-0.51 0.186 8.842-6.57-5.57 0.955c-0.794-0.478-3.563-1.91-8.035-1.91 0 0-0.394 0.013-0.729 0.019-0.161-0.484-0.942-2.769-0.942-2.769l-1.426 2.956c-8.145 1.046-14.489 5.86-14.489 11.056 0 2.323 0.994 5.376 5.576 7.028l-2.31 5.718 6.118-4.828c1.254 0.173 2.703 0.272 4.175 0.272 0.062 0 0.123-0 0.185-0l-0.009 0c0.005 0 0.012 0 0.018 0 1.896 0 3.756-0.15 5.571-0.439l-0.2 0.026 6.693 5.886-2.285-6.899c0.908-0.297 1.649-0.595 2.368-0.932l-0.128 0.054z"></path>
<path fill="#002654" d="M30.851 9.029s-5.247 3.053-11.094 5.073l-0.206-0.568 10.030-6.951-11.146 2.853 6.235-2.517s-2.64-1.471-7.080-1.471c-0.368 0-0.742 0.006-1.11 0.026l-0.645-1.898-3.466 7.196-5.299 1.504 4.918-2.014 1.614-3.285 0.336-0.691 0.29-0.594c-7.396 1.058-13.689 5.466-13.689 10.481 0 2.814 1.549 5.389 5.783 6.712l-2.188 4.77 5.099-4.131c1.29 0.189 2.779 0.298 4.293 0.298 0.074 0 0.149-0 0.223-0.001l-0.011 0c0.013 0 0.028 0 0.044 0 1.946 0 3.856-0.157 5.717-0.46l-0.204 0.027 5.654 5.021-2.117-5.815c0.986-0.276 1.826-0.593 2.631-0.972l-0.101 0.043z"></path>
<path fill="#ce1126" d="M16.839 20.292c-1.525-0.275-2.813-0.593-4.070-0.981l0.243 0.065s1.104-0.426 2.736-1.175c1.459-0.671 3.337-1.594 5.228-2.704 1.657-0.954 3.081-1.935 4.419-3.018l-0.063 0.049s-7.661 4.182-14.018 4.182c-4.272 0-6.247-1.988-6.247-3.311 0-3.963 6.97-6.009 8.532-6.422l0.336-0.691c-6.699 1.323-9.191 3.95-9.191 3.95s-2.239 1.355-3.091 3.872c-0.199 0.58-0.315 1.247-0.316 1.942v0.001c0 3.027 1.982 6.99 12.153 6.99 7.222 0 11.062-1.917 11.062-1.917-1.302-0.038-2.522-0.119-3.728-0.244l0.211 0.018c-1.407-0.142-2.808-0.349-4.195-0.607zM22.841 6.874s-2.098-1.020-6.189-0.891l0.187 0.555c0.558-0.054 1.207-0.084 1.863-0.084 1.465 0 2.895 0.153 4.273 0.444l-0.134-0.024z"></path>
<path fill="#a4a9ad" d="M9.591 15.755l0.432-0.955-2.556-0.704s-0.729 1.297 2.123 1.659z"></path>
<path fill="#a4a9ad" d="M7.358 23.209c-0.053-0.022-0.114-0.038-0.178-0.045l-0.003-0c-0.052-0.006-0.103-0.013-0.161-0.019l-1.026 2.059 1.93-1.439c-0.123-0.226-0.265-0.452-0.562-0.555zM22.015 23.099c-0.207 0.070-0.386 0.164-0.548 0.282l0.006-0.004c-0.151 0.128-0.263 0.297-0.321 0.49l-0.002 0.007c-0.026 0.084-0.045 0.181-0.071 0.277l1.891 1.497zM25.223 8.649l-8.151 1.975-1.433-4.486-2.272 5.428-6.19 1.549 4.331 1.058-0.833 1.659 0.232 0.006c0.103 0 0.207 0.006 0.323 0.006 0.297 0 0.6-0.013 0.904-0.032 0.874-0.056 1.676-0.157 2.461-0.303l-0.125 0.019c0.607-0.11 1.22-0.245 1.839-0.4 0.813-0.2 1.633-0.439 2.446-0.697l-0.471-1.246 6.945-4.537z"></path>
<path fill="#fff" d="M10.024 18.936c2.037-0.007 4.009-0.275 5.887-0.772l-0.162 0.037c1.459-0.671 3.337-1.594 5.228-2.698-1.588 0.6-6.602 2.388-10.159 2.388-5.389 0-7.080-3.124-7.080-4.886 0-1.575 1.013-2.769 1.013-2.769s-1.865 1.297-1.865 3.459c0 3.563 3.55 5.241 7.138 5.241z"></path>
<path fill="#fff" d="M24.706 16.323c-0.323-0.684-1.271-0.807-2.123-0.265-0.845 0.536-1.271 1.523-0.949 2.207 0.329 0.684 1.271 0.8 2.123 0.265 0.852-0.542 1.272-1.523 0.955-2.207zM12.102 20.601c-10.023 0-10.468-5.338-10.449-6.493-0.199 0.58-0.315 1.247-0.316 1.942v0.001s0.103 5.905 11.553 5.905c3.724 0 7.080-0.787 8.145-1.058-1.407-0.142-2.808-0.349-4.195-0.607-1.327 0.198-2.858 0.311-4.415 0.311-0.113 0-0.226-0.001-0.339-0.002l0.017 0z"></path>
<path fill="#fff" d="M23.9 9.339l-9.429 2.866s3.466 0.755 3.569 0.768c0.11 0.013 5.86-3.634 5.86-3.634zM15.639 6.9l-1.168 5.305 2.291-1.491zM22.209 19.472l-0.232 0.284-0.361 0.039 0.219 0.129-0.232 0.284 0.387-0.194 0.265 0.194-0.039-0.31 0.355-0.194-0.361 0.026zM26.481 15.212l-0.013-0.342-0.303 0.381-0.484 0.058 0.297 0.168-0.297 0.387 0.51-0.265 0.355 0.252-0.065-0.419 0.478-0.271zM25.687 17.452l-0.006-0.316-0.284 0.348-0.445 0.058 0.277 0.148-0.277 0.355 0.471-0.245 0.329 0.232-0.058-0.381 0.433-0.252zM24.765 19.724v-0.348l-0.316 0.381-0.484 0.052 0.297 0.168-0.31 0.381 0.516-0.252 0.348 0.258-0.045-0.419 0.478-0.265zM27.875 12.547l-0.587 0.065-0.052-0.432-0.336 0.478-0.594 0.077 0.394 0.207-0.329 0.49 0.607-0.336 0.465 0.316-0.123-0.523zM23.906 14.593l-0.232 0.419 0.478-0.323 0.426 0.219-0.155-0.407 0.439-0.316-0.49 0.097-0.090-0.342-0.239 0.413-0.484 0.103zM21.409 16.071l-0.006-0.284-0.252 0.316-0.4 0.052 0.245 0.136-0.245 0.316 0.419-0.219 0.297 0.213-0.052-0.348 0.387-0.22-0.394 0.045zM19.898 19.504v-0.226l-0.206 0.245-0.316 0.039 0.194 0.11-0.2 0.245 0.342-0.168 0.219 0.174-0.032-0.278 0.31-0.168zM18.065 19.253v-0.226l-0.2 0.245-0.316 0.032 0.194 0.11-0.2 0.245 0.336-0.161 0.226 0.168-0.032-0.271 0.31-0.174zM20.621 17.865l-0.006-0.226-0.2 0.245-0.316 0.045 0.194 0.103-0.194 0.252 0.329-0.174 0.232 0.161-0.032-0.265 0.303-0.181zM18.769 17.665l-0.006-0.245-0.219 0.271-0.349 0.045 0.219 0.116-0.219 0.278 0.374-0.187 0.245 0.181-0.039-0.303 0.336-0.194zM16.226 18.872l-0.006-0.245-0.213 0.265-0.329 0.045 0.207 0.11-0.207 0.271 0.355-0.187 0.239 0.174-0.045-0.284 0.329-0.187z"></path>
<path fill="#fff" d="M10.908 15.838c0.103 0 0.207 0.006 0.316 0.006 0.297 0 0.607-0.013 0.91-0.032l2.336-3.614-2.736 2.020zM16.31 15.135l-1.839-2.937v3.33c0.62-0.11 1.233-0.245 1.839-0.394zM6.396 24.7l0.962-1.491c-0.052-0.020-0.113-0.036-0.176-0.045l-0.004-0zM21.15 23.874l1.259 0.994-0.936-1.491c-0.149 0.129-0.262 0.298-0.321 0.49l-0.002 0.008zM13.483 11.663l-5.086 1.368 6.073-0.833-0.987-0.542z"></path>
<path fill="#ce1126" d="M22.712 16.252c-0.691 0.432-1.052 1.252-0.807 1.82 0.239 0.568 0.994 0.678 1.685 0.239 0.691-0.433 1.052-1.252 0.807-1.82s-1-0.671-1.685-0.239z"></path>
</svg>
