<!-- Generated by IcoMoon.io -->
<svg version="1.1" xmlns="http://www.w3.org/2000/svg" width="32" height="32" viewBox="0 0 32 32">
<title>3</title>
<path fill="#0033a0" d="M21.551 0.575l1.241 1.157 1.132-1.101h8.075l-2.414 4.284v20.905c0 0 0 0 0 0 0 1.956-1.585 3.541-3.541 3.541h-6.624c-1.471 0.018-2.747 0.838-3.411 2.043l-0.010 0.020c-0.674-1.225-1.95-2.045-3.418-2.063l-0.002-0h-6.624c-1.956-0-3.542-1.586-3.542-3.542v0-20.905l-2.414-4.284h8.075l1.131 1.101 1.241-1.157z"></path>
<path fill="#fff" d="M29.384 4.863l2.27-4.029h-7.648l-1.21 1.178-1.324-1.234h-10.944l-1.324 1.234-1.21-1.178h-7.648l2.27 4.029v20.958c0 0 0 0 0 0 0 1.844 1.495 3.34 3.34 3.34h6.624c1.427 0.015 2.679 0.749 3.411 1.858l0.010 0.015c0.742-1.124 1.994-1.859 3.419-1.873l0.002-0h6.624c1.844-0.002 3.338-1.496 3.34-3.34v-0z"></path>
<path fill="#0033a0" d="M28.496 4.863v-0.233l0.114-0.203 1.524-2.706h-5.768l-1.558 1.515-1.687-1.572h-10.245l-1.686 1.572-1.558-1.515h-5.768l1.639 2.909v21.191c0 0 0 0 0 0 0 1.354 1.097 2.452 2.451 2.452h6.624c1.268 0 2.555 0.407 3.421 1.589 0.866-1.148 2.153-1.589 3.421-1.589h6.624c1.354-0.002 2.45-1.099 2.452-2.452v-0z"></path>
<path fill="#fff" d="M4.183 9.524h23.631v0.569h-23.631zM12.060 10.947h-0.82l16.575 11.868v-0.587l-15.755-11.281z"></path>
<path fill="#c8102e" d="M27.815 21.064v-10.117h-14.13l14.13 10.117z"></path>
<path fill="#fff" d="M4.189 13.722l19.127 13.852h0.813l-19.94-14.441v0.589zM19.975 27.576c-0.009-0.001-0.023-0.001-0.033-0.002h-0.022zM23.166 4.541h-1.559v4.271h0.683v-2.097h0.417l0.737 2.097h0.683l-0.75-2.125c0.37-0.084 0.643-0.41 0.644-0.8v-0.502c-0.028-0.458-0.395-0.822-0.852-0.844l-0.002-0zM23.036 6.066h-0.745v-0.841h0.734s0.312-0.006 0.312 0.277v0.286c-0.001 0.154-0.126 0.278-0.28 0.278-0 0-0 0-0.001 0h0q-0.010 0-0.020-0.001zM24.146 21.277l-1.259-0.92-2.519 3.449 0.552 0.403 1.126-1.542 0.337 0.246-0.532 1.975 0.552 0.403 0.537-2.007c0.097 0.044 0.21 0.069 0.33 0.069 0.271 0 0.511-0.131 0.66-0.333l0.002-0.002 0.407-0.557c0.089-0.137 0.143-0.305 0.143-0.485 0-0.282-0.13-0.534-0.333-0.698l-0.002-0.001zM23.031 22.583l-0.602-0.44 0.607-0.831 0.593 0.434c0.083 0.052 0.137 0.143 0.137 0.246 0 0.057-0.016 0.11-0.045 0.155l0.001-0.001-0.005 0.008-0.279 0.383c-0.052 0.069-0.133 0.114-0.225 0.114-0.063 0-0.12-0.021-0.167-0.055l0.001 0.001q-0.008-0.006-0.016-0.012zM19.675 8.812h0.256s0.94-0.128 0.95-0.94v-2.36c0-0.009 0-0.019 0-0.029 0-0.505-0.396-0.917-0.895-0.942l-0.002-0h-0.309c-0.908 0-0.95 0.918-0.95 0.918v2.338c0 0.94 0.95 1.014 0.95 1.014zM19.856 8.129h-0.085c-0.201-0.003-0.363-0.167-0.363-0.368 0-0.002 0-0.003 0-0.005v0-2.157c0.002-0.202 0.162-0.366 0.362-0.374l0.001-0h0.096c0.187 0.031 0.328 0.191 0.331 0.384v2.146c-0.003 0.194-0.151 0.353-0.34 0.374l-0.002 0zM9.585 5.224v-0.683h-1.708v4.271h1.708v-0.683h-1.025v-1.132h1.025v-0.683h-1.025v-1.089h1.025zM21.666 20.325l0.408-0.548-1.37-1.020-2.549 3.426 1.37 1.020 0.408-0.548-0.822-0.612 0.676-0.908 0.822 0.612 0.408-0.548-0.822-0.612 0.65-0.874 0.822 0.612zM6.276 4.541v2.682l-1.153-2.682h-0.683v4.271h0.683v-2.681l1.153 2.681h0.683v-4.271h-0.683zM17.636 4.541l-0.576 1.569-0.577-1.569h-0.683l0.918 2.498v1.772h0.684v-1.772l0.918-2.498h-0.683zM27.607 8.812l-1.29-2.918 0.841-1.353h-0.683l-0.897 1.438v-1.438h-0.683v4.271h0.683v-1.729l0.336-0.541 1.009 2.27h0.683zM13.365 4.541l-0.431 2.613-0.444-2.613h-0.683l-0.444 2.613-0.431-2.613h-0.683l0.705 4.271h0.811l0.384-2.261 0.384 2.261h0.811l0.705-4.271h-0.683zM16.681 15.888l-1.56 2.181 0.623-2.852-0.556-0.398-2.485 3.473 0.556 0.398 1.56-2.181-0.622 2.852 0.556 0.397 2.485-3.473-0.556-0.398zM19.178 17.693l-0.322-0.237-0.026-0.019c-0.737-0.529-1.307 0.192-1.307 0.192l-1.363 1.9c-0.548 0.763 0.18 1.378 0.18 1.378l0.304 0.224c0.137 0.068 0.296 0.117 0.463 0.138l0.007 0.001-0.014 0.173 0.299 0.213 0.463-0.619c0.036-0.035 0.069-0.073 0.099-0.113l0.76-1.059-1.112-0.791-0.311 0.434 0.555 0.394-0.377 0.525c-0.070 0.094-0.181 0.154-0.307 0.154-0.069 0-0.135-0.019-0.191-0.051l0.002 0.001-0.166-0.124c-0.091-0.068-0.15-0.175-0.15-0.296 0-0.082 0.027-0.159 0.073-0.22l-0.001 0.001 0-0 1.258-1.752c0.069-0.094 0.18-0.154 0.304-0.154 0.078 0 0.15 0.023 0.21 0.064l-0.001-0.001 0.174 0.131c0.072 0.071 0.116 0.17 0.116 0.279 0 0.085-0.027 0.163-0.072 0.227l0.001-0.001-0.278 0.386 0.553 0.401 0.336-0.467c0.121-0.157 0.194-0.357 0.194-0.573 0-0.298-0.138-0.564-0.355-0.737l-0.002-0.001zM13.78 13.787l-0.535-0.411-3.462 2.782 0.551 0.404 0.738-0.562 0.923 0.684-0.305 0.87 0.551 0.404zM12.863 14.502l-0.651 1.602-0.673-0.48zM26.493 22.7c0.472 0.395 0.634 0.805 0.376 1.315-0.11 0.195-0.221 0.361-0.343 0.518l0.007-0.010-0.538-0.401s0.54-0.511 0.111-0.887c-0.109-0.103-0.256-0.167-0.418-0.167-0.063 0-0.123 0.010-0.18 0.027l0.004-0.001c-0.359 0.205-0.361 0.574-0.242 0.985 0.237 0.636 0.572 1.522 0.056 2.137-0.291 0.29-0.782 0.48-1.123 0.31-0.46-0.167-0.829-0.491-1.050-0.906l-0.005-0.010c-0.237-0.628 0.474-1.339 0.474-1.339l0.461 0.324s-0.498 0.596-0.301 0.856c0.070 0.201 0.596 0.576 0.938 0.406 0.798-0.604-0.807-1.945-0.022-2.953 0.184-0.23 0.436-0.399 0.725-0.477l0.010-0.002c0.427-0.102 0.734 0.077 1.059 0.273z"></path>
<path fill="#fff" d="M16 28.898c-1.206-1.449-3.386-1.335-3.937-1.324h-5.734c-2.392 0-2.139-2.234-2.139-2.234v-10.45l17.513 12.684h-2.249c-0.562-0-2.154-0.090-3.454 1.324zM11.194 11.933l-1.258-0.92-2.519 3.449 0.552 0.403 1.126-1.541 0.337 0.246-0.532 1.976 0.552 0.403 0.537-2.007c0.097 0.044 0.211 0.069 0.33 0.069 0.271 0 0.511-0.131 0.66-0.333l0.002-0.002 0.407-0.557c0.090-0.137 0.143-0.305 0.143-0.486 0-0.282-0.13-0.534-0.333-0.698l-0.002-0.001zM10.078 13.239l-0.602-0.44 0.607-0.831 0.593 0.433c0.083 0.052 0.137 0.143 0.137 0.247 0 0.057-0.016 0.11-0.045 0.155l0.001-0.001-0.005 0.008-0.279 0.383c-0.052 0.069-0.133 0.114-0.225 0.114-0.062 0-0.12-0.021-0.167-0.055l0.001 0.001q-0.008-0.006-0.016-0.013z"></path>
<path fill="#0033a0" d="M18.567 18.713c-0.066 0.088-0.245 0.064-0.402-0.054s-0.23-0.283-0.164-0.371l0.187-0.251c0.066-0.087 0.245-0.063 0.402 0.055 0.157 0.116 0.23 0.283 0.165 0.371zM17.282 20.523c-0.066 0.088-0.245 0.064-0.402-0.053s-0.229-0.283-0.163-0.371l0.188-0.251c0.065-0.087 0.245-0.063 0.401 0.054 0.156 0.116 0.23 0.282 0.164 0.37z"></path>
<path fill="#fff" d="M16.965 21.19c-0.053 0.071-0.278-0.009-0.505-0.178s-0.366-0.364-0.312-0.434l0.151-0.202c0.053-0.070 0.279 0.009 0.505 0.179 0.225 0.168 0.366 0.363 0.312 0.434zM19.228 18.228c-0.053 0.070-0.307-0.030-0.568-0.225s-0.429-0.411-0.376-0.482l0.151-0.203c0.053-0.070 0.307 0.030 0.568 0.226 0.261 0.195 0.43 0.411 0.376 0.481z"></path>
</svg>
