<!-- Generated by IcoMoon.io -->
<svg version="1.1" xmlns="http://www.w3.org/2000/svg" width="32" height="32" viewBox="0 0 32 32">
<title>54</title>
<path fill="#fff" d="M17.865 1.751c-0.322-0.3-1.861-1.751-1.861-1.751s-1.546 1.451-1.868 1.751h-9.958v21.865c3.722 4.118 6.837 6.089 11.827 8.383 4.968-2.293 8.097-4.257 11.819-8.383v-21.865z"></path>
<path fill="#b4975a" d="M17.704 2.162c-0.015-0.015-1.7-1.597-1.7-1.597s-1.685 1.575-1.707 1.597h-9.709v21.294c3.488 3.862 6.587 5.869 11.416 8.089 4.807-2.22 7.914-4.213 11.409-8.090v-21.294z"></path>
<path fill="#000" d="M26.585 2.982v20.158c-3.18 3.525-6.507 5.62-10.581 7.496-4.074-1.876-7.408-3.971-10.588-7.496v-20.158h7.122c-2.806 1.634-4.653 4.477-4.653 8.317v10.845c1.913 1.986 4.499 3.979 6.954 5.137l-5.393-15.542 5.078 2.44-0.616 0.608 1.825 5.891h0.542l1.817-5.891-0.616-0.608 5.078-2.44-5.386 15.542c2.433-1.15 5.019-3.136 6.947-5.137v-10.852c0-3.832-1.839-6.675-4.646-8.309z"></path>
<path fill="#333f42" d="M17.41 2.931c0.146-0.623 0.293-0.769 0.293-0.769s-1.502-1.407-1.685-1.583l-0.015-0.015v15.542l1.128-3.635 6.016-2.894c-0.535-3.114-2.565-5.488-5.737-6.646zM23.705 12.853l-4.477 12.963 0.777-1.004s2.037-1.568 3.29-3.004v-6.624z"></path>
<path fill="#fff" d="M14.377 14.904l0.147-0.725-0.616 0.608 1.825 5.891 0.271-0.52-1.627-5.254z"></path>
<path fill="#333f42" d="M14.465 11.79l-4.8-1.817 5.21 2.499v-7.613zM8.295 12.853l3.73 10.786-2.074-4.887-1.246-3.569z"></path>
<path fill="#fff" d="M22.554 11.739l-5.386 15.542 0.718-0.835 5.195-14.956-0.528 0.249zM14.589 2.931c-0.044-0.191-0.094-0.352-0.155-0.509l0.009 0.025c-0.032-0.11-0.082-0.205-0.148-0.287l0.001 0.002c-3.774 1.378-6.412 4.543-6.412 9.138v10.845c0.14 0.146 0.273 0.282 0.409 0.416l0.002 0.002v-11.27c0-3.847 1.854-6.947 5.884-8.632 0.156 0.084 0.29 0.174 0.415 0.275l-0.005-0.004z"></path>
</svg>
