<!-- Generated by IcoMoon.io -->
<svg version="1.1" xmlns="http://www.w3.org/2000/svg" width="32" height="32" viewBox="0 0 32 32">
<title>8</title>
<path fill="#fff" d="M28.463 15.852l2.291-2.407-1.304-5.996-5.783-1.723-0.523 0.484c-1.936-0.574-5.421-1.175-7.745-1.168-8.61 0.013-15.373 4.802-15.399 10.901 0 5.215 4.498 11.017 15.477 11.017 8.7 0 16.522-5.796 16.522-5.796z"></path>
<path fill="#192168" d="M27.695 15.781l2.407-2.524-1.162-5.337-5.118-1.523-0.523 0.49c-1.73-0.568-5.421-1.252-7.893-1.252-8.403 0.019-14.786 4.628-14.812 10.307-0.026 5.964 5.757 10.417 14.883 10.417 6.39 0 12.934-3.408 15.696-5.35z"></path>
<path fill="#fff" d="M12.192 12.308v7.37c-1.213 0-5.073-1.42-5.073-3.659 0-2.762 3.95-3.53 5.073-3.711zM17.181 16.917v2.898c-0.54 0.059-1.166 0.093-1.799 0.093-0.389 0-0.775-0.013-1.157-0.038l0.052 0.003v-2.956zM14.277 15.013v-2.872c0.258-0.013 0.561-0.020 0.866-0.020 0.718 0 1.427 0.040 2.124 0.118l-0.086-0.008v2.782zM26.797 16.336s-3.621 2.478-7.622 3.221v-7.022c4.344 0.549 6.912 3.382 6.912 3.382l2.891-2.988-0.929-4.189-3.95-1.155-0.503 0.542c-1.601-0.626-4.912-1.439-8.577-1.439-7.338 0-13.34 4.163-13.347 9.294-0.013 5.002 5.079 9.326 13.295 9.326 7.584 0 13.063-3.614 14.78-4.582z"></path>
<path fill="#fff" d="M15.025 17.807h1.394v1.181h-1.394zM15.058 14.174h1.355v-1.129l-1.355-0.052zM24.913 16.232c-1.287-1.138-2.857-1.985-4.59-2.423l-0.076-0.016v4.428c1.51-0.419 3.162-1.129 4.666-1.988zM11.127 18.388v-4.795c-1.381 0.4-2.937 1.188-2.937 2.427 0 0.852 1.31 1.878 2.937 2.369z"></path>
<path fill="#af1e2d" d="M26.591 17.381c-4.744 2.782-7.906 3.324-11.753 3.285-5.415-0.045-8.5-2.214-8.5-4.795 0-2.323 2.827-4.544 8.61-4.544 3.885 0 8.571 1.046 11.075 3.511l2.085-2.123-0.71-3.369-3.072-0.897-0.561 0.626c-1.684-0.671-4.531-1.607-8.907-1.607-6.609 0-12.405 3.821-12.405 8.435 0 4.828 5.047 8.61 12.205 8.61 7.267 0 11.527-2.737 13.986-4.027z"></path>
</svg>
