<!-- Generated by IcoMoon.io -->
<svg version="1.1" xmlns="http://www.w3.org/2000/svg" width="32" height="32" viewBox="0 0 32 32">
<title>9</title>
<path fill="#fff" d="M29.017 9.985c-1.82-1.829-4.334-2.967-7.114-2.982l-0.003-0c0.249-1.089 0.558-2.031 0.942-2.933l-0.043 0.112 0.007-0.019c0.030-0.071 0.047-0.154 0.047-0.241 0-0.348-0.277-0.631-0.623-0.641l-0.001-0-0.019-0c-0.119-0.003-0.242-0.005-0.365-0.005-1.854 0.005-3.627 0.344-5.264 0.96l0.104-0.034c-2.262 0.851-4.071 2.224-5.378 4.080-0.732 1.027-1.304 2.227-1.645 3.52l-0.017 0.077c-0.056 0.22-0.106 0.443-0.151 0.665q-0.112 0.002-0.224 0.002c-1.143-0.017-2.247-0.123-3.324-0.312l0.125 0.018c-1.091-0.174-2.909-0.781-3.299-0.929-0.413-0.154-0.693-0.27-0.969-0.392l0.122 0.048-0.33-0.146-1.595-0.708 0.959 1.867c0.331 0.728 0.653 1.328 1.007 1.906l-0.043-0.076c0.623 0.985 1.38 1.819 2.259 2.506l0.021 0.016 0.872 1.615c0.464 0.885 0.992 1.648 1.6 2.338l-0.011-0.013c0.274 0.297 0.563 0.569 0.869 0.82l0.015 0.012c0.312 0.257 0.66 0.494 1.029 0.697l0.035 0.018 0.454 0.985c0.352 0.63 0.762 1.172 1.236 1.651l-0.001-0.001c0.488 0.456 1.050 0.841 1.665 1.132l0.040 0.017 0.054 0.023c0.744 0.327 1.612 0.517 2.524 0.517 0.037 0 0.074-0 0.111-0.001l-0.006 0c0.261 0 0.535-0.014 0.815-0.042l0.036-0.004c0.211 0.268 0.321 0.469 0.336 0.612 0.011 0.103-0.028 0.199-0.104 0.371-0.075 0.113-0.161 0.211-0.258 0.296l-0.002 0.001-0.005 0.005c-0.070 0.069-0.15 0.148-0.228 0.235l-0.023 0.026c-0.102 0.113-0.164 0.262-0.164 0.427 0 0.102 0.024 0.199 0.067 0.284l-0.002-0.004c0.107 0.215 0.325 0.36 0.576 0.361h0c0.013 0 0.027-0 0.040-0.001l0.034-0.002c0.917-0.092 1.715-0.535 2.269-1.191l0.004-0.005c0.166-0.202 0.316-0.429 0.443-0.67l0.011-0.022c0.977 0.343 2.102 0.541 3.275 0.541 5.626 0 10.187-4.561 10.187-10.187 0-2.812-1.14-5.359-2.983-7.202l0 0z"></path>
<path fill="#000" d="M28.764 10.238c-1.768-1.778-4.216-2.878-6.922-2.878-0.009 0-0.019 0-0.028 0h0.001c-0.115 0-0.234 0.003-0.354 0.007 0.25-1.263 0.598-2.374 1.048-3.431l-0.042 0.112 0.007-0.018c0.013-0.032 0.021-0.068 0.021-0.107 0-0.154-0.123-0.279-0.276-0.284h-0l-0.019-0c-0.117-0.003-0.236-0.005-0.355-0.005-1.808 0.005-3.538 0.336-5.135 0.937l0.101-0.033c-2.194 0.825-3.947 2.155-5.212 3.951-0.708 0.993-1.261 2.153-1.592 3.404l-0.017 0.074c-0.057 0.206-0.127 0.518-0.187 0.834l-0.015 0.092-0.034 0.001c-0.158 0.007-0.322 0.011-0.486 0.011-1.163-0.017-2.287-0.125-3.382-0.317l0.127 0.018c-1.118-0.178-2.971-0.797-3.369-0.948-0.462-0.173-0.783-0.307-1.1-0.45l0.126 0.051-0.151-0.067-0.724-0.321 0.419 0.866c0.339 0.746 0.675 1.367 1.049 1.963l-0.040-0.069c0.976 1.524 2.186 2.62 3.698 3.352 0.894 0.432 1.929 0.622 2.467 0.697 0.412 0.057 0.9 0.096 1.395 0.109l0.017 0 0.062-0.001q0.042 0.164 0.092 0.332l-0.057 0c-0.656-0-1.298-0.054-1.924-0.157l0.069 0.009c-0.622-0.094-1.168-0.221-1.697-0.388l0.078 0.021c-0.267-0.078-0.483-0.156-0.694-0.245l0.042 0.016-0.792-0.347 0.411 0.761c0.45 0.858 0.961 1.598 1.55 2.268l-0.011-0.013c0.262 0.284 0.539 0.544 0.832 0.785l0.014 0.012c0.302 0.249 0.64 0.478 0.999 0.674l0.034 0.017c0.872 0.5 1.918 0.794 3.032 0.794 0.022 0 0.045-0 0.067-0l0.23-0.002c0.084 0.108 0.17 0.216 0.258 0.322-0.104 0.007-0.202 0.010-0.309 0.010-0.147 0-0.314-0.006-0.527-0.019-0.571-0.034-1.511-0.24-1.77-0.363l-0.744-0.356 0.346 0.749c0.334 0.59 0.719 1.098 1.164 1.548l-0.001-0.001c0.456 0.425 0.981 0.784 1.554 1.057l0.037 0.016 0.055 0.023c0.704 0.309 1.525 0.489 2.388 0.489 0.036 0 0.072-0 0.108-0.001l-0.005 0c0.249 0 0.511-0.014 0.779-0.040l0.214-0.021c0.045 0.043 0.087 0.089 0.126 0.137l0.002 0.003c0.569 0.72 0.457 0.978 0.285 1.367-0.091 0.155-0.202 0.288-0.331 0.4l-0.002 0.002-0.004 0.004c-0.070 0.069-0.142 0.141-0.213 0.219l-0.023 0.025c-0.045 0.050-0.072 0.116-0.072 0.189 0 0.157 0.127 0.284 0.284 0.284v0c0.006 0 0.012 0 0.018-0l0.034-0.002c0.814-0.082 1.523-0.477 2.014-1.060l0.004-0.005c0.216-0.263 0.399-0.564 0.536-0.889l0.009-0.024c1.028 0.399 2.218 0.63 3.462 0.63 5.428 0 9.829-4.4 9.829-9.829 0-2.714-1.1-5.171-2.878-6.949v0z"></path>
<path fill="#b79257" d="M31.359 17.186c-0.006 5.272-4.281 9.543-9.554 9.543-1.207 0-2.363-0.224-3.426-0.633l0.065 0.022c0.033-0.091 0.072-0.222 0.107-0.355l0.008-0.037c0.047-0.189 0.084-0.415 0.105-0.646l0.001-0.017c0.198-0.065 0.363-0.132 0.522-0.209l-0.024 0.011c0.375-0.162 0.557-0.248 0.738-0.335l-0.184 0.080c0.629 0.185 1.351 0.291 2.098 0.291 4.26 0 7.714-3.454 7.714-7.714 0-2.272-0.982-4.314-2.545-5.726l-0.007-0.006c-0-0.002-0-0.005-0-0.007 0-0.107 0.017-0.209 0.049-0.306l-0.002 0.007c0.012-0.039 0.024-0.081 0.036-0.123s0.023-0.082 0.035-0.119c0.583 0.582 0.922 0.475 0.934 0.469 0.021-0.012 0.045-0.020 0.072-0.020 0 0 0 0 0.001 0h-0c0.104 0.020 0.193 0.073 0.256 0.149l0.001 0.001 0.002 0.002 0.002-0.002-0.002 0.002 0.020-0.020v-0c-0.017-0.019-0.155-0.185-0.091-0.314 0.006-0.015 0.144-0.361-0.472-1.015l-0.015-0.016-0.009 0.021c-0.018 0.060-0.028 0.128-0.028 0.199 0 0.067 0.009 0.132 0.026 0.194l-0.001-0.005 0.002 0.016c0.001 0.011 0.002 0.023 0.002 0.036 0 0.072-0.023 0.138-0.062 0.192l0.001-0.001c-0.043 0.044-0.102 0.072-0.168 0.072-0.006 0-0.011-0-0.017-0.001l-0.066-0.004c-0.088-0.030-0.189-0.048-0.294-0.050h-0.001l-0.059 0.003c0.011-0.028 0.023-0.057 0.038-0.088 0.025-0.048 0.047-0.105 0.062-0.163l0.001-0.006 0.039-0.006c0.097 0.013 0.183 0.054 0.252 0.115l-0.001-0 0.002 0.002 0.002-0.003-0.002 0.002 0.009-0.012 0.008-0.012c-0.018-0.016-0.179-0.161-0.133-0.299 0.004-0.015 0.092-0.378-0.608-0.94l-0.018-0.014-0.005 0.022c-0.005 0.031-0.007 0.066-0.007 0.102 0 0.102 0.021 0.199 0.060 0.287l-0.002-0.005 0.004 0.016c0.006 0.024 0.010 0.051 0.010 0.080 0 0.061-0.017 0.117-0.047 0.165l0.001-0.001c-0.051 0.056-0.124 0.091-0.205 0.091-0.009 0-0.018-0-0.027-0.001l0.001 0c-0.055-0.010-0.118-0.016-0.183-0.016h-0c-0.008-0-0.017-0.001-0.025-0.001-0.083 0-0.161 0.017-0.233 0.046l0.004-0.002-0.020 0.010 0.018 0.014c0.113 0.092 0.239 0.177 0.372 0.251l0.013 0.007-0.037 0.014c-0.033 0.013-0.067 0.026-0.103 0.038-0.089 0.032-0.177 0.069-0.235 0.094-0.067 0.030-0.121 0.058-0.173 0.089l0.008-0.005c-1.171-0.76-2.604-1.211-4.141-1.211-0.003 0-0.006 0-0.009 0h0c-0.17 0-0.341 0.006-0.512 0.017-0.006-0.118-0.009-0.255-0.009-0.394 0-0.51 0.043-1.010 0.124-1.497l-0.007 0.053c0.12-0.006 0.261-0.009 0.403-0.009h0c0 0 0 0 0 0 5.27 0 9.542 4.272 9.542 9.542 0 0 0 0.001 0 0.001v-0z"></path>
<path fill="#b79257" d="M19.721 19.897c0.448 0.478 0.844 0.899 0.996 1.234 0.015 0.031 0.029 0.068 0.041 0.106l0.001 0.006c0.004 0.015 0.009 0.030 0.012 0.044 0.021 0.090 0.038 0.197 0.046 0.306l0 0.007q0.005 0.072 0.005 0.139c-0 0.082-0.006 0.163-0.016 0.241l0.001-0.010c-0.001 0.010-0.003 0.020-0.004 0.029-0.015 0.106-0.036 0.199-0.055 0.281 0.15-0.123 0.359-0.309 0.523-0.459l0.043-0.040c0.056-0.051 0.105-0.096 0.141-0.13 0.020-0.019 0.040-0.037 0.061-0.055s0.042-0.037 0.063-0.056 0.087-0.076 0.133-0.116c0.173-0.145 0.329-0.291 0.477-0.443l0.001-0.001c0.072-0.074 0.134-0.157 0.187-0.247l0.003-0.006 0.013-0.024c0.049-0.072 0.079-0.162 0.079-0.258v-0c-0.001-0.030-0.003-0.058-0.008-0.086l0 0.004c-0.008-0.058-0.023-0.11-0.044-0.159l0.002 0.004c-0.044-0.095-0.095-0.176-0.156-0.25l0.002 0.002c-0.083-0.11-0.154-0.198-0.227-0.285l0.011 0.013q-0.080-0.096-0.157-0.185c-0.033-0.037-0.065-0.073-0.097-0.109q-0.056-0.061-0.109-0.12c-0.022-0.024-0.045-0.048-0.067-0.072-0.018-0.019-0.035-0.038-0.053-0.057l-0.063-0.067-0.011-0.012c-0.014-0.015-0.028-0.029-0.041-0.043-0.015-0.016-0.029-0.031-0.044-0.047-0.29-0.308-0.494-0.535-0.58-0.787-0.014-0.037-0.026-0.081-0.033-0.126l-0.001-0.004c-0.002-0.009-0.003-0.018-0.004-0.027-0-0.003-0.001-0.006-0.001-0.009-0.005-0.037-0.008-0.079-0.008-0.122 0-0.029 0.001-0.057 0.004-0.085l-0 0.004c0.092-0.639 0.891-1.067 1.456-0.357l0.221 0.274s1.040 1.313 1.596 1.986l0.286 0.337c0.010 0.011 0.019 0.021 0.027 0.028 0.469 0.551 1.324 0.987 1.529 1.081-0.015-0.018-0.032-0.038-0.050-0.061-0.132-0.159-0.257-0.337-0.366-0.524l-0.010-0.019c-0.028-0.047-0.059-0.108-0.088-0.169l-0.006-0.014c-0.006-0.012-0.011-0.024-0.016-0.037-0.016-0.030-0.047-0.101-0.077-0.174l-0.016-0.043c-0.058-0.137-0.114-0.304-0.156-0.475l-0.005-0.024c-0.019-0.073-0.038-0.173-0.054-0.273l-0.003-0.020c-0.001-0.006-0.002-0.011-0.003-0.017q-0.007-0.051-0.013-0.1c-0.002-0.011-0.004-0.034-0.006-0.057l-0.001-0.010c-0.003-0.023-0.005-0.057-0.007-0.091l-0-0.008c-0-0.002-0-0.004-0-0.007-0.002-0.033-0.004-0.066-0.005-0.097-0.002-0.050-0.003-0.099-0.002-0.145s0.001-0.090 0.003-0.131c0.004-0.096 0.012-0.185 0.024-0.273l-0.002 0.015c0-0.003 0.001-0.005 0.001-0.008 0.006-0.048 0.012-0.084 0.016-0.105-0.048-0.011-0.088-0.024-0.128-0.039l0.007 0.002c-0.153-0.056-0.284-0.139-0.394-0.243l0.001 0c-0.073-0.069-0.135-0.148-0.184-0.236l-0.003-0.005c-0.174-0.295-0.281-0.648-0.291-1.025l-0-0.003c-0.031 0.023-0.063 0.047-0.094 0.070-0.138 0.113-0.293 0.215-0.458 0.3l-0.015 0.007c-0.146 0.071-0.315 0.122-0.493 0.145l-0.008 0.001c-0.045 0.006-0.097 0.009-0.149 0.009h-0c-0 0-0.001 0-0.001 0-0.044 0-0.087-0.002-0.13-0.007l0.005 0c-0.046-0.005-0.087-0.013-0.127-0.022l0.007 0.001c-0.52-0.121-0.841-0.362-1.010-0.759-0.036-0.081-0.064-0.176-0.080-0.275l-0.001-0.007c-0.007-0.043-0.012-0.093-0.013-0.144l-0-0.002c-0-0.009-0-0.020-0-0.031 0-0.041 0.002-0.082 0.006-0.122l-0 0.005c0.012-0.128 0.034-0.244 0.065-0.357l-0.003 0.014c0.007-0.026 0.015-0.052 0.024-0.078s0.018-0.052 0.028-0.077c0.034-0.085 0.072-0.158 0.117-0.226l-0.003 0.005c0.016-0.023 0.032-0.046 0.049-0.068 0.045-0.057 0.094-0.107 0.148-0.151l0.002-0.001c0.032-0.026 0.068-0.051 0.106-0.074l0.004-0.002c0.013-0.008 0.027-0.015 0.040-0.022 0.028-0.014 0.056-0.028 0.086-0.040 0.021-0.009 0.043-0.016 0.065-0.022 0.063-0.018 0.135-0.029 0.21-0.029 0.255 0 0.482 0.121 0.625 0.31l0.001 0.002c0.004-0.011 0.008-0.023 0.013-0.036 0.030-0.090 0.068-0.224 0.112-0.384 0.143-0.542 0.29-0.986 0.459-1.417l-0.030 0.086q0.042-0.104 0.084-0.211c0.021-0.055 0.043-0.11 0.065-0.165 0.147-0.412 0.34-0.768 0.58-1.088l-0.008 0.011c-0.277-0.204-0.596-0.374-0.938-0.496l-0.026-0.008c-0.009-0.004-0.033-0.012-0.056-0.019l-0.015-0.004c-0.268-0.089-0.576-0.14-0.897-0.14-0.012 0-0.024 0-0.036 0l0.002-0-0.055 0c-0.002 0-0.004 0-0.006 0-0.551 0-1.081 0.091-1.576 0.26l0.034-0.010q-0.047 0.016-0.095 0.034-0.208 0.077-0.413 0.176-0.065 0.032-0.131 0.066c-0.021 0.011-0.042 0.021-0.063 0.033-0.399 0.219-0.742 0.478-1.042 0.781l-0 0c-0.001 0.001-0.001 0.002-0.002 0.002-0.415 0.417-0.754 0.91-0.997 1.455l-0.012 0.031c-0.086 0.19-0.167 0.419-0.23 0.655l-0.007 0.033c-0.067 0.231-0.121 0.508-0.153 0.792l-0.002 0.024c-0.011 0.108-0.018 0.233-0.018 0.36 0 0.002 0 0.005 0 0.007v-0c0 0.175 0.014 0.347 0.039 0.515l-0.002-0.019q0.015 0.104 0.037 0.212c0.031 0.152 0.064 0.276 0.102 0.397l-0.008-0.028c0.116 0.367 0.254 0.682 0.42 0.98l-0.013-0.026c0.1 0.182 0.195 0.333 0.297 0.478l-0.011-0.016c0.398 0.543 0.807 1.022 1.248 1.469l-0.002-0.002z"></path>
<path fill="#fff" d="M27.612 19.232l-0.104 0.447 0.289 1.217s-0.845 0.133-1.222 0.189c-0.116 0.388-0.696 1.912-0.696 1.912l-0.116-0.057c-0.084-0.833-0.517-1.258-1.013-1.577-0.258-0.16-0.556-0.295-0.871-0.391l-0.027-0.007c-0.356-0.112-0.783-0.207-1.222-0.267l-0.041-0.005c0.030-0.076 0.048-0.165 0.048-0.258s-0.018-0.182-0.050-0.263l0.002 0.005c-0.093-0.198-0.207-0.368-0.343-0.518l0.002 0.002c0.529-0.090 0.59-0.464 0.568-0.692-0.067 0.116-0.349 0.595-0.766 0.5-0.857-1.010-1.003-1.065-1.086-1.391-0.008-0.039-0.012-0.083-0.012-0.129 0-0.237 0.121-0.445 0.305-0.567l0.003-0.002c0.447-0.278 0.727 0.004 1.179 0.573 0.241 0.302 1.11 1.455 1.681 2.104 0.392 0.448 0.862 0.816 1.39 1.087l0.026 0.012c0.175 0.092 0.386 0.184 0.605 0.262l0.037 0.011 0.071-0.114c-0.268-0.277-0.498-0.593-0.683-0.937l-0.011-0.023c-0.121-0.234-0.223-0.506-0.291-0.791l-0.005-0.025c-0.045-0.213-0.070-0.457-0.070-0.707 0-0.239 0.023-0.473 0.068-0.699l-0.004 0.023s-0.401 0.066-0.775-0.484c-0.108-0.201-0.185-0.436-0.218-0.685l-0.001-0.010c-0.019-0.116-0.032-0.253-0.037-0.393l-0-0.006c0.687-0.627 1.622-1.748 1.98-1.831 0.108 0.224 1.672 3.54 1.672 3.54l-0.35 0.168 0.001 0.381-0.915 0.671z"></path>
<path fill="#da1a32" d="M17.010 26.988c0.004-0.031 0.007-0.052 0.007-0.059 0.005-0.051 0.008-0.111 0.008-0.171 0-0.306-0.079-0.594-0.217-0.844l0.005 0.009c-0.117-0.225-0.255-0.419-0.416-0.592l0.001 0.002c-0.234-0.255-0.491-0.482-0.77-0.68l-0.015-0.010c-0.031-0.022-3.121-2.257-4.453-5.498-0.515-1.203-0.815-2.602-0.815-4.072 0-0.725 0.073-1.433 0.212-2.117l-0.012 0.068c0.111-0.551 0.237-1.016 0.39-1.468l-0.024 0.083 0.005-0.016c0.445-1.372 1.126-2.556 2.003-3.565l-0.010 0.012c1.952-2.212 5.086-3.543 8.617-3.664-0.259 0.643-0.5 1.423-0.681 2.225l-0.020 0.107c-0.039 0.171-0.375 1.674-0.29 2.898-1.118 0.333-2.085 0.872-2.904 1.578l0.010-0.009c-0.585 0.51-1.071 1.118-1.435 1.8l-0.017 0.034c-0.317 0.606-0.532 1.314-0.599 2.064l-0.002 0.022q-0.011 0.093-0.023 0.179c-0.099 0.739 0.143 2.615 1.173 3.81 0.282 0.328 0.674 0.814 1.171 1.429l0.006 0.008c0.33 0.409 0.702 0.87 1.121 1.383-0.329 0.337-0.593 0.738-0.772 1.183l-0.009 0.024c-0.131 0.292-0.228 0.63-0.275 0.984l-0.002 0.019c-0.015 0.125-0.025 0.255-0.036 0.393-0.020 0.442-0.090 0.859-0.204 1.258l0.009-0.038c-0.083 0.273-0.191 0.511-0.327 0.731l0.008-0.013c-0.122 0.195-0.261 0.364-0.419 0.513l-0.001 0.001z"></path>
<path fill="#b79257" d="M22.212 3.922l-0.020-0c-0.113-0.003-0.23-0.005-0.347-0.005-1.772 0.005-3.468 0.329-5.034 0.918l0.099-0.033c-2.139 0.805-3.849 2.1-5.080 3.849-0.689 0.966-1.227 2.095-1.549 3.312l-0.016 0.072c-0.62 2.466-0.412 4.336-0.233 5.231 0.235 1.065 0.58 2.006 1.033 2.881l-0.031-0.065c0.089 0.175 0.545 0.977 0.848 1.417 0.337 0.486 0.667 0.907 1.020 1.309l-0.014-0.016c0.333 0.384 0.67 0.733 1.024 1.065l0.008 0.007c0.080 0.075 0.154 0.146 0.226 0.218l-0.001-0.001c0.326 0.315 0.675 0.612 1.043 0.885l0.028 0.020c0.345 0.265 0.644 0.494 0.818 0.715 0.677 0.856 0.512 1.229 0.321 1.661-0.105 0.188-0.236 0.349-0.389 0.483l-0.002 0.002c-0.070 0.068-0.137 0.137-0.202 0.207l-0.003 0.004-0.022 0.025 0.034-0.002c0.733-0.075 1.37-0.431 1.812-0.956l0.003-0.004c0.326-0.404 0.569-0.89 0.693-1.421l0.005-0.024c0.059-0.259 0.104-0.567 0.124-0.881l0.001-0.017c0.017-0.192 0.035-0.39 0.062-0.585 0.048-0.339 0.14-0.646 0.271-0.93l-0.008 0.020c0.167-0.381 0.387-0.708 0.655-0.988l-0.001 0.001c-0.070-0.072-0.14-0.147-0.209-0.224l-0.007-0.008c-0.282 0.308-0.519 0.663-0.699 1.050l-0.011 0.026c-0.173 0.367-0.288 0.794-0.321 1.244l-0.001 0.012c-0.006 0.077-0.013 0.143-0.023 0.208l0.002-0.016c-0.010 0.063-0.016 0.146-0.022 0.241-0.020 0.6-0.176 1.159-0.44 1.653l0.010-0.020c-0.242 0.444-0.595 0.801-1.023 1.041l-0.013 0.007c0.125-0.2 0.199-0.443 0.199-0.703 0-0.053-0.003-0.105-0.009-0.156l0.001 0.006c-0.067-0.744-0.644-1.32-1.116-1.672-1.384-1.024-2.56-2.228-3.523-3.593l-0.033-0.049c-0.908-1.321-1.511-2.693-1.792-4.078-0.14-0.661-0.219-1.42-0.219-2.198 0-1.034 0.141-2.036 0.406-2.986l-0.019 0.078c0.453-1.65 1.246-3.078 2.304-4.264l-0.009 0.010c2.098-2.332 5.2-3.602 8.971-3.675l-0.044 0.123c-0.203 0.574-0.413 1.168-0.586 1.822-0.113 0.4-0.229 0.929-0.32 1.466l-0.014 0.1c-0.074 0.408-0.117 0.877-0.117 1.356 0 0.176 0.006 0.352 0.017 0.525l-0.001-0.024 0.294-0.067c-0.111-1.971 0.584-4.122 1.185-5.59zM25.648 24.872l-0.005-0.008 0.006 0.013-0.001-0.005z"></path>
<path fill="#000" d="M27.269 18.16l-0.701 0.424 0.017 0.042 1.168-0.282-0.485-0.185zM26.494 16.573c-0.004-0.091-0.025-0.176-0.060-0.254l0.002 0.004c-0.047-0.070 0.21-0.18 0.21-0.18l-0.133-0.073-0.032 0.058-0.601 0.21-0.501 0.41 0.429-0.138 0.882 0.113zM24.077 8.993c0.035-0.053 0.094-0.088 0.162-0.088 0.009 0 0.018 0.001 0.027 0.002l-0.001-0c0.058 0.001 0.113 0.010 0.166 0.025l-0.004-0.001 0.003 0.001 0.004-0.014 0.002-0.014c-0.023-0.007-0.229-0.075-0.242-0.22-0.003-0.016-0.068-0.383-0.935-0.615l-0.022-0.006 0.004 0.022c0.038 0.132 0.108 0.244 0.202 0.332l0 0 0.009 0.012c0.043 0.054 0.068 0.122 0.068 0.197 0 0.014-0.001 0.029-0.003 0.043l0-0.002c-0.028 0.083-0.092 0.147-0.174 0.175l-0.002 0.001c-0.153 0.029-0.286 0.101-0.389 0.202l0-0-0.014 0.017 0.022 0.006c0.176 0.051 0.379 0.083 0.589 0.087l0.003 0c0.396-0.001 0.52-0.152 0.527-0.161z"></path>
<path fill="#000" d="M25.325 9.313c0.076 0.003 0.147 0.021 0.211 0.051l-0.003-0.001 0.003 0.001 0.006-0.013 0.004-0.014c-0.022-0.011-0.216-0.106-0.21-0.251-0-0.016-0.014-0.388-0.841-0.738l-0.021-0.009 0.001 0.022c0.019 0.137 0.074 0.259 0.155 0.358l-0.001-0.001 0.008 0.013c0.027 0.046 0.044 0.101 0.044 0.161 0 0.030-0.004 0.059-0.012 0.086l0.001-0.002c-0.039 0.077-0.111 0.133-0.196 0.149l-0.002 0c-0.156 0.007-0.299 0.061-0.415 0.148l0.002-0.001-0.017 0.015 0.021 0.009c0.22 0.103 0.477 0.168 0.747 0.18l0.004 0c0.26 0 0.36-0.093 0.366-0.099 0.031-0.039 0.079-0.064 0.133-0.064 0.005 0 0.010 0 0.014 0.001l-0.001-0z"></path>
<path fill="#000" d="M26.413 9.642c0.002-0.016 0.040-0.386-0.732-0.847l-0.019-0.012-0.002 0.022c0 0.001 0 0.002 0 0.003 0 0.137 0.038 0.265 0.105 0.374l-0.002-0.003 0.006 0.015c0.015 0.036 0.024 0.077 0.024 0.121 0 0.045-0.010 0.089-0.027 0.128l0.001-0.002c-0.048 0.070-0.127 0.117-0.216 0.121l-0.001 0-0.038-0.001c-0.013-0.001-0.027-0.001-0.042-0.001-0.128 0-0.249 0.033-0.353 0.092l0.004-0.002-0.018 0.013 0.019 0.012c0.409 0.242 0.687 0.292 0.847 0.292 0.009 0.001 0.020 0.001 0.031 0.001 0.080 0 0.155-0.022 0.22-0.059l-0.002 0.001c0.028-0.028 0.066-0.046 0.109-0.046 0.003 0 0.005 0 0.008 0l-0-0c0.088 0.008 0.169 0.037 0.238 0.082l-0.002-0.001 0.003 0.001 0.008-0.012 0.006-0.013c-0.021-0.014-0.2-0.135-0.173-0.278zM28.763 12.282l0.054-0.011c0.127 0 0.242 0.166 0.254 0.185l0.001 0.002 0.012-0.008 0.010-0.010c-0.013-0.021-0.129-0.204-0.047-0.324 0.008-0.013 0.192-0.338-0.327-1.071l-0.013-0.018-0.011 0.019c-0.039 0.086-0.062 0.187-0.062 0.293 0 0.033 0.002 0.065 0.006 0.096l-0-0.004-0 0.015c0 0.011-0.006 0.265-0.234 0.265-0.041-0.001-0.080-0.007-0.117-0.018l0.003 0.001c-0.108-0.057-0.236-0.092-0.371-0.097l-0.001-0c-0.002-0-0.004-0-0.006-0-0.018 0-0.035 0.001-0.052 0.004l0.002-0-0.022 0.004 0.013 0.018c0.428 0.596 0.75 0.661 0.869 0.661z"></path>
<path fill="#000" d="M29.367 13.281l0.036-0.005c0.135 0 0.234 0.198 0.246 0.22l0.001 0.002 0.013-0.006 0.012-0.009c-0.011-0.022-0.099-0.22-0.001-0.327 0.010-0.012 0.237-0.308-0.177-1.105l-0.010-0.020-0.014 0.018c-0.067 0.106-0.107 0.234-0.109 0.371v0l-0.002 0.016c-0.002 0.010-0.038 0.233-0.23 0.233-0.054-0.002-0.105-0.015-0.151-0.037l0.002 0.001c-0.113-0.084-0.252-0.139-0.404-0.151l-0.003-0-0.028 0.001 0.010 0.020c0.397 0.755 0.76 0.777 0.8 0.777z"></path>
<path fill="#000" d="M29.826 14.354l0.018-0.001c0.145 0 0.223 0.226 0.232 0.253l0.001 0.003 0.014-0.005 0.013-0.007c-0.007-0.023-0.068-0.232 0.044-0.324 0.012-0.011 0.277-0.273-0.022-1.119l-0.007-0.021-0.016 0.016c-0.082 0.097-0.139 0.217-0.159 0.35l-0.001 0.004-0.004 0.015c-0.001 0.002-0.062 0.201-0.228 0.201-0.065-0.003-0.125-0.024-0.175-0.059l0.001 0.001c-0.102-0.103-0.234-0.176-0.382-0.205l-0.005-0.001-0.022-0.002 0.008 0.021c0.303 0.845 0.675 0.879 0.693 0.88z"></path>
<path fill="#000" d="M29.94 14.753c-0.089-0.117-0.21-0.207-0.35-0.256l-0.005-0.002-0.022-0.005 0.004 0.022c0.184 0.879 0.547 0.964 0.565 0.968 0.157 0.003 0.206 0.254 0.212 0.284l0.001 0.003 0.014-0.003 0.014-0.005c-0.004-0.024-0.035-0.239 0.088-0.315 0.013-0.009 0.312-0.232 0.133-1.111l-0.005-0.022-0.018 0.013c-0.096 0.087-0.167 0.198-0.206 0.323l-0.001 0.005-0.006 0.014c-0.001 0.002-0.079 0.17-0.226 0.17-0.075-0.005-0.141-0.035-0.192-0.083l0 0zM23.050 8.627c0.032-0.47-1.41-0.095-1.41-0.095s1.379 0.549 1.41 0.095zM22.206 25.744l0.003 0.014v-0.002l0 0.002-0.001-0.029-0.013 0c-0.046 0-0.278-0.007-0.311-0.154-0.006-0.014-0.162-0.353-1.059-0.36h-0.022l0.009 0.020c0.076 0.128 0.185 0.229 0.316 0.293l0.004 0.002c0.072 0.047 0.12 0.126 0.126 0.216l0 0.001c-0.012 0.087-0.058 0.162-0.125 0.212l-0.001 0.001-0.008 0.006c-0.12 0.063-0.217 0.155-0.284 0.267l-0.002 0.003-0.010 0.020 0.031 0c0.891 0 1.049-0.335 1.055-0.35 0.050-0.136 0.267-0.147 0.291-0.148z"></path>
<path fill="#000" d="M23.393 25.629l-0.002-0.014 0.004 0.013v-0.001l0.001 0.001-0.005-0.028-0.003 0 0.002 0.009v0.004l-0.002-0.014c-0.029 0.005-0.062 0.007-0.096 0.007-0 0-0.001 0-0.001 0h0c-0.091 0-0.206-0.020-0.242-0.116-0.006-0.010-0.15-0.236-0.733-0.236-0.13 0.001-0.257 0.010-0.382 0.027l0.015-0.002-0.022 0.003 0.012 0.019c0.091 0.114 0.213 0.201 0.353 0.247l0.005 0.002c0.079 0.038 0.136 0.109 0.154 0.195l0 0.002c0 0.001 0 0.001 0 0.002 0 0.088-0.036 0.168-0.095 0.226l-0 0-0.012 0.012c-0.106 0.077-0.188 0.179-0.239 0.299l-0.002 0.005-0.007 0.021 0.022-0.003c0.89-0.122 1.001-0.478 1.005-0.494 0.031-0.141 0.243-0.182 0.268-0.187l0 0z"></path>
<path fill="#000" d="M24.544 25.31l-0.003 0.001c-0.050 0.015-0.107 0.025-0.166 0.026h-0.001c-0.007 0.001-0.015 0.002-0.024 0.002-0.067 0-0.126-0.035-0.16-0.087l-0-0.001c-0.005-0.006-0.127-0.152-0.508-0.152-0.219 0.005-0.429 0.039-0.627 0.099l0.017-0.004-0.022 0.006 0.014 0.017c0.104 0.1 0.237 0.169 0.385 0.195l0.004 0.001c0.084 0.027 0.15 0.091 0.179 0.172l0.001 0.002c0.002 0.014 0.003 0.029 0.003 0.045 0 0.073-0.025 0.14-0.066 0.194l0.001-0.001-0.009 0.011c-0.093 0.089-0.162 0.202-0.197 0.33l-0.001 0.005-0.004 0.022 0.022-0.006c0.864-0.243 0.925-0.611 0.927-0.628 0.011-0.144 0.216-0.214 0.239-0.222l-0.004-0.013 0.007 0.013-0-0.001 0.001 0.001z"></path>
<path fill="#000" d="M25.646 24.863l-0.003 0.001 0.005 0.008 0.001 0.004-0.006-0.012c-0.062 0.030-0.134 0.049-0.21 0.052l-0.001 0c-0.004 0-0.008 0-0.012 0-0.053 0-0.101-0.025-0.132-0.064l-0-0c-0.084-0.059-0.189-0.095-0.302-0.095-0.018 0-0.035 0.001-0.052 0.003l0.002-0c-0.28 0.013-0.54 0.082-0.775 0.196l0.012-0.005-0.021 0.009 0.017 0.015c0.115 0.084 0.257 0.136 0.411 0.141l0.001 0c0.089 0.015 0.162 0.070 0.202 0.146l0.001 0.002c0.008 0.026 0.012 0.057 0.012 0.088 0 0.058-0.015 0.112-0.042 0.158l0.001-0.002-0.005 0.009c-0.080 0.1-0.135 0.224-0.152 0.359l-0 0.004-0.001 0.022 0.021-0.009c0.822-0.36 0.832-0.733 0.832-0.75-0.009-0.144 0.185-0.242 0.207-0.253l-0.006-0.012 0.008 0.012-0.001-0.001 0.001 0.001z"></path>
<path fill="#000" d="M26.675 24.268l-0.002 0.001 0.006 0.007 0.002 0.004-0.007-0.012c-0.067 0.045-0.149 0.076-0.236 0.084l-0.002 0c-0.002 0-0.004 0-0.006 0-0.043 0-0.082-0.018-0.11-0.046v0c-0.060-0.034-0.132-0.053-0.208-0.053-0.010 0-0.021 0-0.031 0.001l0.001-0c-0.162 0-0.441 0.052-0.854 0.303l-0.019 0.012 0.019 0.012c0.098 0.054 0.214 0.085 0.337 0.085 0.014 0 0.028-0 0.041-0.001l-0.002 0 0.051-0.001c0.091 0.002 0.171 0.048 0.22 0.117l0.001 0.001c0.017 0.038 0.028 0.082 0.028 0.129 0 0.042-0.008 0.083-0.023 0.119l0.001-0.002-0.003 0.009c-0.064 0.105-0.101 0.232-0.101 0.368 0 0.004 0 0.009 0 0.013v-0.001l0.003 0.022 0.019-0.012c0.765-0.471 0.723-0.841 0.721-0.858-0.028-0.141 0.149-0.265 0.17-0.279l-0.008-0.012 0.010 0.010-0.001-0.001 0.001 0.001z"></path>
<path fill="#000" d="M27.613 23.536l-0.002 0.002v0c-0.068 0.061-0.154 0.104-0.25 0.117l-0.003 0c-0.001 0-0.002 0-0.002 0-0.035 0-0.066-0.012-0.091-0.032l0 0c-0.039-0.016-0.085-0.026-0.133-0.026-0.006 0-0.011 0-0.017 0l0.001-0c-0.171 0-0.466 0.074-0.896 0.425l-0.017 0.014 0.020 0.010c0.064 0.026 0.139 0.041 0.218 0.041 0.009 0 0.018-0 0.026-0.001l-0.001 0c0.068-0 0.135-0.007 0.199-0.020l-0.006 0.001h0.008c0.008-0.001 0.017-0.001 0.027-0.001 0.080 0 0.151 0.034 0.201 0.089l0 0c0.030 0.047 0.047 0.105 0.047 0.167 0 0.027-0.003 0.053-0.010 0.078l0-0.002-0.002 0.010c-0.035 0.082-0.056 0.178-0.056 0.279 0 0.040 0.003 0.078 0.009 0.116l-0.001-0.004 0.006 0.022 0.018-0.014c0.693-0.572 0.599-0.933 0.595-0.949-0.048-0.136 0.111-0.284 0.129-0.3l-0.009-0.010 0.011 0.009-0.001-0.001 0.001 0.001z"></path>
<path fill="#000" d="M28.44 22.683l-0.002 0.002c-0.064 0.078-0.153 0.133-0.254 0.152l-0.003 0c-0 0-0 0-0 0-0.027 0-0.052-0.007-0.074-0.020l0.001 0c-0.022-0.006-0.047-0.010-0.074-0.010-0.003 0-0.006 0-0.008 0h0c-0.145 0-0.455 0.072-0.899 0.55l-0.015 0.017 0.021 0.007c0.036 0.010 0.078 0.015 0.122 0.015 0.004 0 0.008-0 0.012-0h-0.001c0.108-0.002 0.212-0.021 0.308-0.055l-0.007 0.002c0.021-0.006 0.045-0.009 0.071-0.009 0.071 0 0.136 0.028 0.184 0.073l-0-0c0.040 0.053 0.064 0.121 0.064 0.194 0 0.011-0.001 0.022-0.002 0.033l0-0.001-0.002 0.016c-0.014 0.054-0.023 0.116-0.023 0.179 0 0.074 0.011 0.146 0.032 0.213l-0.001-0.005 0.009 0.021 0.015-0.016c0.607-0.662 0.465-1.007 0.459-1.022-0.066-0.128 0.071-0.296 0.087-0.315l-0.010-0.009 0.012 0.007-0.001-0.001 0.001 0.001z"></path>
<path fill="#000" d="M29.142 21.722l-0.001 0.002c-0.013 0.020-0.127 0.189-0.254 0.189l-0.055-0.011-0.032-0.002c-0.093 0-0.429 0.048-0.865 0.672l-0.013 0.019 0.022 0.004c0.013 0.002 0.028 0.003 0.044 0.003 0.002 0 0.004-0 0.006-0h-0c0.138-0.005 0.267-0.041 0.38-0.103l-0.005 0.002c0.036-0.012 0.077-0.019 0.119-0.020h0c0.224 0 0.233 0.251 0.233 0.262l0 0.013c-0.003 0.025-0.005 0.054-0.005 0.084 0 0.11 0.025 0.214 0.068 0.307l-0.002-0.004 0.012 0.019 0.012-0.019c0.51-0.739 0.322-1.061 0.313-1.075-0.083-0.118 0.029-0.302 0.043-0.324h0l-0.012-0.007 0.013 0.005-0.001-0.001 0.002 0.001z"></path>
<path fill="#000" d="M29.73 20.689l-0.013-0.006 0.014 0.004-0.001-0.001 0.001 0-0.026-0.012-0.001 0.003c-0.011 0.023-0.108 0.223-0.244 0.223l-0.037-0.005h-0.004c-0.040 0-0.402 0.022-0.792 0.787l-0.008 0.021h0.023c0.154-0.012 0.293-0.069 0.406-0.156l-0.002 0.001c0.045-0.023 0.097-0.037 0.153-0.039l0.001-0c0.19 0 0.228 0.22 0.23 0.23l0.003 0.016c0.004 0.138 0.046 0.266 0.116 0.373l-0.002-0.003 0.014 0.018 0.010-0.020c0.403-0.803 0.172-1.096 0.162-1.108-0.099-0.106-0.013-0.305-0.002-0.327z"></path>
<path fill="#000" d="M30.134 19.619v-0l-0.013-0.004 0.014 0.002-0.001-0h0.001l-0.027-0.008-0.001 0.003c-0.009 0.027-0.085 0.255-0.231 0.255l-0.019-0.001c-0.016 0.001-0.387 0.038-0.685 0.885l-0.007 0.021 0.022-0.002c0.151-0.031 0.282-0.105 0.383-0.207l0-0c0.050-0.035 0.11-0.057 0.176-0.061l0.001-0c0.166 0 0.228 0.198 0.228 0.2l0.003 0.009c0.022 0.138 0.079 0.26 0.164 0.36l-0.001-0.001 0.016 0.016 0.007-0.021c0.293-0.849 0.026-1.109 0.014-1.12-0.111-0.091-0.053-0.299-0.046-0.323z"></path>
<path fill="#000" d="M30.482 18.819c-0.123-0.076-0.092-0.29-0.088-0.314l-0.014-0.002 0.011-0 0.003 0-0.001-0h0.001l-0.028-0.005-0 0.003h-0c-0.005 0.029-0.054 0.281-0.214 0.284-0.015 0.003-0.378 0.089-0.562 0.968l-0.005 0.022 0.022-0.005c0.144-0.050 0.264-0.139 0.351-0.254l0.001-0.002c0.051-0.049 0.119-0.080 0.194-0.085l0.001-0c0.147 0 0.225 0.168 0.226 0.169l0.004 0.009c0.039 0.133 0.112 0.246 0.208 0.333l0.001 0.001 0.018 0.013 0.004-0.022c0.179-0.88-0.121-1.103-0.134-1.112zM19.413 25.387s1.294 0.738 1.386 0.276c0.089-0.446-1.386-0.276-1.386-0.276zM30.477 16.686c-0.241 0-0.437 0.196-0.437 0.437s0.196 0.437 0.437 0.437c0.241 0 0.437-0.196 0.437-0.437v0c0-0 0-0 0-0 0-0.241-0.196-0.437-0.437-0.437-0 0-0 0-0 0v0z"></path>
<path fill="#b79257" d="M26.849 11.098c0.048-0.17 0.107-0.317 0.178-0.456l-0.006 0.014c0.027-0.043 0.047-0.093 0.056-0.147l0-0.002-0.001-0.007-0.006-0.004-0.038-0.007c-0.224 0-1.172 0.264-2.089 1.073-0.436 0.394-0.771 0.89-0.969 1.451l-0.008 0.025-0.025 0.062c-0.308 0.758-0.586 1.666-0.786 2.603l-0.020 0.111c-0.045-0.215-0.122-0.405-0.227-0.577l0.005 0.008c-0.105-0.143-0.271-0.235-0.459-0.238h-0c-0.040 0-0.080 0.004-0.118 0.010l0.004-0.001c-0.245 0.055-0.439 0.231-0.519 0.461l-0.002 0.005-0.003 0.007c-0.070 0.16-0.111 0.347-0.111 0.544 0 0.018 0 0.035 0.001 0.053l-0-0.003c0.003 0.154 0.044 0.298 0.113 0.425l-0.002-0.005c0.197 0.347 0.564 0.577 0.985 0.577 0.018 0 0.037-0 0.055-0.001l-0.003 0c0.065-0 0.13-0.004 0.193-0.010l-0.008 0.001c0.21-0.027 0.397-0.103 0.557-0.216l-0.004 0.003c0.42-0.281 0.76-0.641 1.12-1.023 0.204-0.216 0.415-0.44 0.642-0.647 0.238-0.226 0.5-0.431 0.782-0.609l0.021-0.012c0.214-0.13 0.462-0.234 0.725-0.301l0.019-0.004 0.039-0.021-0.008-0.049-0.009-0.022c-0.090-0.243-0.163-0.529-0.207-0.825l-0.003-0.024c-0.042-0.24-0.065-0.516-0.065-0.797 0-0.087 0.002-0.174 0.007-0.26l-0 0.012c0.031-0.432 0.1-0.833 0.205-1.219l-0.010 0.045zM19.889 23.855c0.272-0.124 0.553-0.252 0.849-0.378 0.473-0.214 1.045-0.419 1.634-0.58l0.084-0.020c0.585-0.181 1.259-0.292 1.957-0.305l0.007-0h0.013c0.248 0.002 0.489 0.032 0.72 0.086l-0.022-0.004c-0.269-0.799-1.209-1.074-1.565-1.178-0.379-0.1-0.847-0.189-1.324-0.248l-0.054-0.005-0.037-0.003 0.030-0.022c0.073-0.056 0.136-0.12 0.189-0.192l0.002-0.003 0.047-0.059 0.005-0.006 0.008 0.001c0.504 0.060 0.958 0.158 1.395 0.293l-0.055-0.015c0.409 0.122 0.766 0.302 1.083 0.534l-0.010-0.007c0.17 0.132 0.312 0.289 0.425 0.467l0.004 0.007c0.167 0.256 0.225 0.655 0.224 0.92v0.026l-0.021-0.014c-0.173-0.12-0.379-0.205-0.602-0.241l-0.009-0.001c-0.138-0.020-0.297-0.031-0.459-0.031-0.003 0-0.007 0-0.010 0h0.001c-0.5 0.009-0.981 0.077-1.44 0.198l0.042-0.009c-0.599 0.144-1.095 0.298-1.578 0.48l0.091-0.030c-0.568 0.207-1.014 0.404-1.631 0.68-0.096 0.043-0.19 0.086-0.281 0.128-0.301 0.138-0.587 0.269-0.902 0.378 0.010-0.114 0.021-0.23 0.035-0.346 0.411-0.164 0.789-0.336 1.156-0.503zM14.691 25.515c-0.029 0.001-0.064 0.001-0.099 0.001-0.824 0-1.608-0.172-2.319-0.481l0.037 0.015-0.056-0.023c-0.576-0.275-1.071-0.614-1.506-1.017l0.004 0.003c-0.42-0.426-0.786-0.907-1.087-1.431l-0.018-0.034-0.016-0.035 0.035 0.017c0.319 0.152 1.3 0.357 1.876 0.39 0.219 0.013 0.391 0.019 0.543 0.019 0.204-0 0.404-0.012 0.602-0.034l-0.024 0.002c0.013 0.015 0.026 0.030 0.039 0.045 0.080 0.091 0.155 0.175 0.226 0.254-0.198 0.019-0.428 0.031-0.73 0.038l-0.052 0.001c-0.375 0-1.439-0.079-1.753-0.158 0.601 0.779 1.141 1.309 2.087 1.702 0.309 0.133 0.671 0.241 1.048 0.309l0.031 0.005c0.361 0.060 0.776 0.095 1.2 0.095 0.034 0 0.069-0 0.103-0.001l-0.005 0c0.072 0 0.147-0.001 0.226-0.002 0.129 0.099 0.251 0.193 0.361 0.282-0.225 0.024-0.486 0.038-0.75 0.039h-0.001zM10.184 18.717q-0.101 0.004-0.222 0.004c-0.796-0.011-1.567-0.085-2.318-0.216l0.087 0.013c-0.689-0.115-1.185-0.237-1.442-0.354 0.017 0.027 0.037 0.059 0.060 0.096 0.234 0.38 0.782 1.27 1.492 1.856 0.623 0.515 1.395 1.080 2.41 1.37 0.441 0.131 0.954 0.222 1.483 0.253l0.019 0.001c0.071 0.101 0.143 0.201 0.217 0.3-0.022 0-0.044 0.001-0.065 0.001-0.018 0-0.039 0-0.061 0-1.066 0-2.065-0.282-2.929-0.775l0.029 0.015c-0.375-0.204-0.699-0.423-0.998-0.669l0.011 0.009c-0.297-0.243-0.564-0.494-0.812-0.762l-0.005-0.005c-0.563-0.641-1.062-1.363-1.471-2.139l-0.029-0.061-0.019-0.036 0.037 0.016c0.178 0.078 0.405 0.16 0.637 0.229l0.046 0.012c0.462 0.149 1.022 0.28 1.596 0.368l0.063 0.008c0.571 0.096 1.228 0.151 1.898 0.151h0c0.059 0 0.119-0.001 0.18-0.001 0.034 0.105 0.070 0.211 0.107 0.316zM7.435 13.409l-0.022-0.002c-1.361-0.163-2.584-0.423-3.765-0.782l0.153 0.040c-0.621-0.186-1.21-0.391-1.752-0.608l-0.021-0.009c0.219 0.47 0.437 0.863 0.679 1.239l-0.025-0.041c0.622 1.001 1.404 1.84 2.319 2.508l0.025 0.017c0.81 0.559 1.76 0.985 2.782 1.219l0.055 0.011 0-0.005h0.013l0.006 0.001 0.047 0.010c0.492 0.103 1.066 0.171 1.652 0.188l0.014 0c0.057 0 0.112-0.001 0.165-0.004 0.007 0.038 0.014 0.076 0.021 0.111 0.013 0.066 0.028 0.134 0.043 0.202-0.009 0-0.018 0-0.027 0-0.498-0.012-0.973-0.051-1.44-0.114l0.067 0.007c-0.521-0.073-1.524-0.256-2.382-0.672-1.464-0.708-2.636-1.771-3.583-3.25-0.357-0.553-0.692-1.191-0.97-1.859l-0.030-0.081-0.015-0.037-0.002-0.001-0.001-0.006-0.017-0.032 0.032 0.015h0.007l0.002 0.004c0.223 0.108 0.579 0.258 0.939 0.397l0.138 0.047c0.404 0.152 2.286 0.781 3.425 0.963 0.981 0.176 2.121 0.285 3.283 0.302l0.016 0c0.172 0 0.34-0.004 0.499-0.011-0.016 0.099-0.031 0.197-0.044 0.293-0.223 0.027-0.482 0.042-0.744 0.042-0.008 0-0.017-0-0.025-0h0.001c-0.546-0.009-1.073-0.046-1.592-0.11l0.071 0.007z"></path>
</svg>
